<?xml version="1.0" standalone="no"?>
<!DOCTYPE svg PUBLIC "-//W3C//DTD SVG 1.1//EN" "http://www.w3.org/Graphics/SVG/1.1/DTD/svg11.dtd" >
<svg xmlns="http://www.w3.org/2000/svg" xmlns:xlink="http://www.w3.org/1999/xlink" version="1.1">
<metadata>
Created by FontForge 20201107 at Sun Aug 28 15:53:08 2022
 By 
Copyright (c) 2021 by www.fontiran.com (Moslem Ebrahimi). All rights reserved.
</metadata>
<defs>
<font id="IRANYekanX-Bold" horiz-adv-x="0" >
  <font-face 
    font-family="IRANYekanX Bold"
    font-weight="700"
    font-stretch="normal"
    units-per-em="1000"
    panose-1="0 0 0 0 0 0 0 0 0 0"
    ascent="800"
    descent="-200"
    x-height="528"
    cap-height="711"
    bbox="-84 -508 2294 1061"
    underline-thickness="32"
    underline-position="-229"
    unicode-range="U+000D-FEFF"
  />
<missing-glyph horiz-adv-x="255" 
d="M38 429h179v-433h-179v433zM208 4v417h-161v-417h161z" />
    <glyph glyph-name="uni06AA" unicode="&#x6a9;&#x621;&#x621;" horiz-adv-x="1243" 
d="M136 27.5q-46 27.5 -70.5 73.5t-24.5 100q0 24 4 44q5 28 13 67t15 68l117 -29l-7 -32q-20 -78 -20 -108q0 -31 21 -49t60 -18l783 1q22 0 35 12.5t13 34.5v22q0 20 -13 32.5t-35 12.5h-622l-78 115l201 286l104 -83l-121 -174h514q49 0 89.5 -25t64.5 -67.5t24 -92.5
v-30q0 -50 -23.5 -93t-64.5 -68.5t-90 -25.5l-781 -1q-62 0 -108 27.5z" />
    <glyph glyph-name="uni06BE" unicode="&#x647;&#x621;&#x621;" horiz-adv-x="760" 
d="M512 553l160 -241q38 -58 38 -126q0 -62 -32 -105q-63 -86 -221 -86q-93 0 -183 31q-84 -26 -180 -26h-50v144h56h4q-40 56 -40 121q0 61 28.5 113.5t78 83.5t109.5 31q58 0 106.5 -31t77 -83t28.5 -113q0 -71 -43 -128h4q92 0 115 28q10 10 10 27q0 21 -17 48l-155 233z
M213.5 209.5q22.5 -24.5 61.5 -41.5q44 16 67 40t23 55q0 41 -24.5 67t-61.5 26q-38 0 -63 -26.5t-25 -66.5q0 -29 22.5 -53.5z" />
    <glyph glyph-name="uni06C0" unicode="&#x647;&#x654;" horiz-adv-x="544" 
d="M305 507q74 -81 110.5 -125t57.5 -88.5t21 -92.5q0 -57 -30 -105.5t-80.5 -76.5t-110.5 -28q-61 0 -112 28t-81 76.5t-30 105.5q0 69 34.5 124.5t102.5 127.5l-34 37l89 86q33 -37 63 -69zM168 708l63 -15q16 -4 30 -4q43 0 47 44l-115 32q-8 26 -8 49q0 37 17 69.5
t46 52t64 20.5q32 0 54 -7l-14 -65q-18 4 -40 4q-31 -1 -53 -22.5t-20 -44.5l77 -22q44 -12 44 -62q0 -46 -30 -78.5t-79 -32.5q-18 0 -34 4l-66 15zM202 155q25 -24 71 -24q45 0 69.5 24t24.5 58q0 24 -20.5 54.5t-74.5 92.5q-53 -56 -74 -86t-21 -61q0 -34 25 -58z" />
    <glyph glyph-name="uni06D2" unicode="&#x649;&#x621;&#x621;" horiz-adv-x="906" 
d="M76 0q-26 62 -26 132q0 76 31 141.5t88 105t131 39.5q18 0 27 -1l72 -7l-20 -143l-65 6q-6 1 -19 1q-57 0 -88 -35.5t-29 -94.5h678v-144h-780z" />
    <glyph glyph-name="uni06D3" unicode="&#x626;&#x621;&#x621;" horiz-adv-x="906" 
d="M76 0q-26 62 -26 132q0 76 31 141.5t88 105t131 39.5q18 0 27 -1l72 -7l-20 -143l-65 6q-6 1 -19 1q-57 0 -88 -35.5t-29 -94.5h678v-144h-780zM208 539q-35 30 -35 80q0 43 30 73.5t73 32.5q24 0 70 -11l-11 -62q-37 7 -54 7q-24 0 -39.5 -13t-15.5 -32q0 -20 18 -33.5
t46 -13.5q5 0 19 2l69 20l5 -67l-220 -64l-4 67z" />
    <glyph glyph-name="uni06C0.fina" unicode="&#xfeea;&#x654;" horiz-adv-x="633" arabic-form="final" 
d="M429 478l60 -247q11 -49 44 -68t85 -19h20l8 -70l-8 -74h-20q-64 0 -122.5 27t-95.5 85q-29 -35 -66.5 -53.5t-78.5 -18.5q-51 0 -100 28q-51 27 -78 78.5t-27 108.5q0 60 28 106q16 29 35.5 48.5t60 42.5t116.5 56l-13 55l124 32zM96 661l63 -15q16 -4 32 -4q42 0 45 44
l-115 32q-8 21 -8 49q0 37 17 69t46 52t64 21q32 0 54 -7l-15 -65q-16 4 -39 4q-32 -1 -53.5 -22t-19.5 -45l77 -23q44 -12 44 -62q0 -46 -30.5 -78.5t-79.5 -32.5q-9 0 -33 4l-66 15zM177 251q0 -17 8.5 -33.5t24.5 -26.5q19 -13 44 -13q18 0 35.5 8t31.5 23q22 23 22 62
q0 7 -2 25l-18 74q-68 -28 -96 -46t-39 -37q-11 -16 -11 -36z" />
    <glyph glyph-name="uni06C1.fina" unicode="&#xfeea;&#x621;&#x621;" horiz-adv-x="595" arabic-form="final" 
d="M499.5 162.5q31.5 -18.5 84.5 -18.5h16l8 -70l-8 -74h-16q-87 0 -157 48.5t-95 149.5l-23 90l-52 -17q-40 -13 -61.5 -37.5t-21.5 -59.5q0 -18 6 -39l20 -65l-119 -42l-18 56q-14 45 -14 85q0 81 49 145t134 90l110 34l74 -44l40 -162q12 -51 43.5 -69.5z" />
    <glyph glyph-name="uni06C1.medi" unicode="&#xfeec;&#xfe8c;&#xfe8c;&#xfe8c;&#xfe8c;" horiz-adv-x="465" arabic-form="medial" 
d="M204 222v-180q47 48 109 75t133 27h24l8 -70l-8 -74h-24q-71 0 -126 -30t-85.5 -83.5t-30.5 -120.5v-18h-128v268q-34 -16 -67 -16h-14v144h17q27 0 45.5 20.5t18.5 53.5v4h128z" />
    <glyph glyph-name="uni06BE.fina" unicode="&#xfeea;&#x621;&#x621;&#x621;&#x621;" horiz-adv-x="601" arabic-form="final" 
d="M54 124l74 8v83q0 79 26.5 136.5t75.5 88t114 30.5q59 0 105.5 -29t72.5 -76.5t26 -101.5q0 -43 -17.5 -76t-50.5 -43h126l8 -70l-8 -74h-126q29 -7 45.5 -38t18.5 -69l1 -17q0 -53 -25 -99.5t-71 -74.5t-105 -28q-65 0 -114 30.5t-75.5 88t-26.5 136.5v71h-88zM344 -190
q37 0 62 21.5t25 60.5q0 12 -3 26q-7 36 -42.5 59t-93.5 23h-36v-71q0 -119 88 -119zM292 144q59 0 94 23t42 59q3 14 3 26q0 39 -25 60.5t-62 21.5q-88 0 -88 -119v-71h36z" />
    <glyph glyph-name="uni06BE.medi" unicode="&#xfeec;&#xfe8c;&#xfe8c;&#xfe8c;" horiz-adv-x="797" arabic-form="medial" 
d="M541 553l160 -241q37 -56 37 -124q0 -24 -4 -43l68 -1l8 -70l-8 -74q-112 0 -188 17q-65 -22 -174 -22q-94 0 -184 31q-84 -26 -180 -26h-81v144h87h4q-40 56 -40 121q0 61 28.5 113.5t78 83.5t109.5 31q58 0 107 -31t77 -83t28 -113q0 -71 -43 -128h4q78 0 114 7t48 21
q10 12 10 27q0 22 -18 48l-155 233zM195.5 209.5q22.5 -24.5 61.5 -41.5q44 16 67 40t23 55q0 41 -24 67t-61 26q-39 0 -64 -26t-25 -67q0 -29 22.5 -53.5z" />
    <glyph glyph-name="uni06D2.fina" unicode="&#xfbfd;&#x621;&#x621;" horiz-adv-x="424" arabic-form="final" 
d="M78 -285q-28 69 -28 138q0 79 35 145.5t99 106t147 39.5h98l8 -70l-8 -74h-98q-76 0 -116 -37t-37 -104h500v-144h-600z" />
    <glyph glyph-name="uni06D3.fina" unicode="&#xfe8a;&#x621;&#x621;" horiz-adv-x="424" arabic-form="final" 
d="M78 -285q-28 69 -28 138q0 79 35 145.5t99 106t147 39.5h98l8 -70l-8 -74h-98q-76 0 -116 -37t-37 -104h500v-144h-600zM146 252q-36 31 -36 81q0 45 32.5 75t77.5 30q21 0 64 -10l-11 -63q-37 8 -54 8q-24 0 -39.5 -13t-16.5 -31q0 -20 19 -34t49 -14q11 0 17 1l68 20
l4 -66l-219 -64l-4 66z" />
    <glyph glyph-name="uni06440622" unicode="&#xfedf;&#xfe82;" horiz-adv-x="589" arabic-form="isolated" 
d="M70 144h277q65 0 65 64v460h127v-473q0 -66 -29 -110t-72 -64.5t-84 -20.5h-284v144zM28.5 745.5q39.5 31.5 111.5 31.5h205v-101h-205q-35 0 -53 -14.5t-30 -42.5l-89 29q21 66 60.5 97.5zM211 613l28 -397l-127 -9l-28 397z" />
    <glyph glyph-name="uni06440622.fina" unicode="&#xfee0;&#xfe82;" horiz-adv-x="624" arabic-form="final" 
d="M543.5 12q-31.5 12 -55.5 36q-27 -24 -60.5 -36t-64.5 -12h-284v144h277q65 0 65 64v460h127v-473q0 -27 14.5 -39t43.5 -12h23v-144h-23q-31 0 -62.5 12zM28.5 745.5q39.5 31.5 111.5 31.5h205v-101h-205q-35 0 -53 -14.5t-30 -42.5l-89 29q21 66 60.5 97.5zM221 613
l28 -397l-128 -9l-28 397z" />
    <glyph glyph-name="uni06440623" unicode="&#xfedf;&#xfe84;" horiz-adv-x="569" arabic-form="isolated" 
d="M50 144h277q65 0 65 64v460h127v-473q0 -66 -29 -110t-72 -64.5t-84 -20.5h-284v144zM73 703q-35 30 -35 80q0 43 30 73.5t73 32.5q24 0 70 -11l-11 -62q-37 7 -54 7q-23 0 -39 -12.5t-16 -31.5q0 -21 18 -34.5t47 -13.5q6 0 20 2l68 20l4 -67l-220 -64l-4 67zM192 613
l28 -397l-128 -9l-28 397z" />
    <glyph glyph-name="uni06440623.fina" unicode="&#xfee0;&#xfe84;" horiz-adv-x="595" arabic-form="final" 
d="M514.5 12q-31.5 12 -55.5 36q-27 -24 -60.5 -36t-64.5 -12h-284v144h277q65 0 65 64v460h127v-473q0 -27 14.5 -39t43.5 -12h23v-144h-23q-31 0 -62.5 12zM73 703q-35 30 -35 80q0 43 30 73.5t73 32.5q24 0 70 -11l-11 -62q-37 7 -54 7q-23 0 -39 -12.5t-16 -31.5
q0 -21 18 -34.5t47 -13.5q6 0 20 2l68 20l4 -67l-220 -64l-4 67zM192 613l28 -397l-128 -9l-28 397z" />
    <glyph glyph-name="uni06440625" unicode="&#xfedf;&#xfe88;" horiz-adv-x="569" arabic-form="isolated" 
d="M50 144h277q65 0 65 64v460h127v-473q0 -66 -29 -110t-72 -64.5t-84 -20.5h-284v144zM107 -209q-36 31 -36 81q0 45 32.5 75t77.5 30q21 0 64 -10l-11 -63q-38 8 -55 8q-23 0 -39 -13t-16 -31q0 -20 19 -34t49 -14q11 0 17 1l68 20l4 -66l-219 -64l-4 66zM191 657
l29 -441l-128 -9l-28 441z" />
    <glyph glyph-name="uni06440625.fina" unicode="&#xfee0;&#xfe88;" horiz-adv-x="595" arabic-form="final" 
d="M514.5 12q-31.5 12 -55.5 36q-27 -24 -60.5 -36t-64.5 -12h-284v144h277q65 0 65 64v460h127v-473q0 -27 14.5 -39t43.5 -12h23l8 -70l-8 -74h-23q-31 0 -62.5 12zM107 -209q-36 31 -36 81q0 45 32.5 75t77.5 30q21 0 64 -10l-11 -63q-38 8 -55 8q-23 0 -39 -13t-16 -31
q0 -20 19 -34t49 -14q11 0 17 1l68 20l4 -66l-219 -64l-4 66zM191 657l29 -441l-128 -9l-28 441z" />
    <glyph glyph-name="uni06440627" unicode="&#xfedf;&#xfe8e;" horiz-adv-x="569" arabic-form="isolated" 
d="M50 144h277q65 0 65 64v460h127v-473q0 -66 -29 -110t-72 -64.5t-84 -20.5h-284v144zM191 657l29 -441l-128 -9l-28 441z" />
    <glyph glyph-name="uni06440627.fina" unicode="&#xfee0;&#xfe8e;" horiz-adv-x="595" arabic-form="final" 
d="M514.5 12q-31.5 12 -55.5 36q-27 -24 -60.5 -36t-64.5 -12h-284v144h277q65 0 65 64v460h127v-473q0 -27 14.5 -39t43.5 -12h23l8 -70l-8 -74h-23q-31 0 -62.5 12zM191 657l29 -441l-128 -9l-28 441z" />
    <glyph glyph-name="uni06AA.001" unicode="&#x6af;&#x621;&#x621;" horiz-adv-x="1243" 
d="M136 27.5q-46 27.5 -70.5 73.5t-24.5 100q0 24 4 44q5 28 13 67t15 68l117 -29l-7 -32q-20 -78 -20 -108q0 -31 21 -49t60 -18l783 1q22 0 35 12.5t13 34.5v22q0 20 -13 32.5t-35 12.5h-622l-78 115l201 286l104 -83l-121 -174h514q49 0 89.5 -25t64.5 -67.5t24 -92.5
v-30q0 -50 -23.5 -93t-64.5 -68.5t-90 -25.5l-781 -1q-62 0 -108 27.5zM283 465l158 222l40 -32l-173 -244z" />
    <glyph glyph-name="uni06AA.fina" unicode="&#xfb8f;&#x621;&#x621;" horiz-adv-x="1256" 
d="M136 27.5q-46 27.5 -70.5 73.5t-24.5 100q0 24 4 44q5 28 13 67t15 68l117 -29l-7 -32q-20 -78 -20 -108q0 -31 21 -49t60 -18l783 1q22 0 35 12.5t13 34.5v22q0 20 -13 32.5t-35 12.5h-622l-78 115l201 286l104 -83l-121 -174h514q49 0 89.5 -25t64.5 -67.5t24 -92.5
v-30q0 -10 -2 -28q16 -16 50 -16h10l8 -70l-8 -74h-10q-73 0 -112 44q-49 -43 -114 -43l-781 -1q-62 0 -108 27.5z" />
    <glyph glyph-name="uni06AA.fina.001" unicode="&#xfb93;&#x621;&#x621;" horiz-adv-x="1256" 
d="M136 27.5q-46 27.5 -70.5 73.5t-24.5 100q0 24 4 44q5 28 13 67t15 68l117 -29l-7 -32q-20 -78 -20 -108q0 -31 21 -49t60 -18l783 1q22 0 35 12.5t13 34.5v22q0 20 -13 32.5t-35 12.5h-622l-78 115l201 286l104 -83l-121 -174h514q49 0 89.5 -25t64.5 -67.5t24 -92.5
v-30q0 -10 -2 -28q16 -16 50 -16h10l8 -70l-8 -74h-10q-73 0 -112 44q-49 -43 -114 -43l-781 -1q-62 0 -108 27.5zM283 465l158 222l40 -32l-173 -244z" />
    <glyph glyph-name="uni06AA.medi" unicode="&#xfb91;&#xfe8c;&#xfe8c;" horiz-adv-x="1018" 
d="M788 145q22 0 35 12.5t13 34.5v22q0 20 -13 32.5t-35 12.5h-623l-77 115l200 286l105 -83l-122 -174h515q49 0 89.5 -25t64 -67.5t23.5 -92.5v-30q0 -10 -2 -26q15 -18 52 -18h10l8 -70l-8 -74h-10q-71 0 -113 45q-51 -44 -114 -44l-791 -1v144z" />
    <glyph glyph-name="uni06AA.medi.001" unicode="&#xfb95;&#xfe8c;&#xfe8c;" horiz-adv-x="1018" 
d="M788 145q22 0 35 12.5t13 34.5v22q0 20 -13 32.5t-35 12.5h-623l-77 115l200 286l105 -83l-122 -174h515q49 0 89.5 -25t64 -67.5t23.5 -92.5v-30q0 -10 -2 -26q15 -18 52 -18h10l8 -70l-8 -74h-10q-71 0 -113 45q-51 -44 -114 -44l-791 -1v144zM38 470l158 222l40 -32
l-173 -244z" />
    <glyph glyph-name="uni06AA.init" unicode="&#xfb90;&#xfe8c;&#xfe8c;" horiz-adv-x="1003" 
d="M788 145q22 0 35 12.5t13 34.5v22q0 20 -13 32.5t-35 12.5h-623l-77 115l200 286l105 -83l-122 -174h515q49 0 89.5 -25t64 -67.5t23.5 -92.5v-30q0 -50 -23.5 -93t-64 -68.5t-89.5 -25.5l-791 -1v144z" />
    <glyph glyph-name="uni06AA.init.001" unicode="&#xfb94;&#xfe8c;&#xfe8c;" horiz-adv-x="1003" 
d="M788 145q22 0 35 12.5t13 34.5v22q0 20 -13 32.5t-35 12.5h-623l-77 115l200 286l105 -83l-122 -174h515q49 0 89.5 -25t64 -67.5t23.5 -92.5v-30q0 -50 -23.5 -93t-64 -68.5t-89.5 -25.5l-791 -1v144zM41 465l158 222l40 -32l-173 -244z" />
    <glyph glyph-name="uni0647.fina.alt" unicode="&#xfeea;&#x621;&#x621;&#x621;" horiz-adv-x="757" 
d="M150 193q0 -15 10 -27q12 -14 48 -21t114 -7h4q-43 57 -43 128q0 61 28.5 113t77 83t106.5 31q60 0 109.5 -31t78 -83.5t28.5 -113.5q0 -65 -40 -121h4h87v-144h-81q-96 0 -180 26q-90 -31 -183 -31q-107 0 -170 20t-97 66q-32 43 -32 106q0 69 38 125l159 241l107 -79
l-155 -233q-18 -30 -18 -48zM433 208q23 -24 67 -40q39 17 61.5 41.5t22.5 53.5q0 40 -25 66.5t-63 26.5q-37 0 -61.5 -26t-24.5 -67q0 -31 23 -55z" />
    <glyph glyph-name="uni0647.medi.alt" unicode="&#xfeec;&#xfe8c;&#xfe8c;" horiz-adv-x="521" 
d="M-5 144h54v71q0 119 58.5 187t156.5 68q61 0 109.5 -32t73.5 -83.5t20 -107.5q-2 -37 -19 -65.5t-48 -37.5h126l8 -70l-8 -74h-126q33 -8 49.5 -45t16.5 -79q0 -53 -25.5 -99.5t-71.5 -74.5t-105 -28q-98 0 -156.5 68t-58.5 187v71h-54v144zM264 -190q38 0 62.5 21
t24.5 60q0 12 -3 27q-6 36 -41.5 59t-94.5 23h-36v-71q0 -119 88 -119zM213 144q59 0 94 23t41 59q3 15 3 27q0 39 -24.5 60t-62.5 21q-88 0 -88 -119v-71h37z" />
    <glyph glyph-name="uni0647.init.alt" unicode="&#xfeeb;&#xfe8c;&#xfe8c;" horiz-adv-x="521" 
d="M-5 144h54v71q0 119 58.5 187t156.5 68q54 0 102 -29.5t76.5 -81t28.5 -113.5q0 -21 -3 -42q-13 -81 -75 -132q62 -51 75 -132q3 -21 3 -42q0 -62 -28.5 -113.5t-76.5 -81t-102 -29.5q-98 0 -156.5 68t-58.5 187v71h-54v144zM264 -190q38 0 62.5 21t24.5 60q0 12 -3 27
q-13 77 -172 82v-71q0 -119 88 -119zM348 226q3 15 3 27q0 39 -24.5 60t-62.5 21q-88 0 -88 -119v-71q159 5 172 82z" />
    <glyph glyph-name="uni06D2.fina.alt2" unicode="&#xfbfd;&#x621;&#x621;&#x621;&#x621;&#x621;" horiz-adv-x="413" 
d="M79 -285q-28 69 -28 138q0 79 35 145.5t99 106t147 39.5h87l8 -70l-8 -74h-87q-76 0 -115.5 -37t-36.5 -104h386v-144h-487z" />
    <glyph glyph-name="uni06D2.fina.alt3" unicode="&#xfbfd;&#x621;&#x621;&#x621;&#x621;" horiz-adv-x="421" 
d="M78 -285q-28 69 -28 138q0 79 35 145.5t99 106t147 39.5h96l8 -70l-8 -74h-96q-76 0 -116 -37t-37 -104h496v-144h-596z" />
    <glyph glyph-name="uni06D2.fina.alt4" unicode="&#xfbfd;&#x621;&#x621;&#x621;" horiz-adv-x="403" 
d="M78 -285q-28 69 -28 138q0 79 35 145.5t99 106t147 39.5h79l8 -70l-8 -74h-79q-76 0 -116 -37t-37 -104h587v-144h-687z" />
    <glyph glyph-name="uni06440671" unicode="&#xfedf;&#xfb51;" horiz-adv-x="569" 
d="M50 144h277q65 0 65 64v460h127v-473q0 -66 -29 -110t-72 -64.5t-84 -20.5h-284v144zM52 795l31 -40l27 40q24 34 46 51t53 17q42 0 67 -32t25 -76q0 -47 -27.5 -75t-68.5 -28h-47q-39 0 -60.5 8.5t-37 26t-53.5 68.5zM192 613l28 -397l-128 -9l-28 397zM158 719h47
q22 0 31 7.5t9 28.5q0 22 -8 32.5t-28 10.5q-16 0 -26 -8.5t-28 -33.5l-23 -35q14 -2 26 -2z" />
    <glyph glyph-name="uni06440671.fina" unicode="&#xfee0;&#xfb51;" horiz-adv-x="595" 
d="M514.5 12q-31.5 12 -55.5 36q-27 -24 -60.5 -36t-64.5 -12h-284v144h277q65 0 65 64v460h127v-473q0 -27 14.5 -39t43.5 -12h23v-144h-23q-31 0 -62.5 12zM52 795l31 -40l27 40q24 34 46 51t53 17q42 0 67 -32t25 -76q0 -47 -27.5 -75t-68.5 -28h-47q-39 0 -60.5 8.5
t-37 26t-53.5 68.5zM192 613l28 -397l-128 -9l-28 397zM158 719h47q22 0 31 7.5t9 28.5q0 22 -8 32.5t-28 10.5q-16 0 -26 -8.5t-28 -33.5l-23 -35q14 -2 26 -2z" />
    <glyph glyph-name="uni064406440647" unicode="&#xfedf;&#xfee0;&#x651;&#x670;&#xfeea;" horiz-adv-x="1119" 
d="M79 144.5q-27 51.5 -27 108.5q0 59 27 105q17 29 36.5 48.5t60.5 42.5t117 56l-12 49l124 32q34 -150 72 -306l16 -69q10 -41 37.5 -54t87.5 -13h6q31 0 46 11t15 40v352h126v-352v-5v0q0 -26 14 -36t44 -10h27q66 0 66 64v396h127v-409q0 -66 -29 -110t-72 -64.5
t-84 -20.5h-35q-31 0 -62.5 12t-55.5 36q-27 -24 -60 -36t-64 -12h-16q-62 2 -118 28.5t-91 81.5q-29 -35 -67 -54t-79 -19q-51 0 -100 28q-50 28 -77 79.5zM179 249q0 -18 9 -34.5t24 -26.5q19 -13 43 -13q40 0 68 31q25 28 21 80l-20 82q-67 -27 -95 -46t-40 -37
q-10 -16 -10 -36zM604 736h52v-43q0 -16 9.5 -23t21.5 -7q34 0 34 30v43h52v-43q0 -15 8 -22.5t22 -7.5q16 0 24 7t8 19q0 7 -1.5 16t-4.5 21l-5 20l51 14q2 -10 6 -28t5.5 -28t1.5 -20q0 -35 -19.5 -62t-66.5 -27q-33 0 -56 21q-22 -21 -59 -21q-33 0 -58 24t-25 72v45z
M720 934h52v-153h-52v153z" />
    <glyph glyph-name="uniFDF2" unicode="&#x627;&#xfedf;&#xfee0;&#xfeea;" horiz-adv-x="1372" 
d="M79 144q-27 51 -27 108q0 60 28 106q17 29 36.5 48.5t60 42.5t116.5 56l-12 49l124 32l89 -375q10 -41 37.5 -54t86.5 -13h6q31 0 46 11t15 40v352h127v-352v-5v0q0 -26 14 -36t44 -10h27q65 0 65 64v396h127v-409q0 -66 -29 -110t-72 -64.5t-84 -20.5h-34
q-31 0 -62.5 12t-55.5 36q-27 -24 -60.5 -36t-64.5 -12h-16q-61 2 -117 28.5t-92 81.5q-29 -35 -67 -54t-79 -19q-50 0 -99 28q-51 28 -78 79zM179 248q0 -17 8.5 -33.5t24.5 -26.5q19 -13 43 -13q40 0 68 31q22 25 22 61q0 6 -2 22l-11 47l-7 32q-67 -27 -94.5 -45.5
t-40.5 -37.5q-11 -16 -11 -37zM604 736h52v-43q0 -16 9.5 -23t21.5 -7q34 0 34 30v43h52v-43q0 -15 8 -22.5t22 -7.5q33 0 33 28q0 9 -6 31l-6 24l51 14q1 -7 3 -14t3 -14q4 -14 6 -25.5t2 -22.5q0 -34 -20 -61.5t-67 -27.5q-32 0 -56 21q-22 -21 -59 -21q-33 0 -58 24
t-25 72v45zM721 934h52v-153h-52v153zM1322 668v-668h-126l-1 668h127z" />
    <glyph glyph-name="uniFDFC.001" unicode="&#x631;&#xfbfe;&#xfe8e;&#x644;&#x621;" horiz-adv-x="1484" 
d="M1415 461v-282q0 -144 -75 -224.5t-214 -80.5h-19v144h19q63 0 97.5 14.5t49 49t14.5 97.5v282h128zM54 299.5q14 51.5 34 94.5l115 -62q-36 -77 -36 -133q0 -68 27.5 -101.5t94.5 -33.5h31q64 0 95.5 11t43.5 38t12 80v443q0 168 164 168h31q83 0 122.5 -44t39.5 -123
l1 -313q0 -38 4.5 -53.5t20 -21t52.5 -5.5h39q86 0 81 59q-5 62 -26 166l120 31q12 -53 22.5 -113t10.5 -97q0 -50 -22 -93t-66.5 -70t-109.5 -27h-50q-105 0 -154 60.5t-49 163.5l-1 301q0 18 -8 26.5t-29 8.5h-28q-22 0 -30 -8.5t-8 -26.5l1 -432q0 -126 -67.5 -199.5
t-211.5 -73.5h-31q-79 0 -135.5 39t-85 102.5t-28.5 137.5q0 49 14 100.5zM759 -1h129h5h130v-119h-130h-5h-129v119z" />
    <glyph glyph-name="uniFDFC.002" unicode="&#x631;&#xfbfe;&#xfe8e;&#x644;&#x621;&#x621;" horiz-adv-x="1451" 
d="M1411 555v-253q0 -145 -74.5 -225t-213.5 -80h-19v144h19q63 0 97.5 14.5t49 49t14.5 97.5v253h127zM54 391.5q14 51.5 34 94.5l115 -62q-36 -77 -36 -133q0 -69 27.5 -102t94.5 -33h28q64 0 95.5 11t43.5 38t12 80v313q0 168 164 168h30q83 0 123 -44t40 -123l1 -183
q0 -38 4.5 -54t20 -21.5t52.5 -5.5h39q86 0 81 60q-3 35 -11.5 77.5t-10.5 51.5l120 31l5 -20q12 -52 18 -86t6 -67q0 -50 -22 -93.5t-67 -70.5t-109 -27h-50q-105 0 -154 60.5t-50 164.5v171q0 18 -8 26.5t-29 8.5h-28q-22 0 -30 -8.5t-8 -26.5l1 -302q0 -126 -68 -199.5
t-211 -73.5h-28q-79 0 -135.5 38.5t-85 102.5t-28.5 138q0 49 14 100.5zM737 113h129h6h129v-115h-129h-6h-129v115z" />
    <glyph glyph-name="tomaan" unicode="&#xfe97;&#xfeee;&#xfee3;&#xfe8e;&#x646;&#x621;" horiz-adv-x="2334" 
d="M1895.5 -189q-69.5 -70 -209.5 -70h-120v144h120q60 0 92.5 10.5t45.5 34t13 65.5v5h-84q-96 0 -151.5 55.5t-55.5 155.5q0 71 26.5 126t73 85.5t106.5 30.5q63 0 111.5 -30t75 -85t26.5 -127v-67h121q86 0 81 60q-5 62 -26 166l120 30q12 -53 22.5 -113t10.5 -97
q0 -50 -22 -93t-67 -70t-109 -27h-131v-5q0 -114 -69.5 -184zM61 264.5q21 69.5 50 127.5l106 -57q-52 -109 -52 -201q0 -78 36.5 -117t122.5 -39h86q61 0 93 10.5t45 35t13 70.5v442q0 169 164 169h30q83 0 123 -44.5t40 -122.5v-313q1 -38 5.5 -54t20 -21.5t52.5 -5.5h25
q19 0 29.5 9.5t16.5 31.5l25 96q22 87 74.5 133t124.5 46q58 0 103.5 -31.5t71.5 -87t26 -124.5q0 -82 -27 -135t-67.5 -76.5t-83.5 -23.5q-34 0 -72 13.5t-112 48.5q-23 -21 -51 -32.5t-57 -11.5h-29q-103 1 -152 61.5t-50 163.5v301q0 17 -8 26t-29 9h-28
q-21 0 -29.5 -8.5t-8.5 -26.5v-432q0 -120 -69 -190t-209 -70h-86q-90 0 -154 40t-97 108t-33 152q0 61 21 130.5zM325 515h130v-131h-130v131zM1271.5 131q25.5 -9 46.5 -9q55 0 55 94q0 51 -21.5 78.5t-56.5 27.5q-30 0 -52 -21t-32 -61l-19 -74q54 -26 79.5 -35z
M1688 157.5q20 -19.5 65 -19.5h85v76q0 104 -86 104q-41 0 -62.5 -28t-21.5 -72q0 -41 20 -60.5zM1958 632h123h5h122v-119h-122h-5h-123v119z" />
    <glyph glyph-name="tomaan.001" unicode="&#xfe97;&#xfeee;&#xfee3;&#xfe8e;&#x646;&#x621;&#x621;" horiz-adv-x="2334" 
d="M1941 -47.5q-24 -33.5 -70.5 -53t-149.5 -50.5l-56 -17l-38 134q107 28 158.5 46t51.5 35v5h-84q-96 0 -151.5 55.5t-55.5 155.5q0 71 26.5 126t73 85.5t106.5 30.5q63 0 111.5 -30t75 -85t26.5 -127v-67h121q86 0 81 60q-5 62 -26 166l120 30q12 -53 22.5 -113t10.5 -97
q0 -50 -22 -93t-67 -70t-109 -27h-131v-5q0 -61 -24 -94.5zM61 403.5q21 69.5 50 127.5l106 -56q-52 -109 -52 -202q0 -78 36.5 -116.5t122.5 -38.5h86q61 0 93 10t45 34.5t13 70.5v364q0 169 164 169h30q83 0 123 -44.5t40 -122.5v-333q0 -38 5 -54t20.5 -21.5t52.5 -5.5
h25q19 0 29.5 9.5t16.5 31.5l25 96q22 87 74.5 133t124.5 46q58 0 103.5 -31.5t71.5 -87t26 -124.5q0 -82 -27 -135t-67.5 -76.5t-83.5 -23.5q-34 0 -72 13.5t-112 48.5q-23 -21 -51 -32.5t-57 -11.5h-29q-104 0 -153 61t-49 164v321q0 17 -8 26t-29 9h-28q-21 0 -29.5 -8.5
t-8.5 -26.5v-354q0 -119 -69 -189t-209 -70h-86q-89 0 -153.5 40t-97.5 108t-33 151q0 61 21 130.5zM325 606h130v-131h-130v131zM1271.5 172q25.5 -9 46.5 -9q55 0 55 94q0 51 -22 78t-58 27q-29 0 -50.5 -21t-31.5 -60l-19 -75q54 -25 79.5 -34zM1688 209.5
q20 -19.5 65 -19.5h85v76q0 104 -86 104q-41 0 -62.5 -28t-21.5 -72q0 -41 20 -60.5zM1958 674h123h5h122v-115h-122h-5h-123v115z" />
    <glyph glyph-name="tomaan.002" unicode="&#xfe97;&#xfeee;&#xfee3;&#xfe8e;&#x646;&#x621;&#x621;&#x621;" horiz-adv-x="1879" 
d="M1406.5 430q49.5 -30 76.5 -85t27 -128v-67h120q82 0 82 54q0 44 -27 172l120 30q34 -144 34 -207q0 -51 -22 -95t-67 -71t-110 -27h-131v-4q0 -115 -69.5 -185t-209.5 -70h-119v144h119q61 0 93.5 10.5t45.5 34t13 66.5v4h-67q-55 0 -95.5 8t-89.5 34q-24 -22 -52 -35
t-56 -13h-29q-103 0 -152.5 61t-49.5 164v301q0 17 -8 26t-29 9h-28q-21 0 -29.5 -8.5t-8.5 -26.5v-432q0 -120 -69 -190t-209 -70h-86q-90 0 -154 40t-97 108t-33 152q0 61 21 130.5t50 127.5l106 -57q-52 -109 -52 -201q0 -78 36.5 -117t122.5 -39h86q61 0 93 10.5t45 35
t13 70.5v442q0 169 164 169h30q83 0 123 -44.5t40 -122.5v-313q0 -38 5 -54t20.5 -21.5t52.5 -5.5h25q19 0 29.5 9.5t16.5 31.5l25 96q22 87 74.5 133t124.5 46q66 0 115.5 -30zM325 515h130v-131h-130v131zM1256.5 151q27.5 -7 58.5 -7h68v73q0 105 -86 105
q-30 0 -52 -20.5t-33 -61.5l-19 -65q36 -17 63.5 -24zM1498 632h122h6h121v-119h-121h-6h-122v119z" />
    <glyph glyph-name="uni0621" unicode="&#x621;" horiz-adv-x="481" arabic-form="isolated" 
d="M20 96l102 30q-63 61 -63 146q0 53 25 97t69.5 70.5t98.5 28.5q17 1 36.5 -2t34 -6t21.5 -4l35 -7l-23 -116l-30 3q-47 6 -70 6q-38 -1 -63 -23t-25 -56q0 -37 28 -59.5t78 -22.5q24 0 51 6l116 34l20 -124l-421 -125z" />
    <glyph glyph-name="uni0622" unicode="&#x622;" horiz-adv-x="276" arabic-form="isolated" 
d="M83 562h130v-562h-130v562zM-12 698q40 32 111 32h205v-101h-205q-35 0 -53 -14.5t-30 -43.5l-89 30q21 65 61 97z" />
    <glyph glyph-name="uni0623" unicode="&#x623;" horiz-adv-x="276" arabic-form="isolated" 
d="M83 562h130v-562h-130v562zM84 687q-36 31 -36 81q0 45 32.5 75t77.5 30q21 0 64 -10l-11 -63q-37 8 -54 8q-24 -1 -39.5 -13.5t-16.5 -30.5q0 -21 18 -35t47 -14q7 0 19 2l69 20l4 -66l-219 -64l-4 66z" />
    <glyph glyph-name="uni0624" unicode="&#x624;" horiz-adv-x="519" arabic-form="isolated" 
d="M283 -97.5q32 10.5 44.5 35t14.5 69.5h-86q-95 0 -150.5 55.5t-55.5 155.5q0 71 26.5 126.5t73 85.5t105.5 30q64 0 112.5 -30t75 -85t26.5 -127v-196q0 -124 -67.5 -199t-212.5 -75h-119v144h119q62 0 94 10.5zM188 562q-36 31 -36 81q0 43 30.5 73t73.5 32q24 0 70 -11
l-11 -62q-38 7 -55 7q-23 0 -39 -12.5t-16 -31.5q0 -21 18 -34.5t47 -13.5q5 0 19 2l69 20l4 -66l-219 -64l-4 66zM192 164.5q20 -19.5 64 -19.5h86v76q0 104 -87 104q-41 0 -62 -28t-21 -72q0 -41 20 -60.5z" />
    <glyph glyph-name="uni0625" unicode="&#x625;" horiz-adv-x="269" arabic-form="isolated" 
d="M78 668h127v-668h-127v668zM63 -223q-35 30 -35 80q0 43 30 73.5t73 32.5q24 0 70 -11l-11 -62q-37 7 -54 7q-23 0 -39 -12.5t-16 -31.5q0 -21 18 -34.5t47 -13.5q6 0 20 2l68 20l4 -67l-220 -64l-4 67z" />
    <glyph glyph-name="uni0626" unicode="&#x626;" horiz-adv-x="772" arabic-form="isolated" 
d="M175 51q0 -80 37 -119.5t122 -39.5h86q57 0 88 8t44.5 25t16.5 46v6q0 5 -2.5 7.5t-9.5 3.5l-226 62q-12 44 -12 95q0 61 19.5 115t52.5 92q42 47 93.5 72t109.5 25q30 0 62.5 -5.5t53.5 -14.5l-30 -129q-32 9 -69 9q-38 0 -69.5 -12.5t-53.5 -34.5q-45 -43 -45 -94
q35 -9 174 -49q51 -15 67 -44.5t13 -90.5q-5 -111 -75.5 -173.5t-201.5 -62.5h-86q-88 0 -152.5 40t-98 108.5t-33.5 152.5q0 58 20.5 128t49.5 132l109 -57q-54 -122 -54 -201zM172 444q-36 31 -36 81q0 45 32.5 75t77.5 30q21 0 64 -10l-11 -63q-37 8 -54 8
q-24 -1 -39.5 -13.5t-16.5 -30.5q0 -21 18 -35t47 -14q7 0 19 2l69 20l4 -66l-219 -64l-4 66z" />
    <glyph glyph-name="uni0627" unicode="&#x627;" horiz-adv-x="269" arabic-form="isolated" 
d="M78 668h127v-668h-127v668z" />
    <glyph glyph-name="uni0628" unicode="&#x628;" horiz-adv-x="942" arabic-form="isolated" 
d="M147.5 27.5q-46.5 27.5 -71 74t-24.5 100.5q0 24 4 43q5 28 13.5 67t15.5 68l117 -29l-7 -32q-20 -78 -20 -108q0 -31 21 -49t60 -18h430q41 0 60 17.5t19 46.5q0 39 -26 169l120 30q33 -140 33 -207q0 -50 -22.5 -96t-66.5 -75t-107 -29h-440q-62 0 -108.5 27.5z
M410 -122h133v-130h-133v130z" />
    <glyph glyph-name="uni0629" unicode="&#x629;" horiz-adv-x="544" arabic-form="isolated" 
d="M305 507q74 -81 110.5 -125t57.5 -88.5t21 -92.5q0 -57 -30 -105.5t-80.5 -76.5t-110.5 -28q-61 0 -112 28t-81 76.5t-30 105.5q0 69 34.5 124.5t102.5 127.5l-34 37l89 86q33 -37 63 -69zM118 730h119v-119h-119v119zM202 155q25 -24 71 -24q45 0 69.5 24t24.5 58
q0 24 -20.5 54.5t-74.5 92.5q-53 -56 -74 -86t-21 -61q0 -34 25 -58zM305 730h120v-119h-120v119z" />
    <glyph glyph-name="uni062A" unicode="&#x62a;" horiz-adv-x="942" arabic-form="isolated" 
d="M147.5 27.5q-46.5 27.5 -71 74t-24.5 100.5q0 24 4 43q5 28 13.5 67t15.5 68l117 -29l-7 -32q-20 -78 -20 -108q0 -31 21 -49t60 -18h430q41 0 60 17.5t19 46.5q0 39 -26 169l120 30q33 -140 33 -207q0 -50 -22.5 -96t-66.5 -75t-107 -29h-440q-62 0 -108.5 27.5z
M321 480h119v-119h-119v119zM508 480h120v-119h-120v119z" />
    <glyph glyph-name="uni062B" unicode="&#x62b;" horiz-adv-x="942" arabic-form="isolated" 
d="M147.5 27.5q-46.5 27.5 -71 74t-24.5 100.5q0 24 4 43q5 28 13.5 67t15.5 68l117 -29l-7 -32q-20 -78 -20 -108q0 -31 21 -49t60 -18h430q41 0 60 17.5t19 46.5q0 39 -26 169l120 30q33 -140 33 -207q0 -50 -22.5 -96t-66.5 -75t-107 -29h-440q-62 0 -108.5 27.5z
M320 474h119v-119h-119v119zM418 618h113v-113h-113v113zM510 474h119v-119h-119v119z" />
    <glyph glyph-name="uni062C" unicode="&#x62c;" horiz-adv-x="681" arabic-form="isolated" 
d="M593 -252h-267q-205 0 -261 158q-15 42 -15 85q0 73 42.5 134.5t118.5 93.5l272 112q-78 26 -144 45t-83 19q-21 0 -35 -12.5t-25 -42.5l-112 35q23 79 68 120t104 41q38 0 112.5 -27t213.5 -85q6 -3 13.5 -6l17.5 -7l18 -150l-372 -161q-89 -38 -89 -106q0 -19 5 -34
q12 -37 49.5 -52.5t101.5 -15.5h267v-144zM374 87h124v-123h-124v123z" />
    <glyph glyph-name="uni062D" unicode="&#x62d;" horiz-adv-x="681" arabic-form="isolated" 
d="M593 -252h-267q-205 0 -261 158q-15 42 -15 85q0 73 42.5 134.5t118.5 93.5l272 112q-78 26 -144 45t-83 19q-21 0 -35 -12.5t-25 -42.5l-112 35q23 79 68 120t104 41q38 0 112.5 -27t213.5 -85q6 -3 13.5 -6l17.5 -7l18 -150l-372 -161q-89 -38 -89 -106q0 -19 5 -34
q12 -37 49.5 -52.5t101.5 -15.5h267v-144z" />
    <glyph glyph-name="uni062E" unicode="&#x62e;" horiz-adv-x="722" arabic-form="isolated" 
d="M352 731v-130h-133v130h133zM50 -9q0 73 42.5 134.5t118.5 93.5l272 112q-78 26 -144 45t-83 19q-21 0 -35 -12.5t-25 -42.5l-112 35q23 79 68 120t104 41q38 0 112.5 -27t213.5 -85q6 -3 13.5 -6l17.5 -7l18 -150l-372 -161q-89 -38 -89 -106q0 -19 5 -34
q12 -37 49.5 -52.5t101.5 -15.5h267v-144h-267q-205 0 -261 158q-15 42 -15 85z" />
    <glyph glyph-name="uni062F" unicode="&#x62f;" horiz-adv-x="544" arabic-form="isolated" 
d="M349 462q112 -174 106 -165q39 -63 39 -125q0 -54 -28 -93q-30 -43 -73.5 -61t-103.5 -18h-53q-63 0 -111 20.5t-75 44.5l60 115q19 -12 50.5 -24t76.5 -12h49q34 0 51 4.5t25 16.5q5 8 5 16q0 16 -18 44q-63 96 -153 228l107 80z" />
    <glyph glyph-name="uni0630" unicode="&#x630;" horiz-adv-x="544" arabic-form="isolated" 
d="M349 462q112 -174 106 -165q39 -63 39 -125q0 -54 -28 -93q-30 -43 -73.5 -61t-103.5 -18h-53q-63 0 -111 20.5t-75 44.5l60 115q19 -12 50.5 -24t76.5 -12h49q34 0 51 4.5t25 16.5q5 8 5 16q0 16 -18 44q-63 96 -153 228l107 80zM213 740h133v-130h-133v130z" />
    <glyph glyph-name="uni0631" unicode="&#x631;" horiz-adv-x="391" arabic-form="isolated" 
d="M352 335v-282q0 -144 -75 -224.5t-214 -80.5h-63v144h63q63 0 97.5 14.5t49 49t14.5 97.5v282h128z" />
    <glyph glyph-name="uni0632" unicode="&#x632;" horiz-adv-x="391" arabic-form="isolated" 
d="M352 335v-282q0 -144 -75 -224.5t-214 -80.5h-63v144h63q63 0 97.5 14.5t49 49t14.5 97.5v282h128zM220 584h133v-130h-133v130z" />
    <glyph glyph-name="uni0633" unicode="&#x633;" horiz-adv-x="1256" arabic-form="isolated" 
d="M175 48q0 -78 36.5 -117t122.5 -39h86q64 0 96 11t43.5 38t11.5 80v314h127v-117q0 -39 18.5 -56.5t49.5 -17.5q32 0 49 15.5t17 47.5l-1 128h128l-1 -133q0 -58 60 -58q30 0 48.5 17t15.5 45q-9 59 -29 164l120 30q33 -146 33 -211q0 -50 -19.5 -93t-62 -69.5
t-106.5 -26.5q-38 0 -70 15t-55 42q-22 -26 -55 -41.5t-72 -15.5q-34 0 -68 16q-2 -124 -69 -196t-209 -72h-86q-90 0 -154 40t-97 108t-33 152q0 61 21 130t50 127l106 -56q-52 -109 -52 -201z" />
    <glyph glyph-name="uni0634" unicode="&#x634;" horiz-adv-x="1256" arabic-form="isolated" 
d="M175 48q0 -78 36.5 -117t122.5 -39h86q64 0 96 11t43.5 38t11.5 80v314h127v-117q0 -39 18.5 -56.5t49.5 -17.5q32 0 49 15.5t17 47.5l-1 128h128l-1 -133q0 -58 60 -58q30 0 48.5 17t15.5 45q-9 59 -29 164l120 30q33 -146 33 -211q0 -50 -19.5 -93t-62 -69.5
t-106.5 -26.5q-38 0 -70 15t-55 42q-22 -26 -55 -41.5t-72 -15.5q-34 0 -68 16q-2 -124 -69 -196t-209 -72h-86q-90 0 -154 40t-97 108t-33 152q0 61 21 130t50 127l106 -56q-52 -109 -52 -201zM738 572h120v-119h-120v119zM836 716h114v-113h-114v113zM928 572h119v-119
h-119v119z" />
    <glyph glyph-name="uni0635" unicode="&#x635;" horiz-adv-x="1305" arabic-form="isolated" 
d="M175 48q0 -78 36.5 -117t122.5 -39h86q64 0 96 11t43.5 38t11.5 80v314h127v-143q0 -21 7.5 -31.5t22.5 -14.5q9 12 17 25t17 26l68 102q53 80 105.5 117.5t118.5 37.5t112.5 -32.5t69.5 -85.5t23 -115q0 -61 -27.5 -111.5t-79 -80t-119.5 -29.5h-265q-39 0 -70 16
q-2 -124 -69 -196t-209 -72h-86q-90 0 -154 40t-97 108t-33 152q0 61 21 130t50 127l106 -56q-52 -109 -52 -201zM1033 144q102 0 102 78q0 40 -20 64t-63 24q-34 0 -57.5 -17.5t-56.5 -59.5q-15 -19 -67 -89h162z" />
    <glyph glyph-name="uni0636" unicode="&#x636;" horiz-adv-x="1305" arabic-form="isolated" 
d="M175 48q0 -78 36.5 -117t122.5 -39h86q64 0 96 11t43.5 38t11.5 80v314h127v-143q0 -21 7.5 -31.5t22.5 -14.5q9 12 17 25t17 26l68 102q53 80 105.5 117.5t118.5 37.5t112.5 -32.5t69.5 -85.5t23 -115q0 -61 -27.5 -111.5t-79 -80t-119.5 -29.5h-265q-39 0 -70 16
q-2 -124 -69 -196t-209 -72h-86q-90 0 -154 40t-97 108t-33 152q0 61 21 130t50 127l106 -56q-52 -109 -52 -201zM1033 144q102 0 102 78q0 40 -20 64t-63 24q-34 0 -57.5 -17.5t-56.5 -59.5q-15 -19 -67 -89h162zM956 659h133v-130h-133v130z" />
    <glyph glyph-name="uni0637" unicode="&#x637;" horiz-adv-x="740" arabic-form="isolated" 
d="M63 144h98l27 40v484h127v-303q40 45 81.5 67t92.5 22q66 0 112.5 -32.5t69.5 -85.5t23 -115q0 -61 -27.5 -111.5t-79 -80t-119.5 -29.5h-405v144zM468 144q101 0 101 78q0 40 -19.5 64t-62.5 24q-34 0 -58.5 -17.5t-55.5 -59.5l-67 -89h162z" />
    <glyph glyph-name="uni0638" unicode="&#x638;" horiz-adv-x="740" arabic-form="isolated" 
d="M63 144h98l27 40v484h127v-303q40 45 81.5 67t92.5 22q66 0 112.5 -32.5t69.5 -85.5t23 -115q0 -61 -27.5 -111.5t-79 -80t-119.5 -29.5h-405v144zM468 144q101 0 101 78q0 40 -19.5 64t-62.5 24q-34 0 -58.5 -17.5t-55.5 -59.5l-67 -89h162zM437 705h133v-130h-133v130z
" />
    <glyph glyph-name="uni0639" unicode="&#x639;" horiz-adv-x="634" arabic-form="isolated" 
d="M584 -252h-253q-84 0 -147.5 36t-98.5 98.5t-35 139.5q0 78 40.5 142t106.5 99q-51 56 -51 127q0 56 27 104t74 77t102 29q48 0 79.5 -13t87.5 -47q5 -4 9.5 -6.5t7.5 -4.5l-58 -106q-52 29 -74 38t-49 9q-35 0 -60 -22.5t-25 -56.5q0 -40 34 -66t108 -32l133 -1l-1 -144
l-216 2q-63 1 -104.5 -35t-41.5 -93q0 -59 39 -94.5t107 -35.5h259v-144z" />
    <glyph glyph-name="uni063A" unicode="&#x63a;" horiz-adv-x="634" arabic-form="isolated" 
d="M584 -252h-253q-84 0 -147.5 36t-98.5 98.5t-35 139.5q0 78 40.5 142t106.5 99q-51 56 -51 127q0 56 27 104t74 77t102 29q48 0 79.5 -13t87.5 -47q5 -4 9.5 -6.5t7.5 -4.5l-58 -106q-52 29 -74 38t-49 9q-35 0 -60 -22.5t-25 -56.5q0 -40 34 -66t108 -32l133 -1l-1 -144
l-216 2q-63 1 -104.5 -35t-41.5 -93q0 -59 39 -94.5t107 -35.5h259v-144zM284 802h133v-130h-133v130z" />
    <glyph glyph-name="uni0641" unicode="&#x641;" horiz-adv-x="942" arabic-form="isolated" 
d="M762 769v-130h-133v130h133zM71 322.5q10 46.5 20 84.5l116 -29l-12 -56q-17 -70 -21 -99q-1 -4 -1 -12q0 -31 21 -49t60 -18h368q52 0 80.5 4t43.5 15l-64 10q-86 16 -129.5 62t-43.5 136q0 63 25.5 111.5t69 74.5t96.5 26q57 0 100.5 -26t67.5 -74t24 -112v-79
q0 -132 -62 -212t-208 -80h-368q-62 0 -108 27.5t-70.5 73.5t-24.5 100q0 24 4 44q6 31 16 77.5zM645 331.5q15 -15.5 50 -23.5l77 -20v84q0 34 -17.5 56t-53.5 22q-35 0 -53 -22t-18 -56q0 -25 15 -40.5z" />
    <glyph glyph-name="uni0642" unicode="&#x642;" horiz-adv-x="774" arabic-form="isolated" 
d="M172 59q0 -85 40 -126t134 -41h99q62 0 93.5 10.5t44 35t14.5 69.5h-85q-96 0 -151 55.5t-55 155.5q0 71 26 126t73 85.5t106 30.5q63 0 111.5 -30t75 -85t26.5 -127v-196q0 -124 -67 -199t-212 -75h-99q-146 0 -221 77.5t-75 222.5q0 83 21 151t49 135l110 -50
q-58 -130 -58 -225zM356 655h119v-120h-119v120zM447.5 164.5q20.5 -19.5 64.5 -19.5h85v76q0 104 -86 104q-42 0 -63 -28t-21 -73q0 -40 20.5 -59.5zM543 655h120v-120h-120v120z" />
    <glyph glyph-name="uni0643" unicode="&#x643;" horiz-adv-x="825" arabic-form="isolated" 
d="M146 27.5q-46 27.5 -70.5 73.5t-24.5 100q0 24 4 44q5 28 13 67t15 68l117 -29l-7 -32q-20 -78 -20 -108q0 -31 21 -49t60 -18h329q65 0 65 64v460h127v-473q0 -66 -29 -110t-72 -64.5t-84 -20.5h-336q-62 0 -108 27.5zM357 306h68q7 0 8 2.5t-4 7.5l-61 62l11 58l104 47
l23 -56l-71 -33l37 -37q21 -21 21 -49q0 -26 -18.5 -45t-48.5 -19h-77z" />
    <glyph glyph-name="uni0644" unicode="&#x644;" horiz-adv-x="713" arabic-form="isolated" 
d="M180 -212q-64 40 -97 108t-33 152q0 48 15 105t37 108l112 -47q-41 -94 -41 -166q0 -77 37.5 -116.5t123.5 -39.5h50q64 0 96 11t43.5 38t11.5 80l1 665h126l1 -665q0 -126 -68 -199.5t-211 -73.5h-50q-90 0 -154 40z" />
    <glyph glyph-name="uni0645" unicode="&#x645;" horiz-adv-x="660" arabic-form="isolated" 
d="M50 164l99 82q9 -4 19 -8t22 -9l20 76q22 87 74.5 133t124.5 46q58 0 103.5 -31t71.5 -86t26 -126q0 -77 -24.5 -130t-65 -79t-88.5 -26q-36 0 -85 16.5t-136 52.5l-34 14v-353h-127v428zM436 146q55 0 55 94q0 51 -21.5 78.5t-56.5 27.5q-29 0 -51 -21t-33 -61l-21 -81
q100 -37 128 -37z" />
    <glyph glyph-name="uni0646" unicode="&#x646;" horiz-adv-x="748" arabic-form="isolated" 
d="M175 48q0 -78 36.5 -117t122.5 -39h86q64 0 96 11t43.5 38t11.5 80v314h127v-314q0 -126 -67.5 -199.5t-210.5 -73.5h-86q-90 0 -154 40t-97 108t-33 152q0 61 21 130t50 127l106 -56q-52 -109 -52 -201zM334 427h133v-130h-133v130z" />
    <glyph glyph-name="uni0647" unicode="&#x647;" horiz-adv-x="544" arabic-form="isolated" 
d="M305 507q74 -81 110.5 -125t57.5 -88.5t21 -92.5q0 -57 -30 -105.5t-80.5 -76.5t-110.5 -28q-61 0 -112 28t-81 76.5t-30 105.5q0 69 34.5 124.5t102.5 127.5l-34 37l89 86q33 -37 63 -69zM202 155q25 -24 71 -24q45 0 69.5 24t24.5 58q0 24 -20.5 54.5t-74.5 92.5
q-53 -56 -74 -86t-21 -61q0 -34 25 -58z" />
    <glyph glyph-name="uni0648" unicode="&#x648;" horiz-adv-x="519" arabic-form="isolated" 
d="M283 -97.5q32 10.5 44.5 35t14.5 69.5h-86q-95 0 -150.5 55.5t-55.5 155.5q0 71 26.5 126.5t73 85.5t105.5 30q64 0 112.5 -30t75 -85t26.5 -127v-196q0 -124 -67.5 -199t-212.5 -75h-119v144h119q62 0 94 10.5zM192 164.5q20 -19.5 64 -19.5h86v76q0 104 -87 104
q-41 0 -62 -28t-21 -72q0 -41 20 -60.5z" />
    <glyph glyph-name="uni0649" unicode="&#x649;" horiz-adv-x="772" arabic-form="isolated" 
d="M175 51q0 -80 37 -119.5t122 -39.5h86q57 0 88 8t44.5 25t16.5 46v6q0 5 -2.5 7.5t-9.5 3.5l-226 62q-12 44 -12 95q0 61 19.5 115t52.5 92q42 47 93.5 72t109.5 25q30 0 62.5 -5.5t53.5 -14.5l-30 -129q-32 9 -69 9q-38 0 -69.5 -12.5t-53.5 -34.5q-45 -43 -45 -94
q35 -9 174 -49q51 -15 67 -44.5t13 -90.5q-5 -111 -75.5 -173.5t-201.5 -62.5h-86q-88 0 -152.5 40t-98 108.5t-33.5 152.5q0 58 20.5 128t49.5 132l109 -57q-54 -122 -54 -201z" />
    <glyph glyph-name="uni064A" unicode="&#x64a;" horiz-adv-x="772" arabic-form="isolated" 
d="M175 51q0 -80 37 -119.5t122 -39.5h86q57 0 88 8t44.5 25t16.5 46v6q0 5 -2.5 7.5t-9.5 3.5l-226 62q-12 44 -12 95q0 61 19.5 115t52.5 92q42 47 93.5 72t109.5 25q30 0 62.5 -5.5t53.5 -14.5l-30 -129q-32 9 -69 9q-38 0 -69.5 -12.5t-53.5 -34.5q-45 -43 -45 -94
q35 -9 174 -49q51 -15 67 -44.5t13 -90.5q-5 -111 -75.5 -173.5t-201.5 -62.5h-86q-88 0 -152.5 40t-98 108.5t-33.5 152.5q0 58 20.5 128t49.5 132l109 -57q-54 -122 -54 -201zM211 -296h119v-119h-119v119zM398 -296h120v-119h-120v119z" />
    <glyph glyph-name="uni066E.init" unicode="&#x66e;" horiz-adv-x="336" 
d="M-6 144h97q77 0 74 60q-3 44 -26 166l119 30q34 -147 34 -210q0 -49 -21.5 -92.5t-65 -70.5t-104.5 -27h-107v144z" />
    <glyph glyph-name="uni066E.medi" unicode="&#x66e;" horiz-adv-x="368" 
d="M285 335v-145q0 -26 14 -36t44 -10h30l6 -77l-6 -67h-30q-31 0 -65 12.5t-60 36.5q-27 -24 -62.5 -36.5t-72.5 -12.5h-88v144h88q41 0 58 11.5t17 39.5v140h127z" />
    <glyph glyph-name="uni066E.fina" unicode="&#x66e;" horiz-adv-x="974" 
d="M146 27.5q-46 27.5 -70.5 73.5t-24.5 100q0 24 4 44q5 28 13 67t15 68l117 -29l-7 -32q-20 -78 -20 -108q0 -31 21 -49t60 -18h435q41 0 58 11.5t17 39.5v140h128v-145q0 -26 13.5 -36t43.5 -10h30l6 -74l-6 -70h-30q-32 0 -65.5 12.5t-59.5 38.5q-23 -26 -58 -38.5
t-77 -12.5h-435q-62 0 -108 27.5z" />
    <glyph glyph-name="uni066F.fina" unicode="&#x66f;" horiz-adv-x="775" 
d="M172 59q0 -85 40 -126t134 -41h99q62 0 93.5 10t44 33t14.5 65h-85q-96 0 -151 55.5t-55 155.5q0 71 26 126t72.5 85.5t106.5 30.5q63 0 111.5 -30t75 -85t26.5 -127v-67h56l8 -73l-8 -71h-56q-4 -113 -71.5 -182.5t-207.5 -69.5h-99q-146 0 -221 77.5t-75 222.5
q0 83 21 151t49 135l110 -50q-58 -130 -58 -225zM447 157.5q20 -19.5 65 -19.5h85v76q0 104 -86 104q-41 0 -62.5 -28t-21.5 -72q0 -41 20 -60.5z" />
    <glyph glyph-name="uni0671" unicode="&#x671;" horiz-adv-x="276" arabic-form="isolated" 
d="M83 562h130v-562h-130v562zM28 753l31 -40l27 40q24 34 46 51t53 17q42 0 67 -32t25 -76q0 -47 -27 -75t-69 -28h-47q-39 0 -60.5 8.5t-37 26t-53.5 68.5zM134 677h47q22 0 31 7.5t9 28.5q0 22 -8 32.5t-28 10.5q-16 0 -26 -8.5t-27 -33.5l-24 -35q16 -2 26 -2z" />
    <glyph glyph-name="uni0679" unicode="&#x679;" horiz-adv-x="942" arabic-form="isolated" 
d="M147.5 27.5q-46.5 27.5 -71 74t-24.5 100.5q0 24 4 43q5 28 13.5 67t15.5 68l117 -29l-7 -32q-20 -78 -20 -108q0 -31 21 -49t60 -18h430q41 0 60 17.5t19 46.5q0 39 -26 169l120 30q33 -140 33 -207q0 -50 -22.5 -96t-66.5 -75t-107 -29h-440q-62 0 -108.5 27.5z
M363 475l31 -40l24 36v150h58v-88q20 11 44 11q42 0 67 -32t25 -76q0 -47 -27 -75t-69 -28h-47q-39 0 -60.5 8.5t-37 26t-53.5 67.5zM469 399h47q22 0 31 7.5t9 29.5t-8 32t-28 10q-16 0 -26 -8.5t-27 -33.5l-24 -35q16 -2 26 -2z" />
    <glyph glyph-name="uni067E" unicode="&#x67e;" horiz-adv-x="942" arabic-form="isolated" 
d="M147.5 27.5q-46.5 27.5 -71 74t-24.5 100.5q0 24 4 43q5 28 13.5 67t15.5 68l117 -29l-7 -32q-20 -78 -20 -108q0 -31 21 -49t60 -18h430q41 0 60 17.5t19 46.5q0 39 -26 169l120 30q33 -140 33 -207q0 -50 -22.5 -96t-66.5 -75t-107 -29h-440q-62 0 -108.5 27.5z
M320 -79h120v-119h-120v119zM418 -229h114v-113h-114v113zM510 -79h120v-119h-120v119z" />
    <glyph glyph-name="uni0686" unicode="&#x686;" horiz-adv-x="681" arabic-form="isolated" 
d="M617 -321h-251q-113 0 -192 44.5t-111 142.5q-17 51 -17 102q0 86 47 157.5t138 107.5l251 99q-77 26 -143 44.5t-83 18.5q-21 0 -35 -12.5t-25 -42.5l-112 35q23 79 68 120t104 41q38 0 112.5 -27t213.5 -85q6 -3 13.5 -6l17.5 -7l18 -150l-352 -153q-53 -23 -79 -59
t-26 -79q0 -29 12 -59q20 -51 61 -71t119 -20h251v-141zM313 95h112v-104h-112v104zM408 -46h107v-100h-107v100zM496 95h112v-104h-112v104z" />
    <glyph glyph-name="uni0695.fina" unicode="&#x695;" horiz-adv-x="423" 
d="M352 335v-145q0 -26 13.5 -36t43.5 -10h19l6 -73l-6 -71h-19q-33 0 -58 16q-10 -128 -84 -198t-204 -70h-63v144h63q63 0 97.5 14.5t49 49t14.5 97.5v282h128zM81 -356l60 -96l60 96l48 -39l-70 -113h-76l-70 113z" />
    <glyph glyph-name="uni0698" unicode="&#x698;" horiz-adv-x="430" arabic-form="isolated" 
d="M352 335v-282q0 -144 -75 -224.5t-214 -80.5h-63v144h63q63 0 97.5 14.5t49 49t14.5 97.5v282h128zM119 572h119v-120h-119v120zM217 716h113v-114h-113v114zM309 572h119v-120h-119v120z" />
    <glyph glyph-name="uni06A1.init" unicode="&#x6a1;" horiz-adv-x="476" 
d="M-5 144h164q52 0 80.5 4t43.5 15l-64 10q-86 16 -129.5 62t-43.5 136q0 63 25.5 111.5t69 74.5t96.5 26q57 0 100.5 -26t67.5 -74t24 -112v-79q0 -132 -62 -212t-208 -80h-164v144zM182 331.5q15 -15.5 50 -23.5l77 -20v84q0 34 -17.5 56t-53.5 22q-35 0 -53 -22t-18 -56
q0 -25 15 -40.5z" />
    <glyph glyph-name="uni06A1.medi" unicode="&#x6a1;" horiz-adv-x="552" 
d="M-7 144h41q29 0 81 2q-22 24 -35 54t-13 61q0 54 27.5 103t76 79t107.5 30q57 0 104.5 -30t75 -79t27.5 -102q0 -32 -13 -62t-35 -54q50 -2 80 -2h40l8 -72l-8 -72h-67q-45 0 -103 10.5t-112 30.5q-54 -20 -111 -30.5t-101 -10.5h-70v144zM215.5 195.5
q23.5 -24.5 59.5 -35.5q37 10 62 35t25 58q0 37 -24 61t-60 24q-37 0 -61.5 -24t-24.5 -61q0 -33 23.5 -57.5z" />
    <glyph glyph-name="uni06A1.fina" unicode="&#x6a1;" horiz-adv-x="975" 
d="M501 200q-13 30 -13 61q0 54 27.5 103t76 79t107.5 30q57 0 104.5 -30t75 -79t27.5 -102q0 -32 -12.5 -62.5t-35.5 -53.5q50 -2 80 -2h40l8 -72l-8 -72h-67q-45 0 -102 10.5t-112 30.5q-45 -16 -85.5 -24.5t-122.5 -12.5t-235 -4q-62 0 -108 27.5t-70.5 73.5t-24.5 100
q0 24 4 44q6 31 16 77.5t20 84.5l116 -29l-12 -56q-17 -70 -21 -99q-1 -4 -1 -12q0 -31 21 -49t60 -18q214 0 282 2q-22 24 -35 54zM636.5 190.5q23.5 -24.5 59.5 -35.5q37 10 62 35t25 58q0 37 -24 61t-60 24t-61 -24.5t-25 -60.5q0 -33 23.5 -57.5z" />
    <glyph glyph-name="uni06A4" unicode="&#x6a4;" horiz-adv-x="942" arabic-form="isolated" 
d="M146 27.5q-46 27.5 -70.5 73.5t-24.5 100q0 24 4 44q6 31 16 77.5t20 84.5l116 -29l-12 -56q-17 -70 -21 -99q-1 -4 -1 -12q0 -31 21 -49t60 -18h368q64 0 95 7l-23 4q-82 17 -133.5 62.5t-51.5 125.5q0 63 25.5 111t69 74t96.5 26q57 0 100.5 -26t67.5 -73.5t24 -111.5
v-51q0 -292 -270 -292h-368q-62 0 -108 27.5zM543 747h120v-119h-120v119zM645 302.5q15 -15.5 50 -22.5l77 -20v84q0 34 -17.5 56t-53.5 22q-35 0 -53 -22t-18 -56q0 -26 15 -41.5zM641 891h114v-113h-114v113zM733 747h119v-119h-119v119z" />
    <glyph glyph-name="uni06A9" unicode="&#x6a9;" horiz-adv-x="853" arabic-form="isolated" 
d="M147.5 27.5q-46.5 27.5 -71 74t-24.5 100.5q0 24 4 43q5 28 13.5 67t15.5 68l117 -29l-7 -32q-20 -78 -20 -108q0 -31 21 -49t60 -18h340q26 0 40.5 10.5t14.5 27.5q0 20 -22 42l-198 200l31 161l335 148l51 -132l-279 -123l154 -157q30 -30 45 -66.5t15 -74.5
q0 -48 -22.5 -89t-66 -66t-101.5 -25h-337q-62 0 -108.5 27.5z" />
    <glyph glyph-name="uni06AF" unicode="&#x6af;" horiz-adv-x="858" arabic-form="isolated" 
d="M147.5 27.5q-46.5 27.5 -71 74t-24.5 100.5q0 24 4 43q5 28 13.5 67t15.5 68l117 -29l-7 -32q-20 -78 -20 -108q0 -31 21 -49t60 -18h341q26 0 41 10.5t15 27.5q0 21 -22 42l-177 180l30 161l318 141l51 -131l-262 -117l134 -137q29 -31 44 -67.5t15 -74.5
q0 -47 -22.5 -88t-66 -66t-101.5 -25h-338q-62 0 -108.5 27.5zM497 680l249 109l19 -48l-274 -119z" />
    <glyph glyph-name="uni06B5.init" unicode="&#x6b5;" horiz-adv-x="284" 
d="M205 85q-29 -44 -72 -64.5t-84 -20.5h-54v144h47q65 0 65 64v460h127v-473q0 -66 -29 -110zM111 883l60 -96l60 96l48 -39l-70 -113h-76l-70 113z" />
    <glyph glyph-name="uni06B5.medi" unicode="&#x6b5;" horiz-adv-x="316" 
d="M-5 144h51q31 0 46 11t15 40v473h127v-473v-5v0q0 -26 14 -36t44 -10h29l7 -77l-7 -67h-29q-31 0 -62.5 12t-55.5 36q-27 -24 -60.5 -36t-64.5 -12h-54v144zM112 883l60 -96l60 96l48 -39l-70 -113h-76l-70 113z" />
    <glyph glyph-name="uni06B5.fina" unicode="&#x6b5;" horiz-adv-x="741" 
d="M180 -212q-64 40 -97 108t-33 152q0 48 15 105t37 108l112 -47q-41 -94 -41 -166q0 -77 37.5 -116.5t123.5 -39.5h50q64 0 96 11t43.5 38t11.5 80l1 665h126l1 -492q0 -29 15 -39.5t44 -10.5h21l9 -75l-9 -69h-21q-34 0 -59 16q-2 -124 -69.5 -196t-209.5 -72h-50
q-90 0 -154 40zM538 883l60 -96l60 96l48 -39l-70 -113h-76l-70 113z" />
    <glyph glyph-name="uni06C2.fina" unicode="&#x6c2;" horiz-adv-x="595" 
d="M499.5 162.5q31.5 -18.5 84.5 -18.5h16l8 -70l-8 -74h-16q-87 0 -157 48.5t-95 149.5l-23 90l-52 -17q-40 -13 -61.5 -37.5t-21.5 -59.5q0 -18 6 -39l20 -65l-119 -42l-18 56q-14 45 -14 85q0 81 49 145t134 90l110 34l74 -44l40 -162q12 -51 43.5 -69.5zM161 523
q-36 30 -36 81q0 44 32.5 74.5t76.5 30.5q21 0 64 -10l-11 -63q-37 8 -54 8q-23 -1 -39 -13.5t-16 -30.5q0 -21 18.5 -35t46.5 -14q6 0 20 2l68 20l4 -66l-220 -64l-4 66z" />
    <glyph glyph-name="uni06C3.fina" unicode="&#x6c3;" horiz-adv-x="595" 
d="M499.5 162.5q31.5 -18.5 84.5 -18.5h16l8 -70l-8 -74h-16q-87 0 -157 48.5t-95 149.5l-23 90l-52 -17q-40 -13 -61.5 -37.5t-21.5 -59.5q0 -18 6 -39l20 -65l-119 -42l-18 56q-14 45 -14 85q0 81 49 145t134 90l110 34l74 -44l40 -162q12 -51 43.5 -69.5zM129 654h119
v-119h-119v119zM317 654h119v-119h-119v119z" />
    <glyph glyph-name="uni06C6" unicode="&#x6c6;" horiz-adv-x="519" arabic-form="isolated" 
d="M283 -97.5q32 10.5 44.5 35t14.5 69.5h-86q-95 0 -150.5 55.5t-55.5 155.5q0 71 26.5 126.5t73 85.5t105.5 30q64 0 112.5 -30t75 -85t26.5 -127v-196q0 -124 -67.5 -199t-212.5 -75h-119v144h119q62 0 94 10.5zM189 654l60 -95l60 95l48 -39l-70 -113h-76l-70 113z
M192 164.5q20 -19.5 64 -19.5h86v76q0 104 -87 104q-41 0 -62 -28t-21 -72q0 -41 20 -60.5z" />
    <glyph glyph-name="uni06C7" unicode="&#x6c7;" horiz-adv-x="519" arabic-form="isolated" 
d="M283 -97.5q32 10.5 44.5 35t14.5 69.5h-86q-95 0 -150.5 55.5t-55.5 155.5q0 71 26.5 126.5t73 85.5t105.5 30q64 0 112.5 -30t75 -85t26.5 -127v-196q0 -124 -67.5 -199t-212.5 -75h-119v144h119q62 0 94 10.5zM192 569q-8 13 -15 34q-5 14 -5 33q0 34 19.5 62.5
t51.5 39.5q20 6 39 6q33 0 58.5 -18.5t36.5 -53.5q6 -18 6 -35q0 -35 -23 -62t-64 -40l-142 -47l-18 63zM192 164.5q20 -19.5 64 -19.5h86v76q0 104 -87 104q-41 0 -62 -28t-21 -72q0 -41 20 -60.5zM242 585l45 15q43 13 43 43q0 16 -11 26.5t-30 10.5q-11 0 -28 -6
t-26 -18.5t-9 -26.5q0 -7 1 -10q6 -20 15 -34z" />
    <glyph glyph-name="uni06CC" unicode="&#x6cc;" horiz-adv-x="772" arabic-form="isolated" 
d="M175 51q0 -80 37 -119.5t122 -39.5h86q57 0 88 8t44.5 25t16.5 46v6q0 5 -2.5 7.5t-9.5 3.5l-226 62q-12 44 -12 95q0 61 19.5 115t52.5 92q42 47 93.5 72t109.5 25q30 0 62.5 -5.5t53.5 -14.5l-30 -129q-32 9 -69 9q-38 0 -69.5 -12.5t-53.5 -34.5q-45 -43 -45 -94
q35 -9 174 -49q51 -15 67 -44.5t13 -90.5q-5 -111 -75.5 -173.5t-201.5 -62.5h-86q-88 0 -152.5 40t-98 108.5t-33.5 152.5q0 58 20.5 128t49.5 132l109 -57q-54 -122 -54 -201z" />
    <glyph glyph-name="uni06CE.init" unicode="&#x6ce;" horiz-adv-x="376" 
d="M62 635l49 40l59 -96l60 96l49 -40l-71 -113h-75zM-62 -122h119v-120h-119v120zM-6 144h111q45 0 64 15.5t17 44.5q-5 62 -26 166l120 30q12 -53 22.5 -113t10.5 -97q0 -50 -22 -93t-66.5 -70t-109.5 -27h-121v144zM125 -122h120v-120h-120v120z" />
    <glyph glyph-name="uni06CE.medi" unicode="&#x6ce;" horiz-adv-x="390" 
d="M55 520l48 39l60 -95l60 95l48 -39l-70 -113h-76zM-74 -122h120v-120h-120v120zM-5 144h114q42 0 59 11.5t17 39.5v140h127v-145q0 -26 14 -36t44 -10h54l6 -76l-6 -68h-54q-31 0 -65 12.5t-60 36.5q-28 -24 -63.5 -36.5t-72.5 -12.5h-114v144zM114 -122h120v-120h-120
v120z" />
    <glyph glyph-name="uni06CE.fina" unicode="&#x6ce;" horiz-adv-x="776" 
d="M181.5 -212q-64.5 40 -98 108.5t-33.5 152.5q0 58 20.5 128t49.5 132l109 -57q-54 -122 -54 -201q0 -80 37 -119.5t122 -39.5h86q145 0 145 54q0 25 -38 36q-52 16 -143 18v144h397l8 -76l-8 -68h-106q15 -22 15 -58q-1 -51 -35.5 -95.5t-95.5 -71.5t-139 -27h-86
q-88 0 -152.5 40zM223 435l60 -96l60 96l48 -40l-70 -113h-76l-70 113z" />
    <glyph glyph-name="uni06D5.fina" unicode="&#x6d5;" horiz-adv-x="633" 
d="M429 478l60 -247q11 -49 44 -68t85 -19h20l8 -70l-8 -74h-20q-64 0 -122.5 27t-95.5 85q-29 -35 -66.5 -53.5t-78.5 -18.5q-51 0 -100 28q-51 27 -78 78.5t-27 108.5q0 60 28 106q16 29 35.5 48.5t60 42.5t116.5 56l-13 55l124 32zM177 251q0 -17 8.5 -33.5t24.5 -26.5
q19 -13 44 -13q18 0 35.5 8t31.5 23q22 23 22 62q0 7 -2 25l-18 74q-68 -28 -96 -46t-39 -37q-11 -16 -11 -36z" />
    <glyph glyph-name="uni0671.fina" unicode="&#x671;" horiz-adv-x="301" arabic-form="final" 
d="M115.5 61q-49.5 61 -49.5 164v337h127v-337q0 -38 4.5 -54t20 -21.5t52.5 -5.5h36l6 -74l-6 -70h-36q-105 0 -154.5 61zM16 760l31 -40l27 40q24 34 46 51t53 17q42 0 67 -32t25 -76q0 -47 -27.5 -75t-68.5 -28h-47q-39 0 -60.5 8.5t-37 26t-53.5 68.5zM122 684h47
q22 0 31 7.5t9 28.5q0 22 -8 32.5t-28 10.5q-16 0 -26 -8.5t-28 -33.5l-23 -35q14 -2 26 -2z" />
    <glyph glyph-name="uni067E.fina" unicode="&#x67e;" horiz-adv-x="974" arabic-form="final" 
d="M146 27.5q-46 27.5 -70.5 73.5t-24.5 100q0 24 4 44q5 28 13 67t15 68l117 -29l-7 -32q-20 -78 -20 -108q0 -31 21 -49t60 -18h435q41 0 58 11.5t17 39.5v140h128v-145q0 -26 13.5 -36t43.5 -10h30l6 -74l-6 -70h-30q-32 0 -65.5 12.5t-59.5 38.5q-23 -26 -58 -38.5
t-77 -12.5h-435q-62 0 -108 27.5zM320 -80h120v-119h-120v119zM418 -229h114v-114h-114v114zM510 -80h120v-119h-120v119z" />
    <glyph glyph-name="uni067E.init" unicode="&#x67e;" horiz-adv-x="363" arabic-form="initial" 
d="M-6 144h111q45 0 64 15.5t17 44.5q-5 62 -26 166l120 30q12 -53 22.5 -113t10.5 -97q0 -50 -22 -93t-66.5 -70t-109.5 -27h-121v144zM-44 -79h119v-119h-119v119zM54 -229h114v-113h-114v113zM146 -79h119v-119h-119v119z" />
    <glyph glyph-name="uni067E.medi" unicode="&#x67e;" horiz-adv-x="419" arabic-form="medial" 
d="M312 335v-145q0 -26 14 -36t44 -10h54l6 -76l-6 -68h-54q-31 0 -65 12.5t-60 36.5q-28 -24 -63.5 -36.5t-72.5 -12.5h-114v144h114q42 0 59 11.5t17 39.5v140h127zM-45 -79h119v-119h-119v119zM53 -228h113v-114h-113v114zM144 -79h120v-119h-120v119z" />
    <glyph glyph-name="uni0679.fina" unicode="&#x679;" horiz-adv-x="974" arabic-form="final" 
d="M146 27.5q-46 27.5 -70.5 73.5t-24.5 100q0 24 4 44q5 28 13 67t15 68l117 -29l-7 -32q-20 -78 -20 -108q0 -31 21 -49t60 -18h435q41 0 58 11.5t17 39.5v140h128v-145q0 -26 13.5 -36t43.5 -10h30l6 -74l-6 -70h-30q-32 0 -65.5 12.5t-59.5 38.5q-23 -26 -58 -38.5
t-77 -12.5h-435q-62 0 -108 27.5zM379 460l31 -40l24 36v150h58v-88q20 11 44 11q42 0 67 -32t25 -76q0 -47 -27 -75t-69 -28h-47q-39 0 -60.5 8.5t-37 26t-53.5 67.5zM485 384h47q22 0 31 7.5t9 29.5t-8 32t-28 10q-16 0 -26 -8.5t-27 -33.5l-24 -35q16 -2 26 -2z" />
    <glyph glyph-name="uni0679.init" unicode="&#x679;" horiz-adv-x="363" arabic-form="initial" 
d="M-6 144h111q45 0 64 15.5t17 44.5q-5 62 -26 166l120 30q12 -53 22.5 -113t10.5 -97q0 -50 -22 -93t-66.5 -70t-109.5 -27h-121v144zM33 576q21 -27 31 -39l24 36v149h57v-88q20 11 44 11q42 0 67.5 -32t25.5 -76q0 -47 -27.5 -75t-69.5 -28h-46q-39 0 -60.5 8.5
t-37.5 26t-54 68.5zM139 500h46q23 0 32 8t9 29q0 22 -8.5 32t-28.5 10q-16 0 -26 -8.5t-27 -33.5l-24 -35q16 -2 27 -2z" />
    <glyph glyph-name="uni0679.medi" unicode="&#x679;" horiz-adv-x="419" arabic-form="medial" 
d="M312 335v-145q0 -26 14 -36t44 -10h54l6 -76l-6 -68h-54q-31 0 -65 12.5t-60 36.5q-28 -24 -63.5 -36.5t-72.5 -12.5h-114v144h114q42 0 59 11.5t17 39.5v140h127zM43 517l31 -40l24 36v150h57v-88q20 11 44 11q42 0 67.5 -32t25.5 -76q0 -47 -27.5 -75t-69.5 -28h-46
q-39 0 -60.5 8.5t-37.5 26t-54 68.5zM149 441h46q23 0 32 7.5t9 29.5t-8.5 32t-28.5 10q-16 0 -26 -8.5t-27 -33.5l-24 -35q16 -2 27 -2z" />
    <glyph glyph-name="uni06A4.fina" unicode="&#x6a4;" horiz-adv-x="975" arabic-form="final" 
d="M501 200q-13 30 -13 61q0 54 27.5 103t76 79t107.5 30q57 0 104.5 -30t75 -79t27.5 -102q0 -32 -12.5 -62.5t-35.5 -53.5q50 -2 80 -2h40l8 -72l-8 -72h-67q-45 0 -102 10.5t-112 30.5q-45 -16 -85.5 -24.5t-122.5 -12.5t-235 -4q-62 0 -108 27.5t-70.5 73.5t-24.5 100
q0 24 4 44q6 31 16 77.5t20 84.5l116 -29l-12 -56q-17 -70 -21 -99q-1 -4 -1 -12q0 -31 21 -49t60 -18q214 0 282 2q-22 24 -35 54zM542 656h120v-119h-120v119zM636.5 190.5q23.5 -24.5 59.5 -35.5q37 10 62 35t25 58q0 37 -24 61t-60 24t-61 -24.5t-25 -60.5
q0 -33 23.5 -57.5zM640 800h113v-113h-113v113zM732 656h119v-119h-119v119z" />
    <glyph glyph-name="uni06A4.init" unicode="&#x6a4;" horiz-adv-x="476" arabic-form="initial" 
d="M-5 144h164q52 0 80.5 4t43.5 15l-64 10q-86 16 -129.5 62t-43.5 136q0 63 25.5 111.5t69 74.5t96.5 26q57 0 100.5 -26t67.5 -74t24 -112v-79q0 -132 -62 -212t-208 -80h-164v144zM83 762h119v-119h-119v119zM182 331.5q15 -15.5 50 -23.5l77 -20v84q0 34 -17.5 56
t-53.5 22q-35 0 -53 -22t-18 -56q0 -25 15 -40.5zM180 900h114v-102h-114v102zM270 762h119v-119h-119v119z" />
    <glyph glyph-name="uni06A4.medi" unicode="&#x6a4;" horiz-adv-x="552" arabic-form="medial" 
d="M-7 144h41q29 0 81 2q-22 24 -35 54t-13 61q0 54 27.5 103t76 79t107.5 30q57 0 104.5 -30t75 -79t27.5 -102q0 -32 -13 -62t-35 -54q50 -2 80 -2h40l8 -72l-8 -72h-67q-45 0 -103 10.5t-112 30.5q-54 -20 -111 -30.5t-101 -10.5h-70v144zM124 658h120v-120h-120v120z
M215.5 195.5q23.5 -24.5 59.5 -35.5q37 10 62 35t25 58q0 37 -24 61t-60 24q-37 0 -61.5 -24t-24.5 -61q0 -33 23.5 -57.5zM222 802h114v-114h-114v114zM314 658h120v-120h-120v120z" />
    <glyph glyph-name="uni0686.fina" unicode="&#x686;" horiz-adv-x="771" arabic-form="final" 
d="M783 73l-7 -73h-27q-88 0 -151.5 51t-91.5 151l-228 -110q-53 -25 -79 -61t-26 -78q0 -30 12 -60q20 -51 61 -71.5t119 -20.5h238v-141h-238q-113 0 -192 44.5t-112 141.5q-17 53 -17 104q0 83 43 152.5t130 110.5l263 126q-75 25 -137 42.5t-79 17.5q-21 0 -35.5 -12.5
t-25.5 -41.5l-112 35q24 78 68.5 119t104.5 41q38 0 112 -27t210 -83l34 -14l18 -150l-38 -19q17 -56 53 -79.5t96 -23.5h27zM273 70h112v-104h-112v104zM362 -65h107v-100h-107v100zM445 70h112v-104h-112v104z" />
    <glyph glyph-name="uni0686.init" unicode="&#x686;" horiz-adv-x="645" arabic-form="initial" 
d="M-9 144h120q94 0 177 24t171 71q-211 73 -246 73q-21 0 -35 -12.5t-25 -42.5l-112 36q23 78 68 119t104 41q41 0 129.5 -31t233.5 -91l19 -157q-94 -59 -163 -94t-149 -57.5t-172 -22.5h-120v144zM196 -79h119v-119h-119v119zM294 -229h113v-113h-113v113zM385 -79h120
v-119h-120v119z" />
    <glyph glyph-name="uni0686.medi" unicode="&#x686;" horiz-adv-x="682" arabic-form="medial" 
d="M534.5 25q-43.5 25 -67.5 73q-88 -48 -173 -73t-183 -25h-120v144h120q94 0 177 24t171 71q-211 73 -246 73q-21 0 -35 -12.5t-25 -42.5l-112 36q23 78 68 119t104 41q41 0 129.5 -31t233.5 -91l19 -157l-28 -17q34 -13 68 -13h55l9 -70l-9 -74h-51q-61 0 -104.5 25z
M200 -79h119v-119h-119v119zM298 -228h114v-114h-114v114zM389 -79h120v-119h-120v119z" />
    <glyph glyph-name="uni0688.fina" unicode="&#x688;" horiz-adv-x="611" arabic-form="final" 
d="M465 301l7 -17q25 -55 43.5 -84.5t38 -42.5t45.5 -13h17l7 -74l-7 -70h-17q-85 0 -146 67q-61 -67 -169 -67h-51q-61 0 -108.5 21t-74.5 45l60 115q18 -12 50.5 -24.5t72.5 -12.5h51q33 0 51 4.5t27 16.5q7 11 7 19q0 16 -20 57l-106 230l116 60zM211 725l15 -19l16 -20
l24 36v149h58v-88q20 11 44 11q42 0 67 -32t25 -76q0 -47 -27 -75t-69 -28h-47q-39 0 -60.5 8.5t-37 26t-53.5 68.5zM317 649h47q22 0 31 8t9 29q0 22 -8 32t-28 10q-16 0 -26 -8.5t-27 -33.5l-24 -35q16 -2 26 -2z" />
    <glyph glyph-name="uni0698.fina" unicode="&#x698;" horiz-adv-x="423" arabic-form="final" 
d="M352 335v-145q0 -26 13.5 -36t43.5 -10h19l6 -73l-6 -71h-19q-33 0 -58 16q-10 -128 -84 -198t-204 -70h-63v144h63q63 0 97.5 14.5t49 49t14.5 97.5v282h128zM113 573h120v-119h-120v119zM211 717h114v-113h-114v113zM303 573h119v-119h-119v119z" />
    <glyph glyph-name="uni0691.fina" unicode="&#x691;" horiz-adv-x="423" arabic-form="final" 
d="M352 335v-145q0 -26 13.5 -36t43.5 -10h19l6 -73l-6 -71h-19q-33 0 -58 16q-10 -128 -84 -198t-204 -70h-63v144h63q63 0 97.5 14.5t49 49t14.5 97.5v282h128zM154 546l31 -40l24 36v150h57v-89q20 11 44 11q42 0 67.5 -32t25.5 -76q0 -47 -27.5 -75t-68.5 -28h-47
q-39 0 -60.5 8.5t-37 26t-53.5 68.5zM260 470h47q22 0 31 7.5t9 28.5q0 22 -8.5 32.5t-28.5 10.5q-16 0 -26 -8.5t-27 -33.5l-24 -35q16 -2 27 -2z" />
    <glyph glyph-name="uni06A9.fina" unicode="&#x6a9;" horiz-adv-x="916" arabic-form="final" 
d="M147.5 27.5q-46.5 27.5 -71 74t-24.5 100.5q0 24 4 43q5 28 13.5 67t15.5 68l117 -29l-7 -32q-20 -78 -20 -108q0 -31 21 -49t60 -18h310q26 0 39.5 10t13.5 27q0 20 -19 43l-170 200l31 161l335 148l51 -132l-279 -123l125 -157l3 -4q62 -78 90.5 -109.5t55.5 -47.5
t62 -16h17l8 -70l-8 -74h-17q-52 0 -91.5 20.5t-86.5 69.5q-21 -42 -62.5 -66t-100.5 -24h-307q-62 0 -108.5 27.5z" />
    <glyph glyph-name="uni06A9.init" unicode="&#x6a9;" horiz-adv-x="470" arabic-form="initial" 
d="M474 601l-280 -123l154 -157q30 -30 45 -66.5t15 -74.5q0 -48 -22.5 -89t-66 -66t-101.5 -25h-223v144h226q26 0 40.5 10.5t14.5 27.5q0 21 -21 42l-199 200l31 161l335 148z" />
    <glyph glyph-name="uni06A9.medi" unicode="&#x6a9;" horiz-adv-x="542" arabic-form="medial" 
d="M474 601l-280 -123l126 -157l2 -2q63 -80 91 -111.5t55 -47.5t62 -16h17l8 -70l-8 -74h-17q-52 0 -91.5 20.5t-86.5 69.5q-21 -42 -62.5 -66t-100.5 -24h-194v144h197q26 0 39.5 10t13.5 27q0 20 -19 43l-170 200l31 161l335 148z" />
    <glyph glyph-name="uni06AF.fina" unicode="&#x6af;" horiz-adv-x="944" arabic-form="final" 
d="M880 575l-265 -118l108 -136l2 -2q62 -78 90.5 -110.5t56 -48.5t62.5 -16h14l8 -70l-8 -74h-14q-53 0 -92 20.5t-86 69.5q-21 -42 -62.5 -66t-100.5 -24h-313q-62 0 -108.5 27.5t-71 74t-24.5 100.5q0 24 4 43q5 28 13.5 67t15.5 68l117 -29l-7 -32q-20 -78 -20 -108
q0 -31 21 -49t60 -18h316q26 0 39.5 10t13.5 26q0 19 -20 44l-152 179l30 161l322 142zM524 680l249 109l19 -48l-274 -119z" />
    <glyph glyph-name="uni06AF.init" unicode="&#x6af;" horiz-adv-x="481" arabic-form="initial" 
d="M476 575l-261 -117l133 -137q30 -31 45 -67.5t15 -74.5q0 -47 -22.5 -88t-66 -66t-101.5 -25h-223v144h226q26 0 40.5 10.5t14.5 27.5q0 21 -21 42l-178 180l31 161l317 141zM120 680l250 109l18 -48l-274 -119z" />
    <glyph glyph-name="uni06AF.medi" unicode="&#x6af;" horiz-adv-x="542" arabic-form="medial" 
d="M476 575l-265 -118l109 -136q65 -82 93 -113.5t55 -47.5t62 -16h17v-144h-17q-52 0 -91.5 20.5t-86.5 69.5q-21 -42 -62.5 -66t-100.5 -24h-194v144h197q26 0 40 10t14 27q0 18 -20 43l-153 179l31 161l321 142zM120 680l250 109l18 -48l-274 -119z" />
    <glyph glyph-name="uni06BA.fina" unicode="&#x6ba;" horiz-adv-x="774" arabic-form="final" 
d="M698 16q-2 -124 -69 -196t-209 -72h-86q-90 0 -154 40t-97 108t-33 152q0 61 21 130t50 127l106 -56q-52 -109 -52 -201q0 -78 36.5 -117t122.5 -39h86q64 0 96 11t43.5 38t11.5 80v314h127v-141q0 -29 15.5 -39.5t44.5 -10.5h21l9 -75l-9 -69h-21q-34 0 -60 16z" />
    <glyph glyph-name="uni06C1.init" unicode="&#x6c1;" horiz-adv-x="395" arabic-form="initial" 
d="M-5 144h152q86 0 81 60q-5 62 -26 166l120 30q12 -53 22.5 -113t10.5 -97q0 -50 -22 -93t-67 -70t-109 -27h-162v144zM56 -218.5q6 23.5 29 63t73 108.5l62 -46q-56 -81 -64 -97q29 -6 48.5 -29.5t19.5 -54.5q0 -37 -25.5 -62.5t-60.5 -25.5q-37 0 -62.5 25.5t-25.5 62.5
q0 32 6 55.5z" />
    <glyph glyph-name="uni06BE.init" unicode="&#x6be;" horiz-adv-x="757" arabic-form="initial" 
d="M541 553l160 -241q37 -56 37 -125q0 -63 -31 -106q-34 -46 -97.5 -66t-169.5 -20q-94 0 -184 31q-84 -26 -180 -26h-81v144h87h4q-40 56 -40 121q0 61 28.5 113.5t78 83.5t109.5 31q58 0 107 -31t77 -83t28 -113q0 -71 -43 -128h4q78 0 114 7t48 21q10 12 10 27
q0 22 -18 48l-155 233zM195.5 209.5q22.5 -24.5 61.5 -41.5q44 16 67 40t23 55q0 41 -24 67t-61 26q-39 0 -64 -26t-25 -67q0 -29 22.5 -53.5z" />
    <glyph glyph-name="uni06C7.fina" unicode="&#x6c7;" horiz-adv-x="519" arabic-form="final" 
d="M283 -104.5q32 10.5 44.5 35t14.5 69.5h-86q-95 0 -150.5 55.5t-55.5 155.5q0 71 26.5 126t73 85.5t105.5 30.5q64 0 112.5 -30t75 -85t26.5 -127v-67h55l8 -73l-8 -71h-55q-4 -117 -72 -188t-208 -71h-119v144h119q62 0 94 10.5zM187 569q-9 16 -14 33q-5 14 -5 33
q0 34 19.5 62.5t51.5 39.5q20 6 39 6q33 0 58.5 -18.5t36.5 -53.5q6 -18 6 -35q0 -35 -23 -62t-64 -40l-142 -47l-18 64zM192 157.5q20 -19.5 64 -19.5h86v76q0 104 -87 104q-41 0 -62 -28t-21 -72q0 -41 20 -60.5zM237 585l46 14q22 6 32.5 17.5t10.5 25.5q0 4 -2 12
q-10 25 -38 25q-12 0 -29 -6t-26 -18.5t-9 -26.5q0 -7 1 -10q6 -20 14 -33z" />
    <glyph glyph-name="uni06C6.fina" unicode="&#x6c6;" horiz-adv-x="519" arabic-form="final" 
d="M283 -104.5q32 10.5 44.5 35t14.5 69.5h-86q-95 0 -150.5 55.5t-55.5 155.5q0 71 26.5 126t73 85.5t105.5 30.5q64 0 112.5 -30t75 -85t26.5 -127v-67h55l8 -73l-8 -71h-55q-4 -117 -72 -188t-208 -71h-119v144h119q62 0 94 10.5zM192 653l60 -96l59 96l49 -40l-71 -113
h-75l-71 113zM192 157.5q20 -19.5 64 -19.5h86v76q0 104 -87 104q-41 0 -62 -28t-21 -72q0 -41 20 -60.5z" />
    <glyph glyph-name="uni06C9.fina" unicode="&#x6c9;" horiz-adv-x="519" arabic-form="final" 
d="M283 -104.5q32 10.5 44.5 35t14.5 69.5h-86q-95 0 -150.5 55.5t-55.5 155.5q0 71 26.5 126t73 85.5t105.5 30.5q64 0 112.5 -30t75 -85t26.5 -127v-67h55l8 -73l-8 -71h-55q-4 -117 -72 -188t-208 -71h-119v144h119q62 0 94 10.5zM217 655h75l71 -113l-49 -40l-59 96
l-60 -96l-49 40zM192 157.5q20 -19.5 64 -19.5h86v76q0 104 -87 104q-41 0 -62 -28t-21 -72q0 -41 20 -60.5z" />
    <glyph glyph-name="uni06CC.fina" unicode="&#x6cc;" horiz-adv-x="776" arabic-form="final" 
d="M181.5 -212q-64.5 40 -98 108.5t-33.5 152.5q0 58 20.5 128t49.5 132l109 -57q-54 -122 -54 -201q0 -80 37 -119.5t122 -39.5h86q145 0 145 54q0 25 -38 36q-52 16 -143 18v144h397l8 -76l-8 -68h-106q15 -22 15 -58q-1 -51 -35.5 -95.5t-95.5 -71.5t-139 -27h-86
q-88 0 -152.5 40z" />
    <glyph glyph-name="uni06CC.init" unicode="&#x6cc;" horiz-adv-x="363" arabic-form="initial" 
d="M-6 144h111q45 0 64 15.5t17 44.5q-5 62 -26 166l120 30q12 -53 22.5 -113t10.5 -97q0 -50 -22 -93t-66.5 -70t-109.5 -27h-121v144zM-62 -122h119v-120h-119v120zM125 -122h120v-120h-120v120z" />
    <glyph glyph-name="uni06CC.medi" unicode="&#x6cc;" horiz-adv-x="419" arabic-form="medial" 
d="M312 335v-145q0 -26 14 -36t44 -10h54l6 -76l-6 -68h-54q-31 0 -65 12.5t-60 36.5q-28 -24 -63.5 -36.5t-72.5 -12.5h-114v144h114q42 0 59 11.5t17 39.5v140h127zM-74 -122h120v-120h-120v120zM114 -122h120v-120h-120v120z" />
    <glyph glyph-name="uniFDFC" unicode="&#xfdfc;" horiz-adv-x="1455" arabic-form="isolated" 
d="M1415 461v-282q0 -144 -75 -224.5t-214 -80.5h-19v144h19q63 0 97.5 14.5t49 49t14.5 97.5v282h128zM54 299.5q14 51.5 34 94.5l115 -62q-36 -77 -36 -133q0 -68 27.5 -101.5t94.5 -33.5h31q64 0 95.5 11t43.5 38t12 80v443q0 168 164 168h31q83 0 122.5 -44t39.5 -123
l1 -313q0 -38 4.5 -53.5t20 -21t52.5 -5.5h39q86 0 81 59q-5 62 -26 166l120 31q12 -53 22.5 -113t10.5 -97q0 -50 -22 -93t-66.5 -70t-109.5 -27h-50q-105 0 -154 60.5t-49 163.5l-1 301q0 18 -8 26.5t-29 8.5h-28q-22 0 -30 -8.5t-8 -26.5l1 -432q0 -126 -67.5 -199.5
t-211.5 -73.5h-31q-79 0 -135.5 39t-85 102.5t-28.5 137.5q0 49 14 100.5zM759 -1h129h5h130v-119h-130h-5h-129v119z" />
    <glyph glyph-name="uni0622.fina" unicode="&#x622;" horiz-adv-x="301" arabic-form="final" 
d="M115.5 61q-49.5 61 -49.5 164v337h127v-337q0 -38 4.5 -54t20 -21.5t52.5 -5.5h36l6 -74l-6 -70h-36q-105 0 -154.5 61zM-23 698q40 32 111 32h206v-101h-206q-35 0 -53 -14.5t-30 -43.5l-89 30q21 65 61 97z" />
    <glyph glyph-name="uni0623.fina" unicode="&#x623;" horiz-adv-x="301" arabic-form="final" 
d="M115.5 61q-49.5 61 -49.5 164v337h127v-337q0 -38 4.5 -54t20 -21.5t52.5 -5.5h36l6 -74l-6 -70h-36q-105 0 -154.5 61zM85 678q-36 31 -36 81q0 44 32 74.5t77 30.5q16 0 38.5 -5t26.5 -6l-11 -62q-38 7 -55 7q-23 0 -39 -12.5t-16 -30.5q0 -21 18 -35t47 -14q7 0 19 2
l69 20l4 -66l-219 -64l-4 66z" />
    <glyph glyph-name="uni0624.fina" unicode="&#x624;" horiz-adv-x="519" arabic-form="final" 
d="M283 -104.5q32 10.5 44.5 35t14.5 69.5h-86q-95 0 -150.5 55.5t-55.5 155.5q0 71 26.5 126t73 85.5t105.5 30.5q64 0 112.5 -30t75 -85t26.5 -127v-67h55l8 -73l-8 -71h-55q-4 -117 -72 -188t-208 -71h-119v144h119q62 0 94 10.5zM183 562q-35 30 -35 81q0 43 30 73
t73 32q24 0 70 -11l-11 -62q-37 7 -54 7q-23 0 -39 -12.5t-16 -31.5q0 -21 18 -34.5t47 -13.5q6 0 20 2l68 20l4 -66l-220 -64l-4 66zM192 157.5q20 -19.5 64 -19.5h86v76q0 104 -87 104q-41 0 -62 -28t-21 -72q0 -41 20 -60.5z" />
    <glyph glyph-name="uni0625.fina" unicode="&#x625;" horiz-adv-x="301" arabic-form="final" 
d="M115.5 61q-49.5 61 -49.5 164v443h127v-443q0 -38 4.5 -54t20 -21.5t52.5 -5.5h36l6 -74l-6 -70h-36q-105 0 -154.5 61zM81 -210q-35 30 -35 80q0 43 30 73.5t73 32.5q25 0 71 -11l-11 -62q-38 7 -55 7q-23 0 -39 -12.5t-16 -31.5q0 -21 18 -34.5t47 -13.5q5 0 19 2
l69 20l4 -67l-219 -64l-5 67z" />
    <glyph glyph-name="uni0626.fina" unicode="&#x626;" horiz-adv-x="776" arabic-form="final" 
d="M181.5 -212q-64.5 40 -98 108.5t-33.5 152.5q0 58 20.5 128t49.5 132l109 -57q-54 -122 -54 -201q0 -80 37 -119.5t122 -39.5h86q145 0 145 54q0 25 -38 36q-52 16 -143 18v144h397l8 -76l-8 -68h-106q15 -22 15 -58q-1 -51 -35.5 -95.5t-95.5 -71.5t-139 -27h-86
q-88 0 -152.5 40zM238 428q-36 31 -36 80q0 43 30.5 73.5t73.5 32.5q24 0 70 -11l-11 -62q-37 7 -54 7q-24 0 -39.5 -12.5t-16.5 -31.5q0 -21 18 -34.5t47 -13.5q5 0 19 2l69 20l4 -67l-219 -64l-4 67z" />
    <glyph glyph-name="uni0626.init" unicode="&#x626;" horiz-adv-x="336" arabic-form="initial" 
d="M-6 144h97q77 0 74 60q-3 44 -26 166l119 30q34 -147 34 -210q0 -49 -21.5 -92.5t-65 -70.5t-104.5 -27h-107v144zM63 548q-36 31 -36 81q0 45 32.5 75t77.5 30q21 0 64 -10l-11 -63q-38 8 -55 8q-23 0 -39 -13t-16 -31q0 -20 19 -34t49 -14q11 0 17 1l68 20l4 -66
l-219 -64l-4 66z" />
    <glyph glyph-name="uni0626.medi" unicode="&#x626;" horiz-adv-x="368" arabic-form="medial" 
d="M285 335v-145q0 -26 14 -36t44 -10h30l6 -77l-6 -67h-30q-31 0 -65 12.5t-60 36.5q-27 -24 -62.5 -36.5t-72.5 -12.5h-88v144h88q41 0 58 11.5t17 39.5v140h127zM73 483q-36 31 -36 81q0 45 32.5 75t77.5 30q21 0 64 -10l-11 -63q-38 8 -55 8q-23 -1 -39 -13.5t-16 -30.5
q0 -21 18 -35t47 -14q7 0 19 2l69 20l4 -66l-219 -64l-4 66z" />
    <glyph glyph-name="uni0627.fina" unicode="&#x627;" horiz-adv-x="301" arabic-form="final" 
d="M115.5 61q-49.5 61 -49.5 164v443h127v-443q0 -38 4.5 -54t20 -21.5t52.5 -5.5h36l6 -74l-6 -70h-36q-105 0 -154.5 61z" />
    <glyph glyph-name="uni0628.fina" unicode="&#x628;" horiz-adv-x="974" arabic-form="final" 
d="M146 27.5q-46 27.5 -70.5 73.5t-24.5 100q0 24 4 44q5 28 13 67t15 68l117 -29l-7 -32q-20 -78 -20 -108q0 -31 21 -49t60 -18h435q41 0 58 11.5t17 39.5v140h128v-145q0 -26 13.5 -36t43.5 -10h30l6 -74l-6 -70h-30q-32 0 -65.5 12.5t-59.5 38.5q-23 -26 -58 -38.5
t-77 -12.5h-435q-62 0 -108 27.5zM407 -121h133v-130h-133v130z" />
    <glyph glyph-name="uni0628.init" unicode="&#x628;" horiz-adv-x="336" arabic-form="initial" 
d="M-6 144h97q77 0 74 60q-3 44 -26 166l119 30q34 -147 34 -210q0 -49 -21.5 -92.5t-65 -70.5t-104.5 -27h-107v144zM-25 -121h133v-130h-133v130z" />
    <glyph glyph-name="uni0628.medi" unicode="&#x628;" horiz-adv-x="368" arabic-form="medial" 
d="M285 335v-145q0 -26 14 -36t44 -10h30l6 -77l-6 -67h-30q-31 0 -65 12.5t-60 36.5q-27 -24 -62.5 -36.5t-72.5 -12.5h-88v144h88q41 0 58 11.5t17 39.5v140h127zM-10 -121h133v-130h-133v130z" />
    <glyph glyph-name="uni0629.fina" unicode="&#x629;" horiz-adv-x="633" arabic-form="final" 
d="M429 478l60 -247q11 -49 44 -68t85 -19h20l8 -70l-8 -74h-20q-64 0 -122.5 27t-95.5 85q-29 -35 -66.5 -53.5t-78.5 -18.5q-51 0 -100 28q-51 27 -78 78.5t-27 108.5q0 60 28 106q16 29 35.5 48.5t60 42.5t116.5 56l-13 55l124 32zM152 760h120v-119h-120v119zM177 251
q0 -17 8.5 -33.5t24.5 -26.5q19 -13 44 -13q18 0 35.5 8t31.5 23q22 23 22 62q0 7 -2 25l-18 74q-68 -28 -96 -46t-39 -37q-11 -16 -11 -36zM340 760h120v-119h-120v119z" />
    <glyph glyph-name="uni062A.fina" unicode="&#x62a;" horiz-adv-x="974" arabic-form="final" 
d="M146 27.5q-46 27.5 -70.5 73.5t-24.5 100q0 24 4 44q5 28 13 67t15 68l117 -29l-7 -32q-20 -78 -20 -108q0 -31 21 -49t60 -18h435q41 0 58 11.5t17 39.5v140h128v-145q0 -26 13.5 -36t43.5 -10h30l6 -74l-6 -70h-30q-32 0 -65.5 12.5t-59.5 38.5q-23 -26 -58 -38.5
t-77 -12.5h-435q-62 0 -108 27.5zM334 481h119v-120h-119v120zM522 481h119v-120h-119v120z" />
    <glyph glyph-name="uni062A.init" unicode="&#x62a;" horiz-adv-x="363" arabic-form="initial" 
d="M-6 144h111q45 0 64 15.5t17 44.5q-5 62 -26 166l120 30q12 -53 22.5 -113t10.5 -97q0 -50 -22 -93t-66.5 -70t-109.5 -27h-121v144zM22 630h119v-119h-119v119zM209 630h120v-119h-120v119z" />
    <glyph glyph-name="uni062A.medi" unicode="&#x62a;" horiz-adv-x="419" arabic-form="medial" 
d="M312 335v-145q0 -26 14 -36t44 -10h54l6 -76l-6 -68h-54q-31 0 -65 12.5t-60 36.5q-28 -24 -63.5 -36.5t-72.5 -12.5h-114v144h114q42 0 59 11.5t17 39.5v140h127zM21 571h119v-119h-119v119zM208 571h120v-119h-120v119z" />
    <glyph glyph-name="uni062B.fina" unicode="&#x62b;" horiz-adv-x="974" arabic-form="final" 
d="M146 27.5q-46 27.5 -70.5 73.5t-24.5 100q0 24 4 44q5 28 13 67t15 68l117 -29l-7 -32q-20 -78 -20 -108q0 -31 21 -49t60 -18h435q41 0 58 11.5t17 39.5v140h128v-145q0 -26 13.5 -36t43.5 -10h30l6 -74l-6 -70h-30q-32 0 -65.5 12.5t-59.5 38.5q-23 -26 -58 -38.5
t-77 -12.5h-435q-62 0 -108 27.5zM329 474h120v-119h-120v119zM427 618h113v-114h-113v114zM519 474h119v-119h-119v119z" />
    <glyph glyph-name="uni062B.init" unicode="&#x62b;" horiz-adv-x="363" arabic-form="initial" 
d="M-6 144h111q45 0 64 15.5t17 44.5q-5 62 -26 166l120 30q12 -53 22.5 -113t10.5 -97q0 -50 -22 -93t-66.5 -70t-109.5 -27h-121v144zM22 630h120v-119h-120v119zM120 774h113v-114h-113v114zM212 630h119v-119h-119v119z" />
    <glyph glyph-name="uni062B.medi" unicode="&#x62b;" horiz-adv-x="419" arabic-form="medial" 
d="M312 335v-145q0 -26 14 -36t44 -10h54l6 -76l-6 -68h-54q-31 0 -65 12.5t-60 36.5q-28 -24 -63.5 -36.5t-72.5 -12.5h-114v144h114q42 0 59 11.5t17 39.5v140h127zM17 573h120v-120h-120v120zM115 717h113v-114h-113v114zM207 573h119v-120h-119v120z" />
    <glyph glyph-name="uni062C.fina" unicode="&#x62c;" horiz-adv-x="742" arabic-form="final" 
d="M593 -252h-268q-204 0 -260 158q-15 43 -15 86q0 73 42.5 134t117.5 93l273 112q-78 26 -144 45t-83 19q-21 0 -35.5 -12.5t-25.5 -42.5l-112 35q24 79 69 120t104 41q39 0 115 -28t215 -86l26 -11l19 -150l-62 -27q19 -52 53.5 -71t94.5 -19h28l6 -74l-6 -70h-28
q-176 0 -243 193l-216 -93q-44 -18 -66.5 -45.5t-22.5 -60.5q0 -16 6 -34q11 -37 48.5 -52.5t101.5 -15.5h268v-144zM332 76h121v-121h-121v121z" />
    <glyph glyph-name="uni062C.init" unicode="&#x62c;" horiz-adv-x="645" arabic-form="initial" 
d="M-9 144h120q94 0 177 24t171 71q-211 73 -246 73q-21 0 -35 -12.5t-25 -42.5l-112 36q23 78 68 119t104 41q41 0 129.5 -31t233.5 -91l19 -157q-94 -59 -163 -94t-149 -57.5t-172 -22.5h-120v144zM252 -111h133v-130h-133v130z" />
    <glyph glyph-name="uni062C.medi" unicode="&#x62c;" horiz-adv-x="682" arabic-form="medial" 
d="M534.5 25q-43.5 25 -67.5 73q-88 -48 -173 -73t-183 -25h-120v144h120q94 0 177 24t171 71q-211 73 -246 73q-21 0 -35 -12.5t-25 -42.5l-112 36q23 78 68 119t104 41q41 0 129.5 -31t233.5 -91l19 -157l-28 -17q34 -13 68 -13h55l9 -70l-9 -74h-51q-61 0 -104.5 25z
M268 -111h133v-130h-133v130z" />
    <glyph glyph-name="uni062D.fina" unicode="&#x62d;" horiz-adv-x="742" arabic-form="final" 
d="M593 -252h-268q-204 0 -260 158q-15 43 -15 86q0 73 42.5 134t117.5 93l273 112q-78 26 -144 45t-83 19q-21 0 -35.5 -12.5t-25.5 -42.5l-112 35q24 79 69 120t104 41q39 0 115 -28t215 -86l26 -11l19 -150l-62 -27q19 -52 53.5 -71t94.5 -19h28l6 -74l-6 -70h-28
q-176 0 -243 193l-216 -93q-44 -18 -66.5 -45.5t-22.5 -60.5q0 -16 6 -34q11 -37 48.5 -52.5t101.5 -15.5h268v-144z" />
    <glyph glyph-name="uni062D.init" unicode="&#x62d;" horiz-adv-x="645" arabic-form="initial" 
d="M-9 144h120q94 0 177 24t171 71q-211 73 -246 73q-21 0 -35 -12.5t-25 -42.5l-112 36q23 78 68 119t104 41q41 0 129.5 -31t233.5 -91l19 -157q-94 -59 -163 -94t-149 -57.5t-172 -22.5h-120v144z" />
    <glyph glyph-name="uni062D.medi" unicode="&#x62d;" horiz-adv-x="682" arabic-form="medial" 
d="M534.5 25q-43.5 25 -67.5 73q-88 -48 -173 -73t-183 -25h-120v144h120q94 0 177 24t171 71q-211 73 -246 73q-21 0 -35 -12.5t-25 -42.5l-112 36q23 78 68 119t104 41q41 0 129.5 -31t233.5 -91l19 -157l-28 -17q34 -13 68 -13h55l9 -70l-9 -74h-51q-61 0 -104.5 25z" />
    <glyph glyph-name="uni062E.fina" unicode="&#x62e;" horiz-adv-x="742" arabic-form="final" 
d="M593 -252h-268q-204 0 -260 158q-15 43 -15 86q0 73 42.5 134t117.5 93l273 112q-78 26 -144 45t-83 19q-21 0 -35.5 -12.5t-25.5 -42.5l-112 35q24 79 69 120t104 41q39 0 115 -28t215 -86l26 -11l19 -150l-62 -27q19 -52 53.5 -71t94.5 -19h28l6 -74l-6 -70h-28
q-176 0 -243 193l-216 -93q-44 -18 -66.5 -45.5t-22.5 -60.5q0 -16 6 -34q11 -37 48.5 -52.5t101.5 -15.5h268v-144zM202 731h133v-130h-133v130z" />
    <glyph glyph-name="uni062E.init" unicode="&#x62e;" horiz-adv-x="645" arabic-form="initial" 
d="M-9 144h120q94 0 177 24t171 71q-211 73 -246 73q-21 0 -35 -12.5t-25 -42.5l-112 36q23 78 68 119t104 41q41 0 129.5 -31t233.5 -91l19 -157q-94 -59 -163 -94t-149 -57.5t-172 -22.5h-120v144zM157 670h133v-130h-133v130z" />
    <glyph glyph-name="uni062E.medi" unicode="&#x62e;" horiz-adv-x="682" arabic-form="medial" 
d="M534.5 25q-43.5 25 -67.5 73q-88 -48 -173 -73t-183 -25h-120v144h120q94 0 177 24t171 71q-211 73 -246 73q-21 0 -35 -12.5t-25 -42.5l-112 36q23 78 68 119t104 41q41 0 129.5 -31t233.5 -91l19 -157l-28 -17q34 -13 68 -13h55l9 -70l-9 -74h-51q-61 0 -104.5 25z
M157 670h133v-130h-133v130z" />
    <glyph glyph-name="uni062F.fina" unicode="&#x62f;" horiz-adv-x="611" arabic-form="final" 
d="M465 301l7 -17q25 -55 43.5 -84.5t38 -42.5t45.5 -13h17l7 -74l-7 -70h-17q-85 0 -146 67q-61 -67 -169 -67h-51q-61 0 -108.5 21t-74.5 45l60 115q18 -12 50.5 -24.5t72.5 -12.5h51q33 0 51 4.5t27 16.5q7 11 7 19q0 16 -20 57l-106 230l116 60z" />
    <glyph glyph-name="uni0630.fina" unicode="&#x630;" horiz-adv-x="611" arabic-form="final" 
d="M465 301l7 -17q25 -55 43.5 -84.5t38 -42.5t45.5 -13h17l7 -74l-7 -70h-17q-85 0 -146 67q-61 -67 -169 -67h-51q-61 0 -108.5 21t-74.5 45l60 115q18 -12 50.5 -24.5t72.5 -12.5h51q33 0 51 4.5t27 16.5q7 11 7 19q0 16 -20 57l-106 230l116 60zM257 745h133v-130h-133
v130z" />
    <glyph glyph-name="uni0631.fina" unicode="&#x631;" horiz-adv-x="423" arabic-form="final" 
d="M352 335v-145q0 -26 13.5 -36t43.5 -10h19l6 -73l-6 -71h-19q-33 0 -58 16q-10 -128 -84 -198t-204 -70h-63v144h63q63 0 97.5 14.5t49 49t14.5 97.5v282h128z" />
    <glyph glyph-name="uni0632.fina" unicode="&#x632;" horiz-adv-x="423" arabic-form="final" 
d="M352 335v-145q0 -26 13.5 -36t43.5 -10h19l6 -73l-6 -71h-19q-33 0 -58 16q-10 -128 -84 -198t-204 -70h-63v144h63q63 0 97.5 14.5t49 49t14.5 97.5v282h128zM218 584h133v-130h-133v130z" />
    <glyph glyph-name="uni0633.fina" unicode="&#x633;" horiz-adv-x="1333" arabic-form="final" 
d="M175 48q0 -78 36.5 -117t122.5 -39h86q64 0 96 11t43.5 38t11.5 80v314h127v-128q0 -63 64 -63q30 0 47 15.5t17 47.5l-1 128h127v-128q0 -61 61 -63q29 1 44 16t15 47v128h127v-130q0 -33 15 -47t51 -14h73l7 -76l-7 -68h-68q-44 0 -78 16t-52 41q-17 -24 -54 -40.5
t-72 -16.5q-74 0 -126 57q-20 -25 -55 -41t-75 -16q-33 0 -60 12q-2 -122 -70 -193t-208 -71h-86q-90 0 -154 40t-97 108t-33 152q0 61 21 130t50 127l106 -56q-52 -109 -52 -201z" />
    <glyph glyph-name="uni0633.init" unicode="&#x633;" horiz-adv-x="813" arabic-form="initial" 
d="M-5 144h73q35 0 50.5 14.5t15.5 46.5v130h127v-133q0 -30 16.5 -44t45.5 -14q65 0 65 63v128h127l-1 -133q0 -58 60 -58q31 0 49.5 17t14.5 45q-14 91 -29 164l120 30q34 -147 34 -209q0 -50 -20 -93.5t-62 -70.5t-107 -27q-38 0 -70 15.5t-54 41.5q-23 -26 -56.5 -41.5
t-74.5 -15.5q-34 0 -71.5 17t-54.5 40q-18 -25 -52.5 -41t-77.5 -16h-68v144z" />
    <glyph glyph-name="uni0633.medi" unicode="&#x633;" horiz-adv-x="891" arabic-form="medial" 
d="M392 16q-34 -16 -74 -16q-34 0 -71.5 16.5t-53.5 40.5q-18 -25 -52.5 -41t-77.5 -16h-68v144h73q35 0 50.5 14t15.5 47v130h127v-128q0 -63 61 -63q62 0 62 63l-1 128h127v-128q0 -61 61 -63q29 1 44 16t15 47v128h127v-130q0 -33 15 -47t51 -14h73l6 -73l-6 -71h-68
q-44 0 -78 16t-52 41q-17 -24 -54 -40.5t-72 -16.5q-74 0 -126 57q-20 -25 -54 -41z" />
    <glyph glyph-name="uni0634.fina" unicode="&#x634;" horiz-adv-x="1333" arabic-form="final" 
d="M175 48q0 -78 36.5 -117t122.5 -39h86q64 0 96 11t43.5 38t11.5 80v314h127v-128q0 -63 64 -63q30 0 47 15.5t17 47.5l-1 128h127v-128q0 -61 61 -63q29 1 44 16t15 47v128h127v-130q0 -33 15 -47t51 -14h73l7 -76l-7 -68h-68q-44 0 -78 16t-52 41q-17 -24 -54 -40.5
t-72 -16.5q-74 0 -126 57q-20 -25 -55 -41t-75 -16q-33 0 -60 12q-2 -122 -70 -193t-208 -71h-86q-90 0 -154 40t-97 108t-33 152q0 61 21 130t50 127l106 -56q-52 -109 -52 -201zM737 571h120v-119h-120v119zM835 715h114v-114h-114v114zM927 571h120v-119h-120v119z" />
    <glyph glyph-name="uni0634.init" unicode="&#x634;" horiz-adv-x="813" arabic-form="initial" 
d="M-5 144h73q35 0 50.5 14.5t15.5 46.5v130h127v-133q0 -30 16.5 -44t45.5 -14q65 0 65 63v128h127l-1 -133q0 -58 60 -58q31 0 49.5 17t14.5 45q-14 91 -29 164l120 30q34 -147 34 -209q0 -50 -20 -93.5t-62 -70.5t-107 -27q-38 0 -70 15.5t-54 41.5q-23 -26 -56.5 -41.5
t-74.5 -15.5q-34 0 -71.5 17t-54.5 40q-18 -25 -52.5 -41t-77.5 -16h-68v144zM300 573h120v-119h-120v119zM398 717h113v-114h-113v114zM490 573h119v-119h-119v119z" />
    <glyph glyph-name="uni0634.medi" unicode="&#x634;" horiz-adv-x="891" arabic-form="medial" 
d="M392 16q-34 -16 -74 -16q-34 0 -71.5 16.5t-53.5 40.5q-18 -25 -52.5 -41t-77.5 -16h-68v144h73q35 0 50.5 14t15.5 47v130h127v-128q0 -63 61 -63q62 0 62 63l-1 128h127v-128q0 -61 61 -63q29 1 44 16t15 47v128h127v-130q0 -33 15 -47t51 -14h73l6 -73l-6 -71h-68
q-44 0 -78 16t-52 41q-17 -24 -54 -40.5t-72 -16.5q-74 0 -126 57q-20 -25 -54 -41zM294 571h119v-119h-119v119zM392 715h113v-113h-113v113zM484 571h119v-119h-119v119z" />
    <glyph glyph-name="uni0635.fina" unicode="&#x635;" horiz-adv-x="1348" arabic-form="final" 
d="M175 48q0 -78 36.5 -117t122.5 -39h86q64 0 96 11t43.5 38t11.5 80v314h127v-143q0 -21 7.5 -31.5t22.5 -14.5q9 12 17 25t17 26l68 102q53 80 105.5 117.5t118.5 37.5t112.5 -32.5t69.5 -85.5t23 -115q0 -32 -7 -59q26 -18 76 -18h23l11 -74l-11 -70h-26q-39 0 -74 16.5
t-60 41.5q-63 -58 -158 -58h-265q-39 0 -70 16q-2 -124 -69 -196t-209 -72h-86q-90 0 -154 40t-97 108t-33 152q0 61 21 130t50 127l106 -56q-52 -109 -52 -201zM1033 144q102 0 102 78q0 40 -20 64t-63 24q-34 0 -57.5 -17.5t-56.5 -59.5q-15 -19 -67 -89h162z" />
    <glyph glyph-name="uni0635.init" unicode="&#x635;" horiz-adv-x="883" arabic-form="initial" 
d="M301 147l102 152q53 80 105.5 117.5t118.5 37.5q67 0 113.5 -32.5t69.5 -85.5t23 -115q0 -61 -28 -111.5t-79 -80t-119 -29.5h-266q-35 -1 -70.5 14t-64.5 42q-30 -26 -66.5 -41t-73.5 -15h-71v144h73q39 0 57.5 10t18.5 34v147h128v-147q0 -32 29 -41zM607 144
q101 0 101 78q0 40 -20 64t-63 24q-34 0 -57.5 -17.5t-56.5 -59.5q-15 -19 -67 -89h163z" />
    <glyph glyph-name="uni0635.medi" unicode="&#x635;" horiz-adv-x="911" arabic-form="medial" 
d="M291 147l102 152q54 81 106.5 118t118.5 37t112.5 -32.5t69.5 -85.5t23 -115q0 -32 -7 -59q26 -18 75 -18h23l11 -74l-11 -70h-26q-39 0 -74 16t-60 41q-29 -27 -69 -42t-88 -15h-265q-35 -1 -70.5 14t-65.5 42q-30 -26 -66.5 -41t-73.5 -15h-71v144h73q40 0 58.5 10
t18.5 34v147h127v-147q0 -32 29 -41zM597 144q101 0 101 78q0 40 -20 64t-63 24q-33 0 -57.5 -17.5t-55.5 -59.5q-32 -40 -68 -89h163z" />
    <glyph glyph-name="uni0636.fina" unicode="&#x636;" horiz-adv-x="1348" arabic-form="final" 
d="M175 48q0 -78 36.5 -117t122.5 -39h86q64 0 96 11t43.5 38t11.5 80v314h127v-143q0 -21 7.5 -31.5t22.5 -14.5q9 12 17 25t17 26l68 102q53 80 105.5 117.5t118.5 37.5t112.5 -32.5t69.5 -85.5t23 -115q0 -32 -7 -59q26 -18 76 -18h23l11 -74l-11 -70h-26q-39 0 -74 16.5
t-60 41.5q-63 -58 -158 -58h-265q-39 0 -70 16q-2 -124 -69 -196t-209 -72h-86q-90 0 -154 40t-97 108t-33 152q0 61 21 130t50 127l106 -56q-52 -109 -52 -201zM1033 144q102 0 102 78q0 40 -20 64t-63 24q-34 0 -57.5 -17.5t-56.5 -59.5q-15 -19 -67 -89h162zM956 659h133
v-130h-133v130z" />
    <glyph glyph-name="uni0636.init" unicode="&#x636;" horiz-adv-x="883" arabic-form="initial" 
d="M301 147l102 152q53 80 105.5 117.5t118.5 37.5q67 0 113.5 -32.5t69.5 -85.5t23 -115q0 -61 -28 -111.5t-79 -80t-119 -29.5h-266q-35 -1 -70.5 14t-64.5 42q-30 -26 -66.5 -41t-73.5 -15h-71v144h73q39 0 57.5 10t18.5 34v147h128v-147q0 -32 29 -41zM607 144
q101 0 101 78q0 40 -20 64t-63 24q-34 0 -57.5 -17.5t-56.5 -59.5q-15 -19 -67 -89h163zM552 669h133v-130h-133v130z" />
    <glyph glyph-name="uni0636.medi" unicode="&#x636;" horiz-adv-x="911" arabic-form="medial" 
d="M291 147l102 152q54 81 106.5 118t118.5 37t112.5 -32.5t69.5 -85.5t23 -115q0 -32 -7 -59q26 -18 75 -18h23l11 -74l-11 -70h-26q-39 0 -74 16t-60 41q-29 -27 -69 -42t-88 -15h-265q-35 -1 -70.5 14t-65.5 42q-30 -26 -66.5 -41t-73.5 -15h-71v144h73q40 0 58.5 10
t18.5 34v147h127v-147q0 -32 29 -41zM597 144q101 0 101 78q0 40 -20 64t-63 24q-33 0 -57.5 -17.5t-55.5 -59.5q-32 -40 -68 -89h163zM552 668h133v-130h-133v130z" />
    <glyph glyph-name="uni0637.fina" unicode="&#x637;" horiz-adv-x="772" arabic-form="final" 
d="M63 144h98l27 40v484h127v-303q40 45 81.5 67t92.5 22q66 0 112.5 -32.5t69.5 -85.5t23 -115q0 -34 -9 -64q25 -13 67 -13h23l11 -74l-11 -70h-26q-36 0 -70 15t-59 37q-62 -52 -152 -52h-405v144zM468 144q101 0 101 78q0 40 -19.5 64t-62.5 24q-34 0 -58.5 -17.5
t-55.5 -59.5l-67 -89h162z" />
    <glyph glyph-name="uni0637.init" unicode="&#x637;" horiz-adv-x="672" arabic-form="initial" 
d="M-5 144h98l28 41l-1 483h127v-303q40 45 81.5 67t92.5 22q67 0 113.5 -32.5t69.5 -85.5t23 -115q0 -61 -28 -111.5t-79 -80t-119 -29.5h-406v144zM401 144q101 0 101 78q0 40 -20 64t-63 24q-34 0 -58.5 -17.5t-55.5 -59.5l-67 -89h163z" />
    <glyph glyph-name="uni0637.medi" unicode="&#x637;" horiz-adv-x="706" arabic-form="medial" 
d="M-5 144h98l28 41l-1 483h127v-303q40 45 81.5 67t92.5 22q67 0 113.5 -32.5t69.5 -85.5t23 -115q0 -30 -8 -64q23 -13 68 -13h22l11 -74l-11 -70h-26q-37 0 -71 15t-59 38q-61 -53 -152 -53h-406v144zM401 144q101 0 101 78q0 40 -20 64t-63 24q-34 0 -58.5 -17.5
t-55.5 -59.5l-67 -89h163z" />
    <glyph glyph-name="uni0638.fina" unicode="&#x638;" horiz-adv-x="772" arabic-form="final" 
d="M63 144h98l27 40v484h127v-303q40 45 81.5 67t92.5 22q66 0 112.5 -32.5t69.5 -85.5t23 -115q0 -34 -9 -64q25 -13 67 -13h23l11 -74l-11 -70h-26q-36 0 -70 15t-59 37q-62 -52 -152 -52h-405v144zM468 144q101 0 101 78q0 40 -19.5 64t-62.5 24q-34 0 -58.5 -17.5
t-55.5 -59.5l-67 -89h162zM437 705h133v-130h-133v130z" />
    <glyph glyph-name="uni0638.init" unicode="&#x638;" horiz-adv-x="672" arabic-form="initial" 
d="M-5 144h98l28 41l-1 483h127v-303q40 45 81.5 67t92.5 22q67 0 113.5 -32.5t69.5 -85.5t23 -115q0 -61 -28 -111.5t-79 -80t-119 -29.5h-406v144zM401 144q101 0 101 78q0 40 -20 64t-63 24q-34 0 -58.5 -17.5t-55.5 -59.5l-67 -89h163zM367 705h133v-130h-133v130z" />
    <glyph glyph-name="uni0638.medi" unicode="&#x638;" horiz-adv-x="706" arabic-form="medial" 
d="M-5 144h98l28 41l-1 483h127v-303q40 45 81.5 67t92.5 22q67 0 113.5 -32.5t69.5 -85.5t23 -115q0 -30 -8 -64q23 -13 68 -13h22l11 -74l-11 -70h-26q-37 0 -71 15t-59 38q-61 -53 -152 -53h-406v144zM401 144q101 0 101 78q0 40 -20 64t-63 24q-34 0 -58.5 -17.5
t-55.5 -59.5l-67 -89h163zM373 705h133v-130h-133v130z" />
    <glyph glyph-name="uni0639.fina" unicode="&#x639;" horiz-adv-x="612" arabic-form="final" 
d="M373.5 29.5q-48.5 29.5 -87.5 85.5l-23 -11q-93 -46 -93 -111q0 -18 5 -33q12 -37 49 -52.5t101 -15.5h219v-144h-219q-204 0 -260 158q-15 42 -15 82q0 72 42.5 134t119.5 98l3 1q-12 20 -19 30l-87 136l64 125h253q43 0 75.5 -22t50 -57t17.5 -74q0 -34 -13.5 -64
t-41.5 -51l-102 -76q37 -24 102 -24h100l10 -72l-10 -72h-113q-79 0 -127.5 29.5zM288 324l47 -69l108 85q14 11 14 26q0 12 -8 19.5t-23 7.5h-115h-66q23 -40 43 -69z" />
    <glyph glyph-name="uni0639.init" unicode="&#x639;" horiz-adv-x="524" arabic-form="initial" 
d="M474 0h-479v144h113q-29 46 -29 98q0 56 27 104.5t74 77t102 28.5q36 0 63.5 -8t49 -20t71.5 -43l-58 -106q-52 29 -74 38t-49 9q-35 0 -60 -22.5t-25 -55.5q0 -45 43 -72.5t136 -27.5h95v-144z" />
    <glyph glyph-name="uni0639.medi" unicode="&#x639;" horiz-adv-x="597" arabic-form="medial" 
d="M-5 144h46q81 0 138 11l-41 57q-46 66 -72 100l73 137h273q41 0 71 -18.5t46.5 -49t16.5 -66.5q0 -62 -44 -110l-58 -56q28 -5 73 -5h86l8 -73l-8 -71h-136q-47 0 -83.5 13t-74.5 39q-95 -52 -217 -52h-97v144zM261 247l54 -74q39 39 66 70l30 32q10 10 10 21t-8.5 18
t-23.5 7h-182z" />
    <glyph glyph-name="uni063A.fina" unicode="&#x63a;" horiz-adv-x="612" arabic-form="final" 
d="M373.5 29.5q-48.5 29.5 -87.5 85.5l-23 -11q-93 -46 -93 -111q0 -18 5 -33q12 -37 49 -52.5t101 -15.5h219v-144h-219q-204 0 -260 158q-15 42 -15 82q0 72 42.5 134t119.5 98l3 1q-12 20 -19 30l-87 136l64 125h253q43 0 75.5 -22t50 -57t17.5 -74q0 -34 -13.5 -64
t-41.5 -51l-102 -76q37 -24 102 -24h100l10 -72l-10 -72h-113q-79 0 -127.5 29.5zM288 324l47 -69l108 85q14 11 14 26q0 12 -8 19.5t-23 7.5h-115h-66q23 -40 43 -69zM280 717h133v-130h-133v130z" />
    <glyph glyph-name="uni063A.init" unicode="&#x63a;" horiz-adv-x="524" arabic-form="initial" 
d="M474 0h-479v144h113q-29 46 -29 98q0 56 27 104.5t74 77t102 28.5q36 0 63.5 -8t49 -20t71.5 -43l-58 -106q-52 29 -74 38t-49 9q-35 0 -60 -22.5t-25 -55.5q0 -45 43 -72.5t136 -27.5h95v-144zM214 668h133v-130h-133v130z" />
    <glyph glyph-name="uni063A.medi" unicode="&#x63a;" horiz-adv-x="597" arabic-form="medial" 
d="M-5 144h46q81 0 138 11l-41 57q-46 66 -72 100l73 137h273q41 0 71 -18.5t46.5 -49t16.5 -66.5q0 -62 -44 -110l-58 -56q28 -5 73 -5h86l8 -73l-8 -71h-136q-47 0 -83.5 13t-74.5 39q-95 -52 -217 -52h-97v144zM261 247l54 -74q39 39 66 70l30 32q10 10 10 21t-8.5 18
t-23.5 7h-182zM240 670h133v-130h-133v130z" />
    <glyph glyph-name="uni0641.fina" unicode="&#x641;" horiz-adv-x="975" arabic-form="final" 
d="M501 200q-13 30 -13 61q0 54 27.5 103t76 79t107.5 30q57 0 104.5 -30t75 -79t27.5 -102q0 -32 -12.5 -62.5t-35.5 -53.5q50 -2 80 -2h40l8 -72l-8 -72h-67q-45 0 -102 10.5t-112 30.5q-45 -16 -85.5 -24.5t-122.5 -12.5t-235 -4q-62 0 -108 27.5t-70.5 73.5t-24.5 100
q0 24 4 44q6 31 16 77.5t20 84.5l116 -29l-12 -56q-17 -70 -21 -99q-1 -4 -1 -12q0 -31 21 -49t60 -18q214 0 282 2q-22 24 -35 54zM636.5 190.5q23.5 -24.5 59.5 -35.5q37 10 62 35t25 58q0 37 -24 61t-60 24t-61 -24.5t-25 -60.5q0 -33 23.5 -57.5zM630 669h133v-130h-133
v130z" />
    <glyph glyph-name="uni0641.init" unicode="&#x641;" horiz-adv-x="479" arabic-form="initial" 
d="M-5 144h164q52 0 80.5 4t43.5 15l-64 10q-86 16 -129.5 62t-43.5 136q0 63 25.5 111.5t69 74.5t96.5 26q57 0 100.5 -26t67.5 -74t24 -112v-79q0 -132 -62 -212t-208 -80h-164v144zM182 331.5q15 -15.5 50 -23.5l77 -20v84q0 34 -17.5 56t-53.5 22q-35 0 -53 -22t-18 -56
q0 -25 15 -40.5zM172 770h133v-130h-133v130z" />
    <glyph glyph-name="uni0641.medi" unicode="&#x641;" horiz-adv-x="552" arabic-form="medial" 
d="M-7 144h41q29 0 81 2q-22 24 -35 54t-13 61q0 54 27.5 103t76 79t107.5 30q57 0 104.5 -30t75 -79t27.5 -102q0 -32 -13 -62t-35 -54q50 -2 80 -2h40l8 -72l-8 -72h-67q-45 0 -103 10.5t-112 30.5q-54 -20 -111 -30.5t-101 -10.5h-70v144zM215.5 195.5
q23.5 -24.5 59.5 -35.5q37 10 62 35t25 58q0 37 -24 61t-60 24q-37 0 -61.5 -24t-24.5 -61q0 -33 23.5 -57.5zM210 670h133v-130h-133v130z" />
    <glyph glyph-name="uni0642.fina" unicode="&#x642;" horiz-adv-x="775" arabic-form="final" 
d="M172 59q0 -85 40 -126t134 -41h99q62 0 93.5 10t44 33t14.5 65h-85q-96 0 -151 55.5t-55 155.5q0 71 26 126t72.5 85.5t106.5 30.5q63 0 111.5 -30t75 -85t26.5 -127v-67h56l8 -73l-8 -71h-56q-4 -113 -71.5 -182.5t-207.5 -69.5h-99q-146 0 -221 77.5t-75 222.5
q0 83 21 151t49 135l110 -50q-58 -130 -58 -225zM352 655h119v-120h-119v120zM447 157.5q20 -19.5 65 -19.5h85v76q0 104 -86 104q-41 0 -62.5 -28t-21.5 -72q0 -41 20 -60.5zM539 655h120v-120h-120v120z" />
    <glyph glyph-name="uni0642.init" unicode="&#x642;" horiz-adv-x="476" arabic-form="initial" 
d="M-5 144h164q52 0 80.5 4t43.5 15l-64 10q-86 16 -129.5 62t-43.5 136q0 63 25.5 111.5t69 74.5t96.5 26q57 0 100.5 -26t67.5 -74t24 -112v-79q0 -132 -62 -212t-208 -80h-164v144zM76 757h119v-119h-119v119zM182 331.5q15 -15.5 50 -23.5l77 -20v84q0 34 -17.5 56
t-53.5 22q-35 0 -53 -22t-18 -56q0 -25 15 -40.5zM264 757h119v-119h-119v119z" />
    <glyph glyph-name="uni0642.medi" unicode="&#x642;" horiz-adv-x="552" arabic-form="medial" 
d="M-7 144h41q29 0 81 2q-22 24 -35 54t-13 61q0 54 27.5 103t76 79t107.5 30q57 0 104.5 -30t75 -79t27.5 -102q0 -32 -13 -62t-35 -54q50 -2 80 -2h40l8 -72l-8 -72h-67q-45 0 -103 10.5t-112 30.5q-54 -20 -111 -30.5t-101 -10.5h-70v144zM125 658h119v-119h-119v119z
M215.5 195.5q23.5 -24.5 59.5 -35.5q37 10 62 35t25 58q0 37 -24 61t-60 24q-37 0 -61.5 -24t-24.5 -61q0 -33 23.5 -57.5zM312 658h120v-119h-120v119z" />
    <glyph glyph-name="uni0643.fina" unicode="&#x643;" horiz-adv-x="858" arabic-form="final" 
d="M146 27.5q-46 27.5 -70.5 73.5t-24.5 100q0 24 4 44q5 28 13 67t15 68l117 -29l-7 -32q-20 -78 -20 -108q0 -31 21 -49t60 -18h334q31 0 45.5 11t14.5 40v473h127v-473q0 -29 14 -40t44 -11h30l8 -70l-8 -74h-30q-31 0 -62.5 12.5t-55.5 37.5q-26 -25 -60 -37.5
t-65 -12.5h-336q-62 0 -108 27.5zM357 306h68q7 0 8 2.5t-4 7.5l-61 62l11 58l104 47l23 -56l-71 -33l37 -37q21 -21 21 -49q0 -26 -18.5 -45t-48.5 -19h-77z" />
    <glyph glyph-name="uni0643.init" unicode="&#x643;" horiz-adv-x="470" arabic-form="initial" 
d="M474 601l-280 -123l154 -157q30 -30 45 -66.5t15 -74.5q0 -48 -22.5 -89t-66 -66t-101.5 -25h-223v144h226q26 0 40.5 10.5t14.5 27.5q0 21 -21 42l-199 200l31 161l335 148z" />
    <glyph glyph-name="uni0643.medi" unicode="&#x643;" horiz-adv-x="542" arabic-form="medial" 
d="M474 601l-280 -123l126 -157l2 -2q63 -80 91 -111.5t55 -47.5t62 -16h17l8 -70l-8 -74h-17q-52 0 -91.5 20.5t-86.5 69.5q-21 -42 -62.5 -66t-100.5 -24h-194v144h197q26 0 39.5 10t13.5 27q0 20 -19 43l-170 200l31 161l335 148z" />
    <glyph glyph-name="uni0644.fina" unicode="&#x644;" horiz-adv-x="741" arabic-form="final" 
d="M180 -212q-64 40 -97 108t-33 152q0 48 15 105t37 108l112 -47q-41 -94 -41 -166q0 -77 37.5 -116.5t123.5 -39.5h50q64 0 96 11t43.5 38t11.5 80l1 665h126l1 -492q0 -29 15 -39.5t44 -10.5h21l9 -75l-9 -69h-21q-34 0 -59 16q-2 -124 -69.5 -196t-209.5 -72h-50
q-90 0 -154 40z" />
    <glyph glyph-name="uni0644.init" unicode="&#x644;" horiz-adv-x="284" arabic-form="initial" 
d="M205 85q-29 -44 -72 -64.5t-84 -20.5h-54v144h47q65 0 65 64v460h127v-473q0 -66 -29 -110z" />
    <glyph glyph-name="uni0644.medi" unicode="&#x644;" horiz-adv-x="316" arabic-form="medial" 
d="M-5 144h51q31 0 46 11t15 40v473h127v-473v-5v0q0 -26 14 -36t44 -10h29l7 -77l-7 -67h-29q-31 0 -62.5 12t-55.5 36q-27 -24 -60.5 -36t-64.5 -12h-54v144z" />
    <glyph glyph-name="uni0645.fina" unicode="&#x645;" horiz-adv-x="684" arabic-form="final" 
d="M697 74l-8 -74h-14q-75 0 -118 40q-24 -29 -56.5 -43.5t-68.5 -14.5t-85 16.5t-136 52.5l-34 14v-351h-127v426l99 82q9 -4 19 -8t22 -9l20 76q22 87 74.5 133t124.5 46q58 0 103.5 -31t71.5 -86t26 -126q0 -32 5.5 -47t18.5 -20.5t41 -5.5h14zM436 122q55 0 55 94
q0 51 -21.5 78.5t-56.5 27.5q-29 0 -51 -21t-33 -61l-21 -81q100 -37 128 -37z" />
    <glyph glyph-name="uni0645.init" unicode="&#x645;" horiz-adv-x="553" arabic-form="initial" 
d="M-5 144h26q20 0 30.5 9.5t15.5 31.5l26 96q22 87 74 133t125 46q58 0 103.5 -31.5t71.5 -87t26 -124.5q0 -83 -27 -135.5t-67.5 -76t-84.5 -23.5q-34 0 -71.5 13.5t-111.5 48.5q-23 -21 -51 -32.5t-57 -11.5h-28v144zM272 131q26 -9 47 -9q55 0 55 94q0 51 -22 78.5
t-57 27.5q-29 0 -51 -21t-32 -61l-20 -75q54 -25 80 -34z" />
    <glyph glyph-name="uni0645.medi" unicode="&#x645;" horiz-adv-x="566" arabic-form="medial" 
d="M-5 144h26q20 0 30.5 9.5t15.5 31.5l26 96q22 87 74 133t125 46q58 0 103.5 -31.5t71.5 -87t26 -124.5q0 -32 5.5 -47t18.5 -20.5t40 -5.5h15l8 -70l-8 -74h-15q-73 0 -118 40q-26 -29 -58.5 -43.5t-66.5 -14.5t-71.5 13.5t-111.5 48.5q-23 -21 -51 -32.5t-57 -11.5h-28
v144zM272 131q26 -9 47 -9q55 0 55 94q0 51 -22 78.5t-57 27.5q-29 0 -51 -21t-32 -61l-20 -75q54 -25 80 -34z" />
    <glyph glyph-name="uni0646.fina" unicode="&#x646;" horiz-adv-x="774" arabic-form="final" 
d="M698 16q-2 -124 -69 -196t-209 -72h-86q-90 0 -154 40t-97 108t-33 152q0 61 21 130t50 127l106 -56q-52 -109 -52 -201q0 -78 36.5 -117t122.5 -39h86q64 0 96 11t43.5 38t11.5 80v314h127v-141q0 -29 15.5 -39.5t44.5 -10.5h21l9 -75l-9 -69h-21q-34 0 -60 16zM330 426
h133v-130h-133v130z" />
    <glyph glyph-name="uni0646.init" unicode="&#x646;" horiz-adv-x="336" arabic-form="initial" 
d="M-6 144h97q77 0 74 60q-3 44 -26 166l119 30q34 -147 34 -210q0 -49 -21.5 -92.5t-65 -70.5t-104.5 -27h-107v144zM81 641h133v-130h-133v130z" />
    <glyph glyph-name="uni0646.medi" unicode="&#x646;" horiz-adv-x="368" arabic-form="medial" 
d="M285 335v-145q0 -26 14 -36t44 -10h30l6 -77l-6 -67h-30q-31 0 -65 12.5t-60 36.5q-27 -24 -62.5 -36.5t-72.5 -12.5h-88v144h88q41 0 58 11.5t17 39.5v140h127zM115 583h133v-130h-133v130z" />
    <glyph glyph-name="uni0647.fina" unicode="&#x647;" horiz-adv-x="633" arabic-form="final" 
d="M429 478l60 -247q11 -49 44 -68t85 -19h20l8 -70l-8 -74h-20q-64 0 -122.5 27t-95.5 85q-29 -35 -66.5 -53.5t-78.5 -18.5q-51 0 -100 28q-51 27 -78 78.5t-27 108.5q0 60 28 106q16 29 35.5 48.5t60 42.5t116.5 56l-13 55l124 32zM177 251q0 -17 8.5 -33.5t24.5 -26.5
q19 -13 44 -13q18 0 35.5 8t31.5 23q22 23 22 62q0 7 -2 25l-18 74q-68 -28 -96 -46t-39 -37q-11 -16 -11 -36z" />
    <glyph glyph-name="uni0647.init" unicode="&#x647;" horiz-adv-x="757" arabic-form="initial" 
d="M541 553l160 -241q37 -56 37 -125q0 -63 -31 -106q-34 -46 -97.5 -66t-169.5 -20q-94 0 -184 31q-84 -26 -180 -26h-81v144h87h4q-40 56 -40 121q0 61 28.5 113.5t78 83.5t109.5 31q58 0 107 -31t77 -83t28 -113q0 -71 -43 -128h4q78 0 114 7t48 21q10 12 10 27
q0 22 -18 48l-155 233zM195.5 209.5q22.5 -24.5 61.5 -41.5q44 16 67 40t23 55q0 41 -24 67t-61 26q-39 0 -64 -26t-25 -67q0 -29 22.5 -53.5z" />
    <glyph glyph-name="uni0647.medi" unicode="&#x647;" horiz-adv-x="567" arabic-form="medial" 
d="M-5 144h54v71q0 119 58.5 187t156.5 68q54 0 102 -29.5t76.5 -81t28.5 -113.5q0 -21 -3 -42q-7 -48 -33 -86q46 26 99 26h38l8 -70l-8 -74h-32q-38 0 -59 -20.5t-21 -62.5v-65l-111 -111q-135 0 -214 67.5t-85 191.5h-55v144zM348 226q3 15 3 27q0 39 -24.5 60t-62.5 21
q-88 0 -88 -119v-71q159 5 172 82zM221 -87q39 -32 112 -33v52q0 68 34 121q-75 -47 -190 -52q5 -56 44 -88z" />
    <glyph glyph-name="uni0648.fina" unicode="&#x648;" horiz-adv-x="519" arabic-form="final" 
d="M283 -104.5q32 10.5 44.5 35t14.5 69.5h-86q-95 0 -150.5 55.5t-55.5 155.5q0 71 26.5 126t73 85.5t105.5 30.5q64 0 112.5 -30t75 -85t26.5 -127v-67h55l8 -73l-8 -71h-55q-4 -117 -72 -188t-208 -71h-119v144h119q62 0 94 10.5zM192 157.5q20 -19.5 64 -19.5h86v76
q0 104 -87 104q-41 0 -62 -28t-21 -72q0 -41 20 -60.5z" />
    <glyph glyph-name="uni0649.fina" unicode="&#x649;" horiz-adv-x="776" arabic-form="final" 
d="M181.5 -212q-64.5 40 -98 108.5t-33.5 152.5q0 58 20.5 128t49.5 132l109 -57q-54 -122 -54 -201q0 -80 37 -119.5t122 -39.5h86q145 0 145 54q0 25 -38 36q-52 16 -143 18v144h397l8 -76l-8 -68h-106q15 -22 15 -58q-1 -51 -35.5 -95.5t-95.5 -71.5t-139 -27h-86
q-88 0 -152.5 40z" />
    <glyph glyph-name="uni064A.fina" unicode="&#x64a;" horiz-adv-x="776" arabic-form="final" 
d="M181.5 -212q-64.5 40 -98 108.5t-33.5 152.5q0 58 20.5 128t49.5 132l109 -57q-54 -122 -54 -201q0 -80 37 -119.5t122 -39.5h86q145 0 145 54q0 25 -38 36q-52 16 -143 18v144h397l8 -76l-8 -68h-106q15 -22 15 -58q-1 -51 -35.5 -95.5t-95.5 -71.5t-139 -27h-86
q-88 0 -152.5 40zM215 -299h119v-119h-119v119zM402 -299h120v-119h-120v119z" />
    <glyph glyph-name="uni064A.init" unicode="&#x64a;" horiz-adv-x="363" arabic-form="initial" 
d="M-6 144h111q45 0 64 15.5t17 44.5q-5 62 -26 166l120 30q12 -53 22.5 -113t10.5 -97q0 -50 -22 -93t-66.5 -70t-109.5 -27h-121v144zM-62 -122h119v-120h-119v120zM125 -122h120v-120h-120v120z" />
    <glyph glyph-name="uni064A.medi" unicode="&#x64a;" horiz-adv-x="419" arabic-form="medial" 
d="M312 335v-145q0 -26 14 -36t44 -10h54l6 -76l-6 -68h-54q-31 0 -65 12.5t-60 36.5q-28 -24 -63.5 -36.5t-72.5 -12.5h-114v144h114q42 0 59 11.5t17 39.5v140h127zM-74 -122h120v-120h-120v120zM114 -122h120v-120h-120v120z" />
    <glyph glyph-name=".notdef" horiz-adv-x="255" 
d="M38 429h179v-433h-179v433zM208 4v417h-161v-417h161z" />
    <glyph glyph-name=".null" 
 />
    <glyph glyph-name="nonmarkingreturn" unicode="&#xd;" horiz-adv-x="255" 
 />
    <glyph glyph-name="space" unicode=" " horiz-adv-x="190" 
 />
    <glyph glyph-name="exclam" unicode="!" horiz-adv-x="298" 
d="M205 233h-109l-16 496h140zM91 125.5q24 23.5 60 23.5q35 0 59.5 -24t24.5 -58q0 -36 -24.5 -60.5t-59.5 -24.5q-36 0 -60 24.5t-24 60.5q0 35 24 58.5z" />
    <glyph glyph-name="quotedbl" unicode="&#x22;" horiz-adv-x="339" 
d="M329 681l-14 -193h-85v262h99v-69zM56 683v67h99v-69l-14 -193h-86z" />
    <glyph glyph-name="numbersign" unicode="#" horiz-adv-x="589" 
d="M134 200h-112v81h126l26 146h-116v81h130l36 203h86l-36 -203h99l36 203h86l-36 -203h108v-81h-122l-26 -146h110v-81h-124l-35 -200h-87l36 200h-99l-35 -200h-87zM332 281l27 146h-99l-26 -146h98z" />
    <glyph glyph-name="dollar" unicode="$" horiz-adv-x="572" 
d="M101 61.5q-55 59.5 -55 158.5h135q0 -60 28.5 -92t82.5 -32q46 0 72 24.5t26 65.5q0 47 -32 73q-17 15 -36 24t-54 23q-53 20 -83 38q-57 31 -85 74t-28 105q0 81 52 134t141 63v104h75v-106q87 -12 136 -71.5t49 -155.5h-135q0 58 -25 91t-69 33q-43 0 -66 -24t-23 -67
q0 -44 29 -70q16 -14 38.5 -25.5t58.5 -25.5q36 -13 69 -30q61 -32 92 -76.5t31 -109.5q0 -83 -51.5 -135t-142.5 -60v-96h-75v96q-100 10 -155 69.5z" />
    <glyph glyph-name="percent" unicode="%" horiz-adv-x="738" 
d="M89 680q42 41 111 41q70 0 111.5 -40.5t41.5 -108.5v-35q0 -65 -42 -105.5t-110 -40.5q-70 0 -112 40.5t-42 108.5v34q0 65 42 106zM155 486.5q17 -19.5 46 -19.5t45 19.5t16 56.5v31q0 31 -16.5 50.5t-45.5 19.5q-28 0 -45 -19.5t-17 -51.5v-36q0 -31 17 -50.5zM509 645
l66 -36l-347 -556l-66 37zM388 174q0 66 42 106.5t111 40.5q70 0 112 -40.5t42 -109.5v-34q0 -66 -42 -106.5t-111 -40.5t-111.5 40.5t-42.5 108.5v35zM496 87q18 -20 46 -20t44 16.5t18 46.5v44q0 32 -17 51t-46 19q-28 0 -45 -19t-18 -50v-38q0 -30 18 -50z" />
    <glyph glyph-name="ampersand" unicode="&#x26;" horiz-adv-x="653" 
d="M113 464q-16 36 -16 73q0 84 52.5 134t139.5 50q51 0 92 -21.5t64 -58.5t23 -83q0 -45 -24 -83.5t-75 -75.5l-43 -31l129 -150q30 57 30 126h115q0 -135 -64 -220l106 -124h-154l-39 45q-77 -55 -181 -55q-70 0 -122.5 25t-81 70.5t-28.5 105.5q0 51 28 92.5t102 95.5
q-37 49 -53 85zM199.5 124.5q28.5 -28.5 74.5 -28.5q55 0 102 34l-146 170q-31 -27 -45 -51.5t-14 -50.5q0 -45 28.5 -73.5zM264 442l42 29q27 18 38 36t11 44q0 27 -19 45.5t-47 18.5q-32 0 -51.5 -21t-19.5 -55q0 -37 46 -97z" />
    <glyph glyph-name="quotesingle" unicode="'" horiz-adv-x="188" 
d="M144 681l-14 -193h-86v262h100v-69z" />
    <glyph glyph-name="parenleft" unicode="(" horiz-adv-x="425" 
d="M223.5 545q-66.5 -112 -66.5 -265q0 -157 65.5 -266t156.5 -188l-74 -89q-118 91 -195.5 228.5t-77.5 314.5q0 179 77 315.5t196 228.5l74 -89q-89 -78 -155.5 -190z" />
    <glyph glyph-name="parenright" unicode=")" horiz-adv-x="425" 
d="M316 595.5q77 -136.5 77 -315.5q0 -177 -77.5 -314.5t-195.5 -228.5l-74 89q91 79 156.5 188t65.5 266q0 153 -66.5 265t-155.5 190l74 89q119 -92 196 -228.5z" />
    <glyph glyph-name="asterisk" unicode="*" horiz-adv-x="451" 
d="M168 472l-155 44l28 85l153 -60l-10 170h93l-9 -173l148 58l29 -85l-157 -44l103 -131l-75 -53l-90 142l-89 -137l-75 50z" />
    <glyph glyph-name="plus" unicode="+" horiz-adv-x="547" 
d="M337 394h178v-118h-178v-205h-129v205h-180v118h180v195h129v-195z" />
    <glyph glyph-name="comma" unicode="," horiz-adv-x="273" 
d="M63.5 -62q12.5 38 13.5 73v121h131v-105q-1 -59 -31 -120.5t-76 -100.5l-80 42q30 52 42.5 90z" />
    <glyph glyph-name="hyphen" unicode="-" horiz-adv-x="380" 
d="M323 252h-271v106h271v-106z" />
    <glyph glyph-name="period" unicode="." horiz-adv-x="344" 
d="M108.5 22q-25.5 26 -25.5 64q0 37 25.5 62.5t63.5 25.5q37 0 63 -25.5t26 -62.5q0 -38 -25.5 -64t-63.5 -26t-63.5 26z" />
    <glyph glyph-name="slash" unicode="/" horiz-adv-x="375" 
d="M258 711h104l-264 -772h-104z" />
    <glyph glyph-name="zero" unicode="0" horiz-adv-x="572" 
d="M463.5 68q-60.5 -78 -177.5 -78q-116 0 -176.5 77t-61.5 224v126q0 149 60.5 226.5t176.5 77.5q117 0 177.5 -76.5t61.5 -224.5v-124q0 -150 -60.5 -228zM208 140q25 -44 78 -44q52 0 77 42t27 133v164q0 93 -25 136.5t-80 43.5q-52 0 -76.5 -42t-25.5 -128v-167
q0 -94 25 -138z" />
    <glyph glyph-name="one" unicode="1" horiz-adv-x="572" 
d="M387 0h-135v556l-170 -55v108l291 103h14v-712z" />
    <glyph glyph-name="two" unicode="2" horiz-adv-x="572" 
d="M534 0h-485v90l236 254q47 53 68 91.5t21 72.5q0 50 -25.5 78.5t-70.5 28.5q-49 0 -78 -34t-29 -91h-136q1 61 29.5 114t83 85t128.5 32q111 0 172.5 -52.5t61.5 -147.5q0 -55 -35.5 -114.5t-120.5 -154.5l-131 -146h311v-106z" />
    <glyph glyph-name="three" unicode="3" horiz-adv-x="572" 
d="M192 414h74q53 1 82 27.5t29 75.5q0 47 -26 72.5t-75 25.5q-43 0 -71 -25t-28 -64h-136q0 48 25.5 92.5t78.5 73.5t131 29q110 0 172.5 -54t62.5 -148q0 -47 -29.5 -88.5t-81.5 -65.5q59 -20 91 -62.5t32 -103.5q0 -63 -31.5 -110t-88 -73t-130.5 -26q-71 0 -125.5 25.5
t-85 71.5t-30.5 107h136q0 -43 30.5 -70.5t77.5 -27.5q52 0 81.5 28t29.5 76q0 110 -119 112h-76v102z" />
    <glyph glyph-name="four" unicode="4" horiz-adv-x="572" 
d="M463 262h83v-105h-83v-157h-135v157h-294l-6 81l297 472l138 1v-449zM328 262v271l-165 -271h165z" />
    <glyph glyph-name="five" unicode="5" horiz-adv-x="572" 
d="M72 351l41 360h395v-110h-285l-18 -162q21 12 50.5 19.5t58.5 7.5q102 0 159 -63t57 -175q0 -70 -28.5 -124t-82 -84t-126.5 -30q-69 0 -123 27t-84.5 73.5t-31.5 105.5h133q4 -48 32 -74t73 -26q50 0 77 35.5t27 102.5q0 63 -31 97.5t-87 34.5q-30 0 -53.5 -9.5
t-44.5 -31.5z" />
    <glyph glyph-name="six" unicode="6" horiz-adv-x="572" 
d="M263 559.5q-62 -50.5 -75 -143.5q58 58 146 58q61 0 106.5 -30t70.5 -84.5t25 -125.5q0 -68 -28.5 -123.5t-82.5 -88t-126 -32.5q-69 0 -126 33.5t-90 97.5t-33 150v53q0 98 34 175q39 104 123.5 161t200.5 57h22v-108q-105 1 -167 -49.5zM214.5 138q29.5 -42 81.5 -42
q47 0 76 38t29 98q0 62 -29.5 99.5t-78.5 37.5q-36 0 -65.5 -20t-42.5 -51v-43q0 -75 29.5 -117z" />
    <glyph glyph-name="seven" unicode="7" horiz-adv-x="572" 
d="M530 638l-277 -638h-143l277 605h-357v106h500v-73z" />
    <glyph glyph-name="eight" unicode="8" horiz-adv-x="572" 
d="M483.5 430.5q-26.5 -40.5 -72.5 -64.5q54 -25 84 -69.5t30 -102.5q0 -94 -64.5 -149t-173.5 -55q-111 0 -175.5 55t-64.5 149q0 58 30 102.5t84 69.5q-47 24 -73 64.5t-26 92.5q0 91 61 144.5t163 53.5t163 -53.5t61 -144.5q0 -52 -26.5 -92.5zM210 124.5
q28 -28.5 77 -28.5q47 0 75 29t28 78q0 50 -28.5 79.5t-75.5 29.5t-75.5 -29.5t-28.5 -79.5t28 -78.5zM221 444.5q24 -27.5 66 -27.5q41 0 64.5 27.5t23.5 72.5t-24 71.5t-65 26.5t-65 -26t-24 -72q0 -45 24 -72.5z" />
    <glyph glyph-name="nine" unicode="9" horiz-adv-x="572" 
d="M323.5 246.5q-35.5 -15.5 -73.5 -15.5q-62 0 -109 29.5t-72.5 83.5t-25.5 126q0 73 30.5 130t84.5 89t121 32q72 0 126 -36t84 -101.5t30 -150.5v-49q0 -132 -46 -221q-43 -83 -122.5 -126t-188.5 -43h-14v110h27q193 5 208 186q-24 -28 -59.5 -43.5zM206 371
q28 -38 76 -38q34 0 61 18t41 48v55q0 76 -28.5 118.5t-76.5 42.5q-45 0 -73 -40.5t-28 -102.5q0 -63 28 -101z" />
    <glyph glyph-name="colon" unicode=":" horiz-adv-x="297" 
d="M84.5 325q-25.5 26 -25.5 64q0 37 25.5 62.5t63.5 25.5t64 -25.5t26 -62.5q0 -38 -26 -64t-64 -26t-63.5 26zM84.5 143q25.5 25 63.5 25t64 -25t26 -62q0 -38 -26 -64.5t-64 -26.5t-63.5 26.5t-25.5 64.5q0 37 25.5 62z" />
    <glyph glyph-name="semicolon" unicode=";" horiz-adv-x="332" 
d="M98 -62q13 38 14 73v121h130v-105q-1 -59 -31 -120.5t-76 -100.5l-80 42q30 52 43 90zM113.5 446q25.5 25 63.5 25t64 -25t26 -62q0 -38 -26 -64.5t-64 -26.5t-63.5 26.5t-25.5 64.5q0 37 25.5 62z" />
    <glyph glyph-name="less" unicode="&#x3c;" horiz-adv-x="509" 
d="M164 304l282 -103v-128l-419 179v107l419 179v-128z" />
    <glyph glyph-name="equal" unicode="=" horiz-adv-x="571" 
d="M501 371h-434v107h434v-107zM67 268h434v-107h-434v107z" />
    <glyph glyph-name="greater" unicode="&#x3e;" horiz-adv-x="517" 
d="M347 306l-289 105v127l425 -179v-107l-425 -179v127z" />
    <glyph glyph-name="question" unicode="?" horiz-adv-x="494" 
d="M185.5 315.5q14.5 38.5 50.5 72.5q43 41 54 54q33 38 33 79q0 43 -20 65.5t-60 22.5q-38 0 -60.5 -23.5t-23.5 -63.5h-135q1 91 59 143t160 52t158.5 -50t56.5 -141q0 -41 -17.5 -78t-54.5 -74q-19 -17 -55 -53q-21 -21 -30 -46.5t-10 -63.5h-121q1 66 15.5 104.5z
M174.5 115q23.5 23 58.5 23t58.5 -23t23.5 -57q0 -35 -24 -59t-58 -24q-35 0 -58.5 24t-23.5 59q0 34 23.5 57z" />
    <glyph glyph-name="at" unicode="@" horiz-adv-x="904" 
d="M97 450q53 109 150.5 177.5t224.5 68.5q122 0 209.5 -52.5t132 -151t40.5 -233.5q-2 -79 -29 -139.5t-74 -94.5t-107 -35q-89 0 -119 66q-51 -65 -129 -65q-58 0 -99.5 42t-41.5 139q0 11 2 37q6 68 35 131t78.5 103t111.5 40q60 0 99 -19.5t52 -34.5l-24 -254
q-3 -25 -3 -45q0 -42 12.5 -54t41.5 -12q51 0 80.5 56t29.5 158q0 164 -76 251t-223 87q-100 0 -176.5 -56t-117.5 -148.5t-41 -198.5q0 -171 76 -262.5t232 -91.5q37 0 84 9.5t73 24.5l18 -71q-34 -20 -83 -31.5t-97 -11.5q-202 0 -298.5 122t-96.5 323q0 117 53 226z
M360 174q0 -57 17.5 -78.5t53.5 -21.5q25 0 43.5 19t36.5 61q1 3 1 8l21 232q-19 10 -48 9q-51 0 -83.5 -53t-40.5 -141q-1 -13 -1 -35z" />
    <glyph glyph-name="A" unicode="A" horiz-adv-x="669" 
d="M269 711h130l266 -711h-148l-52 154h-260l-52 -154h-148zM429 264l-95 281l-93 -281h188z" />
    <glyph glyph-name="B" unicode="B" horiz-adv-x="636" 
d="M66 711h245q129 0 195 -49.5t66 -144.5q0 -53 -26.5 -92t-75.5 -58q57 -15 88 -57t31 -102q0 -101 -64.5 -154t-187.5 -54h-271v711zM335 110q54 0 84 26t30 73q0 105 -109 105h-135v-204h130zM316 412q58 0 87 24t29 69q0 51 -29 73.5t-92 22.5h-106v-189h111z" />
    <glyph glyph-name="C" unicode="C" horiz-adv-x="654" 
d="M180.5 31q-65.5 41 -101 118t-35.5 183v49q0 70 25.5 147.5t91 135t176.5 57.5q123 0 197.5 -66t85.5 -183h-140q-5 72 -40 105t-103 33q-75 0 -113 -56t-38 -167v-58q0 -115 36.5 -171t112.5 -56q68 0 103 31t41 102h140q-4 -57 -32 -112.5t-90.5 -94t-161.5 -38.5
q-89 0 -154.5 41z" />
    <glyph glyph-name="D" unicode="D" horiz-adv-x="650" 
d="M66 711h217q95 0 168 -42.5t114 -119t41 -174.5v-37q0 -99 -40 -175.5t-113 -119.5t-169 -43h-218v711zM281 110q88 0 135.5 58.5t47.5 169.5v35q0 111 -46.5 169t-133.5 59h-79v-491h76z" />
    <glyph glyph-name="E" unicode="E" horiz-adv-x="563" 
d="M66 711h472v-110h-333v-182h286v-107h-286v-202h334v-110h-473v711z" />
    <glyph glyph-name="F" unicode="F" horiz-adv-x="549" 
d="M66 711h461v-110h-322v-196h286v-110h-286v-295h-139v711z" />
    <glyph glyph-name="G" unicode="G" horiz-adv-x="682" 
d="M194.5 29.5q-68.5 39.5 -106.5 113.5t-39 173l-1 62q-1 98 32.5 176t100.5 122.5t163 44.5q124 0 195 -59t85 -174h-136q-11 64 -45 93.5t-95 29.5q-76 0 -117 -59.5t-41 -170.5v-49q0 -112 43.5 -172t127.5 -60q85 0 123 38v130h-137v102h277v-280q-38 -47 -109.5 -73.5
t-160.5 -26.5q-91 0 -159.5 39.5z" />
    <glyph glyph-name="H" unicode="H" horiz-adv-x="707" 
d="M66 711h139v-292h296v292h139v-711h-139v310h-296v-310h-139v711z" />
    <glyph glyph-name="I" unicode="I" horiz-adv-x="290" 
d="M75 711h140v-711h-140v711z" />
    <glyph glyph-name="J" unicode="J" horiz-adv-x="558" 
d="M83 47q-62 57 -62 160h140q0 -107 97 -107q45 0 70.5 31t25.5 85v495h141v-494q0 -66 -29.5 -117.5t-83 -80.5t-124.5 -29q-113 0 -175 57z" />
    <glyph glyph-name="K" unicode="K" horiz-adv-x="635" 
d="M66 711h139v-329l65 86l190 243h172l-256 -315l265 -396h-167l-192 291l-77 -82v-209h-139v711z" />
    <glyph glyph-name="L" unicode="L" horiz-adv-x="540" 
d="M66 711h140v-601h313v-110h-453v711z" />
    <glyph glyph-name="M" unicode="M" horiz-adv-x="875" 
d="M66 711h183l188 -529l188 529h184v-711h-141v210l14 324l-197 -534h-96l-197 533l13 -323v-210h-139v711z" />
    <glyph glyph-name="N" unicode="N" horiz-adv-x="706" 
d="M66 711h140l295 -485v485h139v-711h-140l-294 484v-484h-140v711z" />
    <glyph glyph-name="O" unicode="O" horiz-adv-x="689" 
d="M188.5 32.5q-68.5 42.5 -106.5 119t-38 176.5v45q0 102 36 181t104 123t160 44q90 0 158.5 -42.5t105.5 -121t37 -182.5v-37q0 -105 -37 -183.5t-105 -121.5t-158 -43q-88 0 -156.5 42.5zM226.5 163.5q41.5 -61.5 118.5 -61.5q76 0 116.5 59.5t41.5 171.5v41
q0 114 -41 174t-118 60q-75 0 -116.5 -56.5t-42.5 -161.5v-52q0 -113 41.5 -174.5z" />
    <glyph glyph-name="P" unicode="P" horiz-adv-x="643" 
d="M66 711h274q80 0 140.5 -29.5t92.5 -82t32 -119.5q0 -105 -70.5 -164.5t-196.5 -59.5h-133v-256h-139v711zM340 366q60 0 91.5 29t31.5 84t-32 88t-88 34h-138v-235h135z" />
    <glyph glyph-name="Q" unicode="Q" horiz-adv-x="689" 
d="M344 -10q-88 0 -156.5 42.5t-107 119.5t-38.5 178v43q0 105 37.5 183.5t106 121.5t157.5 43q90 0 158 -43t105.5 -121.5t37.5 -180.5v-38q0 -99 -32 -173.5t-91 -118.5l119 -94l-89 -78l-151 121q-32 -5 -56 -5zM225 163.5q41 -61.5 119 -61.5q76 0 116.5 59.5
t41.5 171.5v41q0 114 -41 174t-118 60q-76 0 -117 -59.5t-42 -170.5v-40q0 -113 41 -174.5z" />
    <glyph glyph-name="R" unicode="R" horiz-adv-x="638" 
d="M65 711h262q125 0 193.5 -55.5t68.5 -159.5q0 -70 -33 -119.5t-96 -76.5l155 -293v-7h-150l-137 266h-123v-266h-140v711zM328 375q56 0 88 30t32 82q0 54 -31 83.5t-89 30.5h-123v-226h123z" />
    <glyph glyph-name="S" unicode="S" horiz-adv-x="617" 
d="M182.5 17q-65.5 26 -105.5 78t-40 126h141q0 -60 37 -91t108 -31q55 0 85.5 23t30.5 64q0 24 -9 42t-29 31q-20 14 -46 24.5t-65 22.5q-69 23 -99 38q-132 65 -132 180q0 60 35 105t94.5 69t131.5 24q74 0 133.5 -27.5t93 -77.5t33.5 -114h-141q0 52 -32 81t-90 29
q-54 0 -86 -24t-32 -65q0 -39 41 -65q20 -14 42.5 -23t67.5 -24q6 -2 44.5 -15t72.5 -32q113 -64 113 -178q0 -91 -69 -143.5t-188 -52.5q-75 0 -140.5 26z" />
    <glyph glyph-name="T" unicode="T" horiz-adv-x="617" 
d="M237 601h-217v110h577v-110h-220v-601h-140v601z" />
    <glyph glyph-name="U" unicode="U" horiz-adv-x="658" 
d="M185.5 19.5q-61.5 29.5 -94.5 84.5t-33 130v477h141v-476q0 -66 33.5 -100.5t96.5 -34.5q64 0 97.5 34.5t33.5 100.5v476h140v-476q0 -110 -71 -175.5t-200 -69.5q-82 0 -143.5 29.5z" />
    <glyph glyph-name="V" unicode="V" horiz-adv-x="651" 
d="M5 711h154l151 -495l15 -50l15 51l151 494h156l-249 -711h-146z" />
    <glyph glyph-name="W" unicode="W" horiz-adv-x="876" 
d="M18 711h140l87 -428l12 -72l16 69l107 431h119l106 -431l16 -69l12 73l87 427h140l-160 -711h-141l-104 401l-16 71l-15 -71l-106 -401h-140z" />
    <glyph glyph-name="X" unicode="X" horiz-adv-x="634" 
d="M227 358l-210 353h162l138 -251l138 251h162l-209 -353l214 -358h-164l-141 255l-142 -255h-163z" />
    <glyph glyph-name="Y" unicode="Y" horiz-adv-x="617" 
d="M237 259l-235 452h154l152 -328l153 328h153l-235 -452v-259h-142v259z" />
    <glyph glyph-name="Z" unicode="Z" horiz-adv-x="606" 
d="M36 82l359 519h-358v110h530v-80l-358 -521h367v-110h-540v82z" />
    <glyph glyph-name="bracketleft" unicode="[" horiz-adv-x="264" 
d="M242 723h-71v-785h71v-101h-207v988h207v-102z" />
    <glyph glyph-name="backslash" unicode="\" horiz-adv-x="375" 
d="M277 -61l-264 772h104l265 -772h-105z" />
    <glyph glyph-name="bracketright" unicode="]" horiz-adv-x="284" 
d="M229 825v-988h-207v101h71v785h-71v102h207z" />
    <glyph glyph-name="asciicircum" unicode="^" horiz-adv-x="435" 
d="M246 514l-18 94l-97 -252h-108l146 355h98l146 -355h-108z" />
    <glyph glyph-name="underscore" unicode="_" horiz-adv-x="445" 
d="M444 -103h-443v103h443v-103z" />
    <glyph glyph-name="a" unicode="a" horiz-adv-x="536" 
d="M122 10.5q-41 20.5 -64.5 57t-23.5 80.5q0 84 63.5 129t181.5 45h66v33q0 41 -21 63t-62 22q-37 0 -59 -18.5t-22 -49.5h-134q0 46 28.5 84t79 60t114.5 22q97 0 153 -47.5t58 -131.5v-237q0 -72 20 -114v-8h-136q-8 18 -14 51q-52 -61 -137 -61q-50 0 -91 20.5zM190 110
q20 -18 53 -18t61 16.5t41 40.5v94h-57q-118 0 -118 -85q0 -30 20 -48z" />
    <glyph glyph-name="b" unicode="b" horiz-adv-x="562" 
d="M184 57l-7 -57h-122v750h136v-270q49 58 131 58q97 0 152 -71.5t55 -199.5v-8q0 -126 -55 -197.5t-150 -71.5q-89 0 -140 67zM289 97q55 0 79.5 42.5t24.5 130.5q0 161 -105 161q-31 0 -57 -15.5t-40 -42.5v-218q28 -58 98 -58z" />
    <glyph glyph-name="c" unicode="c" horiz-adv-x="521" 
d="M98 62.5q-65 72.5 -65 198.5v11q0 77 28 137t82.5 94.5t131.5 34.5q98 0 157.5 -55.5t61.5 -148.5h-127q-1 45 -27 71.5t-67 26.5q-104 0 -105 -160v-16q-1 -82 25.5 -121t80.5 -39q40 0 66 23.5t27 60.5h127q-1 -52 -29 -95.5t-77.5 -69t-111.5 -25.5q-113 0 -178 72.5z
" />
    <glyph glyph-name="d" unicode="d" horiz-adv-x="563" 
d="M131 23.5q-47 33.5 -72.5 96.5t-25.5 148q0 82 25.5 143t72.5 94t110 33q79 0 130 -59v271h135v-750h-122l-7 57q-51 -67 -137 -67q-62 0 -109 33.5zM196 138.5q27 -41.5 78 -41.5q67 0 97 58v218q-30 58 -96 58q-49 0 -77.5 -38.5t-28.5 -110.5v-24q0 -78 27 -119.5z
" />
    <glyph glyph-name="e" unicode="e" horiz-adv-x="538" 
d="M160 22.5q-59 32.5 -91.5 91.5t-32.5 137v14q0 78 29.5 140t85 97.5t130.5 35.5q108 0 169.5 -69t61.5 -193v-54h-339v-2q6 -56 41.5 -90t90.5 -34q81 0 129 61l67 -70q-32 -46 -85.5 -71.5t-119.5 -25.5q-77 0 -136 32.5zM379 314v10q-2 52 -27.5 80t-71.5 28
q-43 0 -71 -30.5t-35 -87.5h205z" />
    <glyph glyph-name="f" unicode="f" horiz-adv-x="356" 
d="M95 432h-80v96h80v47q0 88 50 136.5t141 48.5q34 0 71 -9l-2 -102q-16 4 -44 4q-40 0 -60.5 -20t-20.5 -58v-47h107v-96h-107v-432h-135v432z" />
    <glyph glyph-name="g" unicode="g" horiz-adv-x="569" 
d="M150.5 -185q-54.5 23 -83.5 61l61 80q49 -61 129 -61q59 0 90 31.5t31 91.5v28q-50 -56 -131 -56q-63 0 -111 34t-74.5 96t-26.5 145v6q0 81 27 141.5t75 93t111 32.5q89 0 138 -61l5 51h123v-511q0 -47 -23 -98.5t-79 -89t-149 -37.5q-58 0 -112.5 23zM199.5 140
q29.5 -43 82.5 -43q66 0 96 53v229q-31 52 -95 52q-54 0 -83.5 -44t-29.5 -129q0 -75 29.5 -118z" />
    <glyph glyph-name="h" unicode="h" horiz-adv-x="559" 
d="M52 750h136v-281q56 69 143 69q86 0 129.5 -50t44.5 -149v-339h-135v338q-1 48 -21.5 70.5t-65.5 22.5q-32 0 -56.5 -14t-38.5 -39v-378h-136v750z" />
    <glyph glyph-name="i" unicode="i" horiz-adv-x="262" 
d="M63 528h136v-528h-136v528zM75.5 715.5q20.5 19.5 55.5 19.5q34 0 55 -19.5t21 -49.5t-21 -49.5t-55 -19.5q-35 0 -55.5 19.5t-20.5 49.5t20.5 49.5z" />
    <glyph glyph-name="j" unicode="j" horiz-adv-x="258" 
d="M-47 -205v104q21 -4 45 -4q33 0 49 17t16 53v563h136v-563q0 -87 -46 -132.5t-131 -45.5q-34 0 -69 8zM73 715.5q21 19.5 56 19.5q34 0 55 -19.5t21 -49.5t-21 -49.5t-56 -19.5q-34 0 -55 19.5t-21 49.5t21 49.5z" />
    <glyph glyph-name="k" unicode="k" horiz-adv-x="531" 
d="M56 750h135v-420l30 36l140 162h162l-194 -218l211 -310h-156l-143 216l-50 -52v-164h-135v750z" />
    <glyph glyph-name="l" unicode="l" horiz-adv-x="262" 
d="M63 750h136v-750h-136v750z" />
    <glyph glyph-name="m" unicode="m" horiz-adv-x="867" 
d="M55 528h127l5 -60q55 70 153 70q104 0 141 -82q57 82 161 82q83 0 125.5 -47.5t43.5 -142.5v-348h-135v339q0 48 -18.5 70t-64.5 22q-33 0 -55 -16q-28 -18 -38 -54l1 -7v-354h-135v338q0 48 -19.5 70.5t-64.5 22.5q-31 0 -54 -13q-24 -16 -38 -43v-375h-135v528z" />
    <glyph glyph-name="n" unicode="n" horiz-adv-x="559" 
d="M53 528h127l5 -64q56 74 153 74q165 0 167 -194v-344h-135v340q-1 48 -20.5 69.5t-66.5 21.5q-32 0 -56.5 -15t-38.5 -42v-374h-135v528z" />
    <glyph glyph-name="o" unicode="o" horiz-adv-x="565" 
d="M154 22q-56 32 -87.5 90.5t-33.5 137.5v19q-2 74 27 135t85.5 97.5t136.5 36.5q75 0 131.5 -33.5t87 -95t30.5 -144.5v-6q0 -81 -31 -142t-87 -94t-130 -33q-73 0 -129 32zM198 138q30 -42 85 -42q54 0 83.5 41t30.5 118v14q0 77 -30 120t-85 43q-52 0 -81.5 -39
t-32.5 -113v-21q0 -79 30 -121z" />
    <glyph glyph-name="p" unicode="p" horiz-adv-x="562" 
d="M55 528h126l5 -53q50 63 136 63q96 0 151 -71.5t55 -198.5v-9q0 -81 -25 -141.5t-71.5 -94t-108.5 -33.5q-82 0 -132 56v-249h-136v731zM288 96q49 0 76.5 41t28.5 119v14q0 78 -27.5 119.5t-78.5 41.5q-69 0 -96 -54v-226q28 -55 97 -55z" />
    <glyph glyph-name="q" unicode="q" horiz-adv-x="564" 
d="M240 -10q-62 0 -108.5 32.5t-72.5 93.5t-26 144v10q-1 125 55.5 196.5t152.5 71.5q87 0 138 -65l8 55h119v-731h-136v249q-50 -56 -130 -56zM195.5 138q27.5 -42 78.5 -42q68 0 96 54v229q-29 53 -95 53q-49 0 -77.5 -39t-28.5 -113v-21q-1 -79 26.5 -121z" />
    <glyph glyph-name="r" unicode="r" horiz-adv-x="363" 
d="M55 528h129l3 -65q44 75 120 75q26 0 44 -6l-2 -126q-14 4 -50 4q-82 0 -108 -60v-350h-136v528z" />
    <glyph glyph-name="s" unicode="s" horiz-adv-x="514" 
d="M142 13q-52 23 -82.5 63.5t-30.5 90.5h128q1 -40 28.5 -61t72.5 -21q41 0 63.5 16.5t22.5 43.5q0 28 -26.5 44t-85.5 29q-93 20 -139.5 59t-46.5 99q0 46 26.5 83t74 58t108.5 21q65 0 114.5 -21.5t77 -59.5t27.5 -88h-135q0 34 -23 54.5t-62 20.5q-35 0 -57 -17.5
t-22 -44.5q0 -29 29.5 -43t83.5 -27q28 -6 39 -10q75 -21 111.5 -57.5t36.5 -94.5q0 -47 -28 -83.5t-77.5 -56.5t-113.5 -20q-62 0 -114 23z" />
    <glyph glyph-name="t" unicode="t" horiz-adv-x="337" 
d="M84 144v288h-79v96h79v130h135v-130h92v-96h-92v-276q0 -31 12 -44.5t43 -13.5q14 0 42 4v-100q-40 -12 -83 -12q-149 0 -149 154z" />
    <glyph glyph-name="u" unicode="u" horiz-adv-x="559" 
d="M97.5 40q-44.5 50 -45.5 146v342h136v-342q0 -89 78 -89q76 0 103 55v376h136v-528h-127l-3 55q-53 -65 -147 -65q-86 0 -130.5 50z" />
    <glyph glyph-name="v" unicode="v" horiz-adv-x="504" 
d="M7 528h141l103 -361l103 361h141l-180 -528h-128z" />
    <glyph glyph-name="w" unicode="w" horiz-adv-x="736" 
d="M15 528h130l61 -286l13 -63l99 349h98l100 -348l12 62l61 286h130l-136 -528h-113l-89 299l-15 49l-14 -49l-88 -299h-113z" />
    <glyph glyph-name="x" unicode="x" horiz-adv-x="507" 
d="M170 269l-152 259h146l90 -164l93 164h145l-153 -259l160 -269h-146l-98 173l-98 -173h-146z" />
    <glyph glyph-name="y" unicode="y" horiz-adv-x="500" 
d="M57 -205v101q7 -1 22 -1q39 -1 60 13t33 49l17 42l-186 529h145l103 -337l6 22l96 315h144l-214 -614l-9 -22q-46 -105 -156 -105q-26 1 -61 8z" />
    <glyph glyph-name="z" unicode="z" horiz-adv-x="507" 
d="M36 82l258 340h-250v106h421v-79l-260 -343h268v-106h-437v82z" />
    <glyph glyph-name="braceleft" unicode="{" horiz-adv-x="330" 
d="M113 50v97q0 107 -89 107v95q89 0 89 107v102q1 88 44.5 142.5t130.5 79.5l26 -74q-77 -27 -79 -147v-103q0 -110 -87 -155q87 -45 87 -155v-103q2 -119 79 -146l-26 -74q-175 50 -175 227z" />
    <glyph glyph-name="bar" unicode="|" horiz-adv-x="251" 
d="M168 -132h-84v843h84v-843z" />
    <glyph glyph-name="braceright" unicode="}" horiz-adv-x="324" 
d="M95 43v103q0 110 86 155q-86 45 -86 155v103q-1 120 -79 147l26 74q87 -25 130 -79.5t44 -142.5v-102q0 -107 89 -107v-95q-89 0 -89 -107v-97q0 -178 -174 -227l-26 74q76 27 79 146z" />
    <glyph glyph-name="asciitilde" unicode="~" horiz-adv-x="651" 
d="M576.5 282.5q-20.5 -45.5 -57 -71t-83.5 -25.5q-33 0 -62 12q-14 6 -30.5 18.5t-31.5 25.5q-28 25 -49.5 38t-42.5 13q-29 0 -47.5 -24.5t-18.5 -64.5l-101 1q0 89 44 143t117 54q36 0 69 -15q24 -12 63 -45q30 -25 47 -36t36 -11q30 0 49 25.5t19 65.5h100
q0 -58 -20.5 -103.5z" />
    <glyph glyph-name="uni00A0" unicode="&#xa0;" horiz-adv-x="44" 
 />
    <glyph glyph-name="brokenbar" unicode="&#xa6;" horiz-adv-x="250" 
d="M64 -132v387h122v-387h-122zM64 711h122v-370h-122v370z" />
    <glyph glyph-name="copyright" unicode="&#xa9;" horiz-adv-x="793" 
d="M210.5 33.5q-81.5 50.5 -128.5 136t-47 186.5q0 103 47 188t128.5 134.5t180.5 49.5t180.5 -49.5t128 -134.5t46.5 -188q0 -101 -47 -186.5t-128.5 -136t-179.5 -50.5q-99 0 -180.5 50.5zM147 204q37 -69 101.5 -109t142.5 -40t142 40t101.5 109t37.5 152q0 84 -37 152.5
t-101.5 107.5t-142.5 39t-142.5 -39t-101.5 -107t-37 -153q0 -83 37 -152zM207 384q0 88 49 142t129 54q84 0 128.5 -44t42.5 -123h-89q1 49 -18.5 69.5t-63.5 20.5q-42 0 -66 -31.5t-24 -89.5v-55q0 -56 24 -87.5t66 -31.5q45 0 63.5 20t17.5 71h89q2 -81 -42.5 -124.5
t-127.5 -43.5q-81 0 -129.5 54t-48.5 145v54z" />
    <glyph glyph-name="guillemotleft" unicode="&#xab;" horiz-adv-x="438" 
d="M338 145q16 -36 50 -76l-58 -59q-45 43 -71.5 93.5t-26.5 115.5t26.5 115.5t71.5 93.5l58 -59q-35 -40 -50.5 -75.5t-15.5 -74.5q0 -38 16 -74zM58.5 362.5q30.5 62.5 81.5 116.5l63 -72q-39 -49 -57.5 -94.5t-18.5 -93.5t18.5 -93.5t57.5 -94.5l-63 -72
q-51 54 -81.5 116.5t-30.5 143.5t30.5 143.5z" />
    <glyph glyph-name="logicalnot" unicode="&#xac;" horiz-adv-x="551" 
d="M469 183h-96v128h-312v81h408v-209z" />
    <glyph glyph-name="registered" unicode="&#xae;" horiz-adv-x="801" 
d="M328 312v-165h-87v429h144q78 0 122 -34.5t44 -97.5q0 -58 -56 -91q52 -28 54 -101q0 -71 8 -89v-16h-86q-10 20 -10 79q0 33 -1 44q-4 21 -17 31t-38 11h-77zM82 544q47 85 128.5 134.5t180.5 49.5t180 -49.5t128 -134.5t47 -188q0 -101 -47 -186.5t-128.5 -136
t-179.5 -50.5q-100 0 -181.5 50.5t-128 136.5t-46.5 186q0 103 47 188zM146.5 202.5q37.5 -68.5 102 -108t142.5 -39.5q77 0 141.5 40t102 108.5t37.5 152.5t-37 152.5t-101.5 107.5t-142.5 39t-142.5 -39t-102 -107.5t-37.5 -152.5q0 -85 37.5 -153.5zM395 389
q32 1 50.5 15t18.5 37q0 34 -16 46.5t-62 12.5h-58v-111h67z" />
    <glyph glyph-name="degree" unicode="&#xb0;" horiz-adv-x="393" 
d="M83 654.5q18 30.5 48 48.5t65 18t65 -18t47.5 -48.5t17.5 -66.5q0 -35 -17.5 -65t-47.5 -47.5t-65 -17.5t-65 17.5t-48 47.5t-18 65q0 36 18 66.5zM146 589q0 -15 7.5 -27t20.5 -19q12 -5 22 -5q14 0 26 7.5t19 20.5q5 10 5 23q0 14 -7.5 27t-20.5 20q-9 5 -22 5
q-14 0 -26 -8t-19 -22q-5 -9 -5 -22z" />
    <glyph glyph-name="plusminus" unicode="&#xb1;" horiz-adv-x="536" 
d="M328 452h163v-109h-163v-183h-119v183h-166v109h166v174h119v-174zM56 107h420v-107h-420v107z" />
    <glyph glyph-name="uni00B2" unicode="&#xb2;" horiz-adv-x="372" 
d="M337 285h-300v64l142 129q25 22 38 43t13 34q0 21 -13 32.5t-37 11.5q-26 0 -40.5 -15.5t-14.5 -40.5l-94 3q0 58 40 94t105 36q71 0 110.5 -31t39.5 -89q0 -43 -33 -82q-23 -28 -72 -64l-58 -49h174v-76z" />
    <glyph glyph-name="uni00B3" unicode="&#xb3;" horiz-adv-x="372" 
d="M133 513h42q29 0 44 12t15 33q0 19 -14 30t-41 11q-22 0 -37 -9t-15 -24h-96q0 49 40.5 79.5t105.5 30.5q71 0 112 -30t41 -81q0 -28 -17 -49t-50 -33q74 -21 74 -90q0 -51 -44 -82t-116 -31q-69 0 -111 32.5t-42 86.5h97q0 -18 17 -30.5t45 -12.5t42.5 12.5t14.5 32.5
q0 48 -63 48h-44v64z" />
    <glyph glyph-name="uni00B5" unicode="&#xb5;" horiz-adv-x="611" 
d="M204 528v-308q1 -65 21.5 -94t69.5 -29q76 0 103 56v375h136v-528h-126l-3 38q-45 -48 -113 -48q-53 0 -88 24v-217h-136v731h136z" />
    <glyph glyph-name="uni00B9" unicode="&#xb9;" horiz-adv-x="372" 
d="M256 285h-96v273l-94 -21v74l180 58h10v-384z" />
    <glyph glyph-name="guillemotright" unicode="&#xbb;" horiz-adv-x="438" 
d="M100.5 293.5q-15.5 35.5 -50.5 75.5l57 59q45 -43 72 -93.5t27 -115.5t-27 -115.5t-72 -93.5l-57 59q34 40 50 76t16 74q0 39 -15.5 74.5zM291.5 125.5q18.5 45.5 18.5 93.5t-18.5 93.5t-57.5 94.5l64 72q51 -54 81.5 -116.5t30.5 -143.5t-30.5 -143.5t-81.5 -116.5
l-64 72q39 49 57.5 94.5z" />
    <glyph glyph-name="onequarter" unicode="&#xbc;" horiz-adv-x="797" 
d="M237 266h-96v273l-94 -21v73l181 59h9v-384zM539 645l67 -36l-347 -556l-67 37zM606 441h97v-228h44v-78h-44v-79h-97v79h-170l-6 62zM606 213v112l-8 -12l-75 -100h83z" />
    <glyph glyph-name="onehalf" unicode="&#xbd;" horiz-adv-x="848" 
d="M237 266h-96v273l-94 -21v73l181 59h9v-384zM539 645l67 -36l-347 -556l-67 37zM535 420q40 36 105 36q71 0 110 -31.5t39 -88.5q0 -43 -33 -82q-20 -26 -71 -65l-59 -48h175v-76h-301v64l142 129q25 22 38 42.5t13 34.5q0 21 -12.5 32.5t-37.5 11.5q-26 0 -40.5 -15.5
t-14.5 -40.5l-93 3q0 58 40 94z" />
    <glyph glyph-name="threequarters" unicode="&#xbe;" horiz-adv-x="843" 
d="M158 500h42q59 0 59 45q0 18 -14 29.5t-40 11.5q-22 0 -37.5 -9t-15.5 -24h-96q0 48 41 78.5t105 30.5q72 0 112.5 -29.5t40.5 -80.5q0 -29 -17 -50t-50 -33q74 -19 74 -90q0 -50 -44 -81.5t-116 -31.5q-69 0 -111 32.5t-42 86.5h98q0 -18 16.5 -30t44.5 -12q29 0 43 12
t14 33q0 47 -62 47h-45v65zM594 645l67 -36l-347 -556l-67 37zM652 450h98v-228h44v-77h-44v-80h-97v80h-170l-6 61zM653 222v112l-8 -12l-75 -100h83z" />
    <glyph glyph-name="multiply" unicode="&#xd7;" horiz-adv-x="531" 
d="M33 176l152 155l-152 155l80 78l150 -153l150 153l80 -78l-152 -155l152 -155l-79 -77l-151 152l-150 -152z" />
    <glyph glyph-name="divide" unicode="&#xf7;" horiz-adv-x="570" 
d="M532 282h-501v108h501v-108zM227 186.5q22 19.5 55 19.5q34 0 55.5 -19t21.5 -51q0 -31 -22 -50.5t-56 -19.5q-33 1 -54.5 20.5t-21.5 49.5q0 31 22 50.5zM227 583q22 19 56 19q33 0 54.5 -19t21.5 -50t-22 -50.5t-55 -19.5t-55 19.5t-22 49.5q0 32 22 51z" />
    <glyph glyph-name="uni060C" unicode="&#x60c;" horiz-adv-x="275" 
d="M56 139.5q6 23.5 29 63t73 108.5l62 -47q-46 -64 -65 -97q30 -6 49.5 -29.5t19.5 -53.5q0 -37 -25.5 -62.5t-60.5 -25.5q-37 0 -62.5 25.5t-25.5 62.5q0 32 6 55.5z" />
    <glyph glyph-name="uni0615" unicode="&#x615;" 
d="M60.5 467.5q-21.5 8.5 -37.5 26t-54 68.5l46 40l31 -40l24 36v150h57v-89q20 11 44 11q42 0 67.5 -32t25.5 -76q0 -47 -27.5 -75t-69.5 -28h-46q-39 0 -60.5 8.5zM121 525h46q23 0 32 8t9 29q0 22 -8.5 32.5t-28.5 10.5q-16 0 -25.5 -8.5t-27.5 -34.5l-24 -34
q12 -3 27 -3z" />
    <glyph glyph-name="uni061B" unicode="&#x61b;" horiz-adv-x="279" 
d="M75.5 17.5q-25.5 26.5 -25.5 64.5q0 37 25.5 62t63.5 25t64 -25t26 -62q0 -38 -26 -64.5t-64 -26.5t-63.5 26.5zM58 440q6 24 29 63.5t74 108.5l62 -46q-53 -76 -65 -97q30 -6 49 -29.5t19 -54.5q0 -37 -25.5 -62.5t-60.5 -25.5q-37 0 -62.5 25.5t-25.5 62.5q0 31 6 55z
" />
    <glyph glyph-name="uni061F" unicode="&#x61f;" horiz-adv-x="524" 
d="M221 6.5q-24 24.5 -24 60.5q0 35 24 58.5t60 23.5q35 0 59.5 -24t24.5 -58q0 -36 -24.5 -60.5t-59.5 -24.5q-36 0 -60 24.5zM80.5 631q28.5 51 77 81.5t106.5 30.5q59 0 106.5 -31t74 -82t27.5 -111l-101 -12q-1 24 -13 50t-35.5 44.5t-58.5 18.5q-43 0 -72.5 -29.5
t-29.5 -71.5q0 -22 6.5 -35t23 -28t63.5 -51l26 -20q23 -17 33.5 -36t13 -42.5t2.5 -66.5v-35h-101v52q0 10 -12 25t-44 43q-49 42 -71.5 65.5t-36 55t-13.5 77.5q0 57 28.5 108z" />
    <glyph glyph-name="uni0640" unicode="&#x640;" horiz-adv-x="198" 
d="M-5 144h209l8 -70l-8 -74h-209v144z" />
    <glyph glyph-name="uni064B" unicode="&#x64b;" 
d="M3 524l220 68v-68l-220 -67v67zM3 626l220 67v-67l-220 -67v67z" />
    <glyph glyph-name="uni064C" unicode="&#x64c;" 
d="M24 521l56 18q-9 16 -14 33q-6 17 -6 35q0 34 20 62t52 38q20 6 39 6q33 0 58 -18.5t37 -53.5q5 -15 5 -34q0 -35 -22.5 -62t-64.5 -41l-142 -47zM-33 622q0 47 23.5 85.5t72.5 59.5l27 -53q-34 -15 -51.5 -42.5t-17.5 -60.5q0 -32 13 -61l-47 -17q-20 43 -20 89z
M130 554l46 15q42 14 42 42q0 9 -2 13q-10 25 -39 25q-14 0 -27 -5q-18 -7 -27 -19t-9 -26q0 -3 2 -11q4 -17 14 -34z" />
    <glyph glyph-name="uni064D" unicode="&#x64d;" 
d="M3 -213l220 68v-68l-220 -67v67zM3 -112l220 68v-67l-220 -68v67z" />
    <glyph glyph-name="uni064E" unicode="&#x64e;" 
d="M-5 511l220 68v-68l-220 -67v67z" />
    <glyph glyph-name="uni064F" unicode="&#x64f;" 
d="M-3 521l56 18q-9 16 -14 33q-6 17 -6 35q0 34 20 62t52 38q20 6 39 6q33 0 58 -18.5t37 -53.5q5 -15 5 -34q0 -35 -22.5 -62t-64.5 -41l-142 -47zM103 554l46 15q42 14 42 42q0 9 -2 13q-10 25 -39 25q-14 0 -27 -5q-18 -7 -27 -19t-9 -26q0 -3 2 -11q4 -17 14 -34z" />
    <glyph glyph-name="uni0650" unicode="&#x650;" 
d="M-5 -249l220 68v-68l-220 -67v67z" />
    <glyph glyph-name="uni0651" unicode="&#x651;" 
d="M14 586v-43q0 -16 9.5 -23t21.5 -7q34 0 34 30v43h52v-43q0 -15 8 -22.5t22 -7.5q16 0 24 7t8 19q0 7 -1.5 16t-4.5 21l-5 20l51 14q2 -10 6 -28t5.5 -28t1.5 -20q0 -35 -19.5 -62t-66.5 -27q-33 0 -56 21q-22 -21 -59 -21q-33 0 -58 24t-25 72v45h52z" />
    <glyph glyph-name="uni0652" unicode="&#x652;" 
d="M131.5 621q27.5 -33 27.5 -77q0 -41 -27.5 -71t-67.5 -30q-39 1 -64.5 32.5t-25.5 72.5q0 27 13 51t33.5 39t42.5 15q41 1 68.5 -32zM36.5 517.5q10.5 -12.5 27.5 -12.5q19 0 31 11.5t12 29.5q0 19 -12 32t-31 13q-16 0 -27 -13t-11 -30q0 -18 10.5 -30.5z" />
    <glyph glyph-name="uni0653" unicode="&#x653;" 
d="M235.5 475.5q-22.5 -15.5 -52.5 -15.5q-9 0 -31 4l-54 14q-12 2 -17 2q-16 0 -27 -8t-20 -22l-46 31q32 67 92 67q16 0 29 -4l53 -14q12 -2 17 -2q18 0 31.5 8t21.5 21l44 -37q-18 -29 -40.5 -44.5z" />
    <glyph glyph-name="uni0654" unicode="&#x654;" 
d="M14 523l49 14q-36 31 -36 81q0 44 32 74.5t77 30.5q16 0 38.5 -5t26.5 -6l-11 -62q-38 7 -55 7q-23 0 -39 -12.5t-16 -30.5q0 -21 18 -35t47 -14q7 0 19 2l69 20l4 -66l-219 -64z" />
    <glyph glyph-name="uni0655" unicode="&#x655;" 
d="M12 -235l50 14q-36 30 -36 81q0 45 32 75t77 30q21 0 64 -10l-11 -63q-37 8 -54 8q-24 0 -39.5 -13t-15.5 -32q0 -20 18.5 -33.5t47.5 -13.5q12 0 18 1l68 20l5 -66l-220 -64z" />
    <glyph glyph-name="uni0656" unicode="&#x656;" 
d="M16 -280v189h52v-189h-52z" />
    <glyph glyph-name="uni0658" unicode="&#x658;" 
d="M46 589q0 -33 14.5 -47.5t51.5 -14.5h39q29 0 41.5 3.5t16.5 13.5t4 33v145h61v-145q0 -120 -123 -120h-39q-59 0 -92 37t-33 95q0 27 9.5 58.5t22.5 57.5l51 -28q-24 -50 -24 -88z" />
    <glyph glyph-name="uni065A" unicode="&#x65a;" 
d="M-18 582l49 40l60 -96l59 96l49 -40l-71 -113h-75z" />
    <glyph glyph-name="uni065B" unicode="&#x65b;" 
d="M128 663l71 -113l-49 -40l-59 96l-60 -96l-49 40l71 113h75z" />
    <glyph glyph-name="uni0660" unicode="&#x660;" horiz-adv-x="380" 
d="M100 107v180h180v-180h-180z" />
    <glyph glyph-name="uni0661" unicode="&#x661;" horiz-adv-x="287" 
d="M217 464q13 -95 13 -209v-65l-2 -190h-128l2 190l1 74q0 101 -12 181.5t-48 180.5l120 48q41 -115 54 -210z" />
    <glyph glyph-name="uni0662" unicode="&#x662;" horiz-adv-x="528" 
d="M205 516q11 -32 31.5 -45t52.5 -13q28 0 44.5 14.5t16.5 43.5q0 10 -1 16l-18 120l126 21l19 -126q3 -18 3 -34q0 -58 -27 -103.5t-71 -70.5t-92 -25q-36 0 -63 10q1 -22 1 -67v-67l-2 -190h-128l2 190l1 74q0 101 -12 181.5t-48 180.5l120 48q29 -78 45 -158z" />
    <glyph glyph-name="uni0663" unicode="&#x663;" horiz-adv-x="696" 
d="M207 507q7 -30 22 -41.5t40 -11.5q21 0 36 12.5t15 40.5q0 10 -1 15l-16 111l125 19l17 -115l1 -8q7 -44 19.5 -60t34.5 -16q20 1 29.5 12t9.5 35q0 13 -1 20l-16 131l126 17l16 -133q2 -13 2 -38q0 -57 -22 -100t-59.5 -65.5t-81.5 -22.5q-68 0 -112 50
q-24 -24 -53.5 -36.5t-59.5 -12.5q-27 0 -51 8v-43v-85l-2 -190h-128l2 190l1 74q0 101 -12 181.5t-48 180.5l120 48q31 -87 47 -167z" />
    <glyph glyph-name="uni0664" unicode="&#x664;" horiz-adv-x="479" 
d="M369 292l-47 -8q-139 -21 -139 -94q0 -38 22 -56t68 -18q18 0 40 3l111 14l15 -129l-115 -20q-32 -5 -56 -5q-88 0 -145.5 51t-64.5 139l-1 16q0 81 64 142q-61 39 -76 116q-4 19 -4 41q0 70 42 125.5t109 70.5q27 7 56 7q30 0 61.5 -6.5t80.5 -19.5l-24 -120
q-62 13 -97 13q-23 0 -42 -4q-26 -6 -44 -23.5t-18 -42.5q0 -32 26 -52.5t84 -20.5q27 0 55 4l21 4z" />
    <glyph glyph-name="uni0665" unicode="&#x665;" horiz-adv-x="575" 
d="M279 642q102 -107 150.5 -164t77 -114.5t28.5 -120.5q0 -68 -31.5 -124.5t-88 -89.5t-127.5 -33t-127.5 33t-88.5 89.5t-32 124.5q0 57 19.5 106.5t50.5 92.5t82 102l-32 35l90 93zM198.5 162.5q31.5 -31.5 89.5 -31.5q57 0 88.5 31.5t31.5 80.5q0 38 -28.5 82.5
t-100.5 123.5q-59 -70 -85.5 -115.5t-26.5 -90.5q0 -49 31.5 -80.5z" />
    <glyph glyph-name="uni0666" unicode="&#x666;" horiz-adv-x="515" 
d="M214 636q79 0 151 20l66 -85q-8 -90 -8 -158q0 -190 52 -380l-123 -37q-48 178 -48 382q0 74 5 128q-42 -9 -97 -9q-48 0 -94 7t-78 19l33 133q63 -20 141 -20z" />
    <glyph glyph-name="uni0667" unicode="&#x667;" horiz-adv-x="628" 
d="M171.5 296q-29.5 90 -56 145.5t-85.5 161.5l110 71q48 -86 72.5 -138.5t45.5 -116t56 -190.5q31 121 53.5 187.5t45.5 114.5t74 142l111 -70q-64 -114 -90.5 -169t-55 -144.5t-81.5 -285.5h-112q-58 202 -87.5 292z" />
    <glyph glyph-name="uni0668" unicode="&#x668;" horiz-adv-x="628" 
d="M456.5 375q29.5 -90 56 -145.5t85.5 -161.5l-110 -71q-48 86 -72.5 138.5t-45.5 116t-56 190.5q-31 -121 -53.5 -187.5t-45.5 -114.5t-74 -142l-111 70q64 114 90.5 169t55 144.5t81.5 285.5h112q58 -202 87.5 -292z" />
    <glyph glyph-name="uni0669" unicode="&#x669;" horiz-adv-x="469" 
d="M285 101.5q-4 44.5 -5 165.5h-62q-88 0 -138 53t-50 154q0 59 23.5 108.5t66 78.5t97.5 29t97.5 -27.5t66.5 -80t24 -126.5q0 -179 1 -242t5.5 -99t17.5 -100l-126 -25q-14 67 -18 111.5zM166 421.5q16 -14.5 51 -14.5h63v49q0 48 -15 71t-49 23q-31 0 -48.5 -21
t-17.5 -61q0 -32 16 -46.5z" />
    <glyph glyph-name="uni066A" unicode="&#x66a;" horiz-adv-x="549" 
d="M203 668v-137h-140v137h140zM349 718h128l-283 -748h-126zM352 147h140v-137h-140v137z" />
    <glyph glyph-name="uni066B" unicode="&#x66b;" horiz-adv-x="386" 
d="M34 -35l216 494h109l-216 -494h-109z" />
    <glyph glyph-name="uni066C" unicode="&#x66c;" horiz-adv-x="243" 
d="M96 107h122l-106 -238h-89z" />
    <glyph glyph-name="uni066D" unicode="&#x66d;" horiz-adv-x="664" 
d="M268 -49v171l-154 -89l-64 124l143 83l-143 82l64 124l154 -89v170h128v-170l154 89l64 -124l-143 -82l143 -83l-64 -124l-154 89v-171h-128z" />
    <glyph glyph-name="uni066E" unicode="&#x66e;" horiz-adv-x="942" 
d="M147.5 27.5q-46.5 27.5 -71 74t-24.5 100.5q0 24 4 43q5 28 13.5 67t15.5 68l117 -29l-7 -32q-20 -78 -20 -108q0 -31 21 -49t60 -18h430q41 0 60 17.5t19 46.5q0 39 -26 169l120 30q33 -140 33 -207q0 -50 -22.5 -96t-66.5 -75t-107 -29h-440q-62 0 -108.5 27.5z" />
    <glyph glyph-name="uni066F" unicode="&#x66f;" horiz-adv-x="774" 
d="M172 59q0 -85 40 -126t134 -41h99q62 0 93.5 10.5t44 35t14.5 69.5h-85q-96 0 -151 55.5t-55 155.5q0 71 26 126t73 85.5t106 30.5q63 0 111.5 -30t75 -85t26.5 -127v-196q0 -124 -67 -199t-212 -75h-99q-146 0 -221 77.5t-75 222.5q0 83 21 151t49 135l110 -50
q-58 -130 -58 -225zM447.5 164.5q20.5 -19.5 64.5 -19.5h85v76q0 104 -86 104q-42 0 -63 -28t-21 -73q0 -40 20.5 -59.5z" />
    <glyph glyph-name="uni0670" unicode="&#x670;" 
d="M8 480v189h52v-189h-52z" />
    <glyph glyph-name="uni0688" unicode="&#x688;" horiz-adv-x="544" 
d="M349 462q112 -174 106 -165q39 -63 39 -125q0 -54 -28 -93q-30 -43 -73.5 -61t-103.5 -18h-53q-63 0 -111 20.5t-75 44.5l60 115q19 -12 50.5 -24t76.5 -12h49q34 0 51 4.5t25 16.5q5 8 5 16q0 16 -18 44q-63 96 -153 228l107 80zM162 738l31 -40l24 36v150h57v-89
q20 11 44 11q42 0 67.5 -32t25.5 -76q0 -47 -27.5 -75t-69.5 -28h-46q-39 0 -60.5 8.5t-37.5 26t-54 68.5zM268 662h46q23 0 32 7.5t9 28.5q0 22 -8.5 32.5t-28.5 10.5q-16 0 -26 -8.5t-27 -33.5l-24 -35q16 -2 27 -2z" />
    <glyph glyph-name="uni0691" unicode="&#x691;" horiz-adv-x="391" 
d="M352 335v-282q0 -144 -75 -224.5t-214 -80.5h-63v144h63q63 0 97.5 14.5t49 49t14.5 97.5v282h128zM127 531l15 -19l16 -20l25 37v148h57v-88q20 11 44 11q42 0 67.5 -32.5t25.5 -75.5q0 -47 -27.5 -75t-69.5 -28h-46q-39 0 -60.5 8.5t-37.5 26t-54 68.5zM234 455h46
q22 0 31 8t9 29q0 22 -8 32t-28 10q-16 0 -26 -8.5t-27 -33.5l-24 -35q16 -2 27 -2z" />
    <glyph glyph-name="uni0695" unicode="&#x695;" horiz-adv-x="391" 
d="M352 335v-282q0 -144 -75 -224.5t-214 -80.5h-63v144h63q63 0 97.5 14.5t49 49t14.5 97.5v282h128zM81 -356l60 -96l60 96l48 -39l-70 -113h-76l-70 113z" />
    <glyph glyph-name="uni06A1" unicode="&#x6a1;" horiz-adv-x="942" 
d="M146 27.5q-46 27.5 -70.5 73.5t-24.5 100q0 24 4 44q6 31 16 77.5t20 84.5l116 -29l-12 -56q-17 -70 -21 -99q-1 -4 -1 -12q0 -31 21 -49t60 -18h368q52 0 80.5 4t43.5 15l-64 10q-86 16 -129.5 62t-43.5 136q0 63 25.5 111.5t69 74.5t96.5 26q57 0 100.5 -26t67.5 -74
t24 -112v-79q0 -132 -62 -212t-208 -80h-368q-62 0 -108 27.5zM645 331.5q15 -15.5 50 -23.5l77 -20v84q0 34 -17.5 56t-53.5 22q-35 0 -53 -22t-18 -56q0 -25 15 -40.5z" />
    <glyph glyph-name="uni06B5" unicode="&#x6b5;" horiz-adv-x="713" 
d="M180 -212q-64 40 -97 108t-33 152q0 48 15 105t37 108l112 -47q-41 -94 -41 -166q0 -77 37.5 -116.5t123.5 -39.5h50q64 0 96 11t43.5 38t11.5 80l1 665h126l1 -665q0 -126 -68 -199.5t-211 -73.5h-50q-90 0 -154 40zM538 882l60 -95l60 95l48 -39l-70 -113h-76l-70 113z
" />
    <glyph glyph-name="uni06BA" unicode="&#x6ba;" horiz-adv-x="748" 
d="M175 48q0 -78 36.5 -117t122.5 -39h86q64 0 96 11t43.5 38t11.5 80v314h127v-314q0 -126 -67.5 -199.5t-210.5 -73.5h-86q-90 0 -154 40t-97 108t-33 152q0 61 21 130t50 127l106 -56q-52 -109 -52 -201z" />
    <glyph glyph-name="uni06C1" unicode="&#x6c1;" horiz-adv-x="544" 
d="M305 507q74 -81 110.5 -125t57.5 -88.5t21 -92.5q0 -57 -30 -105.5t-80.5 -76.5t-110.5 -28q-61 0 -112 28t-81 76.5t-30 105.5q0 69 34.5 124.5t102.5 127.5l-34 37l89 86q33 -37 63 -69zM202 155q25 -24 71 -24q45 0 69.5 24t24.5 58q0 24 -20.5 54.5t-74.5 92.5
q-53 -56 -74 -86t-21 -61q0 -34 25 -58z" />
    <glyph glyph-name="uni06C2" unicode="&#x6c2;" horiz-adv-x="544" 
d="M305 507q74 -81 110.5 -125t57.5 -88.5t21 -92.5q0 -57 -30 -105.5t-80.5 -76.5t-110.5 -28q-61 0 -112 28t-81 76.5t-30 105.5q0 69 34.5 124.5t102.5 127.5l-34 37l89 86q33 -37 63 -69zM186 679q-36 31 -36 81q0 45 32.5 75t77.5 30q21 0 64 -10l-11 -63q-38 8 -55 8
q-23 0 -39 -13t-16 -31q0 -20 19 -34t49 -14q11 0 17 1l68 20l4 -66l-219 -64l-4 66zM202 155q25 -24 71 -24q45 0 69.5 24t24.5 58q0 24 -20.5 54.5t-74.5 92.5q-53 -56 -74 -86t-21 -61q0 -34 25 -58z" />
    <glyph glyph-name="uni06C3" unicode="&#x6c3;" horiz-adv-x="544" 
d="M305 507q74 -81 110.5 -125t57.5 -88.5t21 -92.5q0 -57 -30 -105.5t-80.5 -76.5t-110.5 -28q-61 0 -112 28t-81 76.5t-30 105.5q0 69 34.5 124.5t102.5 127.5l-34 37l89 86q33 -37 63 -69zM118 730h119v-119h-119v119zM202 155q25 -24 71 -24q45 0 69.5 24t24.5 58
q0 24 -20.5 54.5t-74.5 92.5q-53 -56 -74 -86t-21 -61q0 -34 25 -58zM305 730h120v-119h-120v119z" />
    <glyph glyph-name="uni06C9" unicode="&#x6c9;" horiz-adv-x="519" 
d="M283 -97.5q32 10.5 44.5 35t14.5 69.5h-86q-95 0 -150.5 55.5t-55.5 155.5q0 71 26.5 126.5t73 85.5t105.5 30q64 0 112.5 -30t75 -85t26.5 -127v-196q0 -124 -67.5 -199t-212.5 -75h-119v144h119q62 0 94 10.5zM215 664h75l71 -113l-49 -40l-59 96l-60 -96l-49 40z
M192 164.5q20 -19.5 64 -19.5h86v76q0 104 -87 104q-41 0 -62 -28t-21 -72q0 -41 20 -60.5z" />
    <glyph glyph-name="uni06CE" unicode="&#x6ce;" horiz-adv-x="772" 
d="M175 51q0 -80 37 -119.5t122 -39.5h86q57 0 88 8t44.5 25t16.5 46v6q0 5 -2.5 7.5t-9.5 3.5l-226 62q-12 44 -12 95q0 61 19.5 115t52.5 92q42 47 93.5 72t109.5 25q30 0 62.5 -5.5t53.5 -14.5l-30 -129q-32 9 -69 9q-38 0 -69.5 -12.5t-53.5 -34.5q-45 -43 -45 -94
q35 -9 174 -49q51 -15 67 -44.5t13 -90.5q-5 -111 -75.5 -173.5t-201.5 -62.5h-86q-88 0 -152.5 40t-98 108.5t-33.5 152.5q0 58 20.5 128t49.5 132l109 -57q-54 -122 -54 -201zM179 542l59 -96l60 96l49 -39l-71 -113h-75l-71 113z" />
    <glyph glyph-name="uni06D4" unicode="&#x6d4;" horiz-adv-x="344" 
d="M108.5 22q-25.5 26 -25.5 64q0 37 25.5 62.5t63.5 25.5q37 0 63 -25.5t26 -62.5q0 -38 -25.5 -64t-63.5 -26t-63.5 26z" />
    <glyph glyph-name="uni06D5" unicode="&#x6d5;" horiz-adv-x="544" 
d="M305 507q74 -81 110.5 -125t57.5 -88.5t21 -92.5q0 -57 -30 -105.5t-80.5 -76.5t-110.5 -28q-61 0 -112 28t-81 76.5t-30 105.5q0 69 34.5 124.5t102.5 127.5l-34 37l89 86q33 -37 63 -69zM202 155q25 -24 71 -24q45 0 69.5 24t24.5 58q0 24 -20.5 54.5t-74.5 92.5
q-53 -56 -74 -86t-21 -61q0 -34 25 -58z" />
    <glyph glyph-name="uni06F0" unicode="&#x6f0;" horiz-adv-x="513" 
d="M168.5 53q-40.5 24 -64.5 64t-24 87t24 87t64.5 63.5t87.5 23.5q48 0 88.5 -23.5t64.5 -63t24 -87.5q0 -47 -24 -87t-64.5 -64t-88.5 -24q-47 0 -87.5 24zM211 157q19 -19 45 -19t45 19t19 47t-18.5 46.5t-45.5 18.5q-26 0 -45 -19t-19 -46q0 -28 19 -47z" />
    <glyph glyph-name="uni06F1" unicode="&#x6f1;" horiz-adv-x="287" 
d="M217 464q13 -95 13 -209v-65l-2 -190h-128l2 190l1 74q0 101 -12 181.5t-48 180.5l120 48q41 -115 54 -210z" />
    <glyph glyph-name="uni06F2" unicode="&#x6f2;" horiz-adv-x="528" 
d="M205 516q11 -32 31.5 -45t52.5 -13q28 0 44.5 14.5t16.5 43.5q0 10 -1 16l-18 120l126 21l19 -126q3 -18 3 -34q0 -58 -27 -103.5t-71 -70.5t-92 -25q-36 0 -63 10q1 -22 1 -67v-67l-2 -190h-128l2 190l1 74q0 101 -12 181.5t-48 180.5l120 48q29 -78 45 -158z" />
    <glyph glyph-name="uni06F3" unicode="&#x6f3;" horiz-adv-x="696" 
d="M207 507q7 -30 22 -41.5t40 -11.5q21 0 36 12.5t15 40.5q0 10 -1 15l-16 111l125 19l17 -115l1 -8q7 -44 19.5 -60t34.5 -16q20 1 29.5 12t9.5 35q0 13 -1 20l-16 131l126 17l16 -133q2 -13 2 -38q0 -57 -22 -100t-59.5 -65.5t-81.5 -22.5q-68 0 -112 50
q-24 -24 -53.5 -36.5t-59.5 -12.5q-27 0 -51 8v-43v-85l-2 -190h-128l2 190l1 74q0 101 -12 181.5t-48 180.5l120 48q31 -87 47 -167z" />
    <glyph glyph-name="uni06F4" unicode="&#x6f4;" horiz-adv-x="671" 
d="M210 505q9 -34 20.5 -55t31.5 -34q-12 30 -12 65q0 56 27 104t73.5 77t101.5 29q36 0 63.5 -8t49 -19.5t72.5 -43.5l-59 -106q-50 28 -73 37.5t-50 9.5q-35 0 -60 -22.5t-25 -56.5q0 -43 40 -70t125 -29h80l-2 -139q-157 0 -242.5 9t-140.5 39v-34v-68l-2 -190h-128
l2 190l1 74q0 101 -12 181.5t-48 180.5l120 48q31 -86 47 -169z" />
    <glyph glyph-name="uni06F5" unicode="&#x6f5;" horiz-adv-x="638" 
d="M385 182q0 -19 -3 -36q7 -11 20 -17t30 -6q27 0 45 18.5t18 56.5q-2 64 -47.5 142t-135.5 162q-83 -78 -124 -151.5t-41 -137.5q0 -45 17 -66.5t47 -21.5q29 0 47.5 19t18.5 54q0 6 -2 22l103 19q7 -28 7 -57zM78.5 389q51.5 98 144.5 188l-38 28l78 105
q111 -84 189.5 -175.5t118.5 -179t40 -160.5q0 -63 -25.5 -108.5t-68 -69t-92.5 -23.5q-59 0 -101 45q-24 -21 -54.5 -32.5t-64.5 -11.5q-47 0 -88 25t-65.5 72.5t-24.5 112.5q0 86 51.5 184z" />
    <glyph glyph-name="uni06F6" unicode="&#x6f6;" horiz-adv-x="557" 
d="M409.5 308.5q-42.5 -39.5 -72.5 -77.5t-76 -104l-25 -35l-85 -121l-104 73l84 120q10 14 14 21q39 55 70 97q-77 11 -121 67q-24 29 -36 63.5t-12 70.5q0 45 19 86.5t55 70.5q29 22 55 33t51.5 15t81.5 11l21 -119q-58 -9 -82.5 -17t-45.5 -27q-15 -12 -23 -29t-8 -35
q0 -27 17 -48q24 -29 61 -29q55 0 141 64q25 19 58 43l70 -109q-65 -45 -107.5 -84.5z" />
    <glyph glyph-name="uni06F7" unicode="&#x6f7;" horiz-adv-x="628" 
d="M171.5 291q-29.5 90 -56 145.5t-85.5 161.5l110 71q48 -86 72.5 -138t45.5 -116t56 -191q31 121 53.5 188t46 115.5t73.5 141.5l111 -71q-64 -114 -90.5 -169t-55 -144.5t-81.5 -285.5h-112q-58 202 -87.5 292z" />
    <glyph glyph-name="uni06F8" unicode="&#x6f8;" horiz-adv-x="628" 
d="M456.5 375q29.5 -90 56 -145.5t85.5 -161.5l-110 -71q-48 85 -73 137.5t-45 115.5t-56 192q-32 -121 -54 -187.5t-45.5 -115.5t-73.5 -141l-111 70q64 114 90.5 169t55 144.5t81.5 285.5h111q59 -202 88.5 -292z" />
    <glyph glyph-name="uni06F9" unicode="&#x6f9;" horiz-adv-x="469" 
d="M285 101.5q-4 44.5 -5 165.5h-62q-88 0 -138 53t-50 154q0 59 23.5 108.5t66 78.5t97.5 29t97.5 -27.5t66.5 -80t24 -126.5q0 -179 1 -242t5.5 -99t17.5 -100l-126 -25q-14 67 -18 111.5zM166 421.5q16 -14.5 51 -14.5h63v49q0 48 -15 71t-49 23q-31 0 -48.5 -21
t-17.5 -61q0 -32 16 -46.5z" />
    <glyph glyph-name="uni2009" unicode="&#x2009;" horiz-adv-x="92" 
 />
    <glyph glyph-name="uni200A" unicode="&#x200a;" horiz-adv-x="64" 
 />
    <glyph glyph-name="uni200B" unicode="&#x200b;" 
 />
    <glyph glyph-name="uni200C" unicode="&#x200c;" 
 />
    <glyph glyph-name="uni200D" unicode="&#x200d;" 
 />
    <glyph glyph-name="uni200E" unicode="&#x200e;" 
 />
    <glyph glyph-name="uni200F" unicode="&#x200f;" 
 />
    <glyph glyph-name="quoteleft" unicode="&#x2018;" horiz-adv-x="240" 
d="M180.5 631q-12.5 -38 -13.5 -73v-121h-131v105q1 59 31 120.5t76 100.5l80 -42q-30 -52 -42.5 -90z" />
    <glyph glyph-name="quoteright" unicode="&#x2019;" horiz-adv-x="240" 
d="M59.5 574.5q12.5 37.5 13.5 72.5v121h130v-105q-1 -60 -30.5 -121.5t-75.5 -100.5l-80 43q30 53 42.5 90.5z" />
    <glyph glyph-name="quotedblleft" unicode="&#x201c;" horiz-adv-x="458" 
d="M398 632q-13 -38 -14 -73v-120h-130v104q1 59 31 121t76 101l80 -43q-30 -52 -43 -90zM45 543q0 59 30 120.5t76 101.5l80 -43q-30 -53 -42.5 -90.5t-13.5 -72.5v-120h-130v104z" />
    <glyph glyph-name="quotedblright" unicode="&#x201d;" horiz-adv-x="449" 
d="M59 478.5q13 38.5 14 73.5v120h130v-104q-1 -60 -30.5 -122t-75.5 -100l-80 42q29 52 42 90.5zM269 478.5q13 38.5 14 73.5v120h130v-104q-1 -60 -31 -121.5t-76 -100.5l-80 42q30 52 43 90.5z" />
    <glyph glyph-name="quotedblbase" unicode="&#x201e;" horiz-adv-x="462" 
d="M64 -62q13 38 14 73v121h130v-105q-1 -60 -30.5 -121.5t-75.5 -99.5l-81 42q30 52 43 90zM274 -62q13 38 14 73v121h130v-105q-1 -59 -31 -120.5t-76 -100.5l-80 42q30 52 43 90z" />
    <glyph glyph-name="bullet" unicode="&#x2022;" horiz-adv-x="532" 
d="M185 -3.5q-37 21.5 -58.5 58.5t-21.5 81t21.5 81t58.5 58.5t81 21.5t81 -21.5t58.5 -58.5t21.5 -81t-21.5 -81t-58.5 -58.5t-81 -21.5t-81 21.5z" />
    <glyph glyph-name="ellipsis" unicode="&#x2026;" horiz-adv-x="913" 
d="M102.5 22q-25.5 26 -25.5 64q0 37 25.5 62.5t63.5 25.5t64 -25.5t26 -62.5q0 -38 -26 -64t-64 -26t-63.5 26zM391 148.5q25 25.5 64 25.5q37 0 63 -25.5t26 -62.5q0 -38 -25.5 -64t-63.5 -26q-39 0 -64 25.5t-25 64.5q0 37 25 62.5zM681.5 148.5q25.5 25.5 63.5 25.5
t64 -25.5t26 -62.5q0 -38 -26 -64t-64 -26t-63.5 26t-25.5 64q0 37 25.5 62.5z" />
    <glyph glyph-name="minute" unicode="&#x2032;" horiz-adv-x="176" 
d="M144 681l-14 -193h-86v262h100v-69z" />
    <glyph glyph-name="second" unicode="&#x2033;" horiz-adv-x="356" 
d="M332 681l-14 -193h-86l1 195v67h99v-69zM58 750h100v-69l-14 -193h-86v262z" />
    <glyph glyph-name="guilsinglleft" unicode="&#x2039;" horiz-adv-x="253" 
d="M145.5 125.5q18.5 -45.5 57.5 -94.5l-63 -72q-51 54 -81.5 116.5t-30.5 143.5t30.5 143.5t81.5 116.5l63 -72q-39 -49 -57.5 -94.5t-18.5 -93.5t18.5 -93.5z" />
    <glyph glyph-name="guilsinglright" unicode="&#x203a;" horiz-adv-x="253" 
d="M107.5 312.5q-18.5 45.5 -57.5 94.5l63 72q51 -54 81.5 -116.5t30.5 -143.5t-30.5 -143.5t-81.5 -116.5l-63 72q39 49 57.5 94.5t18.5 93.5t-18.5 93.5z" />
    <glyph glyph-name="fraction" unicode="&#x2044;" horiz-adv-x="446" 
d="M82 53l-66 37l347 555l66 -36z" />
    <glyph glyph-name="uni2070" unicode="&#x2070;" horiz-adv-x="372" 
d="M296 321q-39 -41 -110 -41t-110.5 40.5t-40.5 114.5v81q0 77 40 118.5t110 41.5t110 -42t40 -117v-79q0 -76 -39 -117zM145 374.5q13 -18.5 41 -18.5q51 0 53 71v93q0 79 -54 79q-50 0 -53 -73v-93q0 -40 13 -58.5z" />
    <glyph glyph-name="uni2074" unicode="&#x2074;" horiz-adv-x="372" 
d="M299 442h44v-78h-44v-79h-97v79h-170l-6 62l176 244h97v-228zM202 442v112l-8 -12l-75 -100h83z" />
    <glyph glyph-name="uni2075" unicode="&#x2075;" horiz-adv-x="372" 
d="M44 472l26 198h244v-75h-165l-11 -70q35 13 66 13q64 0 98 -32.5t34 -91.5q0 -60 -41.5 -97t-108.5 -37q-63 0 -106.5 32t-44.5 81h97q2 -37 54 -37q26 0 39.5 15t13.5 43t-15 43t-45 15q-33 0 -58 -18z" />
    <glyph glyph-name="uni2076" unicode="&#x2076;" horiz-adv-x="372" 
d="M174.5 576.5q-33.5 -22.5 -40.5 -66.5q35 32 87 32q57 0 90 -35t33 -94q0 -57 -42.5 -95t-108.5 -38q-74 0 -116 40t-42 113v28q0 103 62 160t180 57v-78q-69 -1 -102.5 -23.5zM191 356q24 0 40 16.5t16 40.5q0 53 -57 53q-19 0 -34.5 -7t-23.5 -20v-18q0 -65 59 -65z
" />
    <glyph glyph-name="uni2077" unicode="&#x2077;" horiz-adv-x="372" 
d="M336 617l-163 -332h-102l164 308h-210v77h311v-53z" />
    <glyph glyph-name="uni2078" unicode="&#x2078;" horiz-adv-x="372" 
d="M75.5 309.5q-40.5 29.5 -40.5 81.5q0 64 65 92q-56 29 -56 84q0 50 38 79.5t103 29.5q66 0 104 -29t38 -80q0 -57 -56 -84q65 -29 65 -92q0 -52 -40 -81.5t-110 -29.5t-110.5 29.5zM147.5 368q15.5 -12 38.5 -12t38.5 12t15.5 32q0 21 -14.5 32t-40.5 11t-39.5 -11
t-13.5 -32q0 -20 15.5 -32zM152.5 530.5q11.5 -10.5 33.5 -10.5q21 0 32.5 10.5t11.5 29.5t-11.5 29t-33.5 10q-44 0 -44 -39q0 -19 11.5 -29.5z" />
    <glyph glyph-name="uni2079" unicode="&#x2079;" horiz-adv-x="372" 
d="M198 371.5q30 16.5 37 63.5q-31 -27 -74 -27q-61 0 -94 33.5t-33 94.5q0 39 19.5 71t53.5 50.5t76 18.5q70 0 109 -40.5t41 -113.5v-31q0 -105 -55.5 -157.5t-172.5 -53.5v75q63 0 93 16.5zM145 494q15 -15 42 -15q33 0 50 22v36q0 62 -54 62q-24 0 -38.5 -18.5
t-14.5 -45.5q0 -26 15 -41z" />
    <glyph glyph-name="uni2080" unicode="&#x2080;" horiz-adv-x="372" 
d="M296 36q-39 -41 -110 -41t-110.5 40.5t-40.5 114.5v81q0 77 40 118.5t110 41.5t110 -42t40 -117v-79q0 -76 -39 -117zM145 89.5q13 -18.5 41 -18.5q51 0 53 71v93q0 79 -54 79q-50 0 -53 -73v-93q0 -40 13 -58.5z" />
    <glyph glyph-name="uni2081" unicode="&#x2081;" horiz-adv-x="372" 
d="M256 0h-96v273l-94 -21v74l180 58h10v-384z" />
    <glyph glyph-name="uni2082" unicode="&#x2082;" horiz-adv-x="372" 
d="M337 0h-300v64l142 129q25 22 38 43t13 34q0 21 -13 32.5t-37 11.5q-26 0 -40.5 -15.5t-14.5 -40.5l-94 3q0 58 40 94t105 36q71 0 110.5 -31t39.5 -89q0 -43 -33 -82q-23 -28 -72 -64l-58 -49h174v-76z" />
    <glyph glyph-name="uni2083" unicode="&#x2083;" horiz-adv-x="372" 
d="M133 228h42q29 0 44 12t15 33q0 19 -14 30t-41 11q-22 0 -37 -9t-15 -24h-96q0 49 40.5 79.5t105.5 30.5q71 0 112 -30t41 -81q0 -28 -17 -49t-50 -33q74 -21 74 -90q0 -51 -44 -82t-116 -31q-69 0 -111 32.5t-42 86.5h97q0 -18 17 -30.5t45 -12.5t42.5 12.5t14.5 32.5
q0 48 -63 48h-44v64z" />
    <glyph glyph-name="uni2084" unicode="&#x2084;" horiz-adv-x="372" 
d="M299 157h44v-78h-44v-79h-97v79h-170l-6 62l176 244h97v-228zM202 157v112l-8 -12l-75 -100h83z" />
    <glyph glyph-name="uni2085" unicode="&#x2085;" horiz-adv-x="372" 
d="M44 187l26 198h244v-75h-165l-11 -70q35 13 66 13q64 0 98 -32.5t34 -91.5q0 -60 -41.5 -97t-108.5 -37q-63 0 -106.5 32t-44.5 81h97q2 -37 54 -37q26 0 39.5 15t13.5 43t-15 43t-45 15q-33 0 -58 -18z" />
    <glyph glyph-name="uni2086" unicode="&#x2086;" horiz-adv-x="372" 
d="M174.5 291.5q-33.5 -22.5 -40.5 -66.5q35 32 87 32q57 0 90 -35t33 -94q0 -57 -42.5 -95t-108.5 -38q-74 0 -116 40t-42 113v28q0 103 62 160t180 57v-78q-69 -1 -102.5 -23.5zM191 71q24 0 40 16.5t16 40.5q0 53 -57 53q-19 0 -34.5 -7t-23.5 -20v-18q0 -65 59 -65z" />
    <glyph glyph-name="uni2087" unicode="&#x2087;" horiz-adv-x="372" 
d="M336 332l-163 -332h-102l164 308h-210v77h311v-53z" />
    <glyph glyph-name="uni2088" unicode="&#x2088;" horiz-adv-x="372" 
d="M75.5 24.5q-40.5 29.5 -40.5 81.5q0 64 65 92q-56 29 -56 84q0 50 38 79.5t103 29.5q66 0 104 -29t38 -80q0 -57 -56 -84q65 -29 65 -92q0 -52 -40 -81.5t-110 -29.5t-110.5 29.5zM147.5 83q15.5 -12 38.5 -12t38.5 12t15.5 32q0 21 -14.5 32t-40.5 11t-39.5 -11
t-13.5 -32q0 -20 15.5 -32zM152.5 245.5q11.5 -10.5 33.5 -10.5q21 0 32.5 10.5t11.5 29.5t-11.5 29t-33.5 10q-44 0 -44 -39q0 -19 11.5 -29.5z" />
    <glyph glyph-name="uni2089" unicode="&#x2089;" horiz-adv-x="372" 
d="M198 86.5q30 16.5 37 63.5q-31 -27 -74 -27q-61 0 -94 33.5t-33 94.5q0 39 19.5 71t53.5 50.5t76 18.5q70 0 109 -40.5t41 -113.5v-31q0 -105 -55.5 -157.5t-172.5 -53.5v75q63 0 93 16.5zM145 209q15 -15 42 -15q33 0 50 22v36q0 62 -54 62q-24 0 -38.5 -18.5
t-14.5 -45.5q0 -26 15 -41z" />
    <glyph glyph-name="trademark" unicode="&#x2122;" horiz-adv-x="630" 
d="M496 622l-56 -175h-34l-56 177v-177h-61v264h75l59 -183l63 183h70v-264h-60v175zM57 711h198v-50h-65v-213h-66v213h-67v50z" />
    <glyph glyph-name="partialdiff" unicode="&#x2202;" horiz-adv-x="572" 
d="M161 22q-56 32 -86 91t-30 139v7q0 73 28 129t80.5 86.5t122.5 30.5q84 0 141 -60q-16 94 -60 146t-107 52q-54 0 -120 -27l-21 96q74 37 152 37q86 0 149 -45.5t96.5 -133.5t33.5 -212v-42q0 -99 -31 -172.5t-87.5 -113.5t-130.5 -40t-130 32zM208 134q29 -39 83 -39
q55 0 84.5 47t29.5 136l-1 51q-16 34 -45 52t-67 18q-54 0 -83.5 -37.5t-29.5 -107.5v-11q0 -70 29 -109z" />
    <glyph glyph-name="product" unicode="&#x220f;" horiz-adv-x="690" 
d="M614 -121h-136v729h-262v-729h-135v832h533v-832z" />
    <glyph glyph-name="summation" unicode="&#x2211;" horiz-adv-x="623" 
d="M450 284l-241 -310h393v-106h-574v72l280 352l-280 347v72h555v-106h-373l240 -306v-15z" />
    <glyph glyph-name="minus" unicode="&#x2212;" horiz-adv-x="557" 
d="M493 296h-421v107h421v-107z" />
    <glyph glyph-name="uni2215" unicode="&#x2215;" horiz-adv-x="600" 
d="M378 771l106 -32l-262 -815l-105 32z" />
    <glyph glyph-name="radical" unicode="&#x221a;" horiz-adv-x="564" 
d="M281 144l162 567h108l-209 -711h-114l-95 265h-106v107h184z" />
    <glyph glyph-name="infinity" unicode="&#x221e;" horiz-adv-x="1047" 
d="M167 24.5q-57 34.5 -88.5 97t-31.5 142.5q0 56 22.5 119t78.5 109t148 46q141 0 226 -154q40 75 98 114.5t129 39.5q73 0 129.5 -35t88 -98.5t31.5 -145.5q0 -54 -24.5 -116.5t-80.5 -107.5t-145 -45q-70 0 -128 40.5t-98 116.5q-41 -78 -98.5 -117.5t-126.5 -39.5
q-73 0 -130 34.5zM212.5 142.5q34.5 -44.5 90.5 -44.5q36 0 67.5 28.5t53.5 67.5t30 69v8q-6 27 -28.5 64.5t-55 65.5t-68.5 28q-57 0 -90.5 -45t-33.5 -125q0 -72 34.5 -116.5zM620 196.5q23 -39.5 55.5 -69t66.5 -29.5q56 0 90 45.5t34 125.5q0 71 -34 115.5t-89 44.5
q-36 0 -68.5 -27t-54.5 -64.5t-29 -66.5v-8q6 -27 29 -66.5z" />
    <glyph glyph-name="integral" unicode="&#x222b;" horiz-adv-x="286" 
d="M159 -165.5q-47 -47.5 -135 -47.5q-35 0 -70 8l9 103q23 -5 41 -5q67 0 67 75v608q0 88 49.5 136.5t141.5 48.5q29 0 78 -11l-12 -100q-23 5 -48 5q-74 0 -74 -82v-601q0 -90 -47 -137.5z" />
    <glyph glyph-name="approxequal" unicode="&#x2248;" horiz-adv-x="575" 
d="M106 483.5q32 13.5 65 13.5q34 0 59 -8.5t61 -26.5q32 -17 56.5 -25.5t55.5 -8.5q63 0 112 62v-110q-25 -27 -51 -40t-58 -13q-31 0 -55.5 8.5t-61.5 26.5q-35 18 -60 26.5t-56 7.5q-34 0 -68 -16.5t-56 -44.5v110q25 25 57 38.5zM49 240q51 52 121 52q31 0 56.5 -9
t64.5 -27q34 -16 58 -24.5t51 -8.5q66 0 114 62l1 -110q-49 -52 -112 -52q-31 0 -58 9t-62 27q-36 17 -59 25t-51 8q-34 0 -67 -16t-57 -46v110z" />
    <glyph glyph-name="notequal" unicode="&#x2260;" horiz-adv-x="571" 
d="M501 161h-269l-58 -108l-57 29l43 79h-93v107h151l55 103h-206v107h264l60 109l56 -31l-44 -78h98v-107h-155l-56 -103h211v-107z" />
    <glyph glyph-name="lessequal" unicode="&#x2264;" horiz-adv-x="511" 
d="M164 370l282 -95v-119l-419 166v99l419 166v-118zM31 123h421v-107h-421v107z" />
    <glyph glyph-name="greaterequal" unicode="&#x2265;" horiz-adv-x="513" 
d="M347 374l-289 97v117l425 -166v-98l-425 -167v118zM57 124h421v-107h-421v107z" />
    <glyph glyph-name="uniFBB2" unicode="&#xfbb2;" 
d="M157 387v-130h-133v130h133z" />
    <glyph glyph-name="uniFBB3" unicode="&#xfbb3;" 
d="M157 -82v-130h-133v130h133z" />
    <glyph glyph-name="uniFBB4" unicode="&#xfbb4;" 
d="M133 382v-119h-119v119h119zM201 382h120v-119h-120v119z" />
    <glyph glyph-name="uniFBB5" unicode="&#xfbb5;" 
d="M133 -42v-119h-119v119h119zM201 -42h120v-119h-120v119z" />
    <glyph glyph-name="uniFBB6" unicode="&#xfbb6;" 
d="M224 433v-114h-114v114h114zM12 289h120v-119h-120v119zM202 289h119v-119h-119v119z" />
    <glyph glyph-name="uniFBB9" unicode="&#xfbb9;" 
d="M118 -192h114v-114h-114v114zM20 -43h119v-119h-119v119zM209 -43h120v-119h-120v119z" />
    <glyph glyph-name="uniFD3E" unicode="&#xfd3e;" horiz-adv-x="425" 
d="M223.5 545q-66.5 -112 -66.5 -265q0 -157 65.5 -266t156.5 -188l-74 -89q-118 91 -195.5 228.5t-77.5 314.5q0 179 77 315.5t196 228.5l74 -89q-89 -78 -155.5 -190z" />
    <glyph glyph-name="uniFD3F" unicode="&#xfd3f;" horiz-adv-x="425" 
d="M316 595.5q77 -136.5 77 -315.5q0 -177 -77.5 -314.5t-195.5 -228.5l-74 89q91 79 156.5 188t65.5 266q0 153 -66.5 265t-155.5 190l74 89q119 -92 196 -228.5z" />
    <glyph glyph-name="uniFEFF" unicode="&#xfeff;" 
 />
    <glyph glyph-name="uni0627.001" horiz-adv-x="276" 
d="M83 562h130v-562h-130v562z" />
    <glyph glyph-name="uni0627.002" horiz-adv-x="269" 
d="M78 668h127v-668h-127v668z" />
    <glyph glyph-name="uni0627.fina.001" horiz-adv-x="301" 
d="M115.5 61q-49.5 61 -49.5 164v337h127v-337q0 -38 4.5 -54t20 -21.5t52.5 -5.5h36l6 -74l-6 -70h-36q-105 0 -154.5 61z" />
    <glyph glyph-name="uni066E.medi.001" horiz-adv-x="419" 
d="M312 335v-145q0 -26 14 -36t44 -10h54l6 -76l-6 -68h-54q-31 0 -65 12.5t-60 36.5q-28 -24 -63.5 -36.5t-72.5 -12.5h-114v144h114q42 0 59 11.5t17 39.5v140h127z" />
    <glyph glyph-name="uni066E.init.001" horiz-adv-x="363" 
d="M-6 144h111q45 0 64 15.5t17 44.5q-5 62 -26 166l120 30q12 -53 22.5 -113t10.5 -97q0 -50 -22 -93t-66.5 -70t-109.5 -27h-121v144z" />
    <glyph glyph-name="uni0628.medi.alt" horiz-adv-x="368" 
d="M285 335v-145q0 -26 14 -36t44 -10h30l6 -77l-6 -67h-30q-31 0 -65 12.5t-60 36.5q-27 -24 -62.5 -36.5t-72.5 -12.5h-88v144h88q41 0 58 11.5t17 39.5v140h127zM58 -121h133v-130h-133v130z" />
    <glyph glyph-name="uni0628.init.alt" horiz-adv-x="336" 
d="M-6 144h97q77 0 74 60q-3 44 -26 166l119 30q34 -147 34 -210q0 -49 -21.5 -92.5t-65 -70.5t-104.5 -27h-107v144zM57 -121h133v-130h-133v130z" />
    <glyph glyph-name="uni067E.medi.alt" horiz-adv-x="419" 
d="M312 335v-145q0 -26 14 -36t44 -10h54l6 -76l-6 -68h-54q-31 0 -65 12.5t-60 36.5q-28 -24 -63.5 -36.5t-72.5 -12.5h-114v144h114q42 0 59 11.5t17 39.5v140h127zM24 -80h119v-119h-119v119zM122 -229h113v-114h-113v114zM213 -80h120v-119h-120v119z" />
    <glyph glyph-name="uni067E.init.alt" horiz-adv-x="407" 
d="M-4 144h152q82 0 82 54q0 37 -26 172l119 30q34 -147 34 -210q0 -50 -22 -93t-67 -70t-109 -27h-163v144zM28 -78h119v-120h-119v120zM126 -228h113v-114h-113v114zM217 -78h120v-120h-120v120z" />
    <glyph glyph-name="uni062A.medi.alt" horiz-adv-x="470" 
d="M363 335v-145q0 -26 14 -36t44 -10h54l6 -76l-6 -68h-54q-31 0 -65 12.5t-60 36.5q-28 -24 -63.5 -36.5t-72.5 -12.5h-164v144h164q42 0 59 11.5t17 39.5v140h127zM81 571h119v-119h-119v119zM268 571h120v-119h-120v119z" />
    <glyph glyph-name="uni062A.init.alt" horiz-adv-x="418" 
d="M-4 144h161q45 0 64 15.5t17 44.5q-5 62 -26 166l120 30q34 -147 34 -208q0 -50 -22 -94t-67 -71t-110 -27h-171v144zM74 630h119v-119h-119v119zM261 630h120v-119h-120v119z" />
    <glyph glyph-name="uni062B.medi.alt" horiz-adv-x="474" 
d="M365 335v-145q0 -26 14 -36t44 -10h54l6 -76l-6 -68h-54q-31 0 -65 12.5t-60 36.5q-28 -24 -63.5 -36.5t-72.5 -12.5h-165v144h165q42 0 59 11.5t17 39.5v140h127zM67 572h120v-119h-120v119zM165 716h114v-113h-114v113zM257 572h120v-119h-120v119z" />
    <glyph glyph-name="uni062B.init.alt" horiz-adv-x="420" 
d="M-3 144h164q82 0 82 54q0 37 -26 172l119 30q34 -147 34 -210q0 -50 -22 -93t-67 -70t-109 -27h-175v144zM66 630h120v-119h-120v119zM164 774h114v-114h-114v114zM256 630h120v-119h-120v119z" />
    <glyph glyph-name="uni062D.fina.001" horiz-adv-x="681" 
d="M593 -252h-267q-205 0 -261 158q-15 42 -15 85q0 73 42.5 134.5t118.5 93.5l272 112q-78 26 -144 45t-83 19q-21 0 -35 -12.5t-25 -42.5l-112 35q23 79 68 120t104 41q38 0 112.5 -27t213.5 -85q6 -3 13.5 -6l17.5 -7l18 -150l-372 -161q-89 -38 -89 -106q0 -19 5 -34
q12 -37 49.5 -52.5t101.5 -15.5h267v-144z" />
    <glyph glyph-name="uni0631.003" horiz-adv-x="408" 
d="M293 50q-42 50 -70 140l90 55q14 -53 34 -74.5t56 -21.5h10v-149h-10q-68 0 -110 50z" />
    <glyph glyph-name="uni0643.init.alt" horiz-adv-x="853" 
d="M147.5 27.5q-46.5 27.5 -71 74t-24.5 100.5q0 24 4 43q5 28 13.5 67t15.5 68l117 -29l-7 -32q-20 -78 -20 -108q0 -31 21 -49t60 -18h340q26 0 40.5 10.5t14.5 27.5q0 20 -22 42l-198 200l31 161l335 148l51 -132l-279 -123l154 -157q30 -30 45 -66.5t15 -74.5
q0 -48 -22.5 -89t-66 -66t-101.5 -25h-337q-62 0 -108.5 27.5z" />
    <glyph glyph-name="uni0644.001" horiz-adv-x="713" 
d="M180 -212q-64 40 -97 108t-33 152q0 48 15 105t37 108l112 -47q-41 -94 -41 -166q0 -77 37.5 -116.5t123.5 -39.5h50q64 0 96 11t43.5 38t11.5 80l1 665h126l1 -665q0 -126 -68 -199.5t-211 -73.5h-50q-90 0 -154 40z" />
    <glyph glyph-name="uni0649.fina.001" horiz-adv-x="710" 
d="M175 51q0 -80 37 -119.5t122 -39.5h86q145 0 145 54q0 25 -38 36q-52 16 -143 18v144h331l8 -70l-8 -74h-40q15 -22 15 -58q-1 -51 -35.5 -95.5t-95.5 -71.5t-139 -27h-86q-88 0 -152.5 40t-98 108.5t-33.5 152.5q0 58 20.5 128t49.5 132l109 -57q-54 -122 -54 -201z" />
    <glyph glyph-name="uni064A.fina.001" horiz-adv-x="710" 
d="M175 51q0 -80 37 -119.5t122 -39.5h86q145 0 145 54q0 25 -38 36q-52 16 -143 18v144h331l8 -70l-8 -74h-40q15 -22 15 -58q-1 -51 -35.5 -95.5t-95.5 -71.5t-139 -27h-86q-88 0 -152.5 40t-98 108.5t-33.5 152.5q0 58 20.5 128t49.5 132l109 -57q-54 -122 -54 -201z
M345 -326v-119h-119v119h119zM413 -326h120v-119h-120v119z" />
    <glyph glyph-name="uni064A.medi.alt" horiz-adv-x="419" 
d="M312 335v-145q0 -26 14 -36t44 -10h54l6 -76l-6 -68h-54q-31 0 -65 12.5t-60 36.5q-28 -24 -63.5 -36.5t-72.5 -12.5h-114v144h114q42 0 59 11.5t17 39.5v140h127zM15 -122h119v-120h-119v120zM203 -122h119v-120h-119v120z" />
    <glyph glyph-name="uni064A.init.alt" horiz-adv-x="401" 
d="M-6 144h149q45 0 64 15.5t17 44.5q-5 62 -26 166l120 30q12 -53 22.5 -113t10.5 -97q0 -50 -22 -93t-66.5 -70t-109.5 -27h-159v144zM14 -123h119v-119h-119v119zM201 -123h120v-119h-120v119z" />
    <glyph glyph-name="uni0626.fina.001" horiz-adv-x="710" 
d="M175 51q0 -80 37 -119.5t122 -39.5h86q145 0 145 54q0 25 -38 36q-52 16 -143 18v144h331l8 -70l-8 -74h-40q15 -22 15 -58q-1 -51 -35.5 -95.5t-95.5 -71.5t-139 -27h-86q-88 0 -152.5 40t-98 108.5t-33.5 152.5q0 58 20.5 128t49.5 132l109 -57q-54 -122 -54 -201z
M163 398l49 14q-36 31 -36 81q0 44 32 74.5t77 30.5q16 0 38.5 -5t26.5 -6l-11 -62q-38 7 -55 7q-23 0 -39 -12.5t-16 -30.5q0 -21 18 -35t47 -14q7 0 19 2l69 20l4 -66l-219 -64z" />
    <glyph glyph-name="uni06CE.fina.001" horiz-adv-x="710" 
d="M175 51q0 -80 37 -119.5t122 -39.5h86q145 0 145 54q0 25 -38 36q-52 16 -143 18v144h331l8 -70l-8 -74h-40q15 -22 15 -58q-1 -51 -35.5 -95.5t-95.5 -71.5t-139 -27h-86q-88 0 -152.5 40t-98 108.5t-33.5 152.5q0 58 20.5 128t49.5 132l109 -57q-54 -122 -54 -201z
M166 385l49 40l60 -96l59 96l49 -40l-71 -113h-75z" />
    <glyph glyph-name="uni06CE.medi.alt" horiz-adv-x="390" 
d="M57 527l48 39l60 -96l60 96l48 -39l-70 -113h-76zM-5 144h114q42 0 59 11.5t17 39.5v140h127v-145q0 -26 14 -36t44 -10h54l6 -76l-6 -68h-54q-31 0 -65 12.5t-60 36.5q-28 -24 -63.5 -36.5t-72.5 -12.5h-114v144zM15 -122h119v-120h-119v120zM203 -122h119v-120h-119
v120z" />
    <glyph glyph-name="uni06CE.init.alt" horiz-adv-x="401" 
d="M58 636l48 39l60 -96l60 96l48 -39l-70 -113h-76zM-4 144h147q45 0 64 15.5t17 44.5q-5 62 -26 166l120 30q12 -53 22.5 -113t10.5 -97q0 -50 -22 -93t-66.5 -70t-109.5 -27h-157v144zM14 -123h119v-119h-119v119zM201 -123h120v-119h-120v119z" />
    <glyph glyph-name="uni06CC.fina.001" horiz-adv-x="710" 
d="M175 51q0 -80 37 -119.5t122 -39.5h86q145 0 145 54q0 25 -38 36q-52 16 -143 18v144h331l8 -70l-8 -74h-40q15 -22 15 -58q-1 -51 -35.5 -95.5t-95.5 -71.5t-139 -27h-86q-88 0 -152.5 40t-98 108.5t-33.5 152.5q0 58 20.5 128t49.5 132l109 -57q-54 -122 -54 -201z" />
    <glyph glyph-name="uni06CC.medi.alt" horiz-adv-x="419" 
d="M312 335v-145q0 -26 14 -36t44 -10h54l6 -76l-6 -68h-54q-31 0 -65 12.5t-60 36.5q-28 -24 -63.5 -36.5t-72.5 -12.5h-114v144h114q42 0 59 11.5t17 39.5v140h127zM15 -122h119v-120h-119v120zM203 -122h119v-120h-119v120z" />
    <glyph glyph-name="uni06CC.init.alt" horiz-adv-x="401" 
d="M-4 144h147q45 0 64 15.5t17 44.5q-5 62 -26 166l120 30q12 -53 22.5 -113t10.5 -97q0 -50 -22 -93t-66.5 -70t-109.5 -27h-157v144zM14 -123h119v-119h-119v119zM201 -123h120v-119h-120v119z" />
    <glyph glyph-name="uni06D2.fina.alt" horiz-adv-x="455" 
d="M90 -285q-27 65 -27 138q0 79 34.5 145.5t98.5 106t147 39.5h117l8 -70l-8 -74h-117q-76 0 -115.5 -37t-36.5 -104h227v-144h-328z" />
    <glyph glyph-name="uni06D3.fina.alt" horiz-adv-x="455" 
d="M90 -285q-27 65 -27 138q0 79 34.5 145.5t98.5 106t147 39.5h117l8 -70l-8 -74h-117q-76 0 -115.5 -37t-36.5 -104h227v-144h-328zM146 244q-36 31 -36 81q0 44 32 74.5t77 30.5q16 0 38.5 -5t26.5 -6l-11 -62q-37 7 -54 7q-24 0 -39.5 -12.5t-16.5 -30.5q0 -21 18 -35
t47 -14q7 0 19 2l69 20l4 -66l-219 -64l-4 66z" />
    <glyph glyph-name="uni06D3.fina.alt2" horiz-adv-x="413" 
d="M79 -285q-28 69 -28 138q0 79 35 145.5t99 106t147 39.5h87l8 -70l-8 -74h-87q-76 0 -115.5 -37t-36.5 -104h386v-144h-487zM160 257q-35 30 -35 81q0 43 30 73t73 32q24 0 70 -11l-11 -62q-37 7 -54 7q-24 0 -39.5 -13t-15.5 -32q0 -20 18 -33.5t46 -13.5q5 0 19 2
l69 20l5 -66l-220 -64l-4 66z" />
    <glyph glyph-name="uni0640.001" horiz-adv-x="42" 
d="M-3 144h49l8 -70l-8 -74h-49v144z" />
    <glyph glyph-name="uni06440627.001" horiz-adv-x="569" 
d="M50 144h277q65 0 65 64v460h127v-473q0 -66 -29 -110t-72 -64.5t-84 -20.5h-284v144zM192 613l28 -397l-128 -9l-28 397z" />
    <glyph glyph-name="uni06440627.fina.001" horiz-adv-x="595" 
d="M514.5 12q-31.5 12 -55.5 36q-27 -24 -60.5 -36t-64.5 -12h-284v144h277q65 0 65 64v460h127v-473q0 -27 14.5 -39t43.5 -12h23v-144h-23q-31 0 -62.5 12zM192 613l28 -397l-128 -9l-28 397z" />
    <glyph glyph-name="uni06B50627" horiz-adv-x="569" 
d="M50 144h277q65 0 65 64v460h127v-473q0 -66 -29 -110t-72 -64.5t-84 -20.5h-284v144zM191 657l29 -441l-128 -9l-28 441zM396 859l60 -95l59 95l49 -39l-71 -113h-75l-71 113z" />
    <glyph glyph-name="uni06B50627.fina" horiz-adv-x="595" 
d="M514.5 12q-31.5 12 -55.5 36q-27 -24 -60.5 -36t-64.5 -12h-284v144h277q65 0 65 64v460h127v-473q0 -27 14.5 -39t43.5 -12h23l8 -70l-8 -74h-23q-31 0 -62.5 12zM191 657l29 -441l-128 -9l-28 441zM396 859l60 -95l59 95l49 -39l-71 -113h-75l-71 113z" />
    <glyph glyph-name="uni0664.ss03" horiz-adv-x="695" 
d="M224 505q9 -34 20.5 -54.5t30.5 -33.5q-12 30 -12 64q0 56 27 104t74 77t102 29q36 0 63.5 -8t49 -20t71.5 -43l-58 -106q-52 29 -74 38t-49 9q-35 0 -60 -22.5t-25 -56.5q0 -43 40 -70t125 -29h79l-1 -139q-157 0 -242.5 9t-140.5 39v-34v-68l-2 -190h-128l2 190l1 74
q0 101 -12 181.5t-48 180.5l120 48q31 -86 47 -169z" />
    <glyph glyph-name="uni0665.ss03" horiz-adv-x="695" 
d="M415 182q0 -18 -3 -36q16 -23 50 -23q27 0 45 18.5t18 56.5q-2 63 -47.5 141.5t-135.5 162.5q-83 -78 -124 -152.5t-41 -138.5q0 -44 17 -65t47 -21q29 0 47.5 19t18.5 54q0 6 -2 22l103 19q7 -28 7 -57zM108.5 389q51.5 98 144.5 188l-38 28l79 105
q110 -84 188.5 -175.5t118.5 -179t40 -160.5q0 -63 -25.5 -108.5t-67.5 -69t-93 -23.5q-59 0 -101 45q-24 -21 -54.5 -32.5t-64.5 -11.5q-47 0 -88 25t-65.5 72.5t-24.5 112.5q0 86 51.5 184z" />
    <glyph glyph-name="uni0666.ss03" horiz-adv-x="695" 
d="M482.5 308.5q-42.5 -39.5 -72.5 -77.5t-76 -104l-25 -35l-85 -121l-104 73l84 120q10 14 14 21q39 55 70 97q-77 11 -121 67q-24 29 -36 63.5t-12 70.5q0 45 19 86.5t55 70.5q29 22 55 33t51.5 15t81.5 11l21 -119q-58 -9 -82.5 -17t-45.5 -27q-15 -12 -23 -29t-8 -35
q0 -27 17 -48q24 -29 61 -29q55 0 141 64q25 19 58 43l70 -109q-65 -45 -107.5 -84.5z" />
    <glyph glyph-name="uni06F0.ss03" horiz-adv-x="695" 
d="M274.5 53q-40.5 24 -64.5 64t-24 87t24 87t64.5 63.5t87.5 23.5q48 0 88.5 -23.5t64.5 -63t24 -87.5q0 -47 -24 -87t-64.5 -64t-88.5 -24q-47 0 -87.5 24zM317.5 157q18.5 -19 44.5 -19q27 0 45.5 19t18.5 47t-18.5 46.5t-45.5 18.5q-26 0 -44.5 -19t-18.5 -46
q0 -28 18.5 -47z" />
    <glyph glyph-name="uni06F1.ss03" horiz-adv-x="695" 
d="M398.5 466.5q13.5 -94.5 13.5 -201.5l-1 -75l-2 -190h-127l2 190l1 74q0 101 -12 181.5t-48 180.5l120 48q40 -113 53.5 -207.5z" />
    <glyph glyph-name="uni06F2.ss03" horiz-adv-x="695" 
d="M294 516q11 -32 31.5 -45t52.5 -13q28 0 44.5 14.5t16.5 43.5q0 10 -1 16l-18 120l126 21l19 -126q3 -18 3 -34q0 -58 -27 -103.5t-71 -70.5t-92 -25q-36 0 -63 10q1 -22 1 -67v-67l-2 -190h-128l2 190l1 74q0 101 -12 181.5t-48 180.5l120 48q29 -78 45 -158z" />
    <glyph glyph-name="uni06F3.ss03" horiz-adv-x="695" 
d="M199 507q7 -30 22 -41.5t40 -11.5q21 0 36 12.5t15 40.5q0 10 -1 15l-16 111l125 19l18 -115l1 -9q6 -43 18.5 -59t34.5 -16q20 1 29.5 12t9.5 35q0 13 -1 20l-16 131l126 17l17 -133q2 -13 2 -36q0 -58 -22.5 -101t-60 -66t-81.5 -23q-69 0 -111 51q-24 -24 -54 -37
t-60 -13q-27 0 -51 8v-43v-85l-2 -190h-128l2 190l1 74q0 101 -12 181.5t-48 180.5l120 48q31 -87 47 -167z" />
    <glyph glyph-name="uni06F4.ss03" horiz-adv-x="695" 
d="M219 505q9 -34 20.5 -55t31.5 -34q-12 30 -12 65q0 56 27 104t73.5 77t101.5 29q36 0 63.5 -8t49 -20t71.5 -43l-58 -106q-50 28 -73 37.5t-50 9.5q-35 0 -60 -22.5t-25 -56.5q0 -43 40 -70t125 -29h79l-1 -139q-157 0 -242.5 9t-140.5 39v-34v-68l-2 -190h-128l2 190
l1 74q0 101 -12 181.5t-48 180.5l120 48q31 -86 47 -169z" />
    <glyph glyph-name="uni06F5.ss03" horiz-adv-x="695" 
d="M415 182q0 -19 -3 -36q7 -11 20 -17t30 -6q27 0 45 18.5t18 56.5q-2 64 -47.5 142t-135.5 162q-83 -78 -124 -151.5t-41 -137.5q0 -45 17 -66.5t47 -21.5q29 0 47.5 19t18.5 54q0 6 -2 22l103 19q7 -28 7 -57zM108.5 389q51.5 98 144.5 188l-38 28l78 105
q111 -84 189.5 -175.5t118.5 -179t40 -160.5q0 -63 -25.5 -108.5t-68 -69t-92.5 -23.5q-59 0 -101 45q-24 -21 -54.5 -32.5t-64.5 -11.5q-47 0 -88 25t-65.5 72.5t-24.5 112.5q0 86 51.5 184z" />
    <glyph glyph-name="uni06F6.ss03" horiz-adv-x="695" 
d="M486 309q-42 -39 -72 -77t-76 -103q-9 -11 -27 -37l-85 -121l-103 73l84 120q10 14 14 21q39 55 70 97q-77 9 -122 67q-23 29 -35 63.5t-12 70.5q0 46 18.5 87t55.5 70q28 22 54.5 33t51.5 15t82 11l21 -119q-58 -10 -83 -17.5t-46 -26.5q-14 -12 -22 -29t-8 -34
q0 -28 17 -49q23 -29 60 -29q54 0 134 58q32 26 65 49l70 -109q-64 -45 -106 -84z" />
    <glyph glyph-name="uni06F7.ss03" horiz-adv-x="695" 
d="M203.5 296q-29.5 90 -56 145.5t-85.5 161.5l110 71q48 -86 72.5 -138.5t45.5 -116t56 -190.5q32 121 54 187.5t45.5 115.5t73.5 141l111 -70q-64 -114 -90.5 -169t-55 -144.5t-81.5 -285.5h-111q-59 202 -88.5 292z" />
    <glyph glyph-name="uni06F8.ss03" horiz-adv-x="695" 
d="M487.5 375q29.5 -90 56 -145.5t85.5 -161.5l-110 -71q-48 86 -72.5 138.5t-45.5 116t-56 190.5q-31 -121 -53.5 -187.5t-45.5 -114.5t-74 -142l-111 70q64 114 90.5 169t55 144.5t81.5 285.5h112q58 -202 87.5 -292z" />
    <glyph glyph-name="uni06F9.ss03" horiz-adv-x="695" 
d="M401 101.5q-4 44.5 -5 165.5h-63q-88 0 -137.5 53t-49.5 154q0 58 23.5 107.5t66 79t96.5 29.5q55 0 98 -27.5t67 -80t24 -126.5q0 -179 1 -242t5 -99t17 -100l-125 -25q-14 67 -18 111.5zM282 421.5q16 -14.5 51 -14.5h63v49q0 48 -15 71t-49 23q-31 0 -48.5 -21
t-17.5 -61q0 -32 16 -46.5z" />
    <glyph glyph-name="uni06F4.urdu" horiz-adv-x="676" 
d="M636 579l-185 -318h-104l-65 218q-6 21 -15 31t-23 10q-4 0 -14 -2q-13 -2 -30 -8q-18 -5 -26 -12.5t-8 -18.5q0 -7 3 -16l131 -430l-122 -41l-132 438q-9 32 -9 63q0 54 29.5 94.5t87.5 57.5q10 2 51 15q24 7 49 7q52 0 89.5 -36.5t57.5 -103.5l18 -60l107 184z" />
    <glyph glyph-name="uni06F7.urdu" horiz-adv-x="530" 
d="M301 -1q-129 0 -258 21q-3 29 -3 57q0 122 49.5 240.5t131.5 214.5t179 154l65 -123q-113 -69 -191.5 -180.5t-98.5 -233.5q66 -6 130 -6q80 0 168 11l17 -143q-93 -12 -189 -12z" />
    <glyph glyph-name="zero.ss01" horiz-adv-x="513" 
d="M168.5 53q-40.5 24 -64.5 64t-24 87t24 87t64.5 63.5t87.5 23.5q48 0 88.5 -23.5t64.5 -63t24 -87.5q0 -47 -24 -87t-64.5 -64t-88.5 -24q-47 0 -87.5 24zM211 157q19 -19 45 -19t45 19t19 47t-18.5 46.5t-45.5 18.5q-26 0 -45 -19t-19 -46q0 -28 19 -47z" />
    <glyph glyph-name="one.ss01" horiz-adv-x="287" 
d="M217 464q13 -95 13 -209v-65l-2 -190h-128l2 190l1 74q0 101 -12 181.5t-48 180.5l120 48q41 -115 54 -210z" />
    <glyph glyph-name="two.ss01" horiz-adv-x="528" 
d="M205 516q11 -32 31.5 -45t52.5 -13q28 0 44.5 14.5t16.5 43.5q0 10 -1 16l-18 120l126 21l19 -126q3 -18 3 -34q0 -58 -27 -103.5t-71 -70.5t-92 -25q-36 0 -63 10q1 -22 1 -67v-67l-2 -190h-128l2 190l1 74q0 101 -12 181.5t-48 180.5l120 48q29 -78 45 -158z" />
    <glyph glyph-name="three.ss01" horiz-adv-x="696" 
d="M207 507q7 -30 22 -41.5t40 -11.5q21 0 36 12.5t15 40.5q0 10 -1 15l-16 111l125 19l17 -115l1 -8q7 -44 19.5 -60t34.5 -16q20 1 29.5 12t9.5 35q0 13 -1 20l-16 131l126 17l16 -133q2 -13 2 -38q0 -57 -22 -100t-59.5 -65.5t-81.5 -22.5q-68 0 -112 50
q-24 -24 -53.5 -36.5t-59.5 -12.5q-27 0 -51 8v-43v-85l-2 -190h-128l2 190l1 74q0 101 -12 181.5t-48 180.5l120 48q31 -87 47 -167z" />
    <glyph glyph-name="four.ss01" horiz-adv-x="671" 
d="M210 505q9 -34 20.5 -55t31.5 -34q-12 30 -12 65q0 56 27 104t73.5 77t101.5 29q36 0 63.5 -8t49 -19.5t72.5 -43.5l-59 -106q-50 28 -73 37.5t-50 9.5q-35 0 -60 -22.5t-25 -56.5q0 -43 40 -70t125 -29h80l-2 -139q-157 0 -242.5 9t-140.5 39v-34v-68l-2 -190h-128
l2 190l1 74q0 101 -12 181.5t-48 180.5l120 48q31 -86 47 -169z" />
    <glyph glyph-name="five.ss01" horiz-adv-x="638" 
d="M385 182q0 -19 -3 -36q7 -11 20 -17t30 -6q27 0 45 18.5t18 56.5q-2 64 -47.5 142t-135.5 162q-83 -78 -124 -151.5t-41 -137.5q0 -45 17 -66.5t47 -21.5q29 0 47.5 19t18.5 54q0 6 -2 22l103 19q7 -28 7 -57zM78.5 389q51.5 98 144.5 188l-38 28l78 105
q111 -84 189.5 -175.5t118.5 -179t40 -160.5q0 -63 -25.5 -108.5t-68 -69t-92.5 -23.5q-59 0 -101 45q-24 -21 -54.5 -32.5t-64.5 -11.5q-47 0 -88 25t-65.5 72.5t-24.5 112.5q0 86 51.5 184z" />
    <glyph glyph-name="six.ss01" horiz-adv-x="557" 
d="M409.5 308.5q-42.5 -39.5 -72.5 -77.5t-76 -104l-25 -35l-85 -121l-104 73l84 120q10 14 14 21q39 55 70 97q-77 11 -121 67q-24 29 -36 63.5t-12 70.5q0 45 19 86.5t55 70.5q29 22 55 33t51.5 15t81.5 11l21 -119q-58 -9 -82.5 -17t-45.5 -27q-15 -12 -23 -29t-8 -35
q0 -27 17 -48q24 -29 61 -29q55 0 141 64q25 19 58 43l70 -109q-65 -45 -107.5 -84.5z" />
    <glyph glyph-name="seven.ss01" horiz-adv-x="628" 
d="M171.5 296q-29.5 90 -56 145.5t-85.5 161.5l110 71q48 -86 72.5 -138.5t45.5 -116t56 -190.5q31 121 53.5 187.5t45.5 114.5t74 142l111 -70q-64 -114 -90.5 -169t-55 -144.5t-81.5 -285.5h-112q-58 202 -87.5 292z" />
    <glyph glyph-name="eight.ss01" horiz-adv-x="628" 
d="M456.5 375q29.5 -90 56 -145.5t85.5 -161.5l-110 -71q-48 86 -72.5 138.5t-45.5 116t-56 190.5q-31 -121 -53.5 -187.5t-45.5 -114.5t-74 -142l-111 70q64 114 90.5 169t55 144.5t81.5 285.5h112q58 -202 87.5 -292z" />
    <glyph glyph-name="nine.ss01" horiz-adv-x="469" 
d="M285 101.5q-4 44.5 -5 165.5h-62q-88 0 -138 53t-50 154q0 59 23.5 108.5t66 78.5t97.5 29t97.5 -27.5t66.5 -80t24 -126.5q0 -179 1 -242t5.5 -99t17.5 -100l-126 -25q-14 67 -18 111.5zM166 421.5q16 -14.5 51 -14.5h63v49q0 48 -15 71t-49 23q-31 0 -48.5 -21
t-17.5 -61q0 -32 16 -46.5z" />
    <glyph glyph-name="zero.ss02" horiz-adv-x="513" 
d="M168.5 53q-40.5 24 -64.5 64t-24 87t24 87t64.5 63.5t87.5 23.5q48 0 88.5 -23.5t64.5 -63t24 -87.5q0 -47 -24 -87t-64.5 -64t-88.5 -24q-47 0 -87.5 24zM211 157q19 -19 45 -19t45 19t19 47t-18.5 46.5t-45.5 18.5q-26 0 -45 -19t-19 -46q0 -28 19 -47z" />
    <glyph glyph-name="one.ss02" horiz-adv-x="287" 
d="M217 464q13 -95 13 -209v-65l-2 -190h-128l2 190l1 74q0 101 -12 181.5t-48 180.5l120 48q41 -115 54 -210z" />
    <glyph glyph-name="two.ss02" horiz-adv-x="528" 
d="M205 516q11 -32 31.5 -45t52.5 -13q28 0 44.5 14.5t16.5 43.5q0 10 -1 16l-18 120l126 21l19 -126q3 -18 3 -34q0 -58 -27 -103.5t-71 -70.5t-92 -25q-36 0 -63 10q1 -22 1 -67v-67l-2 -190h-128l2 190l1 74q0 101 -12 181.5t-48 180.5l120 48q29 -78 45 -158z" />
    <glyph glyph-name="three.ss02" horiz-adv-x="696" 
d="M207 507q7 -30 22 -41.5t40 -11.5q21 0 36 12.5t15 40.5q0 10 -1 15l-16 111l125 19l17 -115l1 -8q7 -44 19.5 -60t34.5 -16q20 1 29.5 12t9.5 35q0 13 -1 20l-16 131l126 17l16 -133q2 -13 2 -38q0 -57 -22 -100t-59.5 -65.5t-81.5 -22.5q-68 0 -112 50
q-24 -24 -53.5 -36.5t-59.5 -12.5q-27 0 -51 8v-43v-85l-2 -190h-128l2 190l1 74q0 101 -12 181.5t-48 180.5l120 48q31 -87 47 -167z" />
    <glyph glyph-name="four.ss02" horiz-adv-x="671" 
d="M210 505q9 -34 20.5 -55t31.5 -34q-12 30 -12 65q0 56 27 104t73.5 77t101.5 29q36 0 63.5 -8t49 -19.5t72.5 -43.5l-59 -106q-50 28 -73 37.5t-50 9.5q-35 0 -60 -22.5t-25 -56.5q0 -43 40 -70t125 -29h80l-2 -139q-157 0 -242.5 9t-140.5 39v-34v-68l-2 -190h-128
l2 190l1 74q0 101 -12 181.5t-48 180.5l120 48q31 -86 47 -169z" />
    <glyph glyph-name="five.ss02" horiz-adv-x="638" 
d="M385 182q0 -19 -3 -36q7 -11 20 -17t30 -6q27 0 45 18.5t18 56.5q-2 64 -47.5 142t-135.5 162q-83 -78 -124 -151.5t-41 -137.5q0 -45 17 -66.5t47 -21.5q29 0 47.5 19t18.5 54q0 6 -2 22l103 19q7 -28 7 -57zM78.5 389q51.5 98 144.5 188l-38 28l78 105
q111 -84 189.5 -175.5t118.5 -179t40 -160.5q0 -63 -25.5 -108.5t-68 -69t-92.5 -23.5q-59 0 -101 45q-24 -21 -54.5 -32.5t-64.5 -11.5q-47 0 -88 25t-65.5 72.5t-24.5 112.5q0 86 51.5 184z" />
    <glyph glyph-name="six.ss02" horiz-adv-x="557" 
d="M409.5 308.5q-42.5 -39.5 -72.5 -77.5t-76 -104l-25 -35l-85 -121l-104 73l84 120q10 14 14 21q39 55 70 97q-77 11 -121 67q-24 29 -36 63.5t-12 70.5q0 45 19 86.5t55 70.5q29 22 55 33t51.5 15t81.5 11l21 -119q-58 -9 -82.5 -17t-45.5 -27q-15 -12 -23 -29t-8 -35
q0 -27 17 -48q24 -29 61 -29q55 0 141 64q25 19 58 43l70 -109q-65 -45 -107.5 -84.5z" />
    <glyph glyph-name="seven.ss02" horiz-adv-x="628" 
d="M171.5 296q-29.5 90 -56 145.5t-85.5 161.5l110 71q48 -86 72.5 -138.5t45.5 -116t56 -190.5q31 121 53.5 187.5t45.5 114.5t74 142l111 -70q-64 -114 -90.5 -169t-55 -144.5t-81.5 -285.5h-112q-58 202 -87.5 292z" />
    <glyph glyph-name="eight.ss02" horiz-adv-x="628" 
d="M456.5 375q29.5 -90 56 -145.5t85.5 -161.5l-110 -71q-48 85 -73 137.5t-45 115.5t-56 192q-32 -121 -54 -187.5t-45.5 -115.5t-73.5 -141l-111 70q64 114 90.5 169t55 144.5t81.5 285.5h111q59 -202 88.5 -292z" />
    <glyph glyph-name="nine.ss02" horiz-adv-x="469" 
d="M285 101.5q-4 44.5 -5 165.5h-62q-88 0 -138 53t-50 154q0 59 23.5 108.5t66 78.5t97.5 29t97.5 -27.5t66.5 -80t24 -126.5q0 -179 1 -242t5.5 -99t17.5 -100l-126 -25q-14 67 -18 111.5zM166 421.5q16 -14.5 51 -14.5h63v49q0 48 -15 71t-49 23q-31 0 -48.5 -21
t-17.5 -61q0 -32 16 -46.5z" />
    <glyph glyph-name="zero.ss03" horiz-adv-x="695" 
d="M274.5 53q-40.5 24 -64.5 64t-24 87t24 87t64.5 63.5t87.5 23.5q48 0 88.5 -23.5t64.5 -63t24 -87.5q0 -47 -24 -87t-64.5 -64t-88.5 -24q-47 0 -87.5 24zM317.5 157q18.5 -19 44.5 -19q27 0 45.5 19t18.5 47t-18.5 46.5t-45.5 18.5q-26 0 -44.5 -19t-18.5 -46
q0 -28 18.5 -47z" />
    <glyph glyph-name="one.ss03" horiz-adv-x="695" 
d="M398.5 466.5q13.5 -94.5 13.5 -201.5l-1 -75l-2 -190h-127l2 190l1 74q0 101 -12 181.5t-48 180.5l120 48q40 -113 53.5 -207.5z" />
    <glyph glyph-name="two.ss03" horiz-adv-x="695" 
d="M294 516q11 -32 31.5 -45t52.5 -13q28 0 44.5 14.5t16.5 43.5q0 10 -1 16l-18 120l126 21l19 -126q3 -18 3 -34q0 -58 -27 -103.5t-71 -70.5t-92 -25q-36 0 -63 10q1 -22 1 -67v-67l-2 -190h-128l2 190l1 74q0 101 -12 181.5t-48 180.5l120 48q29 -78 45 -158z" />
    <glyph glyph-name="three.ss03" horiz-adv-x="695" 
d="M199 507q7 -30 22 -41.5t40 -11.5q21 0 36 12.5t15 40.5q0 10 -1 15l-16 111l125 19l18 -115l1 -9q6 -43 18.5 -59t34.5 -16q20 1 29.5 12t9.5 35q0 13 -1 20l-16 131l126 17l17 -133q2 -13 2 -36q0 -58 -22.5 -101t-60 -66t-81.5 -23q-69 0 -111 51q-24 -24 -54 -37
t-60 -13q-27 0 -51 8v-43v-85l-2 -190h-128l2 190l1 74q0 101 -12 181.5t-48 180.5l120 48q31 -87 47 -167z" />
    <glyph glyph-name="four.ss03" horiz-adv-x="695" 
d="M219 505q9 -34 20.5 -55t31.5 -34q-12 30 -12 65q0 56 27 104t73.5 77t101.5 29q36 0 63.5 -8t49 -20t71.5 -43l-58 -106q-50 28 -73 37.5t-50 9.5q-35 0 -60 -22.5t-25 -56.5q0 -43 40 -70t125 -29h79l-1 -139q-157 0 -242.5 9t-140.5 39v-34v-68l-2 -190h-128l2 190
l1 74q0 101 -12 181.5t-48 180.5l120 48q31 -86 47 -169z" />
    <glyph glyph-name="five.ss03" horiz-adv-x="695" 
d="M415 182q0 -19 -3 -36q7 -11 20 -17t30 -6q27 0 45 18.5t18 56.5q-2 64 -47.5 142t-135.5 162q-83 -78 -124 -151.5t-41 -137.5q0 -45 17 -66.5t47 -21.5q29 0 47.5 19t18.5 54q0 6 -2 22l103 19q7 -28 7 -57zM108.5 389q51.5 98 144.5 188l-38 28l78 105
q111 -84 189.5 -175.5t118.5 -179t40 -160.5q0 -63 -25.5 -108.5t-68 -69t-92.5 -23.5q-59 0 -101 45q-24 -21 -54.5 -32.5t-64.5 -11.5q-47 0 -88 25t-65.5 72.5t-24.5 112.5q0 86 51.5 184z" />
    <glyph glyph-name="six.ss03" horiz-adv-x="695" 
d="M486 309q-42 -39 -72 -77t-76 -103q-9 -11 -27 -37l-85 -121l-103 73l84 120q10 14 14 21q39 55 70 97q-77 9 -122 67q-23 29 -35 63.5t-12 70.5q0 46 18.5 87t55.5 70q28 22 54.5 33t51.5 15t82 11l21 -119q-58 -10 -83 -17.5t-46 -26.5q-14 -12 -22 -29t-8 -34
q0 -28 17 -49q23 -29 60 -29q54 0 134 58q32 26 65 49l70 -109q-64 -45 -106 -84z" />
    <glyph glyph-name="seven.ss03" horiz-adv-x="695" 
d="M203.5 296q-29.5 90 -56 145.5t-85.5 161.5l110 71q48 -86 72.5 -138.5t45.5 -116t56 -190.5q32 121 54 187.5t45.5 115.5t73.5 141l111 -70q-64 -114 -90.5 -169t-55 -144.5t-81.5 -285.5h-111q-59 202 -88.5 292z" />
    <glyph glyph-name="eight.ss03" horiz-adv-x="695" 
d="M487.5 375q29.5 -90 56 -145.5t85.5 -161.5l-110 -71q-48 86 -72.5 138.5t-45.5 116t-56 190.5q-31 -121 -53.5 -187.5t-45.5 -114.5t-74 -142l-111 70q64 114 90.5 169t55 144.5t81.5 285.5h112q58 -202 87.5 -292z" />
    <glyph glyph-name="nine.ss03" horiz-adv-x="695" 
d="M401 101.5q-4 44.5 -5 165.5h-63q-88 0 -137.5 53t-49.5 154q0 58 23.5 107.5t66 79t96.5 29.5q55 0 98 -27.5t67 -80t24 -126.5q0 -179 1 -242t5 -99t17 -100l-125 -25q-14 67 -18 111.5zM282 421.5q16 -14.5 51 -14.5h63v49q0 48 -15 71t-49 23q-31 0 -48.5 -21
t-17.5 -61q0 -32 16 -46.5z" />
    <glyph glyph-name="zero.dnom" horiz-adv-x="372" 
d="M296 36q-39 -41 -110 -41t-110.5 40.5t-40.5 114.5v81q0 77 40 118.5t110 41.5t110 -42t40 -117v-79q0 -76 -39 -117zM145 89.5q13 -18.5 41 -18.5q51 0 53 71v93q0 79 -54 79q-50 0 -53 -73v-93q0 -40 13 -58.5z" />
    <glyph glyph-name="one.dnom" horiz-adv-x="372" 
d="M256 0h-96v273l-94 -21v74l180 58h10v-384z" />
    <glyph glyph-name="two.dnom" horiz-adv-x="372" 
d="M337 0h-300v64l142 129q25 22 38 43t13 34q0 21 -13 32.5t-37 11.5q-26 0 -40.5 -15.5t-14.5 -40.5l-94 3q0 58 40 94t105 36q71 0 110.5 -31t39.5 -89q0 -43 -33 -82q-23 -28 -72 -64l-58 -49h174v-76z" />
    <glyph glyph-name="three.dnom" horiz-adv-x="372" 
d="M133 228h42q29 0 44 12t15 33q0 19 -14 30t-41 11q-22 0 -37 -9t-15 -24h-96q0 49 40.5 79.5t105.5 30.5q71 0 112 -30t41 -81q0 -28 -17 -49t-50 -33q74 -21 74 -90q0 -51 -44 -82t-116 -31q-69 0 -111 32.5t-42 86.5h97q0 -18 17 -30.5t45 -12.5t42.5 12.5t14.5 32.5
q0 48 -63 48h-44v64z" />
    <glyph glyph-name="four.dnom" horiz-adv-x="372" 
d="M299 157h44v-78h-44v-79h-97v79h-170l-6 62l176 244h97v-228zM202 157v112l-8 -12l-75 -100h83z" />
    <glyph glyph-name="five.dnom" horiz-adv-x="372" 
d="M44 187l26 198h244v-75h-165l-11 -70q35 13 66 13q64 0 98 -32.5t34 -91.5q0 -60 -41.5 -97t-108.5 -37q-63 0 -106.5 32t-44.5 81h97q2 -37 54 -37q26 0 39.5 15t13.5 43t-15 43t-45 15q-33 0 -58 -18z" />
    <glyph glyph-name="six.dnom" horiz-adv-x="372" 
d="M174.5 291.5q-33.5 -22.5 -40.5 -66.5q35 32 87 32q57 0 90 -35t33 -94q0 -57 -42.5 -95t-108.5 -38q-74 0 -116 40t-42 113v28q0 103 62 160t180 57v-78q-69 -1 -102.5 -23.5zM191 71q24 0 40 16.5t16 40.5q0 53 -57 53q-19 0 -34.5 -7t-23.5 -20v-18q0 -65 59 -65z" />
    <glyph glyph-name="seven.dnom" horiz-adv-x="372" 
d="M336 332l-163 -332h-102l164 308h-210v77h311v-53z" />
    <glyph glyph-name="eight.dnom" horiz-adv-x="372" 
d="M75.5 24.5q-40.5 29.5 -40.5 81.5q0 64 65 92q-56 29 -56 84q0 50 38 79.5t103 29.5q66 0 104 -29t38 -80q0 -57 -56 -84q65 -29 65 -92q0 -52 -40 -81.5t-110 -29.5t-110.5 29.5zM147.5 83q15.5 -12 38.5 -12t38.5 12t15.5 32q0 21 -14.5 32t-40.5 11t-39.5 -11
t-13.5 -32q0 -20 15.5 -32zM152.5 245.5q11.5 -10.5 33.5 -10.5q21 0 32.5 10.5t11.5 29.5t-11.5 29t-33.5 10q-44 0 -44 -39q0 -19 11.5 -29.5z" />
    <glyph glyph-name="nine.dnom" horiz-adv-x="372" 
d="M198 86.5q30 16.5 37 63.5q-31 -27 -74 -27q-61 0 -94 33.5t-33 94.5q0 39 19.5 71t53.5 50.5t76 18.5q70 0 109 -40.5t41 -113.5v-31q0 -105 -55.5 -157.5t-172.5 -53.5v75q63 0 93 16.5zM145 209q15 -15 42 -15q33 0 50 22v36q0 62 -54 62q-24 0 -38.5 -18.5
t-14.5 -45.5q0 -26 15 -41z" />
    <glyph glyph-name="zero.numr" horiz-adv-x="372" 
d="M296 321q-39 -41 -110 -41t-110.5 40.5t-40.5 114.5v81q0 77 40 118.5t110 41.5t110 -42t40 -117v-79q0 -76 -39 -117zM145 374.5q13 -18.5 41 -18.5q51 0 53 71v93q0 79 -54 79q-50 0 -53 -73v-93q0 -40 13 -58.5z" />
    <glyph glyph-name="one.numr" horiz-adv-x="372" 
d="M256 285h-96v273l-94 -21v74l180 58h10v-384z" />
    <glyph glyph-name="two.numr" horiz-adv-x="372" 
d="M337 285h-300v64l142 129q25 22 38 43t13 34q0 21 -13 32.5t-37 11.5q-26 0 -40.5 -15.5t-14.5 -40.5l-94 3q0 58 40 94t105 36q71 0 110.5 -31t39.5 -89q0 -43 -33 -82q-23 -28 -72 -64l-58 -49h174v-76z" />
    <glyph glyph-name="three.numr" horiz-adv-x="372" 
d="M133 513h42q29 0 44 12t15 33q0 19 -14 30t-41 11q-22 0 -37 -9t-15 -24h-96q0 49 40.5 79.5t105.5 30.5q71 0 112 -30t41 -81q0 -28 -17 -49t-50 -33q74 -21 74 -90q0 -51 -44 -82t-116 -31q-69 0 -111 32.5t-42 86.5h97q0 -18 17 -30.5t45 -12.5t42.5 12.5t14.5 32.5
q0 48 -63 48h-44v64z" />
    <glyph glyph-name="four.numr" horiz-adv-x="372" 
d="M299 442h44v-78h-44v-79h-97v79h-170l-6 62l176 244h97v-228zM202 442v112l-8 -12l-75 -100h83z" />
    <glyph glyph-name="five.numr" horiz-adv-x="372" 
d="M44 472l26 198h244v-75h-165l-11 -70q35 13 66 13q64 0 98 -32.5t34 -91.5q0 -60 -41.5 -97t-108.5 -37q-63 0 -106.5 32t-44.5 81h97q2 -37 54 -37q26 0 39.5 15t13.5 43t-15 43t-45 15q-33 0 -58 -18z" />
    <glyph glyph-name="six.numr" horiz-adv-x="372" 
d="M174.5 576.5q-33.5 -22.5 -40.5 -66.5q35 32 87 32q57 0 90 -35t33 -94q0 -57 -42.5 -95t-108.5 -38q-74 0 -116 40t-42 113v28q0 103 62 160t180 57v-78q-69 -1 -102.5 -23.5zM191 356q24 0 40 16.5t16 40.5q0 53 -57 53q-19 0 -34.5 -7t-23.5 -20v-18q0 -65 59 -65z
" />
    <glyph glyph-name="seven.numr" horiz-adv-x="372" 
d="M336 617l-163 -332h-102l164 308h-210v77h311v-53z" />
    <glyph glyph-name="eight.numr" horiz-adv-x="372" 
d="M75.5 309.5q-40.5 29.5 -40.5 81.5q0 64 65 92q-56 29 -56 84q0 50 38 79.5t103 29.5q66 0 104 -29t38 -80q0 -57 -56 -84q65 -29 65 -92q0 -52 -40 -81.5t-110 -29.5t-110.5 29.5zM147.5 368q15.5 -12 38.5 -12t38.5 12t15.5 32q0 21 -14.5 32t-40.5 11t-39.5 -11
t-13.5 -32q0 -20 15.5 -32zM152.5 530.5q11.5 -10.5 33.5 -10.5q21 0 32.5 10.5t11.5 29.5t-11.5 29t-33.5 10q-44 0 -44 -39q0 -19 11.5 -29.5z" />
    <glyph glyph-name="nine.numr" horiz-adv-x="372" 
d="M198 371.5q30 16.5 37 63.5q-31 -27 -74 -27q-61 0 -94 33.5t-33 94.5q0 39 19.5 71t53.5 50.5t76 18.5q70 0 109 -40.5t41 -113.5v-31q0 -105 -55.5 -157.5t-172.5 -53.5v75q63 0 93 16.5zM145 494q15 -15 42 -15q33 0 50 22v36q0 62 -54 62q-24 0 -38.5 -18.5
t-14.5 -45.5q0 -26 15 -41z" />
    <glyph glyph-name="period.001" 
d="M86.5 589q-25.5 26 -25.5 64q0 37 25.5 62.5t63.5 25.5q37 0 63 -25.5t26 -62.5q0 -38 -25.5 -64t-63.5 -26t-63.5 26z" />
    <glyph glyph-name="dotcenter-ar" 
d="M157 -51v-130h-133v130h133z" />
    <glyph glyph-name="twodotshorizontalabove-ar.001" 
d="M80 407l83 -84q-27 -28 -55 -55l-28 -28l-41 42l-42 41z" />
    <glyph glyph-name="threedotsdownbelow-ar.001" 
d="M84 405q41 -39 80 -80l-80 -80q-39 41 -80 80z" />
    <glyph glyph-name="threedotsupabove-ar.002" 
d="M75 394l71 -70l-71 -70l-23 23q-24 23 -47 47z" />
    <glyph glyph-name="wasla-ar" 
d="M75 606l31 -40l27 40q24 35 46 52t53 17q42 0 67 -32t25 -76q0 -47 -27.5 -75t-68.5 -28h-47q-39 0 -60.5 8.5t-37 26t-53.5 67.5zM181 530h47q22 0 31 7.5t9 29.5t-8 32t-28 10q-16 0 -26 -8.5t-28 -33.5l-23 -35q14 -2 26 -2z" />
    <glyph glyph-name="miniKeheh-ar" 
d="M9 33h69q7 0 8 2.5t-4 7.5l-61 61l11 58l104 48l23 -56l-71 -33l36 -37q21 -21 21 -49q0 -26 -18.5 -45t-48.5 -19h-76z" />
    <glyph glyph-name="gafsarkashabove-ar" 
d="M30 496l250 109l18 -48l-274 -119z" />
    <glyph glyph-name="gafsarkashabove-ar.001" 
d="M-57 516l158 222l40 -32l-173 -244z" />
    <glyph glyph-name="uni0654064F" 
d="M26 523l50 15q-36 30 -36 80q0 44 32 74.5t76 30.5q17 0 66 -11l-11 -62q-38 7 -55 7q-23 0 -39 -12.5t-16 -30.5q0 -21 18 -35t47 -14q7 0 19 2l69 20l4 -66l-219 -64zM71 815q-11 20 -15 34q-5 14 -5 33q0 34 19.5 62.5t51.5 38.5q25 7 40 7q33 0 58 -19t36 -54
q5 -15 5 -34q0 -35 -22.5 -62t-64.5 -41l-141 -46l-18 63zM121 831l45 14q42 14 42 43q0 16 -11 27t-30 11q-12 0 -27 -6q-17 -7 -26.5 -19t-9.5 -26q0 -4 2 -10q7 -23 15 -34z" />
    <glyph glyph-name="uni0654064C" 
d="M2 519l50 14q-36 30 -36 81q0 44 32 74.5t76 30.5q16 0 38.5 -5t26.5 -6l-11 -62q-37 7 -54 7q-23 0 -39 -12.5t-16 -30.5q0 -21 18.5 -35t46.5 -14q6 0 20 2l68 20l4 -66l-220 -64zM-38 916q0 47 23.5 85.5t72.5 59.5l27 -53q-34 -15 -51.5 -42.5t-17.5 -60.5
q0 -32 13 -61l-47 -17q-20 43 -20 89zM75 833q-9 16 -14 33q-6 17 -6 35q0 34 20 62t52 38q20 6 39 6q33 0 58 -18.5t37 -53.5q5 -15 5 -34q0 -35 -22.5 -62t-64.5 -41l-142 -47l-18 64zM125 848l46 15q42 14 42 42q0 9 -2 13q-10 25 -39 25q-14 0 -27 -5q-18 -7 -27 -19
t-9 -26q0 -3 2 -11q4 -17 14 -34z" />
    <glyph glyph-name="uni0654064E" 
d="M-2 524l49 14q-36 31 -36 81q0 44 32 74.5t77 30.5q16 0 38.5 -5t26.5 -6l-11 -62q-38 7 -55 7q-23 0 -39 -12.5t-16 -30.5q0 -21 18 -35t47 -14q7 0 19 2l69 20l4 -66l-219 -64zM0 796l219 67v-67l-219 -67v67z" />
    <glyph glyph-name="uni0654064B" 
d="M-5 523l50 15q-36 30 -36 80q0 44 32 74.5t76 30.5q17 0 66 -11l-11 -62q-38 7 -55 7q-23 0 -39 -12.5t-16 -30.5q0 -21 18 -35t47 -14q7 0 19 2l69 20l4 -66l-219 -64zM-3 804l220 68v-68l-220 -67v67zM-3 905l220 68v-68l-220 -67v67z" />
    <glyph glyph-name="uni06540652" 
d="M-15 523l49 14q-36 31 -36 81q0 44 32 74.5t77 30.5q16 0 38.5 -5t26.5 -6l-11 -62q-38 7 -55 7q-23 0 -39 -12.5t-16 -30.5q0 -21 18 -35t47 -14q7 0 19 2l69 20l4 -66l-219 -64zM31.5 925q27.5 32 63.5 32q39 0 66 -34t27 -77q0 -41 -27 -70.5t-67 -29.5
q-39 1 -64.5 32.5t-25.5 72.5q0 42 27.5 74zM67 820.5q11 -11.5 27 -11.5q19 0 31 11.5t12 28.5q0 19 -12 32t-31 13q-16 0 -27.5 -13t-11.5 -32q1 -17 12 -28.5z" />
    <glyph glyph-name="uni06550650" 
d="M-6 -224l49 14q-35 30 -35 80q0 43 30 73.5t73 32.5q25 0 71 -11l-11 -62q-38 7 -55 7q-23 0 -39 -12.5t-16 -31.5q0 -21 18 -34.5t47 -13.5q5 0 19 2l69 20l4 -67l-219 -64zM-4 -342l220 68v-68l-220 -67v67z" />
    <glyph glyph-name="uni0655064D" 
d="M-12 -188l49 14q-36 31 -36 81q0 44 32 74.5t77 30.5q16 0 38.5 -5t26.5 -6l-11 -62q-37 7 -54 7q-24 0 -39.5 -12.5t-16.5 -30.5q0 -21 18 -35t47 -14q7 0 19 2l69 20l4 -66l-219 -64zM-11 -405l220 68v-68l-220 -67v67zM-11 -303l220 68v-68l-220 -67v67z" />
    <glyph glyph-name="uni0651064B" 
d="M31 569v-43q0 -16 9.5 -23t21.5 -7q34 0 34 30v43h52v-43q0 -15 8 -22.5t22 -7.5q16 0 24 7t8 19q0 7 -1.5 16t-4.5 21l-5 20l51 14q2 -10 6 -28t5.5 -28t1.5 -20q0 -35 -19.5 -62t-66.5 -27q-33 0 -56 21q-22 -21 -59 -21q-33 0 -58 24t-25 72v45h52zM11 695l220 68v-68
l-220 -67v67zM11 797l220 67v-67l-220 -67v67z" />
    <glyph glyph-name="uni0651064C" 
d="M15 572v-43q0 -16 9.5 -23t21.5 -7q34 0 34 30v43h52v-43q0 -15 8 -22.5t22 -7.5q16 0 24 7t8 19q0 7 -1.5 16t-4.5 21l-5 20l51 14q2 -10 6 -28t5.5 -28t1.5 -20q0 -35 -19.5 -62t-66.5 -27q-33 0 -56 21q-22 -21 -59 -21q-33 0 -58 24t-25 72v45h52zM-40 773
q0 46 23.5 85t72.5 60l27 -53q-34 -15 -51.5 -42t-17.5 -60q0 -29 14 -62l-47 -17q-21 45 -21 89zM73 690q-9 16 -14 33q-6 17 -6 35q0 34 20 62t52 38q20 6 39 6q33 0 58 -18.5t37 -53.5q5 -15 5 -34q0 -35 -22.5 -62t-64.5 -41l-142 -47l-18 64zM123 705l46 15
q42 14 42 42q0 9 -2 13q-10 25 -39 25q-14 0 -27 -5q-18 -7 -27 -19t-9 -26q0 -3 2 -11q4 -17 14 -34z" />
    <glyph glyph-name="uni0651064D" 
d="M21 777v-43q0 -16 9.5 -23t21.5 -7q34 0 34 30v43h52v-43q0 -15 8 -22.5t22 -7.5q16 0 24 7t8 19q0 7 -1.5 16t-4.5 21l-5 20l51 14q2 -10 6 -28t5.5 -28t1.5 -20q0 -35 -19.5 -62t-66.5 -27q-33 0 -56 21q-22 -21 -59 -21q-33 0 -58 24t-25 72v45h52zM1 443l220 68v-67
l-220 -68v67zM1 545l220 68v-68l-220 -67v67z" />
    <glyph glyph-name="uni0651064E" 
d="M24 575v-43q0 -16 9.5 -23t21.5 -7q34 0 34 30v43h52v-43q0 -15 8 -22.5t22 -7.5q16 0 24 7t8 19q0 7 -1.5 16t-4.5 21l-5 20l51 14q2 -10 6 -28t5.5 -28t1.5 -20q0 -35 -19.5 -62t-66.5 -27q-33 0 -56 21q-22 -21 -59 -21q-33 0 -58 24t-25 72v45h52zM4 686l220 68v-68
l-220 -67v67z" />
    <glyph glyph-name="uni0651064F" 
d="M22 575v-43q0 -16 9.5 -23t21.5 -7q34 0 34 30v43h52v-43q0 -15 8 -22.5t22 -7.5q16 0 24 7t8 19q0 7 -1.5 16t-4.5 21l-5 20l51 14q2 -10 6 -28t5.5 -28t1.5 -20q0 -35 -19.5 -62t-66.5 -27q-33 0 -56 21q-22 -21 -59 -21q-33 0 -58 24t-25 72v45h52zM44 681
q-9 16 -14 33q-6 17 -6 35q0 34 20 62t52 38q20 6 39 6q33 0 58 -18.5t37 -53.5q5 -15 5 -34q0 -35 -22.5 -62t-64.5 -41l-142 -47l-18 64zM94 696l46 15q42 14 42 42q0 9 -2 13q-10 25 -38 25q-13 0 -28 -6q-17 -6 -26.5 -18.5t-9.5 -25.5q0 -3 2 -11q4 -19 14 -34z" />
    <glyph glyph-name="uni06510650" 
d="M-2 484l220 68v-68l-220 -67v67zM-34 707h52v-43q0 -16 9.5 -23t21.5 -7q34 0 34 30v43h52v-43q0 -15 8 -22.5t22 -7.5q16 0 24 7t8 19q0 7 -1.5 16t-4.5 21l-5 20l51 14q2 -10 6 -28t5.5 -28t1.5 -20q0 -35 -19.5 -62t-66.5 -27q-33 0 -56 21q-22 -21 -59 -21
q-33 0 -58 24t-25 72v45z" />
    <glyph glyph-name="uni06510670" 
d="M19 572v-43q0 -16 9.5 -23t21.5 -7q34 0 34 30v43h52v-43q0 -15 8 -22.5t22 -7.5q16 0 24 7t8 19q0 7 -1.5 16t-4.5 21l-5 20l51 14q2 -10 6 -28t5.5 -28t1.5 -20q0 -35 -19.5 -62t-66.5 -27q-33 0 -56 21q-22 -21 -59 -21q-33 0 -58 24t-25 72v45h52zM83 770h52v-154
h-52v154z" />
    <glyph glyph-name="uni0653.001" 
d="M-12.5 670q39.5 32 111.5 32h205v-102h-205q-35 0 -53 -14t-30 -43l-89 29q21 66 60.5 98z" />
    <glyph glyph-name="sareya-ar" 
d="M-34 545l63 -15q16 -4 32 -4q42 0 45 44l-115 32q-8 21 -8 49q0 37 17 69t46 52t64 21q32 0 54 -7l-15 -65q-16 4 -39 4q-32 -1 -53.5 -22t-19.5 -45l77 -23q44 -12 44 -62q0 -46 -30.5 -78.5t-79.5 -32.5q-9 0 -33 4l-66 15z" />
    </font>
</defs>
</svg>
