<?xml version="1.0" standalone="no"?>
<!DOCTYPE svg PUBLIC "-//W3C//DTD SVG 1.1//EN" "http://www.w3.org/Graphics/SVG/1.1/DTD/svg11.dtd" >
<svg xmlns="http://www.w3.org/2000/svg" xmlns:xlink="http://www.w3.org/1999/xlink" version="1.1">
<metadata>
Created by FontForge 20201107 at Sun Aug 28 15:53:07 2022
 By 
Copyright (c) 2021 by www.fontiran.com (Moslem Ebrahimi). All rights reserved.
</metadata>
<defs>
<font id="IRANYekanX-Regular" horiz-adv-x="0" >
  <font-face 
    font-family="IRANYekanX"
    font-weight="400"
    font-stretch="normal"
    units-per-em="1000"
    panose-1="0 0 0 0 0 0 0 0 0 0"
    ascent="800"
    descent="-200"
    x-height="528"
    cap-height="711"
    bbox="-97 -479 2230 1011"
    underline-thickness="20"
    underline-position="-223"
    unicode-range="U+000D-FEFF"
  />
<missing-glyph horiz-adv-x="255" 
d="M38 429h179v-433h-179v433zM208 4v417h-161v-417h161z" />
    <glyph glyph-name="uni06AA" unicode="&#x6a9;&#x621;&#x621;" horiz-adv-x="1185" 
d="M129 23.5q-42 23.5 -65.5 63t-23.5 87.5q0 14 1 21q5 46 33 162l73 -19q-2 -9 -15.5 -68.5t-15.5 -83.5q-1 -5 -1 -13q0 -39 28.5 -61t81.5 -22h767q36 0 55.5 18.5t19.5 51.5v44q0 32 -19.5 50t-55.5 18h-636l-43 70l202 288l64 -52l-151 -216h564q41 0 76 -21t56 -57
t21 -80v-44q0 -44 -20.5 -80.5t-56 -58t-76.5 -21.5h-767q-54 0 -96 23.5z" />
    <glyph glyph-name="uni06BE" unicode="&#x647;&#x621;&#x621;" horiz-adv-x="691" 
d="M456 491l152 -234q33 -51 33 -104q0 -54 -36 -95q-27 -30 -73.5 -45t-103.5 -15q-82 0 -163 29q-82 -27 -176 -27h-39v90h54q18 0 48 2q-69 59 -69 139q0 54 25 99t67.5 71t93.5 26q49 0 91 -26t67 -71t25 -98q0 -83 -68 -141q10 -1 32 -1q44 0 83 7.5t52 21.5
q12 12 12 31q0 23 -21 57l-152 236zM262 111q53 18 82.5 47t29.5 68q0 49 -28.5 80t-77.5 31t-78 -31.5t-29 -79.5q0 -79 101 -115z" />
    <glyph glyph-name="uni06C0" unicode="&#x647;&#x654;" horiz-adv-x="495" 
d="M281 443q61 -66 93 -105t51.5 -79.5t19.5 -82.5q0 -51 -27 -93t-72.5 -66t-97.5 -24q-53 0 -98.5 24t-72.5 66t-27 93q0 45 18.5 86t45.5 74t75 84l-25 28l58 60zM160.5 109q32.5 -26 87.5 -26q54 0 86.5 26t32.5 67q0 33 -26 69.5t-94 111.5q-65 -68 -92 -105t-27 -76
q0 -41 32.5 -67zM161 624l50 -10q15 -3 26 -3q26 0 37 13t12 37l-104 28q-9 24 -9 46q0 49 33 84.5t80 36.5q29 0 48 -6l-10 -48q-18 4 -38 4q-32 -2 -54 -24t-19 -51l74 -21q39 -12 39 -53q0 -44 -27 -69.5t-70 -25.5q-14 0 -29 3l-49 10z" />
    <glyph glyph-name="uni06D2" unicode="&#x649;&#x621;&#x621;" horiz-adv-x="880" 
d="M69 0q-19 53 -19 109q0 68 27.5 126.5t78 94t115.5 35.5q8 0 28 -2l69 -8l-13 -88l-64 6q-7 1 -19 1q-67 0 -106 -44t-39 -112q0 -10 2 -28h701v-90h-761z" />
    <glyph glyph-name="uni06D3" unicode="&#x626;&#x621;&#x621;" horiz-adv-x="880" 
d="M69 0q-19 53 -19 109q0 68 27.5 126.5t78 94t115.5 35.5q8 0 28 -2l69 -8l-13 -88l-64 6q-7 1 -19 1q-67 0 -106 -44t-39 -112q0 -10 2 -28h701v-90h-761zM196 456q-45 28 -45 80q0 40 28 66.5t67 28.5q20 0 66 -10l-8 -48q-38 8 -58 8q-26 -2 -40 -14t-14 -32
q0 -23 20.5 -39t51.5 -16q6 0 20 2l65 19l3 -50l-208 -61l-3 50z" />
    <glyph glyph-name="uni06C0.fina" unicode="&#xfeea;&#x654;" horiz-adv-x="608" arabic-form="final" 
d="M440 198q26 -108 153 -108h20l5 -45l-5 -45h-20q-62 0 -121 29.5t-91 96.5q-26 -42 -65 -64t-84 -22q-47 0 -93 26q-42 23 -65.5 67.5t-23.5 94.5q0 52 24 92q17 28 37 47t62.5 41.5t121.5 55.5l-11 50l76 20zM96 564l50 -10q15 -3 26 -3q26 0 37 13t12 37l-104 28
q-9 24 -9 46q0 49 33 84.5t80 36.5q29 0 48 -6l-10 -48q-18 4 -38 4q-32 -2 -54 -24t-19 -51l74 -21q39 -12 39 -53q0 -44 -27 -69.5t-70 -25.5q-14 0 -29 3l-49 10zM127 224q0 -24 13 -46t36 -36q21 -14 52 -14q27 0 52.5 12t43.5 34q10 13 15 27t5 34q0 14 -3 35l-26 111
q-81 -28 -119.5 -54.5t-53.5 -52.5q-15 -25 -15 -50z" />
    <glyph glyph-name="uni06C1.fina" unicode="&#xfeea;&#x621;&#x621;" horiz-adv-x="552" arabic-form="final" 
d="M538 90h19l5 -45l-5 -45h-19q-75 0 -140 41t-88 136l-29 119l-56 -18q-50 -17 -74.5 -42t-24.5 -62q0 -22 9 -49l22 -70l-74 -26l-22 70q-11 33 -11 71q0 68 40 120t111 74l102 31l45 -27l38 -169q24 -109 152 -109z" />
    <glyph glyph-name="uni06C1.medi" unicode="&#xfeec;&#xfe8c;&#xfe8c;&#xfe8c;&#xfe8c;" horiz-adv-x="440" arabic-form="medial" 
d="M179 194v-232q41 60 104.5 94t139.5 34h22l5 -45l-5 -45h-22q-70 0 -125.5 -31.5t-87 -86t-31.5 -120.5v-14h-78v286q-40 -34 -90 -34h-16v90h20q36 0 61 25.5t25 75.5v3h78z" />
    <glyph glyph-name="uni06BE.fina" unicode="&#xfeea;&#x621;&#x621;&#x621;&#x621;" horiz-adv-x="553" arabic-form="final" 
d="M52 78l71 5v105q0 109 50.5 172.5t140.5 63.5q51 0 94.5 -26t69 -72.5t25.5 -104.5q0 -19 -3 -40q-5 -31 -25.5 -57.5t-52.5 -33.5h136l5 -45l-5 -45h-136q31 -5 52 -32.5t26 -58.5q3 -21 3 -40q0 -58 -25.5 -104.5t-69 -72.5t-94.5 -26q-90 0 -140.5 63.5t-50.5 172.5
v98h-83zM227.5 -210q26.5 -34 86.5 -34q50 0 80.5 28.5t30.5 79.5q0 14 -3 31q-8 49 -56 77t-127 28h-38v-98q0 -78 26.5 -112zM242 90q79 0 125.5 28.5t54.5 76.5q3 17 3 31q0 51 -30.5 79.5t-80.5 28.5q-60 0 -86.5 -34t-26.5 -112v-98h41z" />
    <glyph glyph-name="uni06BE.medi" unicode="&#xfeec;&#xfe8c;&#xfe8c;&#xfe8c;" horiz-adv-x="703" arabic-form="medial" 
d="M479 491l152 -234q33 -51 33 -104q0 -32 -14 -62l59 -1l5 -45l-6 -45q-123 0 -181 7q-48 -9 -115 -9q-82 0 -163 29q-82 -27 -176 -27h-78v90h93q18 0 48 2q-69 59 -69 139q0 54 25 99t67.5 71t93.5 26q49 0 91 -26t67 -71t25 -98q0 -83 -68 -141q10 -1 32 -1
q146 0 174 29q12 12 12 31q0 23 -21 57l-152 236zM246 111q53 18 82.5 47t29.5 68q0 49 -28.5 80t-77.5 31t-78 -31.5t-29 -79.5q0 -79 101 -115z" />
    <glyph glyph-name="uni06D2.fina" unicode="&#xfbfd;&#x621;&#x621;" horiz-adv-x="363" arabic-form="final" 
d="M71 -269q-21 57 -21 113q0 68 29.5 124t84 89t126.5 33h79l5 -45l-5 -45h-76q-77 0 -120.5 -40.5t-43.5 -110.5q0 -8 2 -28h476v-90h-536z" />
    <glyph glyph-name="uni06D3.fina" unicode="&#xfe8a;&#x621;&#x621;" horiz-adv-x="363" arabic-form="final" 
d="M71 -269q-21 57 -21 113q0 68 29.5 124t84 89t126.5 33h79l5 -45l-5 -45h-76q-77 0 -120.5 -40.5t-43.5 -110.5q0 -8 2 -28h476v-90h-536zM159 189q-45 28 -45 80q0 40 28 66.5t67 28.5q20 0 66 -10l-8 -48q-38 8 -58 8q-26 -2 -40 -14t-14 -32q0 -23 20.5 -39t51.5 -16
q6 0 20 2l65 19l3 -50l-208 -61l-3 50z" />
    <glyph glyph-name="uni06440622" unicode="&#xfedf;&#xfe82;" horiz-adv-x="539" arabic-form="isolated" 
d="M50 90h272q45 0 67.5 19.5t22.5 68.5v471h77v-471q0 -61 -25.5 -101t-62.5 -58.5t-72 -18.5h-279v90zM33 698q41 35 110 35h195v-75h-195q-41 0 -64 -19.5t-34 -53.5l-65 21q12 57 53 92zM164 588l25 -419l-78 -6l-25 419z" />
    <glyph glyph-name="uni06440622.fina" unicode="&#xfee0;&#xfe82;" horiz-adv-x="627" arabic-form="final" 
d="M531 15.5q-32 15.5 -55 46.5q-24 -31 -58 -46.5t-66 -15.5h-279v90h272q45 0 67.5 19.5t22.5 68.5v471h77v-471q0 -43 21 -65.5t62 -22.5h37v-90h-37q-32 0 -64 15.5zM33 698q41 35 110 35h195v-75h-195q-41 0 -64 -19.5t-34 -53.5l-65 21q12 57 53 92zM187 588l25 -419
l-78 -6l-25 419z" />
    <glyph glyph-name="uni06440623" unicode="&#xfedf;&#xfe84;" horiz-adv-x="539" arabic-form="isolated" 
d="M50 90h272q45 0 67.5 19.5t22.5 68.5v471h77v-471q0 -61 -25.5 -101t-62.5 -58.5t-72 -18.5h-279v90zM75 668q-45 28 -45 80q0 40 28 66.5t67 28.5q20 0 66 -10l-8 -48q-38 8 -58 8q-26 -2 -40 -14t-14 -32q0 -23 20.5 -39t51.5 -16q6 0 20 2l65 19l3 -50l-208 -61l-3 50
zM164 588l25 -419l-78 -6l-25 419z" />
    <glyph glyph-name="uni06440623.fina" unicode="&#xfee0;&#xfe84;" horiz-adv-x="604" arabic-form="final" 
d="M508 15.5q-32 15.5 -55 46.5q-24 -31 -58 -46.5t-66 -15.5h-279v90h272q45 0 67.5 19.5t22.5 68.5v471h77v-471q0 -43 21 -65.5t62 -22.5h37v-90h-37q-32 0 -64 15.5zM75 668q-45 28 -45 80q0 40 28 66.5t67 28.5q20 0 66 -10l-8 -48q-38 8 -58 8q-26 -2 -40 -14t-14 -32
q0 -23 20.5 -39t51.5 -16q6 0 20 2l65 19l3 -50l-208 -61l-3 50zM164 588l25 -419l-78 -6l-25 419z" />
    <glyph glyph-name="uni06440625" unicode="&#xfedf;&#xfe88;" horiz-adv-x="539" arabic-form="isolated" 
d="M50 90h272q45 0 67.5 19.5t22.5 68.5v471h77v-471q0 -61 -25.5 -101t-62.5 -58.5t-72 -18.5h-279v90zM112 -200q-45 28 -45 80q0 40 28 66.5t67 28.5q20 0 66 -10l-8 -48q-38 8 -58 8q-26 -2 -40 -14t-14 -32q0 -23 20.5 -39t51.5 -16q6 0 20 2l65 19l3 -50l-208 -61
l-3 50zM162 638l27 -469l-78 -6l-27 469z" />
    <glyph glyph-name="uni06440625.fina" unicode="&#xfee0;&#xfe88;" horiz-adv-x="604" arabic-form="final" 
d="M508 15.5q-32 15.5 -55 46.5q-24 -31 -58 -46.5t-66 -15.5h-279v90h272q45 0 67.5 19.5t22.5 68.5v471h77v-471q0 -43 21 -65.5t62 -22.5h37l5 -45l-5 -45h-37q-32 0 -64 15.5zM112 -200q-45 28 -45 80q0 40 28 66.5t67 28.5q20 0 66 -10l-8 -48q-38 8 -58 8
q-26 -2 -40 -14t-14 -32q0 -23 20.5 -39t51.5 -16q6 0 20 2l65 19l3 -50l-208 -61l-3 50zM162 638l27 -469l-78 -6l-27 469z" />
    <glyph glyph-name="uni06440627" unicode="&#xfedf;&#xfe8e;" horiz-adv-x="539" arabic-form="isolated" 
d="M50 90h272q45 0 67.5 19.5t22.5 68.5v471h77v-471q0 -61 -25.5 -101t-62.5 -58.5t-72 -18.5h-279v90zM162 638l27 -469l-78 -6l-27 469z" />
    <glyph glyph-name="uni06440627.fina" unicode="&#xfee0;&#xfe8e;" horiz-adv-x="604" arabic-form="final" 
d="M508 15.5q-32 15.5 -55 46.5q-24 -31 -58 -46.5t-66 -15.5h-279v90h272q45 0 67.5 19.5t22.5 68.5v471h77v-471q0 -43 21 -65.5t62 -22.5h37l5 -45l-5 -45h-37q-32 0 -64 15.5zM162 638l27 -469l-78 -6l-27 469z" />
    <glyph glyph-name="uni06AA.001" unicode="&#x6af;&#x621;&#x621;" horiz-adv-x="1185" 
d="M129 23.5q-42 23.5 -65.5 63t-23.5 87.5q0 14 1 21q5 46 33 162l73 -19q-2 -9 -15.5 -68.5t-15.5 -83.5q-1 -5 -1 -13q0 -39 28.5 -61t81.5 -22h767q36 0 55.5 18.5t19.5 51.5v44q0 32 -19.5 50t-55.5 18h-636l-43 70l202 288l64 -52l-151 -216h564q41 0 76 -21t56 -57
t21 -80v-44q0 -44 -20.5 -80.5t-56 -58t-76.5 -21.5h-767q-54 0 -96 23.5zM274 429l167 234l32 -25l-178 -252z" />
    <glyph glyph-name="uni06AA.fina" unicode="&#xfb8f;&#x621;&#x621;" horiz-adv-x="1210" 
d="M129 23.5q-42 23.5 -65.5 63t-23.5 87.5q0 14 1 21q5 46 33 162l73 -19q-2 -9 -15.5 -68.5t-15.5 -83.5q-1 -5 -1 -13q0 -39 28.5 -61t81.5 -22h767q36 0 55.5 18.5t19.5 51.5v44q0 32 -19.5 50t-55.5 18h-636l-43 70l202 288l64 -52l-151 -216h564q41 0 76 -21t56 -57
t21 -80v-44q0 -39 14.5 -54.5t45.5 -15.5h10l5 -45l-5 -45h-10q-68 0 -99 53q-22 -25 -51.5 -39t-62.5 -14h-767q-54 0 -96 23.5z" />
    <glyph glyph-name="uni06AA.fina.001" unicode="&#xfb93;&#x621;&#x621;" horiz-adv-x="1210" 
d="M129 23.5q-42 23.5 -65.5 63t-23.5 87.5q0 14 1 21q5 46 33 162l73 -19q-2 -9 -15.5 -68.5t-15.5 -83.5q-1 -5 -1 -13q0 -39 28.5 -61t81.5 -22h767q36 0 55.5 18.5t19.5 51.5v44q0 32 -19.5 50t-55.5 18h-636l-43 70l202 288l64 -52l-151 -216h564q41 0 76 -21t56 -57
t21 -80v-44q0 -39 14.5 -54.5t45.5 -15.5h10l5 -45l-5 -45h-10q-68 0 -99 53q-22 -25 -51.5 -39t-62.5 -14h-767q-54 0 -96 23.5zM274 429l167 234l32 -25l-178 -252z" />
    <glyph glyph-name="uni06AA.medi" unicode="&#xfb91;&#xfe8c;&#xfe8c;" horiz-adv-x="997" 
d="M779 90q36 0 55.5 18.5t19.5 51.5v44q0 32 -19.5 50t-55.5 18h-636l-43 70l202 288l64 -52l-151 -216h564q41 0 76 -21t56 -57t21 -80v-44q0 -39 14.5 -54.5t45.5 -15.5h10l5 -45l-5 -45h-10q-68 0 -99 53q-22 -25 -51.5 -39t-62.5 -14l-784 -1v90z" />
    <glyph glyph-name="uni06AA.medi.001" unicode="&#xfb95;&#xfe8c;&#xfe8c;" horiz-adv-x="997" 
d="M779 90q36 0 55.5 18.5t19.5 51.5v44q0 32 -19.5 50t-55.5 18h-636l-43 70l202 288l64 -52l-151 -216h564q41 0 76 -21t56 -57t21 -80v-44q0 -39 14.5 -54.5t45.5 -15.5h10l5 -45l-5 -45h-10q-68 0 -99 53q-22 -25 -51.5 -39t-62.5 -14l-784 -1v90zM53 429l167 234
l32 -25l-178 -252z" />
    <glyph glyph-name="uni06AA.init" unicode="&#xfb90;&#xfe8c;&#xfe8c;" horiz-adv-x="972" 
d="M779 90q36 0 55.5 18.5t19.5 51.5v44q0 32 -19.5 50t-55.5 18h-636l-43 70l202 288l64 -52l-151 -216h564q41 0 76 -21t56 -57t21 -80v-44q0 -44 -20.5 -80.5t-56 -58t-76.5 -21.5l-784 -1v90z" />
    <glyph glyph-name="uni06AA.init.001" unicode="&#xfb94;&#xfe8c;&#xfe8c;" horiz-adv-x="972" 
d="M779 90q36 0 55.5 18.5t19.5 51.5v44q0 32 -19.5 50t-55.5 18h-636l-43 70l202 288l64 -52l-151 -216h564q41 0 76 -21t56 -57t21 -80v-44q0 -44 -20.5 -80.5t-56 -58t-76.5 -21.5l-784 -1v90zM53 429l167 234l32 -25l-178 -252z" />
    <glyph glyph-name="uni0647.fina.alt" unicode="&#xfeea;&#x621;&#x621;&#x621;" horiz-adv-x="714" 
d="M128 150q0 -19 12 -31q28 -29 174 -29q22 0 32 1q-68 58 -68 141q0 53 25 98t67 71t91 26q51 0 93.5 -26t67.5 -71t25 -99q0 -80 -69 -139q30 -2 48 -2h93v-90h-78q-93 0 -176 27q-81 -29 -163 -29q-84 0 -136 14.5t-80 45.5q-36 41 -36 95q0 53 33 104l152 234l66 -48
l-152 -236q-21 -34 -21 -57zM385.5 158q29.5 -29 82.5 -47q101 36 101 115q0 48 -29 79.5t-78 31.5t-77.5 -31t-28.5 -80q0 -39 29.5 -68z" />
    <glyph glyph-name="uni0647.medi.alt" unicode="&#xfeec;&#xfe8c;&#xfe8c;" horiz-adv-x="477" 
d="M-5 90h52v98q0 109 50.5 172.5t140.5 63.5q51 0 94.5 -26t69 -72.5t25.5 -104.5q0 -19 -3 -40q-5 -31 -25.5 -57.5t-52.5 -33.5h136l5 -45l-5 -45h-136q31 -5 52 -32.5t26 -58.5q3 -21 3 -40q0 -58 -25.5 -104.5t-69 -72.5t-94.5 -26q-90 0 -140.5 63.5t-50.5 172.5v98
h-52v90zM151.5 -210q26.5 -34 86.5 -34q50 0 80.5 28.5t30.5 79.5q0 14 -3 31q-8 49 -56 77t-127 28h-38v-98q0 -78 26.5 -112zM166 90q79 0 125.5 28.5t54.5 76.5q3 17 3 31q0 51 -30.5 79.5t-80.5 28.5q-60 0 -86.5 -34t-26.5 -112v-98h41z" />
    <glyph glyph-name="uni0647.init.alt" unicode="&#xfeeb;&#xfe8c;&#xfe8c;" horiz-adv-x="477" 
d="M-5 90h52v98q0 109 50.5 172.5t140.5 63.5q51 0 94.5 -26t69 -72.5t25.5 -104.5q0 -19 -3 -40q-14 -88 -100 -136q86 -48 100 -136q3 -21 3 -40q0 -58 -25.5 -104.5t-69 -72.5t-94.5 -26q-90 0 -140.5 63.5t-50.5 172.5v98h-52v90zM151.5 -210q26.5 -34 86.5 -34
q50 0 80.5 28.5t30.5 79.5q0 14 -3 31q-8 52 -68 78t-153 27v-98q0 -78 26.5 -112zM278 117q60 26 68 78q3 17 3 31q0 51 -30.5 79.5t-80.5 28.5q-60 0 -86.5 -34t-26.5 -112v-98q93 1 153 27z" />
    <glyph glyph-name="uni06D2.fina.alt2" unicode="&#xfbfd;&#x621;&#x621;&#x621;&#x621;&#x621;" horiz-adv-x="367" 
d="M74 -269q-21 57 -21 113q0 68 29.5 124t84 89t126.5 33h79l5 -45l-5 -45h-76q-77 0 -120.5 -40.5t-43.5 -110.5q0 -8 2 -28h395v-90h-455z" />
    <glyph glyph-name="uni06D2.fina.alt3" unicode="&#xfbfd;&#x621;&#x621;&#x621;&#x621;" horiz-adv-x="364" 
d="M71 -269q-21 57 -21 113q0 68 29.5 124t84 89t126.5 33h79l5 -45l-5 -45h-76q-77 0 -120.5 -40.5t-43.5 -110.5q0 -8 2 -28h487v-90h-547z" />
    <glyph glyph-name="uni06D2.fina.alt4" unicode="&#xfbfd;&#x621;&#x621;&#x621;" horiz-adv-x="361" 
d="M71 -269q-21 57 -21 113q0 68 29.5 124t84 89t126.5 33h79l5 -45l-5 -45h-76q-77 0 -120.5 -40.5t-43.5 -110.5q0 -8 2 -28h586v-90h-646z" />
    <glyph glyph-name="uni06440671" unicode="&#xfedf;&#xfb51;" horiz-adv-x="539" 
d="M50 90h272q45 0 67.5 19.5t22.5 68.5v471h77v-471q0 -61 -25.5 -101t-62.5 -58.5t-72 -18.5h-279v90zM43 748l29 -38l29 43q22 32 42 47.5t47 15.5q36 0 58 -28.5t22 -67.5q0 -42 -24 -66.5t-61 -24.5h-43q-33 0 -52.5 8.5t-33 23.5t-45.5 57zM164 588l25 -419l-78 -6
l-25 419zM142 679h43q24 0 34.5 9.5t10.5 31.5q0 46 -40 46q-17 0 -28.5 -9t-26.5 -32l-28 -42q12 -4 35 -4z" />
    <glyph glyph-name="uni06440671.fina" unicode="&#xfee0;&#xfb51;" horiz-adv-x="604" 
d="M508 15.5q-32 15.5 -55 46.5q-24 -31 -58 -46.5t-66 -15.5h-279v90h272q45 0 67.5 19.5t22.5 68.5v471h77v-471q0 -43 21 -65.5t62 -22.5h37v-90h-37q-32 0 -64 15.5zM43 748l29 -38l29 43q22 32 42 47.5t47 15.5q36 0 58 -28.5t22 -67.5q0 -42 -24 -66.5t-61 -24.5h-43
q-33 0 -52.5 8.5t-33 23.5t-45.5 57zM164 588l25 -419l-78 -6l-25 419zM142 679h43q24 0 34.5 9.5t10.5 31.5q0 46 -40 46q-17 0 -28.5 -9t-26.5 -32l-28 -42q12 -4 35 -4z" />
    <glyph glyph-name="uni064406440647" unicode="&#xfedf;&#xfee0;&#x651;&#x670;&#xfeea;" horiz-adv-x="1076" 
d="M73.5 133.5q-23.5 44.5 -23.5 94.5q0 52 24 92q17 28 37 47t62.5 41.5t121.5 55.5l-11 50l76 20l80 -336q26 -108 153 -108h7q45 0 67.5 19.5t22.5 68.5v350h77v-350v-12v0q0 -41 20 -58.5t63 -17.5h29q45 0 67.5 19.5t22.5 68.5v401h77v-401q0 -61 -25.5 -101
t-62.5 -58.5t-72 -18.5h-36q-32 0 -64 15.5t-55 46.5q-24 -31 -58 -46.5t-66 -15.5h-23q-60 2 -116 31.5t-87 94.5q-26 -42 -65 -64t-84 -22q-47 0 -93 26q-42 23 -65.5 67.5zM127 224q0 -24 13 -46t36 -36q21 -14 52 -14q27 0 52.5 12t43.5 34q10 13 15 27t5 34q0 14 -3 35
l-26 111q-81 -28 -119.5 -54.5t-53.5 -52.5q-15 -25 -15 -50zM592 718h40v-50q0 -32 40 -32t40 32v50h40v-50q0 -17 9 -24.5t26 -7.5q22 0 30.5 7t8.5 19t-3 26.5t-4 19.5q-2 6 -3 11.5t-2 10.5l40 10q2 -10 6.5 -29t5.5 -29t1 -21q0 -30 -18.5 -52.5t-61.5 -22.5
q-14 0 -29.5 5.5t-26.5 17.5q-20 -23 -59 -23q-30 0 -55 20.5t-25 61.5v50zM708 913h40v-153h-40v153z" />
    <glyph glyph-name="uniFDF2" unicode="&#x627;&#xfedf;&#xfee0;&#xfeea;" horiz-adv-x="1299" 
d="M74.5 133.5q-23.5 44.5 -23.5 94.5q0 52 24 92q17 28 37 47t62.5 41.5t121.5 55.5l-11 50l76 20l80 -336q26 -108 153 -108h7q45 0 67.5 19.5t22.5 68.5v350h77v-350v-12v0q0 -41 20 -58.5t63 -17.5h29q45 0 67.5 19.5t22.5 68.5v401h77v-401q0 -61 -25.5 -101
t-62.5 -58.5t-72 -18.5h-36q-32 0 -64 15.5t-55 46.5q-24 -31 -58 -46.5t-66 -15.5h-23q-60 2 -116 31.5t-87 94.5q-26 -42 -65 -64t-84 -22q-47 0 -93 26q-42 23 -65.5 67.5zM128 224q0 -24 13 -46t36 -36q21 -14 52 -14q27 0 52.5 12t43.5 34q10 13 15 27t5 34q0 14 -3 35
l-26 111q-81 -28 -119.5 -54.5t-53.5 -52.5q-15 -25 -15 -50zM593 718h40v-50q0 -32 40 -32t40 32v50h40v-50q0 -17 9 -24.5t26 -7.5q22 0 30.5 7t8.5 19t-3 26.5t-4 19.5q-2 6 -3 11.5t-2 10.5l40 10q2 -10 6.5 -29t5.5 -29t1 -21q0 -30 -18.5 -52.5t-61.5 -22.5
q-14 0 -29.5 5.5t-26.5 17.5q-20 -23 -59 -23q-30 0 -55 20.5t-25 61.5v50zM709 913h40v-153h-40v153zM1248 655l1 -649h-78l-1 649h78z" />
    <glyph glyph-name="uniFDFC.001" unicode="&#x631;&#xfbfe;&#xfe8e;&#x644;&#x621;" horiz-adv-x="1362" 
d="M1318 464v-282q0 -135 -68 -206.5t-196 -71.5h-24v90h24q100 0 143 43.5t43 144.5v282h78zM53.5 280.5q13.5 48.5 32.5 88.5l70 -38q-38 -83 -38 -145q0 -76 35.5 -119t110.5 -43h34q68 0 106 15.5t54 49t16 91.5l-1 452q0 59 30 94t96 35h33q63 0 94 -35t31 -94l1 -331
q0 -54 6.5 -78t26 -33.5t64.5 -9.5h43q103 0 103 69q0 27 -9.5 81.5t-21.5 106.5l76 20q12 -51 22.5 -112t10.5 -95q0 -42 -20 -78.5t-61 -59t-100 -22.5h-43q-99 0 -137 53.5t-38 157.5l-1 331q0 21 -10 30t-37 9h-33q-29 0 -38.5 -8t-9.5 -31l1 -452q0 -116 -61 -181
t-193 -65h-34q-72 0 -122.5 34.5t-76 92t-25.5 125.5q0 46 13.5 94.5zM725 0h120h120v-100h-120h-120v100z" />
    <glyph glyph-name="uniFDFC.002" unicode="&#x631;&#xfbfe;&#xfe8e;&#x644;&#x621;&#x621;" horiz-adv-x="1350" 
d="M1310 509v-237q0 -135 -68 -206.5t-196 -71.5h-24v90h24q100 0 143 43.5t43 144.5v237h78zM53.5 370.5q13.5 48.5 32.5 88.5l70 -38q-38 -83 -38 -145q0 -76 35.5 -119t110.5 -43h26q68 0 106 15.5t54 49t16 91.5l-1 297q0 59 30 94t96 35h33q63 0 94 -35t31 -94l1 -176
q1 -54 7 -78t26 -33.5t64 -9.5h43q103 0 103 69q0 24 -5 51.5t-15 67.5l-7 31l76 20q2 -9 11 -45.5t13.5 -67.5t4.5 -56q0 -42 -20 -78.5t-61 -59t-100 -22.5h-43q-99 0 -136.5 53.5t-38.5 157.5l-1 176q0 21 -10 30t-37 9h-33q-29 0 -38.5 -8t-9.5 -31l1 -297
q0 -116 -61 -181t-193 -65h-26q-72 0 -122.5 34.5t-76 92t-25.5 125.5q0 46 13.5 94.5zM672 84h120h120v-90h-120h-120v90z" />
    <glyph glyph-name="tomaan" unicode="&#xfe97;&#xfeee;&#xfee3;&#xfe8e;&#x646;&#x621;" horiz-adv-x="2270" 
d="M1831.5 -186.5q-60.5 -66.5 -194.5 -66.5h-107v90h107q70 0 108.5 16.5t53.5 50.5t15 90v6h-110q-84 0 -135.5 50t-51.5 140q0 61 23.5 111t66 79t96.5 29q57 0 100 -28t66 -77.5t23 -113.5v-100h157q103 0 103 69q0 27 -9.5 81.5t-21.5 106.5l76 20q12 -51 22.5 -112
t10.5 -95q0 -42 -20 -78.5t-61 -59t-100 -22.5h-157v-6q0 -114 -60.5 -180.5zM108 384l66 -36q-56 -114 -56 -212q0 -91 44.5 -146.5t135.5 -55.5h107q68 0 106 15.5t54 49t16 91.5l-1 452q0 59 30 94t96 35h33q63 0 94 -35t31 -94l1 -331q1 -54 7 -78t26 -33.5t64 -9.5h31
q47 0 58 42l32 115q22 78 68 122.5t111 44.5q52 0 92 -30.5t62 -82t22 -111.5q0 -74 -21 -121.5t-54.5 -69t-70.5 -21.5q-38 0 -76 14.5t-120 56.5q-20 -23 -47 -36t-56 -13h-31q-99 0 -136.5 53.5t-38.5 157.5l-1 331q0 21 -10 30t-37 9h-33q-29 0 -38.5 -8t-9.5 -31
l1 -452q0 -116 -61 -181t-193 -65h-107q-83 0 -141 41t-87.5 108t-29.5 143q0 122 68 248zM323 412h100v-100h-100v100zM1235 80q30 -12 57 -12q34 0 51 25.5t17 96.5q0 63 -25 98.5t-73 35.5q-36 0 -62.5 -25t-40.5 -76l-26 -94q72 -37 102 -49zM1621 112.5
q26 -22.5 83 -22.5h110v100q0 61 -28 95.5t-83 34.5q-51 0 -79.5 -35.5t-28.5 -94.5q0 -55 26 -77.5zM1894 596h120h120v-100h-120h-120v100z" />
    <glyph glyph-name="tomaan.001" unicode="&#xfe97;&#xfeee;&#xfee3;&#xfe8e;&#x646;&#x621;&#x621;" horiz-adv-x="2270" 
d="M1864.5 22.5q-27.5 -31.5 -88 -50.5t-189.5 -44l-19 85l45 9q87 18 124 28t56 24t19 38v6h-108q-84 0 -135.5 50t-51.5 140q0 61 23.5 111t66 79t96.5 29q57 0 100 -28t66 -77.5t23 -113.5v-100h157q103 0 103 69q0 27 -9.5 81.5t-21.5 106.5l76 20q12 -51 22.5 -112
t10.5 -95q0 -42 -20 -78.5t-61 -59t-100 -22.5h-157v-6q0 -58 -27.5 -89.5zM108 585l66 -36q-56 -114 -56 -212q0 -91 44.5 -146.5t135.5 -55.5h107q68 0 106 15.5t54 49t16 91.5l-1 279q0 59 30 94t96 35h33q63 0 94 -35t31 -94l1 -257q0 -54 6.5 -78t26 -33.5t64.5 -9.5
h31q47 0 58 42l32 115q22 78 68 122.5t111 44.5q52 0 92 -30.5t62 -82t22 -111.5q0 -74 -21 -121.5t-54.5 -69t-70.5 -21.5q-38 0 -76 14.5t-120 56.5q-20 -23 -47 -36t-56 -13h-31q-99 0 -137 53.5t-38 157.5l-1 257q0 21 -10 30t-37 9h-33q-29 0 -38.5 -8t-9.5 -31l1 -279
q1 -116 -60.5 -181t-193.5 -65h-107q-83 0 -141 41t-87.5 108t-29.5 143q0 122 68 248zM323 613h100v-100h-100v100zM1235 182q30 -12 57 -12q34 0 51 25.5t17 96.5q0 63 -25 98.5t-73 35.5q-36 0 -62.5 -25t-40.5 -76l-26 -94q72 -37 102 -49zM1621 230.5
q26 -22.5 83 -22.5h110v100q0 61 -28 95.5t-83 34.5q-51 0 -79.5 -35.5t-28.5 -94.5q0 -55 26 -77.5zM1894 688h120h120v-88h-120h-120v88z" />
    <glyph glyph-name="tomaan.002" unicode="&#xfe97;&#xfeee;&#xfee3;&#xfe8e;&#x646;&#x621;&#x621;&#x621;" horiz-adv-x="1829" 
d="M1362 386q43 -28 66 -78t23 -114v-100h157q103 0 103 69q0 27 -9.5 81.5t-21.5 106.5l76 20q12 -51 22.5 -112t10.5 -95q0 -42 -20 -78.5t-61 -59t-100 -22.5h-157v-6q0 -114 -60.5 -180.5t-194.5 -66.5h-107v90h107q70 0 108.5 16.5t53.5 50.5t15 90v6h-84
q-56 0 -89.5 7.5t-103.5 37.5q-20 -23 -47 -36t-56 -13h-31q-99 0 -137 53.5t-38 157.5l-1 331q0 21 -10 30t-37 9h-33q-29 0 -38.5 -8t-9.5 -31l1 -452q0 -116 -61 -181t-193 -65h-107q-83 0 -141 41t-87.5 108t-29.5 143q0 122 68 248l66 -36q-56 -114 -56 -212
q0 -91 44.5 -146.5t135.5 -55.5h107q68 0 106 15.5t54 49t16 91.5l-1 452q0 59 30 94t96 35h33q63 0 94 -35t31 -94l1 -331q0 -54 6.5 -78t26 -33.5t64.5 -9.5h31q47 0 58 42l32 115q22 78 68 122.5t111 44.5q57 0 100 -28zM323 412h100v-100h-100v100zM1218.5 100.5
q28.5 -6.5 70.5 -6.5h84v100q0 61 -28 95.5t-83 34.5q-36 0 -62.5 -25t-40.5 -76l-26 -94q57 -22 85.5 -28.5zM1475 596h120h120v-100h-120h-120v100z" />
    <glyph glyph-name="uni0621" unicode="&#x621;" horiz-adv-x="441" arabic-form="isolated" 
d="M20 60l125 36q-36 24 -57.5 60t-21.5 83q0 48 23 86t62.5 59t87.5 21q20 0 47 -5t34 -6l22 -4l-15 -80l-43 5q-35 4 -50 4q-40 0 -68 -25.5t-28 -63.5q0 -41 33.5 -66t89.5 -25q19 0 40 3l108 31l12 -86l-389 -115z" />
    <glyph glyph-name="uni0622" unicode="&#x622;" horiz-adv-x="278" arabic-form="isolated" 
d="M102 579h86v-579h-86v579zM-12 689q41 35 110 35h195v-75h-195q-41 0 -64 -19.5t-34 -53.5l-65 21q12 57 53 92z" />
    <glyph glyph-name="uni0623" unicode="&#x623;" horiz-adv-x="278" arabic-form="isolated" 
d="M102 579h86v-579h-86v579zM85 700q-45 28 -45 80q0 40 28 66.5t67 28.5q20 0 66 -10l-8 -48q-38 8 -58 8q-26 -2 -40 -14t-14 -32q0 -23 20.5 -39t51.5 -16q6 0 20 2l65 19l3 -50l-208 -61l-3 50z" />
    <glyph glyph-name="uni0624" unicode="&#x624;" horiz-adv-x="475" arabic-form="isolated" 
d="M278.5 -145.5q38.5 16.5 53.5 50.5t15 90v6h-110q-84 0 -135.5 50t-51.5 140q0 61 23.5 111t66 79t96.5 29q57 0 100 -27.5t66 -77.5t23 -114v-196q0 -114 -60.5 -180.5t-194.5 -66.5h-107v90h107q70 0 108.5 16.5zM169 499q-45 28 -45 80q0 40 28 66.5t67 28.5
q20 0 66 -10l-8 -48q-38 8 -58 8q-26 -2 -40 -14t-14 -32q0 -23 20.5 -39t51.5 -16q6 0 20 2l65 19l3 -50l-208 -61l-3 50zM154 113.5q26 -22.5 83 -22.5h110v100q0 61 -28 95.5t-83 34.5q-51 0 -79.5 -35.5t-28.5 -94.5q0 -55 26 -77.5z" />
    <glyph glyph-name="uni0625" unicode="&#x625;" horiz-adv-x="239" arabic-form="isolated" 
d="M90 649h78l1 -649h-78zM71 -222q-45 28 -45 80q0 40 28 66.5t67 28.5q20 0 66 -10l-8 -48q-38 8 -58 8q-26 -2 -40 -14t-14 -32q0 -23 20.5 -39t51.5 -16q6 0 20 2l65 19l3 -50l-208 -61l-3 50z" />
    <glyph glyph-name="uni0626" unicode="&#x626;" horiz-adv-x="740" arabic-form="isolated" 
d="M128 44q0 -91 45.5 -148.5t133.5 -57.5h108q94 0 134.5 31.5t40.5 102.5q0 10 -3.5 13t-18.5 7l-212 57q-16 48 -16 95q0 49 16.5 92.5t45.5 76.5q37 42 87 64.5t103 22.5q52 0 98 -11l-18 -88q-34 9 -77 9q-84 0 -135 -57q-43 -48 -43 -103q0 -7 2 -25l171 -47
q41 -12 59.5 -38t18.5 -69q0 -106 -66.5 -164.5t-186.5 -58.5h-108q-79 0 -137.5 41t-89 108.5t-30.5 144.5q0 107 66 255l72 -38q-60 -129 -60 -215zM179 409q-45 28 -45 80q0 40 28 66.5t67 28.5q20 0 66 -10l-8 -48q-38 8 -58 8q-26 -2 -40 -14t-14 -32q0 -23 20.5 -39
t51.5 -16q6 0 20 2l65 19l3 -50l-208 -61l-3 50z" />
    <glyph glyph-name="uni0627" unicode="&#x627;" horiz-adv-x="239" arabic-form="isolated" 
d="M90 649h78l1 -649h-78z" />
    <glyph glyph-name="uni0628" unicode="&#x628;" horiz-adv-x="893" arabic-form="isolated" 
d="M139 23.5q-42 23.5 -65.5 63t-23.5 87.5q0 14 1 21q5 46 33 162l73 -19q-2 -9 -15.5 -68.5t-15.5 -83.5q-1 -5 -1 -13q0 -39 28.5 -61t81.5 -22h432q49 0 73.5 27t24.5 65q0 44 -31 183l76 20q33 -143 33 -203q0 -42 -21 -84.5t-61 -70t-94 -27.5h-432q-54 0 -96 23.5z
M396 -152h100v-100h-100v100z" />
    <glyph glyph-name="uni0629" unicode="&#x629;" horiz-adv-x="495" arabic-form="isolated" 
d="M281 443q61 -66 93 -105t51.5 -79.5t19.5 -82.5q0 -51 -27 -93t-72.5 -66t-97.5 -24q-53 0 -98.5 24t-72.5 66t-27 93q0 45 18.5 86t45.5 74t75 84l-25 28l58 60zM108 649h100v-100h-100v100zM160.5 109q32.5 -26 87.5 -26q54 0 86.5 26t32.5 67q0 33 -26 69.5t-94 111.5
q-65 -68 -92 -105t-27 -76q0 -41 32.5 -67zM287 649h100v-100h-100v100z" />
    <glyph glyph-name="uni062A" unicode="&#x62a;" horiz-adv-x="893" arabic-form="isolated" 
d="M139 23.5q-42 23.5 -65.5 63t-23.5 87.5q0 14 1 21q5 46 33 162l73 -19q-2 -9 -15.5 -68.5t-15.5 -83.5q-1 -5 -1 -13q0 -39 28.5 -61t81.5 -22h432q49 0 73.5 27t24.5 65q0 44 -31 183l76 20q33 -143 33 -203q0 -42 -21 -84.5t-61 -70t-94 -27.5h-432q-54 0 -96 23.5z
M310 431h100v-100h-100v100zM489 431h100v-100h-100v100z" />
    <glyph glyph-name="uni062B" unicode="&#x62b;" horiz-adv-x="893" arabic-form="isolated" 
d="M139 23.5q-42 23.5 -65.5 63t-23.5 87.5q0 14 1 21q5 46 33 162l73 -19q-2 -9 -15.5 -68.5t-15.5 -83.5q-1 -5 -1 -13q0 -39 28.5 -61t81.5 -22h432q49 0 73.5 27t24.5 65q0 44 -31 183l76 20q33 -143 33 -203q0 -42 -21 -84.5t-61 -70t-94 -27.5h-432q-54 0 -96 23.5z
M310 415h100v-100h-100v100zM405 544h95v-95h-95v95zM494 415h100v-100h-100v100z" />
    <glyph glyph-name="uni062C" unicode="&#x62c;" horiz-adv-x="641" arabic-form="isolated" 
d="M567 -252h-246q-92 0 -159.5 32.5t-97.5 117.5q-14 39 -14 83q0 73 41.5 134.5t114.5 90.5l279 113q-102 42 -164.5 64.5t-84.5 22.5q-30 0 -46.5 -13.5t-31.5 -54.5l-76 24q46 134 154 134q27 0 73 -17.5t130 -55.5q26 -11 58.5 -25.5t73.5 -31.5l20 -95l-355 -149
q-54 -23 -81 -59t-27 -79q0 -29 10 -56q18 -50 63 -70t120 -20h246v-90zM330 50h100v-100h-100v100z" />
    <glyph glyph-name="uni062D" unicode="&#x62d;" horiz-adv-x="641" arabic-form="isolated" 
d="M567 -252h-246q-92 0 -159.5 32.5t-97.5 117.5q-14 39 -14 83q0 73 41.5 134.5t114.5 90.5l279 113q-102 42 -164.5 64.5t-84.5 22.5q-30 0 -46.5 -13.5t-31.5 -54.5l-76 24q46 134 154 134q27 0 73 -17.5t130 -55.5q26 -11 58.5 -25.5t73.5 -31.5l20 -95l-355 -149
q-54 -23 -81 -59t-27 -79q0 -29 10 -56q18 -50 63 -70t120 -20h246v-90z" />
    <glyph glyph-name="uni062E" unicode="&#x62e;" horiz-adv-x="688" arabic-form="isolated" 
d="M311 699v-100h-100v100h100zM50 -19q0 73 41.5 134.5t114.5 90.5l279 113q-102 42 -164.5 64.5t-84.5 22.5q-30 0 -46.5 -13.5t-31.5 -54.5l-76 24q46 134 154 134q27 0 73 -17.5t130 -55.5q26 -11 58.5 -25.5t73.5 -31.5l20 -95l-355 -149q-54 -23 -81 -59t-27 -79
q0 -29 10 -56q18 -50 63 -70t120 -20h246v-90h-246q-92 0 -159.5 32.5t-97.5 117.5q-14 39 -14 83z" />
    <glyph glyph-name="uni062F" unicode="&#x62f;" horiz-adv-x="504" arabic-form="isolated" 
d="M422 255q32 -49 32 -108q0 -45 -21 -75q-29 -41 -70 -56.5t-90 -15.5h-54q-54 0 -97.5 15.5t-71.5 35.5l41 76q3 -1 19.5 -11.5t45.5 -18t63 -7.5h54q36 0 59.5 7.5t36.5 26.5q9 12 9 27q0 22 -22 56q-94 148 -152 234l66 50z" />
    <glyph glyph-name="uni0630" unicode="&#x630;" horiz-adv-x="504" arabic-form="isolated" 
d="M422 255q32 -49 32 -108q0 -45 -21 -75q-29 -41 -70 -56.5t-90 -15.5h-54q-54 0 -97.5 15.5t-71.5 35.5l41 76q3 -1 19.5 -11.5t45.5 -18t63 -7.5h54q36 0 59.5 7.5t36.5 26.5q9 12 9 27q0 22 -22 56q-94 148 -152 234l66 50zM211 689h100v-100h-100v100z" />
    <glyph glyph-name="uni0631" unicode="&#x631;" horiz-adv-x="372" arabic-form="isolated" 
d="M327 308v-282q0 -135 -68 -206.5t-196 -71.5h-63v90h63q100 0 143 43t43 145v282h78z" />
    <glyph glyph-name="uni0632" unicode="&#x632;" horiz-adv-x="372" arabic-form="isolated" 
d="M327 308v-282q0 -135 -68 -206.5t-196 -71.5h-63v90h63q100 0 143 43t43 145v282h78zM238 549h100v-100h-100v100z" />
    <glyph glyph-name="uni0633" unicode="&#x633;" horiz-adv-x="1221" arabic-form="isolated" 
d="M128 40q0 -91 44.5 -146.5t135.5 -55.5h107q68 0 106 15.5t54 49t16 91.5v314h78v-106q0 -64 24.5 -88t69.5 -24q49 0 69.5 21t20.5 67v130h78v-142q0 -40 19.5 -57.5t60.5 -18.5q42 1 62 19t20 50q0 26 -9.5 81.5t-21.5 106.5l76 20q12 -51 22.5 -112t10.5 -95
q0 -40 -18.5 -77t-55 -60t-86.5 -23q-32 0 -65.5 15.5t-57.5 48.5q-49 -64 -125 -64q-56 0 -94 33v-39q0 -116 -61 -181t-193 -65h-107q-83 0 -141 41t-87.5 108t-29.5 143q0 122 68 248l66 -36q-56 -114 -56 -212z" />
    <glyph glyph-name="uni0634" unicode="&#x634;" horiz-adv-x="1221" arabic-form="isolated" 
d="M128 40q0 -91 44.5 -146.5t135.5 -55.5h107q68 0 106 15.5t54 49t16 91.5v314h78v-106q0 -64 24.5 -88t69.5 -24q49 0 69.5 21t20.5 67v130h78v-142q0 -40 19.5 -57.5t60.5 -18.5q42 1 62 19t20 50q0 26 -9.5 81.5t-21.5 106.5l76 20q12 -51 22.5 -112t10.5 -95
q0 -40 -18.5 -77t-55 -60t-86.5 -23q-32 0 -65.5 15.5t-57.5 48.5q-49 -64 -125 -64q-56 0 -94 33v-39q0 -116 -61 -181t-193 -65h-107q-83 0 -141 41t-87.5 108t-29.5 143q0 122 68 248l66 -36q-56 -114 -56 -212zM737 541h100v-100h-100v100zM832 670h95v-95h-95v95z
M921 541h100v-100h-100v100z" />
    <glyph glyph-name="uni0635" unicode="&#x635;" horiz-adv-x="1262" arabic-form="isolated" 
d="M128 40q0 -91 44.5 -146.5t135.5 -55.5h107q68 0 106 15.5t54 49t16 91.5v314h78v-147q0 -29 9.5 -44.5t28.5 -21.5l112 172q49 77 97.5 110t115.5 33q56 0 96.5 -29t62 -77.5t21.5 -105.5q0 -60 -28 -105t-75 -69t-102 -24h-255q-51 0 -83 26v-32q0 -116 -61 -181
t-193 -65h-107q-83 0 -141 41t-87.5 108t-29.5 143q0 122 68 248l66 -36q-56 -114 -56 -212zM1007 90q60 0 93.5 27.5t33.5 80.5q0 122 -102 122q-31 0 -52.5 -9.5t-42.5 -30.5t-54 -65q-33 -42 -90 -125h214z" />
    <glyph glyph-name="uni0636" unicode="&#x636;" horiz-adv-x="1262" arabic-form="isolated" 
d="M128 40q0 -91 44.5 -146.5t135.5 -55.5h107q68 0 106 15.5t54 49t16 91.5v314h78v-147q0 -29 9.5 -44.5t28.5 -21.5l112 172q49 77 97.5 110t115.5 33q56 0 96.5 -29t62 -77.5t21.5 -105.5q0 -60 -28 -105t-75 -69t-102 -24h-255q-51 0 -83 26v-32q0 -116 -61 -181
t-193 -65h-107q-83 0 -141 41t-87.5 108t-29.5 143q0 122 68 248l66 -36q-56 -114 -56 -212zM1007 90q60 0 93.5 27.5t33.5 80.5q0 122 -102 122q-31 0 -52.5 -9.5t-42.5 -30.5t-54 -65q-33 -42 -90 -125h214zM958 595h100v-100h-100v100z" />
    <glyph glyph-name="uni0637" unicode="&#x637;" horiz-adv-x="725" arabic-form="isolated" 
d="M50 90h116l26 39l-1 520h78l1 -401l12 19q51 77 98.5 110t114.5 33q56 0 96.5 -29t62 -77.5t21.5 -105.5q0 -60 -28 -105t-75 -69t-102 -24h-420v90zM470 90q60 0 93.5 27.5t33.5 80.5q0 122 -102 122q-32 0 -54 -9t-43 -31t-52 -65l-89 -125h213z" />
    <glyph glyph-name="uni0638" unicode="&#x638;" horiz-adv-x="725" arabic-form="isolated" 
d="M50 90h116l26 39l-1 520h78l1 -401l12 19q51 77 98.5 110t114.5 33q56 0 96.5 -29t62 -77.5t21.5 -105.5q0 -60 -28 -105t-75 -69t-102 -24h-420v90zM470 90q60 0 93.5 27.5t33.5 80.5q0 122 -102 122q-32 0 -54 -9t-43 -31t-52 -65l-89 -125h213zM434 644h100v-100h-100
v100z" />
    <glyph glyph-name="uni0639" unicode="&#x639;" horiz-adv-x="612" arabic-form="isolated" 
d="M562 -253h-254q-78 0 -136.5 33.5t-90 91t-31.5 128.5q0 81 47.5 146t120.5 91q-32 26 -49.5 61.5t-17.5 75.5q0 50 24 91.5t65 66t89 24.5q45 0 75 -13t75 -44l21 -14l-39 -64q-57 31 -79.5 40.5t-52.5 9.5q-41 0 -70.5 -28t-29.5 -69q0 -50 40.5 -84t123.5 -40l126 -1
v-90l-207 2q-50 0 -91 -20.5t-65 -57.5t-24 -83q0 -74 46.5 -118.5t133.5 -44.5h250v-90z" />
    <glyph glyph-name="uni063A" unicode="&#x63a;" horiz-adv-x="612" arabic-form="isolated" 
d="M562 -253h-254q-78 0 -136.5 33.5t-90 91t-31.5 128.5q0 81 47.5 146t120.5 91q-32 26 -49.5 61.5t-17.5 75.5q0 50 24 91.5t65 66t89 24.5q45 0 75 -13t75 -44l21 -14l-39 -64q-57 31 -79.5 40.5t-52.5 9.5q-41 0 -70.5 -28t-29.5 -69q0 -50 40.5 -84t123.5 -40l126 -1
v-90l-207 2q-50 0 -91 -20.5t-65 -57.5t-24 -83q0 -74 46.5 -118.5t133.5 -44.5h250v-90zM279 749h100v-100h-100v100z" />
    <glyph glyph-name="uni0641" unicode="&#x641;" horiz-adv-x="896" arabic-form="isolated" 
d="M727 703v-100h-100v100h100zM84 357l73 -19q-2 -9 -15.5 -68.5t-15.5 -83.5q-1 -5 -1 -13q0 -39 28.5 -61t81.5 -22h365q57 0 89.5 6.5t49 21t23.5 41.5h-84q-46 0 -84 21.5t-60.5 60t-22.5 88.5t23 93t61.5 68.5t82.5 25.5q48 0 86 -25.5t59.5 -68.5t21.5 -93v-102
q0 -76 -22 -125.5t-75.5 -75.5t-147.5 -26h-365q-54 0 -96 23.5t-65.5 63t-23.5 87.5q0 14 1 21q5 46 33 162zM678 249h89v80q0 46 -22.5 71.5t-66.5 25.5q-41 0 -65 -26.5t-24 -70.5q0 -80 89 -80z" />
    <glyph glyph-name="uni0642" unicode="&#x642;" horiz-adv-x="721" arabic-form="isolated" 
d="M167.5 213.5q-19.5 -44.5 -29.5 -90t-10 -89.5q0 -72 16 -114.5t55.5 -62.5t109.5 -20h107q70 0 108.5 16.5t53.5 50.5t15 90v6h-110q-84 0 -135.5 50t-51.5 140q0 61 23.5 111t66 79t96.5 29q57 0 100 -27.5t66 -77.5t23 -114v-196q0 -114 -60.5 -180.5t-194.5 -66.5
h-107q-134 0 -196.5 75t-62.5 212q0 77 18 136t50 131l72 -36q-3 -7 -22.5 -51.5zM341 594h100v-100h-100v100zM400 112.5q26 -22.5 83 -22.5h110v100q0 61 -28 95.5t-83 34.5q-51 0 -79.5 -35.5t-28.5 -94.5q0 -55 26 -77.5zM520 594h100v-100h-100v100z" />
    <glyph glyph-name="uni0643" unicode="&#x643;" horiz-adv-x="792" arabic-form="isolated" 
d="M139 23.5q-42 23.5 -65.5 63t-23.5 87.5q0 14 1 21q5 46 33 162l73 -19q-2 -9 -15.5 -68.5t-15.5 -83.5q-1 -5 -1 -13q0 -39 28.5 -61t81.5 -22h340q45 0 67.5 19.5t22.5 68.5v471h77v-471q0 -61 -25.5 -101t-62.5 -58.5t-72 -18.5h-347q-54 0 -96 23.5zM337 271h67
q17 0 17 6q0 5 -8 13l-64 63l9 40l105 48l17 -41l-79 -36l42 -43q17 -17 17 -42q0 -22 -15 -38t-41 -16h-72z" />
    <glyph glyph-name="uni0644" unicode="&#x644;" horiz-adv-x="661" arabic-form="isolated" 
d="M167 -211q-58 41 -87.5 108t-29.5 143q0 49 15.5 106t36.5 102l69 -34q-18 -38 -30.5 -86t-12.5 -88q0 -91 44.5 -146.5t135.5 -55.5h49q68 0 106 15.5t54 49t16 91.5l-1 655h78l1 -655q0 -116 -61 -181t-193 -65h-49q-83 0 -141 41z" />
    <glyph glyph-name="uni0645" unicode="&#x645;" horiz-adv-x="609" arabic-form="isolated" 
d="M50 160l80 61l45 -18l29 104q22 78 68 122.5t111 44.5q52 0 92 -30.5t62 -82t22 -111.5q0 -74 -21 -121.5t-54.5 -69t-70.5 -21.5q-35 0 -85 16t-148 53l-52 20v-387h-78v420zM413 128q34 0 51 25.5t17 96.5q0 63 -25 98.5t-73 35.5q-36 0 -62 -25t-41 -76l-30 -109
q127 -46 163 -46z" />
    <glyph glyph-name="uni0646" unicode="&#x646;" horiz-adv-x="719" arabic-form="isolated" 
d="M128 40q0 -91 44.5 -146.5t135.5 -55.5h107q68 0 106 15.5t54 49t16 91.5v314h78v-314q0 -116 -61 -181t-193 -65h-107q-83 0 -141 41t-87.5 108t-29.5 143q0 122 68 248l66 -36q-56 -114 -56 -212zM334 311h100v-100h-100v100z" />
    <glyph glyph-name="uni0647" unicode="&#x647;" horiz-adv-x="495" arabic-form="isolated" 
d="M281 443q61 -66 93 -105t51.5 -79.5t19.5 -82.5q0 -51 -27 -93t-72.5 -66t-97.5 -24q-53 0 -98.5 24t-72.5 66t-27 93q0 45 18.5 86t45.5 74t75 84l-25 28l58 60zM160.5 109q32.5 -26 87.5 -26q54 0 86.5 26t32.5 67q0 33 -26 69.5t-94 111.5q-65 -68 -92 -105t-27 -76
q0 -41 32.5 -67z" />
    <glyph glyph-name="uni0648" unicode="&#x648;" horiz-adv-x="475" arabic-form="isolated" 
d="M278.5 -145.5q38.5 16.5 53.5 50.5t15 90v6h-110q-84 0 -135.5 50t-51.5 140q0 61 23.5 111t66 79t96.5 29q57 0 100 -27.5t66 -77.5t23 -114v-196q0 -114 -60.5 -180.5t-194.5 -66.5h-107v90h107q70 0 108.5 16.5zM154 113.5q26 -22.5 83 -22.5h110v100q0 61 -28 95.5
t-83 34.5q-51 0 -79.5 -35.5t-28.5 -94.5q0 -55 26 -77.5z" />
    <glyph glyph-name="uni0649" unicode="&#x649;" horiz-adv-x="740" arabic-form="isolated" 
d="M128 44q0 -91 45.5 -148.5t133.5 -57.5h108q94 0 134.5 31.5t40.5 102.5q0 10 -3.5 13t-18.5 7l-212 57q-16 48 -16 95q0 49 16.5 92.5t45.5 76.5q37 42 87 64.5t103 22.5q52 0 98 -11l-18 -88q-34 9 -77 9q-84 0 -135 -57q-43 -48 -43 -103q0 -7 2 -25l171 -47
q41 -12 59.5 -38t18.5 -69q0 -106 -66.5 -164.5t-186.5 -58.5h-108q-79 0 -137.5 41t-89 108.5t-30.5 144.5q0 107 66 255l72 -38q-60 -129 -60 -215z" />
    <glyph glyph-name="uni064A" unicode="&#x64a;" horiz-adv-x="740" arabic-form="isolated" 
d="M128 44q0 -91 45.5 -148.5t133.5 -57.5h108q94 0 134.5 31.5t40.5 102.5q0 10 -3.5 13t-18.5 7l-212 57q-16 48 -16 95q0 49 16.5 92.5t45.5 76.5q37 42 87 64.5t103 22.5q52 0 98 -11l-18 -88q-34 9 -77 9q-84 0 -135 -57q-43 -48 -43 -103q0 -7 2 -25l171 -47
q41 -12 59.5 -38t18.5 -69q0 -106 -66.5 -164.5t-186.5 -58.5h-108q-79 0 -137.5 41t-89 108.5t-30.5 144.5q0 107 66 255l72 -38q-60 -129 -60 -215zM208 -297h100v-100h-100v100zM387 -297h100v-100h-100v100z" />
    <glyph glyph-name="uni066E.init" unicode="&#x66e;" horiz-adv-x="317" 
d="M-5 90h110q43 0 64 18.5t21 50.5q0 26 -9.5 81.5t-21.5 106.5l76 20q12 -51 22.5 -112t10.5 -95q0 -41 -19 -78t-56 -59.5t-88 -22.5h-110v90z" />
    <glyph glyph-name="uni066E.medi" unicode="&#x66e;" horiz-adv-x="376" 
d="M261 308v-142q0 -41 20 -58.5t63 -17.5h37l5 -46l-5 -44h-37q-32 0 -67 16t-59 48q-24 -31 -61 -47.5t-75 -16.5h-87v90h87q51 0 76 21t25 67v130h78z" />
    <glyph glyph-name="uni066E.fina" unicode="&#x66e;" horiz-adv-x="961" 
d="M139 23.5q-42 23.5 -65.5 63t-23.5 87.5q0 14 1 21q5 46 33 162l73 -19q-2 -9 -15.5 -68.5t-15.5 -83.5q-1 -5 -1 -13q0 -39 28.5 -61t81.5 -22h432q51 0 76 21t25 67v130h78v-142q0 -41 20 -58.5t63 -17.5h37l5 -43l-5 -47h-37q-32 0 -67 16t-59 48q-24 -31 -61 -47.5
t-75 -16.5h-432q-54 0 -96 23.5z" />
    <glyph glyph-name="uni066F.fina" unicode="&#x66f;" horiz-adv-x="722" 
d="M167.5 213.5q-19.5 -44.5 -29.5 -90t-10 -89.5q0 -72 16 -114.5t55.5 -62.5t109.5 -20h107q70 0 108.5 16.5t53.5 50.5t15 90v6h-110q-84 0 -135.5 50t-51.5 140q0 61 23.5 111t66 79t96.5 29q57 0 100 -28t66 -77.5t23 -113.5v-100h56l6 -46l-6 -44h-56v-6
q0 -114 -60.5 -180.5t-194.5 -66.5h-107q-134 0 -196.5 75t-62.5 212q0 77 18 136t50 131l72 -36q-3 -7 -22.5 -51.5zM400 112.5q26 -22.5 83 -22.5h110v100q0 61 -28 95.5t-83 34.5q-51 0 -79.5 -35.5t-28.5 -94.5q0 -55 26 -77.5z" />
    <glyph glyph-name="uni0671" unicode="&#x671;" horiz-adv-x="278" arabic-form="isolated" 
d="M102 579h86v-579h-86v579zM36 754l29 -38l29 43q22 32 42 47.5t47 15.5q36 0 58 -28.5t22 -67.5q0 -42 -24 -66.5t-61 -24.5h-43q-33 0 -52.5 8.5t-33 23.5t-45.5 57zM135 685h43q24 0 34.5 9.5t10.5 31.5q0 46 -40 46q-17 0 -28.5 -9t-26.5 -32l-28 -42q12 -4 35 -4z
" />
    <glyph glyph-name="uni0679" unicode="&#x679;" horiz-adv-x="893" arabic-form="isolated" 
d="M139 23.5q-42 23.5 -65.5 63t-23.5 87.5q0 14 1 21q5 46 33 162l73 -19q-2 -9 -15.5 -68.5t-15.5 -83.5q-1 -5 -1 -13q0 -39 28.5 -61t81.5 -22h432q49 0 73.5 27t24.5 65q0 44 -31 183l76 20q33 -143 33 -203q0 -42 -21 -84.5t-61 -70t-94 -27.5h-432q-54 0 -96 23.5z
M332 427l29 -38l22 33v145h41v-94q25 22 55 22q36 0 58 -28.5t22 -67.5q0 -42 -24 -66.5t-61 -24.5h-43q-33 0 -52.5 8.5t-33 23.5t-45.5 57zM431 358h43q24 0 34.5 9.5t10.5 31.5q0 46 -40 46q-17 0 -28.5 -9t-26.5 -32l-28 -42q12 -4 35 -4z" />
    <glyph glyph-name="uni067E" unicode="&#x67e;" horiz-adv-x="893" arabic-form="isolated" 
d="M139 23.5q-42 23.5 -65.5 63t-23.5 87.5q0 14 1 21q5 46 33 162l73 -19q-2 -9 -15.5 -68.5t-15.5 -83.5q-1 -5 -1 -13q0 -39 28.5 -61t81.5 -22h432q49 0 73.5 27t24.5 65q0 44 -31 183l76 20q33 -143 33 -203q0 -42 -21 -84.5t-61 -70t-94 -27.5h-432q-54 0 -96 23.5z
M303 -99h100v-100h-100v100zM398 -233h95v-95h-95v95zM487 -99h100v-100h-100v100z" />
    <glyph glyph-name="uni0686" unicode="&#x686;" horiz-adv-x="641" arabic-form="isolated" 
d="M567 -311h-227q-105 0 -176 42.5t-99 133.5q-16 49 -16 102q0 80 41 143.5t124 97.5l271 111q-102 42 -164.5 64.5t-84.5 22.5q-30 0 -46.5 -13.5t-31.5 -54.5l-76 24q46 134 154 134q27 0 73 -17.5t130 -55.5q26 -11 58.5 -25.5t73.5 -31.5l20 -95l-347 -147
q-119 -51 -119 -153q0 -36 14 -78q20 -61 67.5 -87.5t133.5 -26.5h227v-90zM257 63h92v-92h-92v92zM341 -72h88v-88h-88v88zM422 63h92v-92h-92v92z" />
    <glyph glyph-name="uni0695.fina" unicode="&#x695;" horiz-adv-x="415" 
d="M327 308v-142q0 -41 20 -58.5t63 -17.5h10l6 -46l-6 -44h-10q-51 0 -83 28v-2q0 -135 -68 -206.5t-196 -71.5h-63v90h63q100 0 143 43t43 145v282h78zM70 -340l64 -101l64 101l34 -26l-71 -113h-54l-71 113z" />
    <glyph glyph-name="uni0698" unicode="&#x698;" horiz-adv-x="417" arabic-form="isolated" 
d="M327 308v-282q0 -135 -68 -206.5t-196 -71.5h-63v90h63q100 0 143 43t43 145v282h78zM130 541h100v-100h-100v100zM225 670h95v-95h-95v95zM314 541h100v-100h-100v100z" />
    <glyph glyph-name="uni06A1.init" unicode="&#x6a1;" horiz-adv-x="450" 
d="M-5 90h160q57 0 89.5 6.5t49 21t23.5 41.5h-84q-46 0 -84 21.5t-60.5 60t-22.5 88.5t23 93t61.5 68.5t82.5 25.5q48 0 86 -25.5t59.5 -68.5t21.5 -93v-102q0 -76 -22 -125.5t-75.5 -75.5t-147.5 -26h-160v90zM233 249h89v80q0 46 -22.5 71.5t-66.5 25.5q-41 0 -65 -26.5
t-24 -70.5q0 -80 89 -80z" />
    <glyph glyph-name="uni06A1.medi" unicode="&#x6a1;" horiz-adv-x="514" 
d="M-9 90h53q59 0 108 6q-79 57 -79 136q0 54 25 98.5t67.5 70.5t93.5 26q49 0 91 -26t67 -71t25 -98q0 -78 -79 -137q53 -5 108 -5h48l6 -45l-6 -45h-48q-41 0 -99.5 10.5t-113.5 30.5q-56 -20 -114.5 -30.5t-99.5 -10.5h-53v90zM177.5 165q26.5 -29 78.5 -47
q53 18 80.5 47t27.5 67q0 47 -30 76t-75 29q-47 0 -77.5 -29t-30.5 -76q0 -38 26.5 -67z" />
    <glyph glyph-name="uni06A1.fina" unicode="&#x6a1;" horiz-adv-x="935" 
d="M493 232q0 54 25 98.5t67.5 70.5t93.5 26q49 0 91 -26t67 -71t25 -98q0 -78 -79 -137q53 -5 108 -5h48l6 -45l-6 -45h-48q-41 0 -99.5 10.5t-113.5 30.5q-47 -17 -86 -25t-119.5 -12t-237.5 -4q-54 0 -96 23.5t-65.5 63t-23.5 87.5q0 14 1 21q5 46 33 162l73 -19
q-2 -9 -15.5 -68.5t-15.5 -83.5q-1 -5 -1 -13q0 -39 28.5 -61t81.5 -22q186 0 247.5 1.5t89.5 4.5q-79 57 -79 136zM597.5 165q26.5 -29 78.5 -47q53 18 80.5 47t27.5 67q0 47 -30 76t-75 29q-47 0 -77.5 -29t-30.5 -76q0 -38 26.5 -67z" />
    <glyph glyph-name="uni06A4" unicode="&#x6a4;" horiz-adv-x="896" arabic-form="isolated" 
d="M139 23.5q-42 23.5 -65.5 63t-23.5 87.5q0 14 1 21q5 46 33 162l73 -19q-2 -9 -15.5 -68.5t-15.5 -83.5q-1 -5 -1 -13q0 -39 28.5 -61t81.5 -22h365q57 0 89.5 6.5t49 21t23.5 41.5h-84q-46 0 -84 21.5t-60.5 60t-22.5 88.5t23 93t61.5 68.5t82.5 25.5q48 0 86 -25.5
t59.5 -68.5t21.5 -93v-102q0 -76 -22 -125.5t-75.5 -75.5t-147.5 -26h-365q-54 0 -96 23.5zM533 704h100v-100h-100v100zM678 249h89v80q0 46 -22.5 71.5t-66.5 25.5q-41 0 -65 -26.5t-24 -70.5q0 -80 89 -80zM628 833h95v-95h-95v95zM717 704h100v-100h-100v100z" />
    <glyph glyph-name="uni06A9" unicode="&#x6a9;" horiz-adv-x="854" arabic-form="isolated" 
d="M139 23.5q-42 23.5 -65.5 63t-23.5 87.5q0 14 1 21q5 46 33 162l73 -19q-2 -9 -15.5 -68.5t-15.5 -83.5q-1 -5 -1 -13q0 -39 28.5 -61t81.5 -22h368q44 0 67.5 16t23.5 42q0 31 -34 65l-211 212l24 105l344 151l32 -82l-315 -139l182 -185q25 -26 38 -57t13 -64
q0 -40 -19.5 -75.5t-56.5 -57t-88 -21.5h-368q-54 0 -96 23.5z" />
    <glyph glyph-name="uni06AF" unicode="&#x6af;" horiz-adv-x="856" arabic-form="isolated" 
d="M139 23.5q-42 23.5 -65.5 63t-23.5 87.5q0 14 1 21q5 46 33 162l73 -19q-2 -9 -15.5 -68.5t-15.5 -83.5q-1 -5 -1 -13q0 -39 28.5 -61t81.5 -22h369q44 0 67.5 16t23.5 42q0 31 -34 65l-190 190l24 105l324 143l32 -82l-295 -131l161 -163q25 -26 38 -57.5t13 -63.5
q0 -41 -19.5 -76t-56.5 -56.5t-88 -21.5h-369q-54 0 -96 23.5zM504 620l263 115l15 -38l-283 -124z" />
    <glyph glyph-name="uni06B5.init" unicode="&#x6b5;" horiz-adv-x="252" 
d="M176.5 77q-25.5 -40 -62.5 -58.5t-72 -18.5h-47v90h40q45 0 67.5 19.5t22.5 68.5v471h77v-471q0 -61 -25.5 -101zM101 823l64 -101l64 101l34 -26l-71 -113h-54l-71 113z" />
    <glyph glyph-name="uni06B5.medi" unicode="&#x6b5;" horiz-adv-x="317" 
d="M-5 90h40q45 0 67.5 19.5t22.5 68.5v471h77v-471v-12v0q0 -41 20 -58.5t63 -17.5h37l5 -46l-5 -44h-37q-32 0 -64 15.5t-55 46.5q-24 -31 -58 -46.5t-66 -15.5h-47v90zM101 823l64 -101l64 101l34 -26l-71 -113h-54l-71 113z" />
    <glyph glyph-name="uni06B5.fina" unicode="&#x6b5;" horiz-adv-x="712" 
d="M167 -211q-58 41 -87.5 108t-29.5 143q0 49 15.5 106t36.5 102l69 -34q-18 -38 -30.5 -86t-12.5 -88q0 -91 44.5 -146.5t135.5 -55.5h49q68 0 106 15.5t54 49t16 91.5l-1 655h78l1 -474q0 -48 23.5 -66.5t64.5 -18.5h15l6 -47l-6 -43h-15q-51 0 -88 28v-34
q0 -116 -61 -181t-193 -65h-49q-83 0 -141 41zM504 823l64 -101l64 101l34 -26l-71 -113h-54l-71 113z" />
    <glyph glyph-name="uni06C2.fina" unicode="&#x6c2;" horiz-adv-x="552" 
d="M538 90h19l5 -45l-5 -45h-19q-75 0 -140 41t-88 136l-29 119l-56 -18q-50 -17 -74.5 -42t-24.5 -62q0 -22 9 -49l22 -70l-74 -26l-22 70q-11 33 -11 71q0 68 40 120t111 74l102 31l45 -27l38 -169q24 -109 152 -109zM144 473q-45 28 -45 80q0 40 28 66.5t67 28.5
q20 0 66 -10l-8 -48q-38 8 -58 8q-26 -2 -40 -14t-14 -32q0 -23 20.5 -39t51.5 -16q6 0 20 2l65 19l3 -50l-208 -61l-3 50z" />
    <glyph glyph-name="uni06C3.fina" unicode="&#x6c3;" horiz-adv-x="552" 
d="M538 90h19l5 -45l-5 -45h-19q-75 0 -140 41t-88 136l-29 119l-56 -18q-50 -17 -74.5 -42t-24.5 -62q0 -22 9 -49l22 -70l-74 -26l-22 70q-11 33 -11 71q0 68 40 120t111 74l102 31l45 -27l38 -169q24 -109 152 -109zM110 593h100v-100h-100v100zM289 593h100v-100h-100
v100z" />
    <glyph glyph-name="uni06C6" unicode="&#x6c6;" horiz-adv-x="475" arabic-form="isolated" 
d="M278.5 -145.5q38.5 16.5 53.5 50.5t15 90v6h-110q-84 0 -135.5 50t-51.5 140q0 61 23.5 111t66 79t96.5 29q57 0 100 -27.5t66 -77.5t23 -114v-196q0 -114 -60.5 -180.5t-194.5 -66.5h-107v90h107q70 0 108.5 16.5zM154 113.5q26 -22.5 83 -22.5h110v100q0 61 -28 95.5
t-83 34.5q-51 0 -79.5 -35.5t-28.5 -94.5q0 -55 26 -77.5zM169 602l64 -101l64 101l34 -26l-71 -113h-54l-71 113z" />
    <glyph glyph-name="uni06C7" unicode="&#x6c7;" horiz-adv-x="475" arabic-form="isolated" 
d="M278.5 -145.5q38.5 16.5 53.5 50.5t15 90v6h-110q-84 0 -135.5 50t-51.5 140q0 61 23.5 111t66 79t96.5 29q57 0 100 -27.5t66 -77.5t23 -114v-196q0 -114 -60.5 -180.5t-194.5 -66.5h-107v90h107q70 0 108.5 16.5zM165 507q-13 14 -22 40q-5 18 -5 33q0 31 18 55.5
t49 35.5q18 7 38 7q30 0 54 -17.5t34 -49.5q5 -17 5 -29q0 -32 -21.5 -58t-58.5 -38l-147 -48l-12 48zM154 113.5q26 -22.5 83 -22.5h110v100q0 61 -28 95.5t-83 34.5q-51 0 -79.5 -35.5t-28.5 -94.5q0 -55 26 -77.5zM206 520l43 13q22 7 34.5 20t12.5 29q0 9 -2 14
q-5 16 -17.5 24.5t-29.5 8.5q-13 0 -30 -6q-19 -7 -28.5 -19t-9.5 -26q0 -10 2 -15q8 -27 25 -43z" />
    <glyph glyph-name="uni06CC" unicode="&#x6cc;" horiz-adv-x="740" arabic-form="isolated" 
d="M128 44q0 -91 45.5 -148.5t133.5 -57.5h108q94 0 134.5 31.5t40.5 102.5q0 10 -3.5 13t-18.5 7l-212 57q-16 48 -16 95q0 49 16.5 92.5t45.5 76.5q37 42 87 64.5t103 22.5q52 0 98 -11l-18 -88q-34 9 -77 9q-84 0 -135 -57q-43 -48 -43 -103q0 -7 2 -25l171 -47
q41 -12 59.5 -38t18.5 -69q0 -106 -66.5 -164.5t-186.5 -58.5h-108q-79 0 -137.5 41t-89 108.5t-30.5 144.5q0 107 66 255l72 -38q-60 -129 -60 -215z" />
    <glyph glyph-name="uni06CE.init" unicode="&#x6ce;" horiz-adv-x="348" 
d="M73 600l34 26l64 -101l64 101l34 -26l-71 -113h-54zM-44 -153h100v-100h-100v100zM-5 90h135q103 0 103 69q0 27 -9.5 81.5t-21.5 106.5l76 20q12 -51 22.5 -112t10.5 -95q0 -42 -20 -78.5t-61 -59t-100 -22.5h-135v90zM135 -153h100v-100h-100v100z" />
    <glyph glyph-name="uni06CE.medi" unicode="&#x6ce;" horiz-adv-x="390" 
d="M61 490l34 26l64 -101l64 101l34 -26l-71 -113h-54zM-37 -153h100v-100h-100v100zM-5 90h106q51 0 76 21t25 67v130h78v-142q0 -41 20 -58.5t63 -17.5h51l5 -47l-5 -43h-51q-32 0 -67 16t-59 48q-24 -31 -61 -47.5t-75 -16.5h-106v90zM142 -153h100v-100h-100v100z" />
    <glyph glyph-name="uni06CE.fina" unicode="&#x6ce;" horiz-adv-x="755" 
d="M169.5 -211q-58.5 41 -89 108.5t-30.5 144.5q0 107 66 255l72 -38q-60 -129 -60 -215q0 -91 45.5 -148.5t133.5 -57.5h108q76 0 123 23t47 58q0 29 -36 49q-57 32 -193 32v90h404l6 -47l-6 -43h-127q15 -12 23 -32t8 -44q0 -43 -25 -83t-80.5 -66.5t-143.5 -26.5h-108
q-79 0 -137.5 41zM219 389l64 -101l64 101l34 -26l-71 -113h-54l-71 113z" />
    <glyph glyph-name="uni06D5.fina" unicode="&#x6d5;" horiz-adv-x="608" 
d="M440 198q26 -108 153 -108h20l5 -45l-5 -45h-20q-62 0 -121 29.5t-91 96.5q-26 -42 -65 -64t-84 -22q-47 0 -93 26q-42 23 -65.5 67.5t-23.5 94.5q0 52 24 92q17 28 37 47t62.5 41.5t121.5 55.5l-11 50l76 20zM127 224q0 -24 13 -46t36 -36q21 -14 52 -14q27 0 52.5 12
t43.5 34q10 13 15 27t5 34q0 14 -3 35l-26 111q-81 -28 -119.5 -54.5t-53.5 -52.5q-15 -25 -15 -50z" />
    <glyph glyph-name="uni0671.fina" unicode="&#x671;" horiz-adv-x="276" arabic-form="final" 
d="M129 53.5q-38 53.5 -38 157.5l-1 368h78l1 -368q0 -54 6.5 -78t26 -33.5t64.5 -9.5h15l5 -45l-5 -45h-15q-99 0 -137 53.5zM22 752l29 -38l29 43q22 32 42 47.5t47 15.5q36 0 58 -28.5t22 -67.5q0 -42 -24 -66.5t-61 -24.5h-43q-33 0 -52.5 8.5t-33 23.5t-45.5 57z
M121 683h43q24 0 34.5 9.5t10.5 31.5q0 46 -40 46q-17 0 -28.5 -9t-26.5 -32l-28 -42q12 -4 35 -4z" />
    <glyph glyph-name="uni067E.fina" unicode="&#x67e;" horiz-adv-x="961" arabic-form="final" 
d="M139 23.5q-42 23.5 -65.5 63t-23.5 87.5q0 14 1 21q5 46 33 162l73 -19q-2 -9 -15.5 -68.5t-15.5 -83.5q-1 -5 -1 -13q0 -39 28.5 -61t81.5 -22h432q51 0 76 21t25 67v130h78v-142q0 -41 20 -58.5t63 -17.5h37l5 -43l-5 -47h-37q-32 0 -67 16t-59 48q-24 -31 -61 -47.5
t-75 -16.5h-432q-54 0 -96 23.5zM303 -99h100v-100h-100v100zM398 -233h95v-95h-95v95zM487 -99h100v-100h-100v100z" />
    <glyph glyph-name="uni067E.init" unicode="&#x67e;" horiz-adv-x="361" arabic-form="initial" 
d="M-5 90h135q103 0 103 69q0 27 -9.5 81.5t-21.5 106.5l76 20q12 -51 22.5 -112t10.5 -95q0 -42 -20 -78.5t-61 -59t-100 -22.5h-135v90zM-48 -99h100v-100h-100v100zM47 -233h95v-95h-95v95zM136 -99h100v-100h-100v100z" />
    <glyph glyph-name="uni067E.medi" unicode="&#x67e;" horiz-adv-x="409" arabic-form="medial" 
d="M280 308v-142q0 -41 20 -58.5t63 -17.5h51l5 -47l-5 -43h-51q-32 0 -67 16t-59 48q-24 -31 -61 -47.5t-75 -16.5h-106v90h106q51 0 76 21t25 67v130h78zM-44 -99h100v-100h-100v100zM51 -233h95v-95h-95v95zM140 -99h100v-100h-100v100z" />
    <glyph glyph-name="uni0679.fina" unicode="&#x679;" horiz-adv-x="961" arabic-form="final" 
d="M139 23.5q-42 23.5 -65.5 63t-23.5 87.5q0 14 1 21q5 46 33 162l73 -19q-2 -9 -15.5 -68.5t-15.5 -83.5q-1 -5 -1 -13q0 -39 28.5 -61t81.5 -22h432q51 0 76 21t25 67v130h78v-142q0 -41 20 -58.5t63 -17.5h37l5 -43l-5 -47h-37q-32 0 -67 16t-59 48q-24 -31 -61 -47.5
t-75 -16.5h-432q-54 0 -96 23.5zM366 415l29 -38l22 33v145h41v-94q25 22 55 22q36 0 58 -28.5t22 -67.5q0 -42 -24 -66.5t-61 -24.5h-43q-33 0 -52.5 8.5t-33 23.5t-45.5 57zM465 346h43q24 0 34.5 9.5t10.5 31.5q0 46 -40 46q-17 0 -28.5 -9t-26.5 -32l-28 -42
q12 -4 35 -4z" />
    <glyph glyph-name="uni0679.init" unicode="&#x679;" horiz-adv-x="361" arabic-form="initial" 
d="M-5 90h135q103 0 103 69q0 27 -9.5 81.5t-21.5 106.5l76 20q12 -51 22.5 -112t10.5 -95q0 -42 -20 -78.5t-61 -59t-100 -22.5h-135v90zM38 523l29 -38l22 33v145h41v-94q25 22 55 22q36 0 58 -28.5t22 -67.5q0 -42 -24 -66.5t-61 -24.5h-43q-33 0 -52.5 8.5t-33 23.5
t-45.5 57zM137 454h43q24 0 34.5 9.5t10.5 31.5q0 46 -40 46q-17 0 -28.5 -9t-26.5 -32l-28 -42q12 -4 35 -4z" />
    <glyph glyph-name="uni0679.medi" unicode="&#x679;" horiz-adv-x="409" arabic-form="medial" 
d="M280 308v-142q0 -41 20 -58.5t63 -17.5h51l5 -47l-5 -43h-51q-32 0 -67 16t-59 48q-24 -31 -61 -47.5t-75 -16.5h-106v90h106q51 0 76 21t25 67v130h78zM42 483l29 -38l22 33v145h41v-94q25 22 55 22q36 0 58 -28.5t22 -67.5q0 -42 -24 -66.5t-61 -24.5h-43
q-33 0 -52.5 8.5t-33 23.5t-45.5 57zM141 414h43q24 0 34.5 9.5t10.5 31.5q0 46 -40 46q-17 0 -28.5 -9t-26.5 -32l-28 -42q12 -4 35 -4z" />
    <glyph glyph-name="uni06A4.fina" unicode="&#x6a4;" horiz-adv-x="935" arabic-form="final" 
d="M493 232q0 54 25 98.5t67.5 70.5t93.5 26q49 0 91 -26t67 -71t25 -98q0 -78 -79 -137q53 -5 108 -5h48l6 -45l-6 -45h-48q-41 0 -99.5 10.5t-113.5 30.5q-47 -17 -86 -25t-119.5 -12t-237.5 -4q-54 0 -96 23.5t-65.5 63t-23.5 87.5q0 14 1 21q5 46 33 162l73 -19
q-2 -9 -15.5 -68.5t-15.5 -83.5q-1 -5 -1 -13q0 -39 28.5 -61t81.5 -22q186 0 247.5 1.5t89.5 4.5q-79 57 -79 136zM534 601h100v-100h-100v100zM597.5 165q26.5 -29 78.5 -47q53 18 80.5 47t27.5 67q0 47 -30 76t-75 29q-47 0 -77.5 -29t-30.5 -76q0 -38 26.5 -67zM629 730
h95v-95h-95v95zM718 601h100v-100h-100v100z" />
    <glyph glyph-name="uni06A4.init" unicode="&#x6a4;" horiz-adv-x="450" arabic-form="initial" 
d="M-5 90h160q57 0 89.5 6.5t49 21t23.5 41.5h-84q-46 0 -84 21.5t-60.5 60t-22.5 88.5t23 93t61.5 68.5t82.5 25.5q48 0 86 -25.5t59.5 -68.5t21.5 -93v-102q0 -76 -22 -125.5t-75.5 -75.5t-147.5 -26h-160v90zM85 700h100v-100h-100v100zM233 249h89v80q0 46 -22.5 71.5
t-66.5 25.5q-41 0 -65 -26.5t-24 -70.5q0 -80 89 -80zM180 829h95v-95h-95v95zM269 700h100v-100h-100v100z" />
    <glyph glyph-name="uni06A4.medi" unicode="&#x6a4;" horiz-adv-x="514" arabic-form="medial" 
d="M-9 90h53q59 0 108 6q-79 57 -79 136q0 54 25 98.5t67.5 70.5t93.5 26q49 0 91 -26t67 -71t25 -98q0 -78 -79 -137q53 -5 108 -5h48l6 -45l-6 -45h-48q-41 0 -99.5 10.5t-113.5 30.5q-56 -20 -114.5 -30.5t-99.5 -10.5h-53v90zM116 603h100v-100h-100v100zM177.5 165
q26.5 -29 78.5 -47q53 18 80.5 47t27.5 67q0 47 -30 76t-75 29q-47 0 -77.5 -29t-30.5 -76q0 -38 26.5 -67zM211 732h95v-95h-95v95zM300 603h100v-100h-100v100z" />
    <glyph glyph-name="uni0686.fina" unicode="&#x686;" horiz-adv-x="724" arabic-form="final" 
d="M734 46l-5 -46h-32q-81 0 -132 44t-85 157l-6 20l-230 -97q-119 -51 -119 -153q0 -36 14 -78q20 -61 67.5 -87.5t133.5 -26.5h227v-90h-227q-105 0 -176 42.5t-99 133.5q-16 49 -16 102q0 80 41 143.5t124 97.5l271 111q-102 42 -164.5 64.5t-84.5 22.5
q-30 0 -46.5 -13.5t-31.5 -54.5l-76 24q46 134 154 134q27 0 73 -17.5t130 -55.5q26 -11 58.5 -25.5t73.5 -31.5l20 -95l-58 -25l6 -20q17 -55 38 -84.5t49 -40.5t71 -11h32zM241 63h92v-92h-92v92zM325 -72h88v-88h-88v88zM406 63h92v-92h-92v92z" />
    <glyph glyph-name="uni0686.init" unicode="&#x686;" horiz-adv-x="637" arabic-form="initial" 
d="M-9 90h124q69 0 128.5 17.5t107 42.5t130.5 75q-117 49 -178.5 72t-85.5 23q-30 0 -46.5 -13.5t-31.5 -54.5l-76 24q46 134 154 134q34 0 104.5 -26t196.5 -79l49 -20l20 -95l-53 -33q-87 -55 -144 -86t-125.5 -51t-149.5 -20h-124v90zM201 -99h100v-100h-100v100z
M296 -233h95v-95h-95v95zM385 -99h100v-100h-100v100z" />
    <glyph glyph-name="uni0686.medi" unicode="&#x686;" horiz-adv-x="677" arabic-form="medial" 
d="M492 24q-41 24 -55 73q-82 -47 -157 -72t-165 -25h-124v90h124q69 0 128.5 17.5t107 42.5t130.5 75q-117 49 -178.5 72t-85.5 23q-30 0 -46.5 -13.5t-31.5 -54.5l-76 24q46 134 154 134q34 0 104.5 -26t196.5 -79l49 -20l20 -95l-90 -56q20 -44 86 -44h99l7 -45l-7 -45
h-99q-50 0 -91 24zM212 -98h100v-100h-100v100zM307 -232h95v-95h-95v95zM396 -98h100v-100h-100v100z" />
    <glyph glyph-name="uni0688.fina" unicode="&#x688;" horiz-adv-x="591" arabic-form="final" 
d="M391 342l36 -79l0.5 -0.5l0.5 -0.5q29 -65 50.5 -101t45.5 -53.5t56 -17.5h16l5 -48l-5 -42h-16q-44 0 -78.5 20.5t-65.5 59.5l-3 -5q-52 -75 -164 -75h-51q-54 0 -96 16.5t-72 37.5l41 76q30 -18 57 -29t70 -11h51q36 0 61 8.5t39 28.5q10 13 10 30q0 15 -11 42l-12 27
v0l-31 67q-44 94 -75 162l72 38q11 -26 69 -151zM195 669l29 -38l22 33v145h41v-94q25 22 55 22q36 0 58 -28.5t22 -67.5q0 -42 -24 -66.5t-61 -24.5h-43q-33 0 -52.5 8.5t-33 23.5t-45.5 57zM294 600h43q24 0 34.5 9.5t10.5 31.5q0 46 -40 46q-17 0 -28.5 -9t-26.5 -32
l-28 -42q12 -4 35 -4z" />
    <glyph glyph-name="uni0698.fina" unicode="&#x698;" horiz-adv-x="415" arabic-form="final" 
d="M327 308v-142q0 -41 20 -58.5t63 -17.5h10l6 -46l-6 -44h-10q-51 0 -83 28v-2q0 -135 -68 -206.5t-196 -71.5h-63v90h63q100 0 143 43t43 145v282h78zM130 542h100v-100h-100v100zM225 671h95v-95h-95v95zM314 542h100v-100h-100v100z" />
    <glyph glyph-name="uni0691.fina" unicode="&#x691;" horiz-adv-x="415" arabic-form="final" 
d="M327 308v-142q0 -41 20 -58.5t63 -17.5h10l6 -46l-6 -44h-10q-51 0 -83 28v-2q0 -135 -68 -206.5t-196 -71.5h-63v90h63q100 0 143 43t43 145v282h78zM161 490l29 -38l22 33v145h41v-94q25 22 55 22q36 0 58 -28.5t22 -67.5q0 -42 -24 -66.5t-61 -24.5h-43
q-33 0 -52.5 8.5t-33 23.5t-45.5 57zM260 421h43q24 0 34.5 9.5t10.5 31.5q0 46 -40 46q-17 0 -28.5 -9t-26.5 -32l-28 -42q12 -4 35 -4z" />
    <glyph glyph-name="uni06A9.fina" unicode="&#x6a9;" horiz-adv-x="918" arabic-form="final" 
d="M139 23.5q-42 23.5 -65.5 63t-23.5 87.5q0 14 1 21q5 46 33 162l73 -19q-2 -9 -15.5 -68.5t-15.5 -83.5q-1 -5 -1 -13q0 -39 28.5 -61t81.5 -22h331q43 0 65.5 15t22.5 40q0 31 -31 68l-175 212l24 105l344 151l32 -82l-315 -139l146 -185l3 -4q70 -90 99.5 -123.5
t55 -45.5t67.5 -12h19l5 -45l-5 -45h-19q-61 0 -100.5 22t-88.5 80q-14 -46 -52 -74t-97 -28h-331q-54 0 -96 23.5z" />
    <glyph glyph-name="uni06A9.init" unicode="&#x6a9;" horiz-adv-x="447" arabic-form="initial" 
d="M464 599l-315 -139l182 -185q25 -26 38 -57t13 -64q0 -40 -19.5 -75.5t-56.5 -57t-88 -21.5h-223v90h223q44 0 67.5 16t23.5 42q0 31 -34 65l-211 212l24 105l344 151z" />
    <glyph glyph-name="uni06A9.medi" unicode="&#x6a9;" horiz-adv-x="534" arabic-form="medial" 
d="M464 599l-315 -139l146 -185l3 -4q70 -90 99.5 -123.5t55 -45.5t67.5 -12h19l5 -45l-5 -45h-19q-61 0 -100.5 22t-88.5 80q-14 -46 -52 -74t-97 -28h-187v90h187q43 0 65.5 15t22.5 40q0 31 -31 68l-175 212l24 105l344 151z" />
    <glyph glyph-name="uni06AF.fina" unicode="&#x6af;" horiz-adv-x="932" arabic-form="final" 
d="M863 569l-300 -133l130 -161l6 -8q69 -88 98 -120.5t54 -44.5t67 -12h19l5 -45l-5 -45h-19q-61 0 -100.5 22t-88.5 80q-14 -45 -52 -73.5t-97 -28.5h-345q-54 0 -96 23.5t-65.5 63t-23.5 87.5q0 14 1 21q5 46 33 162l73 -19q-2 -9 -15.5 -68.5t-15.5 -83.5q-1 -5 -1 -13
q0 -39 28.5 -61t81.5 -22h345q44 0 66 15t22 41q0 30 -31 67l-159 188l24 105l329 145zM516 620l263 115l15 -38l-283 -124z" />
    <glyph glyph-name="uni06AF.init" unicode="&#x6af;" horiz-adv-x="470" arabic-form="initial" 
d="M465 569l-295 -131l161 -163q25 -26 38 -57.5t13 -63.5q0 -41 -19.5 -76t-56.5 -56.5t-88 -21.5h-223v90h223q44 0 67.5 16t23.5 42q0 31 -34 65l-190 190l24 105l324 143zM118 620l263 115l15 -38l-283 -124z" />
    <glyph glyph-name="uni06AF.medi" unicode="&#x6af;" horiz-adv-x="534" arabic-form="medial" 
d="M465 569l-300 -133l130 -161l6 -8q69 -88 98 -120.5t54 -44.5t67 -12h19v-90h-19q-61 0 -100.5 22t-88.5 80q-14 -45 -52 -73.5t-97 -28.5h-187v90h187q44 0 66 15t22 41q0 30 -31 67l-159 188l24 105l329 145zM118 620l263 115l15 -38l-283 -124z" />
    <glyph glyph-name="uni06BA.fina" unicode="&#x6ba;" horiz-adv-x="767" arabic-form="final" 
d="M669 28v-34q0 -116 -61 -181t-193 -65h-107q-83 0 -141 41t-87.5 108t-29.5 143q0 122 68 248l66 -36q-56 -114 -56 -212q0 -91 44.5 -146.5t135.5 -55.5h107q68 0 106 15.5t54 49t16 91.5v314h78v-133q0 -48 23.5 -66.5t64.5 -18.5h15l6 -47l-6 -43h-15q-53 0 -88 28z
" />
    <glyph glyph-name="uni06C1.init" unicode="&#x6c1;" horiz-adv-x="370" arabic-form="initial" 
d="M-5 90h154q103 0 103 69q0 27 -9.5 81.5t-21.5 106.5l76 20q12 -51 22.5 -112t10.5 -95q0 -42 -20 -78.5t-61 -59t-100 -22.5h-154v90zM69.5 -220q3.5 15 18.5 42.5t57 97.5l44 -26l-14 -24q-37 -63 -42 -74q23 -2 38.5 -19t15.5 -40q0 -25 -17.5 -43t-42.5 -18
q-26 0 -43.5 17.5t-17.5 43.5q0 28 3.5 43z" />
    <glyph glyph-name="uni06BE.init" unicode="&#x6be;" horiz-adv-x="714" arabic-form="initial" 
d="M479 491l152 -234q33 -51 33 -104q0 -54 -36 -95q-28 -31 -80 -45.5t-136 -14.5q-82 0 -163 29q-82 -27 -176 -27h-78v90h93q18 0 48 2q-69 59 -69 139q0 54 25 99t67.5 71t93.5 26q49 0 91 -26t67 -71t25 -98q0 -83 -68 -141q10 -1 32 -1q146 0 174 29q12 12 12 31
q0 23 -21 57l-152 236zM246 111q53 18 82.5 47t29.5 68q0 49 -28.5 80t-77.5 31t-78 -31.5t-29 -79.5q0 -79 101 -115z" />
    <glyph glyph-name="uni06C7.fina" unicode="&#x6c7;" horiz-adv-x="476" arabic-form="final" 
d="M278.5 -146.5q38.5 16.5 53.5 50.5t15 90v6h-110q-84 0 -135.5 50t-51.5 140q0 61 23.5 111t66 79t96.5 29q57 0 100 -28t66 -77.5t23 -113.5v-100h56l6 -46l-6 -44h-56v-6q0 -114 -60.5 -180.5t-194.5 -66.5h-107v90h107q70 0 108.5 16.5zM167 526q-13 14 -22 40
q-5 18 -5 33q0 31 18 55.5t49 35.5q18 7 38 7q30 0 54 -17.5t34 -49.5q5 -17 5 -29q0 -32 -21.5 -58t-58.5 -38l-147 -48l-12 48zM154 112.5q26 -22.5 83 -22.5h110v100q0 61 -28 95.5t-83 34.5q-51 0 -79.5 -35.5t-28.5 -94.5q0 -55 26 -77.5zM208 539l43 13q22 7 34.5 20
t12.5 29q0 9 -2 14q-5 16 -17.5 24.5t-29.5 8.5q-13 0 -30 -6q-19 -7 -28.5 -19t-9.5 -26q0 -10 2 -15q8 -27 25 -43z" />
    <glyph glyph-name="uni06C6.fina" unicode="&#x6c6;" horiz-adv-x="476" arabic-form="final" 
d="M278.5 -146.5q38.5 16.5 53.5 50.5t15 90v6h-110q-84 0 -135.5 50t-51.5 140q0 61 23.5 111t66 79t96.5 29q57 0 100 -28t66 -77.5t23 -113.5v-100h56l6 -46l-6 -44h-56v-6q0 -114 -60.5 -180.5t-194.5 -66.5h-107v90h107q70 0 108.5 16.5zM145 601l64 -101l64 101
l34 -26l-71 -113h-54l-71 113zM154 112.5q26 -22.5 83 -22.5h110v100q0 61 -28 95.5t-83 34.5q-51 0 -79.5 -35.5t-28.5 -94.5q0 -55 26 -77.5z" />
    <glyph glyph-name="uni06C9.fina" unicode="&#x6c9;" horiz-adv-x="476" arabic-form="final" 
d="M278.5 -146.5q38.5 16.5 53.5 50.5t15 90v6h-110q-84 0 -135.5 50t-51.5 140q0 61 23.5 111t66 79t96.5 29q57 0 100 -28t66 -77.5t23 -113.5v-100h56l6 -46l-6 -44h-56v-6q0 -114 -60.5 -180.5t-194.5 -66.5h-107v90h107q70 0 108.5 16.5zM188 610h54l71 -113l-34 -26
l-64 101l-64 -101l-34 26zM154 112.5q26 -22.5 83 -22.5h110v100q0 61 -28 95.5t-83 34.5q-51 0 -79.5 -35.5t-28.5 -94.5q0 -55 26 -77.5z" />
    <glyph glyph-name="uni06CC.fina" unicode="&#x6cc;" horiz-adv-x="755" arabic-form="final" 
d="M169.5 -211q-58.5 41 -89 108.5t-30.5 144.5q0 107 66 255l72 -38q-60 -129 -60 -215q0 -91 45.5 -148.5t133.5 -57.5h108q76 0 123 23t47 58q0 29 -36 49q-57 32 -193 32v90h404l6 -47l-6 -43h-127q15 -12 23 -32t8 -44q0 -43 -25 -83t-80.5 -66.5t-143.5 -26.5h-108
q-79 0 -137.5 41z" />
    <glyph glyph-name="uni06CC.init" unicode="&#x6cc;" horiz-adv-x="361" arabic-form="initial" 
d="M-5 90h135q103 0 103 69q0 27 -9.5 81.5t-21.5 106.5l76 20q12 -51 22.5 -112t10.5 -95q0 -42 -20 -78.5t-61 -59t-100 -22.5h-135v90zM-44 -153h100v-100h-100v100zM135 -153h100v-100h-100v100z" />
    <glyph glyph-name="uni06CC.medi" unicode="&#x6cc;" horiz-adv-x="409" arabic-form="medial" 
d="M280 308v-142q0 -41 20 -58.5t63 -17.5h51l5 -47l-5 -43h-51q-32 0 -67 16t-59 48q-24 -31 -61 -47.5t-75 -16.5h-106v90h106q51 0 76 21t25 67v130h78zM-37 -153h100v-100h-100v100zM142 -153h100v-100h-100v100z" />
    <glyph glyph-name="uniFDFC" unicode="&#xfdfc;" horiz-adv-x="1358" arabic-form="isolated" 
d="M1318 464v-282q0 -135 -68 -206.5t-196 -71.5h-24v90h24q100 0 143 43.5t43 144.5v282h78zM53.5 280.5q13.5 48.5 32.5 88.5l70 -38q-38 -83 -38 -145q0 -76 35.5 -119t110.5 -43h34q68 0 106 15.5t54 49t16 91.5l-1 452q0 59 30 94t96 35h33q63 0 94 -35t31 -94l1 -331
q0 -54 6.5 -78t26 -33.5t64.5 -9.5h43q103 0 103 69q0 27 -9.5 81.5t-21.5 106.5l76 20q12 -51 22.5 -112t10.5 -95q0 -42 -20 -78.5t-61 -59t-100 -22.5h-43q-99 0 -137 53.5t-38 157.5l-1 331q0 21 -10 30t-37 9h-33q-29 0 -38.5 -8t-9.5 -31l1 -452q0 -116 -61 -181
t-193 -65h-34q-72 0 -122.5 34.5t-76 92t-25.5 125.5q0 46 13.5 94.5zM725 0h120h120v-100h-120h-120v100z" />
    <glyph glyph-name="uni0622.fina" unicode="&#x622;" horiz-adv-x="276" arabic-form="final" 
d="M129 53.5q-38 53.5 -38 157.5l-1 368h78l1 -368q0 -54 6.5 -78t26 -33.5t64.5 -9.5h15l5 -45l-5 -45h-15q-99 0 -137 53.5zM-12 689q41 35 110 35h195v-75h-195q-41 0 -64 -19.5t-34 -53.5l-65 21q12 57 53 92z" />
    <glyph glyph-name="uni0623.fina" unicode="&#x623;" horiz-adv-x="276" arabic-form="final" 
d="M129 53.5q-38 53.5 -38 157.5l-1 368h78l1 -368q0 -54 6.5 -78t26 -33.5t64.5 -9.5h15l5 -45l-5 -45h-15q-99 0 -137 53.5zM99 686q-45 28 -45 80q0 40 28 66.5t67 28.5q20 0 66 -10l-8 -48q-38 8 -58 8q-26 -2 -40 -14t-14 -32q0 -23 20.5 -39t51.5 -16q6 0 20 2l65 19
l3 -50l-208 -61l-3 50z" />
    <glyph glyph-name="uni0624.fina" unicode="&#x624;" horiz-adv-x="476" arabic-form="final" 
d="M278.5 -146.5q38.5 16.5 53.5 50.5t15 90v6h-110q-84 0 -135.5 50t-51.5 140q0 61 23.5 111t66 79t96.5 29q57 0 100 -28t66 -77.5t23 -113.5v-100h56l6 -46l-6 -44h-56v-6q0 -114 -60.5 -180.5t-194.5 -66.5h-107v90h107q70 0 108.5 16.5zM152 499q-45 28 -45 80
q0 40 28 66.5t67 28.5q20 0 66 -10l-8 -48q-38 8 -58 8q-26 -2 -40 -14t-14 -32q0 -23 20.5 -39t51.5 -16q6 0 20 2l65 19l3 -50l-208 -61l-3 50zM154 112.5q26 -22.5 83 -22.5h110v100q0 61 -28 95.5t-83 34.5q-51 0 -79.5 -35.5t-28.5 -94.5q0 -55 26 -77.5z" />
    <glyph glyph-name="uni0625.fina" unicode="&#x625;" horiz-adv-x="276" arabic-form="final" 
d="M129 53.5q-38 53.5 -38 157.5l-1 438h78l1 -438q0 -54 6.5 -78t26 -33.5t64.5 -9.5h15l5 -46l-5 -44h-15q-99 0 -137 53.5zM91 -206q-45 28 -45 80q0 40 28 66.5t67 28.5q20 0 66 -10l-8 -48q-38 8 -58 8q-26 -2 -40 -14t-14 -32q0 -23 20.5 -39t51.5 -16q6 0 20 2l65 19
l3 -50l-208 -61l-3 50z" />
    <glyph glyph-name="uni0626.fina" unicode="&#x626;" horiz-adv-x="755" arabic-form="final" 
d="M169.5 -211q-58.5 41 -89 108.5t-30.5 144.5q0 107 66 255l72 -38q-60 -129 -60 -215q0 -91 45.5 -148.5t133.5 -57.5h108q76 0 123 23t47 58q0 29 -36 49q-57 32 -193 32v90h404l6 -47l-6 -43h-127q15 -12 23 -32t8 -44q0 -43 -25 -83t-80.5 -66.5t-143.5 -26.5h-108
q-79 0 -137.5 41zM248 414q-45 28 -45 80q0 40 28 66.5t67 28.5q20 0 66 -10l-8 -48q-38 8 -58 8q-26 -2 -40 -14t-14 -32q0 -23 20.5 -39t51.5 -16q6 0 20 2l65 19l3 -50l-208 -61l-3 50z" />
    <glyph glyph-name="uni0626.init" unicode="&#x626;" horiz-adv-x="317" arabic-form="initial" 
d="M-5 90h110q43 0 64 18.5t21 50.5q0 26 -9.5 81.5t-21.5 106.5l76 20q12 -51 22.5 -112t10.5 -95q0 -41 -19 -78t-56 -59.5t-88 -22.5h-110v90zM59 506q-45 28 -45 80q0 40 28 66.5t67 28.5q20 0 66 -10l-8 -48q-38 8 -58 8q-26 -2 -40 -14t-14 -32q0 -23 20.5 -39
t51.5 -16q6 0 20 2l65 19l3 -50l-208 -61l-3 50z" />
    <glyph glyph-name="uni0626.medi" unicode="&#x626;" horiz-adv-x="376" arabic-form="medial" 
d="M261 308v-142q0 -41 20 -58.5t63 -17.5h37l5 -46l-5 -44h-37q-32 0 -67 16t-59 48q-24 -31 -61 -47.5t-75 -16.5h-87v90h87q51 0 76 21t25 67v130h78zM69 451q-45 28 -45 80q0 40 28 66.5t67 28.5q20 0 66 -10l-8 -48q-38 8 -58 8q-26 -2 -40 -14t-14 -32q0 -23 20.5 -39
t51.5 -16q6 0 20 2l65 19l3 -50l-208 -61l-3 50z" />
    <glyph glyph-name="uni0627.fina" unicode="&#x627;" horiz-adv-x="276" arabic-form="final" 
d="M129 53.5q-38 53.5 -38 157.5l-1 438h78l1 -438q0 -54 6.5 -78t26 -33.5t64.5 -9.5h15l5 -46l-5 -44h-15q-99 0 -137 53.5z" />
    <glyph glyph-name="uni0628.fina" unicode="&#x628;" horiz-adv-x="961" arabic-form="final" 
d="M139 23.5q-42 23.5 -65.5 63t-23.5 87.5q0 14 1 21q5 46 33 162l73 -19q-2 -9 -15.5 -68.5t-15.5 -83.5q-1 -5 -1 -13q0 -39 28.5 -61t81.5 -22h432q51 0 76 21t25 67v130h78v-142q0 -41 20 -58.5t63 -17.5h37l5 -43l-5 -47h-37q-32 0 -67 16t-59 48q-24 -31 -61 -47.5
t-75 -16.5h-432q-54 0 -96 23.5zM408 -151h100v-100h-100v100z" />
    <glyph glyph-name="uni0628.init" unicode="&#x628;" horiz-adv-x="317" arabic-form="initial" 
d="M-5 90h110q43 0 64 18.5t21 50.5q0 26 -9.5 81.5t-21.5 106.5l76 20q12 -51 22.5 -112t10.5 -95q0 -41 -19 -78t-56 -59.5t-88 -22.5h-110v90zM20 -152h100v-100h-100v100z" />
    <glyph glyph-name="uni0628.medi" unicode="&#x628;" horiz-adv-x="376" arabic-form="medial" 
d="M261 308v-142q0 -41 20 -58.5t63 -17.5h37l5 -46l-5 -44h-37q-32 0 -67 16t-59 48q-24 -31 -61 -47.5t-75 -16.5h-87v90h87q51 0 76 21t25 67v130h78zM9 -153h100v-100h-100v100z" />
    <glyph glyph-name="uni0629.fina" unicode="&#x629;" horiz-adv-x="608" arabic-form="final" 
d="M440 198q26 -108 153 -108h20l5 -45l-5 -45h-20q-62 0 -121 29.5t-91 96.5q-26 -42 -65 -64t-84 -22q-47 0 -93 26q-42 23 -65.5 67.5t-23.5 94.5q0 52 24 92q17 28 37 47t62.5 41.5t121.5 55.5l-11 50l76 20zM132 698h100v-100h-100v100zM127 224q0 -24 13 -46t36 -36
q21 -14 52 -14q27 0 52.5 12t43.5 34q10 13 15 27t5 34q0 14 -3 35l-26 111q-81 -28 -119.5 -54.5t-53.5 -52.5q-15 -25 -15 -50zM311 698h100v-100h-100v100z" />
    <glyph glyph-name="uni062A.fina" unicode="&#x62a;" horiz-adv-x="961" arabic-form="final" 
d="M139 23.5q-42 23.5 -65.5 63t-23.5 87.5q0 14 1 21q5 46 33 162l73 -19q-2 -9 -15.5 -68.5t-15.5 -83.5q-1 -5 -1 -13q0 -39 28.5 -61t81.5 -22h432q51 0 76 21t25 67v130h78v-142q0 -41 20 -58.5t63 -17.5h37l5 -43l-5 -47h-37q-32 0 -67 16t-59 48q-24 -31 -61 -47.5
t-75 -16.5h-432q-54 0 -96 23.5zM327 429h100v-100h-100v100zM506 429h100v-100h-100v100z" />
    <glyph glyph-name="uni062A.init" unicode="&#x62a;" horiz-adv-x="361" arabic-form="initial" 
d="M-5 90h135q103 0 103 69q0 27 -9.5 81.5t-21.5 106.5l76 20q12 -51 22.5 -112t10.5 -95q0 -42 -20 -78.5t-61 -59t-100 -22.5h-135v90zM40 585h100v-100h-100v100zM219 585h100v-100h-100v100z" />
    <glyph glyph-name="uni062A.medi" unicode="&#x62a;" horiz-adv-x="409" arabic-form="medial" 
d="M280 308v-142q0 -41 20 -58.5t63 -17.5h51l5 -47l-5 -43h-51q-32 0 -67 16t-59 48q-24 -31 -61 -47.5t-75 -16.5h-106v90h106q51 0 76 21t25 67v130h78zM45 521h100v-100h-100v100zM224 521h100v-100h-100v100z" />
    <glyph glyph-name="uni062B.fina" unicode="&#x62b;" horiz-adv-x="961" arabic-form="final" 
d="M139 23.5q-42 23.5 -65.5 63t-23.5 87.5q0 14 1 21q5 46 33 162l73 -19q-2 -9 -15.5 -68.5t-15.5 -83.5q-1 -5 -1 -13q0 -39 28.5 -61t81.5 -22h432q51 0 76 21t25 67v130h78v-142q0 -41 20 -58.5t63 -17.5h37l5 -43l-5 -47h-37q-32 0 -67 16t-59 48q-24 -31 -61 -47.5
t-75 -16.5h-432q-54 0 -96 23.5zM321 414h100v-100h-100v100zM416 543h95v-95h-95v95zM505 414h100v-100h-100v100z" />
    <glyph glyph-name="uni062B.init" unicode="&#x62b;" horiz-adv-x="361" arabic-form="initial" 
d="M-5 90h135q103 0 103 69q0 27 -9.5 81.5t-21.5 106.5l76 20q12 -51 22.5 -112t10.5 -95q0 -42 -20 -78.5t-61 -59t-100 -22.5h-135v90zM41 586h100v-100h-100v100zM136 715h95v-95h-95v95zM225 586h100v-100h-100v100z" />
    <glyph glyph-name="uni062B.medi" unicode="&#x62b;" horiz-adv-x="409" arabic-form="medial" 
d="M280 308v-142q0 -41 20 -58.5t63 -17.5h51l5 -47l-5 -43h-51q-32 0 -67 16t-59 48q-24 -31 -61 -47.5t-75 -16.5h-106v90h106q51 0 76 21t25 67v130h78zM33 521h100v-100h-100v100zM128 650h95v-95h-95v95zM217 521h100v-100h-100v100z" />
    <glyph glyph-name="uni062C.fina" unicode="&#x62c;" horiz-adv-x="724" arabic-form="final" 
d="M567 -252h-246q-92 0 -159.5 32.5t-97.5 117.5q-14 39 -14 83q0 73 41.5 134.5t114.5 90.5l279 113q-102 42 -164.5 64.5t-84.5 22.5q-30 0 -46.5 -13.5t-31.5 -54.5l-76 24q46 134 154 134q27 0 73 -17.5t130 -55.5q26 -11 58.5 -25.5t73.5 -31.5l20 -95l-58 -24l6 -21
q17 -55 38 -84.5t49 -40.5t71 -11h32l5 -46l-5 -44h-32q-81 0 -132 44t-85 157l-6 21l-238 -100q-54 -23 -81 -59t-27 -79q0 -29 10 -56q18 -50 63 -70t120 -20h246v-90zM318 47h100v-100h-100v100z" />
    <glyph glyph-name="uni062C.init" unicode="&#x62c;" horiz-adv-x="637" arabic-form="initial" 
d="M-9 90h124q69 0 128.5 17.5t107 42.5t130.5 75q-117 49 -178.5 72t-85.5 23q-30 0 -46.5 -13.5t-31.5 -54.5l-76 24q46 134 154 134q34 0 104.5 -26t196.5 -79l49 -20l20 -95l-53 -33q-87 -55 -144 -86t-125.5 -51t-149.5 -20h-124v90zM238 -126h100v-100h-100v100z" />
    <glyph glyph-name="uni062C.medi" unicode="&#x62c;" horiz-adv-x="677" arabic-form="medial" 
d="M492 24q-41 24 -55 73q-82 -47 -157 -72t-165 -25h-124v90h124q69 0 128.5 17.5t107 42.5t130.5 75q-117 49 -178.5 72t-85.5 23q-30 0 -46.5 -13.5t-31.5 -54.5l-76 24q46 134 154 134q34 0 104.5 -26t196.5 -79l49 -20l20 -95l-90 -56q20 -44 86 -44h99l7 -45l-7 -45
h-99q-50 0 -91 24zM276 -125h100v-100h-100v100z" />
    <glyph glyph-name="uni062D.fina" unicode="&#x62d;" horiz-adv-x="724" arabic-form="final" 
d="M567 -252h-246q-92 0 -159.5 32.5t-97.5 117.5q-14 39 -14 83q0 73 41.5 134.5t114.5 90.5l279 113q-102 42 -164.5 64.5t-84.5 22.5q-30 0 -46.5 -13.5t-31.5 -54.5l-76 24q46 134 154 134q27 0 73 -17.5t130 -55.5q26 -11 58.5 -25.5t73.5 -31.5l20 -95l-58 -24l6 -21
q17 -55 38 -84.5t49 -40.5t71 -11h32l5 -46l-5 -44h-32q-81 0 -132 44t-85 157l-6 21l-238 -100q-54 -23 -81 -59t-27 -79q0 -29 10 -56q18 -50 63 -70t120 -20h246v-90z" />
    <glyph glyph-name="uni062D.init" unicode="&#x62d;" horiz-adv-x="637" arabic-form="initial" 
d="M-9 90h124q69 0 128.5 17.5t107 42.5t130.5 75q-117 49 -178.5 72t-85.5 23q-30 0 -46.5 -13.5t-31.5 -54.5l-76 24q46 134 154 134q34 0 104.5 -26t196.5 -79l49 -20l20 -95l-53 -33q-87 -55 -144 -86t-125.5 -51t-149.5 -20h-124v90z" />
    <glyph glyph-name="uni062D.medi" unicode="&#x62d;" horiz-adv-x="677" arabic-form="medial" 
d="M492 24q-41 24 -55 73q-82 -47 -157 -72t-165 -25h-124v90h124q69 0 128.5 17.5t107 42.5t130.5 75q-117 49 -178.5 72t-85.5 23q-30 0 -46.5 -13.5t-31.5 -54.5l-76 24q46 134 154 134q34 0 104.5 -26t196.5 -79l49 -20l20 -95l-90 -56q20 -44 86 -44h99l7 -45l-7 -45
h-99q-50 0 -91 24z" />
    <glyph glyph-name="uni062E.fina" unicode="&#x62e;" horiz-adv-x="724" arabic-form="final" 
d="M567 -252h-246q-92 0 -159.5 32.5t-97.5 117.5q-14 39 -14 83q0 73 41.5 134.5t114.5 90.5l279 113q-102 42 -164.5 64.5t-84.5 22.5q-30 0 -46.5 -13.5t-31.5 -54.5l-76 24q46 134 154 134q27 0 73 -17.5t130 -55.5q26 -11 58.5 -25.5t73.5 -31.5l20 -95l-58 -24l6 -21
q17 -55 38 -84.5t49 -40.5t71 -11h32l5 -46l-5 -44h-32q-81 0 -132 44t-85 157l-6 21l-238 -100q-54 -23 -81 -59t-27 -79q0 -29 10 -56q18 -50 63 -70t120 -20h246v-90zM211 699h100v-100h-100v100z" />
    <glyph glyph-name="uni062E.init" unicode="&#x62e;" horiz-adv-x="637" arabic-form="initial" 
d="M-9 90h124q69 0 128.5 17.5t107 42.5t130.5 75q-117 49 -178.5 72t-85.5 23q-30 0 -46.5 -13.5t-31.5 -54.5l-76 24q46 134 154 134q34 0 104.5 -26t196.5 -79l49 -20l20 -95l-53 -33q-87 -55 -144 -86t-125.5 -51t-149.5 -20h-124v90zM183 605h100v-100h-100v100z" />
    <glyph glyph-name="uni062E.medi" unicode="&#x62e;" horiz-adv-x="677" arabic-form="medial" 
d="M492 24q-41 24 -55 73q-82 -47 -157 -72t-165 -25h-124v90h124q69 0 128.5 17.5t107 42.5t130.5 75q-117 49 -178.5 72t-85.5 23q-30 0 -46.5 -13.5t-31.5 -54.5l-76 24q46 134 154 134q34 0 104.5 -26t196.5 -79l49 -20l20 -95l-90 -56q20 -44 86 -44h99l7 -45l-7 -45
h-99q-50 0 -91 24zM183 605h100v-100h-100v100z" />
    <glyph glyph-name="uni062F.fina" unicode="&#x62f;" horiz-adv-x="591" arabic-form="final" 
d="M391 342l36 -79l0.5 -0.5l0.5 -0.5q29 -65 50.5 -101t45.5 -53.5t56 -17.5h16l5 -48l-5 -42h-16q-44 0 -78.5 20.5t-65.5 59.5l-3 -5q-52 -75 -164 -75h-51q-54 0 -96 16.5t-72 37.5l41 76q30 -18 57 -29t70 -11h51q36 0 61 8.5t39 28.5q10 13 10 30q0 15 -11 42l-12 27
v0l-31 67q-44 94 -75 162l72 38q11 -26 69 -151z" />
    <glyph glyph-name="uni0630.fina" unicode="&#x630;" horiz-adv-x="591" arabic-form="final" 
d="M391 342l36 -79l0.5 -0.5l0.5 -0.5q29 -65 50.5 -101t45.5 -53.5t56 -17.5h16l5 -48l-5 -42h-16q-44 0 -78.5 20.5t-65.5 59.5l-3 -5q-52 -75 -164 -75h-51q-54 0 -96 16.5t-72 37.5l41 76q30 -18 57 -29t70 -11h51q36 0 61 8.5t39 28.5q10 13 10 30q0 15 -11 42l-12 27
v0l-31 67q-44 94 -75 162l72 38q11 -26 69 -151zM249 689h100v-100h-100v100z" />
    <glyph glyph-name="uni0631.fina" unicode="&#x631;" horiz-adv-x="415" arabic-form="final" 
d="M327 308v-142q0 -41 20 -58.5t63 -17.5h10l6 -46l-6 -44h-10q-51 0 -83 28v-2q0 -135 -68 -206.5t-196 -71.5h-63v90h63q100 0 143 43t43 145v282h78z" />
    <glyph glyph-name="uni0632.fina" unicode="&#x632;" horiz-adv-x="415" arabic-form="final" 
d="M327 308v-142q0 -41 20 -58.5t63 -17.5h10l6 -46l-6 -44h-10q-51 0 -83 28v-2q0 -135 -68 -206.5t-196 -71.5h-63v90h63q100 0 143 43t43 145v282h78zM232 548h100v-100h-100v100z" />
    <glyph glyph-name="uni0633.fina" unicode="&#x633;" horiz-adv-x="1316" arabic-form="final" 
d="M128 40q0 -91 44.5 -146.5t135.5 -55.5h107q68 0 106 15.5t54 49t16 91.5v314h78v-130q0 -48 20.5 -68t66.5 -20t66.5 20t20.5 68v130h78v-130q0 -47 23 -67.5t66 -20.5q45 0 64 20t19 68v130h78v-130q0 -49 20 -68.5t69 -19.5h61l5 -47l-5 -43h-61q-36 0 -68 16t-56 48
q-19 -30 -55 -47t-72 -17q-35 0 -68.5 16.5t-59.5 47.5q-20 -31 -53 -47.5t-72 -16.5q-49 0 -87 25v-31q0 -116 -61 -181t-193 -65h-107q-83 0 -141 41t-87.5 108t-29.5 143q0 122 68 248l66 -36q-56 -114 -56 -212z" />
    <glyph glyph-name="uni0633.init" unicode="&#x633;" horiz-adv-x="760" arabic-form="initial" 
d="M-5 90h61q48 0 68.5 21t20.5 67v130h78v-142q0 -40 19.5 -57.5t60.5 -18.5q48 1 68.5 21.5t20.5 66.5v130h78v-142q0 -40 19.5 -57.5t60.5 -18.5q42 1 62 19t20 50q0 26 -9.5 81.5t-21.5 106.5l76 20q12 -51 22.5 -112t10.5 -95q0 -40 -18.5 -77t-55 -60t-86.5 -23
q-32 0 -65.5 15.5t-57.5 48.5q-49 -64 -124 -64q-33 0 -67 17.5t-56 46.5q-24 -32 -56 -48t-68 -16h-61v90z" />
    <glyph glyph-name="uni0633.medi" unicode="&#x633;" horiz-adv-x="865" arabic-form="medial" 
d="M378 16.5q-32 -16.5 -71 -16.5q-36 0 -72 17t-55 47q-24 -32 -56 -48t-68 -16h-61v90h61q49 0 69 19.5t20 68.5v130h78v-130q0 -48 19.5 -68t64.5 -20q46 0 65.5 20t19.5 68v130h78v-130q0 -47 23 -67.5t66 -20.5q45 0 64 20t19 68v130h78v-130q0 -49 20 -68.5t69 -19.5
h61l5 -45l-5 -45h-61q-36 0 -68 16t-56 48q-19 -30 -55 -47t-72 -17q-35 0 -68.5 16.5t-59.5 47.5q-20 -31 -52 -47.5z" />
    <glyph glyph-name="uni0634.fina" unicode="&#x634;" horiz-adv-x="1316" arabic-form="final" 
d="M128 40q0 -91 44.5 -146.5t135.5 -55.5h107q68 0 106 15.5t54 49t16 91.5v314h78v-130q0 -48 20.5 -68t66.5 -20t66.5 20t20.5 68v130h78v-130q0 -47 23 -67.5t66 -20.5q45 0 64 20t19 68v130h78v-130q0 -49 20 -68.5t69 -19.5h61l5 -47l-5 -43h-61q-36 0 -68 16t-56 48
q-19 -30 -55 -47t-72 -17q-35 0 -68.5 16.5t-59.5 47.5q-20 -31 -53 -47.5t-72 -16.5q-49 0 -87 25v-31q0 -116 -61 -181t-193 -65h-107q-83 0 -141 41t-87.5 108t-29.5 143q0 122 68 248l66 -36q-56 -114 -56 -212zM738 536h100v-100h-100v100zM833 665h95v-95h-95v95z
M922 536h100v-100h-100v100z" />
    <glyph glyph-name="uni0634.init" unicode="&#x634;" horiz-adv-x="760" arabic-form="initial" 
d="M-5 90h61q48 0 68.5 21t20.5 67v130h78v-142q0 -40 19.5 -57.5t60.5 -18.5q48 1 68.5 21.5t20.5 66.5v130h78v-142q0 -40 19.5 -57.5t60.5 -18.5q42 1 62 19t20 50q0 26 -9.5 81.5t-21.5 106.5l76 20q12 -51 22.5 -112t10.5 -95q0 -40 -18.5 -77t-55 -60t-86.5 -23
q-32 0 -65.5 15.5t-57.5 48.5q-49 -64 -124 -64q-33 0 -67 17.5t-56 46.5q-24 -32 -56 -48t-68 -16h-61v90zM292 540h100v-100h-100v100zM387 669h95v-95h-95v95zM476 540h100v-100h-100v100z" />
    <glyph glyph-name="uni0634.medi" unicode="&#x634;" horiz-adv-x="865" arabic-form="medial" 
d="M378 16.5q-32 -16.5 -71 -16.5q-36 0 -72 17t-55 47q-24 -32 -56 -48t-68 -16h-61v90h61q49 0 69 19.5t20 68.5v130h78v-130q0 -48 19.5 -68t64.5 -20q46 0 65.5 20t19.5 68v130h78v-130q0 -47 23 -67.5t66 -20.5q45 0 64 20t19 68v130h78v-130q0 -49 20 -68.5t69 -19.5
h61l5 -45l-5 -45h-61q-36 0 -68 16t-56 48q-19 -30 -55 -47t-72 -17q-35 0 -68.5 16.5t-59.5 47.5q-20 -31 -52 -47.5zM293 537h100v-100h-100v100zM388 666h95v-95h-95v95zM477 537h100v-100h-100v100z" />
    <glyph glyph-name="uni0635.fina" unicode="&#x635;" horiz-adv-x="1313" arabic-form="final" 
d="M128 40q0 -91 44.5 -146.5t135.5 -55.5h107q68 0 106 15.5t54 49t16 91.5v314h78v-147q0 -29 9.5 -44.5t28.5 -21.5l112 172q49 77 97.5 110t115.5 33q56 0 96.5 -29t62 -77.5t21.5 -105.5q0 -40 -12 -73q23 -35 84 -35h32l7 -45l-7 -45h-32q-37 0 -72.5 15.5t-56.5 40.5
q-28 -27 -66.5 -41.5t-81.5 -14.5h-255q-51 0 -83 26v-32q0 -116 -61 -181t-193 -65h-107q-83 0 -141 41t-87.5 108t-29.5 143q0 122 68 248l66 -36q-56 -114 -56 -212zM1007 90q60 0 93.5 27.5t33.5 80.5q0 122 -102 122q-31 0 -52.5 -9.5t-42.5 -30.5t-54 -65
q-33 -42 -90 -125h214z" />
    <glyph glyph-name="uni0635.init" unicode="&#x635;" horiz-adv-x="840" arabic-form="initial" 
d="M287 98l44 68l66 101q49 77 97.5 110t115.5 33q56 0 96.5 -29t62 -77.5t21.5 -105.5q0 -60 -28 -105t-75 -69t-102 -24h-255q-27 0 -63 12.5t-62 41.5q-26 -27 -63 -40.5t-74 -13.5h-73v90h73q45 0 73 17.5t28 53.5v147h78v-147q0 -47 40 -63zM585 90q60 0 93.5 27.5
t33.5 80.5q0 122 -102 122q-31 0 -52.5 -9.5t-42.5 -30.5t-54 -65q-33 -42 -90 -125h214z" />
    <glyph glyph-name="uni0635.medi" unicode="&#x635;" horiz-adv-x="882" arabic-form="medial" 
d="M287 98l44 68l66 101q49 77 97.5 110t115.5 33q56 0 96.5 -29t62 -77.5t21.5 -105.5q0 -41 -15 -81q24 -27 78 -27h32l7 -45l-7 -45h-32q-36 0 -69.5 14.5t-55.5 37.5q-28 -25 -65 -38.5t-78 -13.5h-255q-27 0 -63 12.5t-62 41.5q-26 -27 -63 -40.5t-74 -13.5h-73v90h73
q45 0 73 17.5t28 53.5v147h78v-147q0 -47 40 -63zM585 90q60 0 93.5 27.5t33.5 80.5q0 122 -102 122q-31 0 -52.5 -9.5t-42.5 -30.5t-54 -65q-33 -42 -90 -125h214z" />
    <glyph glyph-name="uni0636.fina" unicode="&#x636;" horiz-adv-x="1313" arabic-form="final" 
d="M128 40q0 -91 44.5 -146.5t135.5 -55.5h107q68 0 106 15.5t54 49t16 91.5v314h78v-147q0 -29 9.5 -44.5t28.5 -21.5l112 172q49 77 97.5 110t115.5 33q56 0 96.5 -29t62 -77.5t21.5 -105.5q0 -40 -12 -73q23 -35 84 -35h32l7 -45l-7 -45h-32q-37 0 -72.5 15.5t-56.5 40.5
q-28 -27 -66.5 -41.5t-81.5 -14.5h-255q-51 0 -83 26v-32q0 -116 -61 -181t-193 -65h-107q-83 0 -141 41t-87.5 108t-29.5 143q0 122 68 248l66 -36q-56 -114 -56 -212zM1007 90q60 0 93.5 27.5t33.5 80.5q0 122 -102 122q-31 0 -52.5 -9.5t-42.5 -30.5t-54 -65
q-33 -42 -90 -125h214zM958 595h100v-100h-100v100z" />
    <glyph glyph-name="uni0636.init" unicode="&#x636;" horiz-adv-x="840" arabic-form="initial" 
d="M287 98l44 68l66 101q49 77 97.5 110t115.5 33q56 0 96.5 -29t62 -77.5t21.5 -105.5q0 -60 -28 -105t-75 -69t-102 -24h-255q-27 0 -63 12.5t-62 41.5q-26 -27 -63 -40.5t-74 -13.5h-73v90h73q45 0 73 17.5t28 53.5v147h78v-147q0 -47 40 -63zM585 90q60 0 93.5 27.5
t33.5 80.5q0 122 -102 122q-31 0 -52.5 -9.5t-42.5 -30.5t-54 -65q-33 -42 -90 -125h214zM553 602h100v-100h-100v100z" />
    <glyph glyph-name="uni0636.medi" unicode="&#x636;" horiz-adv-x="882" arabic-form="medial" 
d="M287 98l44 68l66 101q49 77 97.5 110t115.5 33q56 0 96.5 -29t62 -77.5t21.5 -105.5q0 -41 -15 -81q24 -27 78 -27h32l7 -45l-7 -45h-32q-36 0 -69.5 14.5t-55.5 37.5q-28 -25 -65 -38.5t-78 -13.5h-255q-27 0 -63 12.5t-62 41.5q-26 -27 -63 -40.5t-74 -13.5h-73v90h73
q45 0 73 17.5t28 53.5v147h78v-147q0 -47 40 -63zM585 90q60 0 93.5 27.5t33.5 80.5q0 122 -102 122q-31 0 -52.5 -9.5t-42.5 -30.5t-54 -65q-33 -42 -90 -125h214zM553 603h100v-100h-100v100z" />
    <glyph glyph-name="uni0637.fina" unicode="&#x637;" horiz-adv-x="762" arabic-form="final" 
d="M50 90h116l26 39l-1 520h78l1 -401l12 19q51 77 98.5 110t114.5 33q56 0 96.5 -29t62 -77.5t21.5 -105.5q0 -47 -17 -84q24 -24 75 -24h32l7 -45l-7 -45h-32q-34 0 -67.5 13.5t-55.5 35.5q-28 -24 -64 -36.5t-76 -12.5h-420v90zM470 90q60 0 93.5 27.5t33.5 80.5
q0 122 -102 122q-32 0 -54 -9t-43 -31t-52 -65l-89 -125h213z" />
    <glyph glyph-name="uni0637.init" unicode="&#x637;" horiz-adv-x="670" arabic-form="initial" 
d="M-5 90h116l26 39l-1 520h78l1 -401l12 19q51 77 98.5 110t114.5 33q56 0 96.5 -29t62 -77.5t21.5 -105.5q0 -60 -28 -105t-75 -69t-102 -24h-420v90zM415 90q60 0 93.5 27.5t33.5 80.5q0 122 -102 122q-32 0 -54 -9t-43 -31t-52 -65l-89 -125h213z" />
    <glyph glyph-name="uni0637.medi" unicode="&#x637;" horiz-adv-x="706" arabic-form="medial" 
d="M-5 90h116l26 39l-1 520h78l1 -401l12 19q51 77 98.5 110t114.5 33q56 0 96.5 -29t62 -77.5t21.5 -105.5q0 -46 -17 -85q25 -23 74 -23h32l7 -45l-7 -45h-32q-34 0 -67 13.5t-55 35.5q-28 -24 -64 -36.5t-76 -12.5h-420v90zM415 90q60 0 93.5 27.5t33.5 80.5
q0 122 -102 122q-32 0 -54 -9t-43 -31t-52 -65l-89 -125h213z" />
    <glyph glyph-name="uni0638.fina" unicode="&#x638;" horiz-adv-x="762" arabic-form="final" 
d="M50 90h116l26 39l-1 520h78l1 -401l12 19q51 77 98.5 110t114.5 33q56 0 96.5 -29t62 -77.5t21.5 -105.5q0 -47 -17 -84q24 -24 75 -24h32l7 -45l-7 -45h-32q-34 0 -67.5 13.5t-55.5 35.5q-28 -24 -64 -36.5t-76 -12.5h-420v90zM470 90q60 0 93.5 27.5t33.5 80.5
q0 122 -102 122q-32 0 -54 -9t-43 -31t-52 -65l-89 -125h213zM434 644h100v-100h-100v100z" />
    <glyph glyph-name="uni0638.init" unicode="&#x638;" horiz-adv-x="670" arabic-form="initial" 
d="M-5 90h116l26 39l-1 520h78l1 -401l12 19q51 77 98.5 110t114.5 33q56 0 96.5 -29t62 -77.5t21.5 -105.5q0 -60 -28 -105t-75 -69t-102 -24h-420v90zM415 90q60 0 93.5 27.5t33.5 80.5q0 122 -102 122q-32 0 -54 -9t-43 -31t-52 -65l-89 -125h213zM391 644h100v-100h-100
v100z" />
    <glyph glyph-name="uni0638.medi" unicode="&#x638;" horiz-adv-x="706" arabic-form="medial" 
d="M-5 90h116l26 39l-1 520h78l1 -401l12 19q51 77 98.5 110t114.5 33q56 0 96.5 -29t62 -77.5t21.5 -105.5q0 -46 -17 -85q25 -23 74 -23h32l7 -45l-7 -45h-32q-34 0 -67 13.5t-55 35.5q-28 -24 -64 -36.5t-76 -12.5h-420v90zM415 90q60 0 93.5 27.5t33.5 80.5
q0 122 -102 122q-32 0 -54 -9t-43 -31t-52 -65l-89 -125h213zM404 644h100v-100h-100v100z" />
    <glyph glyph-name="uni0639.fina" unicode="&#x639;" horiz-adv-x="568" arabic-form="final" 
d="M361.5 16.5q-38.5 16.5 -62.5 40t-49 59.5l-9 12q-58 -34 -85.5 -69t-27.5 -76q0 -27 10 -54q18 -52 62.5 -71.5t118.5 -19.5h184v-90h-184q-90 0 -158 33t-97 118q-13 38 -13 77q0 65 37 123t106 102l-30 45l-80 122l49 90h86h179q56 0 88.5 -36.5t32.5 -85.5
q0 -30 -13 -56.5t-38 -43.5l-139 -95q25 -27 60.5 -39t96.5 -12h87l6 -45l-6 -45h-119q-54 0 -92.5 16.5zM234 283l46 -73l141 98q20 14 20 34q0 13 -11.5 22.5t-31.5 9.5h-142h-78z" />
    <glyph glyph-name="uni0639.init" unicode="&#x639;" horiz-adv-x="522" arabic-form="initial" 
d="M472 0h-477v90h162q-53 53 -53 125q0 50 24 91.5t65 66t89 24.5q45 0 75 -13t75 -44l21 -14l-39 -64q-57 31 -79.5 40.5t-52.5 9.5q-41 0 -70.5 -28t-29.5 -69q0 -55 48.5 -90t148.5 -35h93v-90z" />
    <glyph glyph-name="uni0639.medi" unicode="&#x639;" horiz-adv-x="577" arabic-form="medial" 
d="M-5 90h46q129 0 192 23l-72 96q-46 62 -72 95l64 101h255q50 0 81.5 -35t31.5 -82q0 -54 -41 -91l-106 -95q31 -12 85 -12h123l7 -47l-7 -43h-123q-54 0 -93 12t-70 35q-42 -24 -101.5 -35.5t-153.5 -11.5h-46v90zM239 236q35 -48 67 -87q21 19 61 59q31 31 61 58
q15 14 15 29q0 12 -10.5 19.5t-30.5 7.5h-231q22 -26 68 -86z" />
    <glyph glyph-name="uni063A.fina" unicode="&#x63a;" horiz-adv-x="568" arabic-form="final" 
d="M361.5 16.5q-38.5 16.5 -62.5 40t-49 59.5l-9 12q-58 -34 -85.5 -69t-27.5 -76q0 -27 10 -54q18 -52 62.5 -71.5t118.5 -19.5h184v-90h-184q-90 0 -158 33t-97 118q-13 38 -13 77q0 65 37 123t106 102l-30 45l-80 122l49 90h86h179q56 0 88.5 -36.5t32.5 -85.5
q0 -30 -13 -56.5t-38 -43.5l-139 -95q25 -27 60.5 -39t96.5 -12h87l6 -45l-6 -45h-119q-54 0 -92.5 16.5zM234 283l46 -73l141 98q20 14 20 34q0 13 -11.5 22.5t-31.5 9.5h-142h-78zM269 665h100v-100h-100v100z" />
    <glyph glyph-name="uni063A.init" unicode="&#x63a;" horiz-adv-x="522" arabic-form="initial" 
d="M472 0h-477v90h162q-53 53 -53 125q0 50 24 91.5t65 66t89 24.5q45 0 75 -13t75 -44l21 -14l-39 -64q-57 31 -79.5 40.5t-52.5 9.5q-41 0 -70.5 -28t-29.5 -69q0 -55 48.5 -90t148.5 -35h93v-90zM237 599h100v-100h-100v100z" />
    <glyph glyph-name="uni063A.medi" unicode="&#x63a;" horiz-adv-x="577" arabic-form="medial" 
d="M-5 90h46q129 0 192 23l-72 96q-46 62 -72 95l64 101h255q50 0 81.5 -35t31.5 -82q0 -54 -41 -91l-106 -95q31 -12 85 -12h123l7 -47l-7 -43h-123q-54 0 -93 12t-70 35q-42 -24 -101.5 -35.5t-153.5 -11.5h-46v90zM239 236q35 -48 67 -87q21 19 61 59q31 31 61 58
q15 14 15 29q0 12 -10.5 19.5t-30.5 7.5h-231q22 -26 68 -86zM250 604h100v-100h-100v100z" />
    <glyph glyph-name="uni0641.fina" unicode="&#x641;" horiz-adv-x="935" arabic-form="final" 
d="M493 232q0 54 25 98.5t67.5 70.5t93.5 26q49 0 91 -26t67 -71t25 -98q0 -78 -79 -137q53 -5 108 -5h48l6 -45l-6 -45h-48q-41 0 -99.5 10.5t-113.5 30.5q-47 -17 -86 -25t-119.5 -12t-237.5 -4q-54 0 -96 23.5t-65.5 63t-23.5 87.5q0 14 1 21q5 46 33 162l73 -19
q-2 -9 -15.5 -68.5t-15.5 -83.5q-1 -5 -1 -13q0 -39 28.5 -61t81.5 -22q186 0 247.5 1.5t89.5 4.5q-79 57 -79 136zM597.5 165q26.5 -29 78.5 -47q53 18 80.5 47t27.5 67q0 47 -30 76t-75 29q-47 0 -77.5 -29t-30.5 -76q0 -38 26.5 -67zM626 603h100v-100h-100v100z" />
    <glyph glyph-name="uni0641.init" unicode="&#x641;" horiz-adv-x="450" arabic-form="initial" 
d="M-5 90h160q57 0 89.5 6.5t49 21t23.5 41.5h-84q-46 0 -84 21.5t-60.5 60t-22.5 88.5t23 93t61.5 68.5t82.5 25.5q48 0 86 -25.5t59.5 -68.5t21.5 -93v-102q0 -76 -22 -125.5t-75.5 -75.5t-147.5 -26h-160v90zM233 249h89v80q0 46 -22.5 71.5t-66.5 25.5q-41 0 -65 -26.5
t-24 -70.5q0 -80 89 -80zM182 704h100v-100h-100v100z" />
    <glyph glyph-name="uni0641.medi" unicode="&#x641;" horiz-adv-x="514" arabic-form="medial" 
d="M-9 90h53q59 0 108 6q-79 57 -79 136q0 54 25 98.5t67.5 70.5t93.5 26q49 0 91 -26t67 -71t25 -98q0 -78 -79 -137q53 -5 108 -5h48l6 -45l-6 -45h-48q-41 0 -99.5 10.5t-113.5 30.5q-56 -20 -114.5 -30.5t-99.5 -10.5h-53v90zM177.5 165q26.5 -29 78.5 -47
q53 18 80.5 47t27.5 67q0 47 -30 76t-75 29q-47 0 -77.5 -29t-30.5 -76q0 -38 26.5 -67zM208 603h100v-100h-100v100z" />
    <glyph glyph-name="uni0642.fina" unicode="&#x642;" horiz-adv-x="722" arabic-form="final" 
d="M167.5 213.5q-19.5 -44.5 -29.5 -90t-10 -89.5q0 -72 16 -114.5t55.5 -62.5t109.5 -20h107q70 0 108.5 16.5t53.5 50.5t15 90v6h-110q-84 0 -135.5 50t-51.5 140q0 61 23.5 111t66 79t96.5 29q57 0 100 -28t66 -77.5t23 -113.5v-100h56l6 -46l-6 -44h-56v-6
q0 -114 -60.5 -180.5t-194.5 -66.5h-107q-134 0 -196.5 75t-62.5 212q0 77 18 136t50 131l72 -36q-3 -7 -22.5 -51.5zM331 594h100v-100h-100v100zM400 112.5q26 -22.5 83 -22.5h110v100q0 61 -28 95.5t-83 34.5q-51 0 -79.5 -35.5t-28.5 -94.5q0 -55 26 -77.5zM510 594h100
v-100h-100v100z" />
    <glyph glyph-name="uni0642.init" unicode="&#x642;" horiz-adv-x="450" arabic-form="initial" 
d="M-5 90h160q57 0 89.5 6.5t49 21t23.5 41.5h-84q-46 0 -84 21.5t-60.5 60t-22.5 88.5t23 93t61.5 68.5t82.5 25.5q48 0 86 -25.5t59.5 -68.5t21.5 -93v-102q0 -76 -22 -125.5t-75.5 -75.5t-147.5 -26h-160v90zM90 704h100v-100h-100v100zM233 249h89v80q0 46 -22.5 71.5
t-66.5 25.5q-41 0 -65 -26.5t-24 -70.5q0 -80 89 -80zM269 704h100v-100h-100v100z" />
    <glyph glyph-name="uni0642.medi" unicode="&#x642;" horiz-adv-x="514" arabic-form="medial" 
d="M-9 90h53q59 0 108 6q-79 57 -79 136q0 54 25 98.5t67.5 70.5t93.5 26q49 0 91 -26t67 -71t25 -98q0 -78 -79 -137q53 -5 108 -5h48l6 -45l-6 -45h-48q-41 0 -99.5 10.5t-113.5 30.5q-56 -20 -114.5 -30.5t-99.5 -10.5h-53v90zM120 601h100v-100h-100v100zM177.5 165
q26.5 -29 78.5 -47q53 18 80.5 47t27.5 67q0 47 -30 76t-75 29q-47 0 -77.5 -29t-30.5 -76q0 -38 26.5 -67zM299 601h100v-100h-100v100z" />
    <glyph glyph-name="uni0643.fina" unicode="&#x643;" horiz-adv-x="857" arabic-form="final" 
d="M139 23.5q-42 23.5 -65.5 63t-23.5 87.5q0 14 1 21q5 46 33 162l73 -19q-2 -9 -15.5 -68.5t-15.5 -83.5q-1 -5 -1 -13q0 -39 28.5 -61t81.5 -22h340q45 0 67.5 19.5t22.5 68.5v471h77v-471q0 -49 19.5 -68.5t63.5 -19.5h37l5 -45l-5 -45h-37q-32 0 -64 15.5t-55 46.5
q-24 -31 -58 -46.5t-66 -15.5h-347q-54 0 -96 23.5zM337 271h67q17 0 17 6q0 5 -8 13l-64 63l9 40l105 48l17 -41l-79 -36l42 -43q17 -17 17 -42q0 -22 -15 -38t-41 -16h-72z" />
    <glyph glyph-name="uni0643.init" unicode="&#x643;" horiz-adv-x="447" arabic-form="initial" 
d="M464 599l-315 -139l182 -185q25 -26 38 -57t13 -64q0 -40 -19.5 -75.5t-56.5 -57t-88 -21.5h-223v90h223q44 0 67.5 16t23.5 42q0 31 -34 65l-211 212l24 105l344 151z" />
    <glyph glyph-name="uni0643.medi" unicode="&#x643;" horiz-adv-x="534" arabic-form="medial" 
d="M464 599l-315 -139l146 -185l3 -4q70 -90 99.5 -123.5t55 -45.5t67.5 -12h19l5 -45l-5 -45h-19q-61 0 -100.5 22t-88.5 80q-14 -46 -52 -74t-97 -28h-187v90h187q43 0 65.5 15t22.5 40q0 31 -31 68l-175 212l24 105l344 151z" />
    <glyph glyph-name="uni0644.fina" unicode="&#x644;" horiz-adv-x="712" arabic-form="final" 
d="M167 -211q-58 41 -87.5 108t-29.5 143q0 49 15.5 106t36.5 102l69 -34q-18 -38 -30.5 -86t-12.5 -88q0 -91 44.5 -146.5t135.5 -55.5h49q68 0 106 15.5t54 49t16 91.5l-1 655h78l1 -474q0 -48 23.5 -66.5t64.5 -18.5h15l6 -47l-6 -43h-15q-51 0 -88 28v-34
q0 -116 -61 -181t-193 -65h-49q-83 0 -141 41z" />
    <glyph glyph-name="uni0644.init" unicode="&#x644;" horiz-adv-x="252" arabic-form="initial" 
d="M176.5 77q-25.5 -40 -62.5 -58.5t-72 -18.5h-47v90h40q45 0 67.5 19.5t22.5 68.5v471h77v-471q0 -61 -25.5 -101z" />
    <glyph glyph-name="uni0644.medi" unicode="&#x644;" horiz-adv-x="317" arabic-form="medial" 
d="M-5 90h40q45 0 67.5 19.5t22.5 68.5v471h77v-471v-12v0q0 -41 20 -58.5t63 -17.5h37l5 -46l-5 -44h-37q-32 0 -64 15.5t-55 46.5q-24 -31 -58 -46.5t-66 -15.5h-47v90z" />
    <glyph glyph-name="uni0645.fina" unicode="&#x645;" horiz-adv-x="627" arabic-form="final" 
d="M637 45l-5 -45h-10q-64 0 -98 42q-21 -33 -50 -48.5t-61 -15.5q-35 0 -85 16t-148 53l-52 20v-379h-78v412l80 61l45 -18l29 104q22 78 68 122.5t111 44.5q52 0 92 -30.5t62 -82t22 -111.5q0 -42 7 -63.5t20 -29t36 -7.5h10zM413 68q34 0 51 25.5t17 96.5q0 63 -25 98.5
t-73 35.5q-36 0 -62 -25t-41 -76l-30 -109q127 -46 163 -46z" />
    <glyph glyph-name="uni0645.init" unicode="&#x645;" horiz-adv-x="518" arabic-form="initial" 
d="M-5 90h28q47 0 58 42l32 115q22 78 68 122.5t111 44.5q52 0 92 -30.5t62 -82t22 -111.5q0 -74 -21 -121.5t-54.5 -69t-70.5 -21.5q-38 0 -76 14.5t-120 56.5q-20 -23 -47 -36t-56 -13h-28v90zM265 80q30 -12 57 -12q34 0 51 25.5t17 96.5q0 63 -25 98.5t-73 35.5
q-36 0 -62.5 -25t-40.5 -76l-26 -94q72 -37 102 -49z" />
    <glyph glyph-name="uni0645.medi" unicode="&#x645;" horiz-adv-x="536" arabic-form="medial" 
d="M-5 90h28q47 0 58 42l32 115q22 78 68 122.5t111 44.5q52 0 92 -30.5t62 -82t22 -111.5q0 -42 7 -63.5t20 -29t36 -7.5h10l5 -45l-5 -45h-10q-64 0 -98 42q-21 -33 -50 -48.5t-61 -15.5q-38 0 -76 14.5t-120 56.5q-20 -23 -47 -36t-56 -13h-28v90zM265 80q30 -12 57 -12
q34 0 51 25.5t17 96.5q0 63 -25 98.5t-73 35.5q-36 0 -62.5 -25t-40.5 -76l-26 -94q72 -37 102 -49z" />
    <glyph glyph-name="uni0646.fina" unicode="&#x646;" horiz-adv-x="767" arabic-form="final" 
d="M669 28v-34q0 -116 -61 -181t-193 -65h-107q-83 0 -141 41t-87.5 108t-29.5 143q0 122 68 248l66 -36q-56 -114 -56 -212q0 -91 44.5 -146.5t135.5 -55.5h107q68 0 106 15.5t54 49t16 91.5v314h78v-133q0 -48 23.5 -66.5t64.5 -18.5h15l6 -47l-6 -43h-15q-53 0 -88 28z
M334 311h100v-100h-100v100z" />
    <glyph glyph-name="uni0646.init" unicode="&#x646;" horiz-adv-x="317" arabic-form="initial" 
d="M-5 90h110q43 0 64 18.5t21 50.5q0 26 -9.5 81.5t-21.5 106.5l76 20q12 -51 22.5 -112t10.5 -95q0 -41 -19 -78t-56 -59.5t-88 -22.5h-110v90zM103 585h100v-100h-100v100z" />
    <glyph glyph-name="uni0646.medi" unicode="&#x646;" horiz-adv-x="376" arabic-form="medial" 
d="M261 308v-142q0 -41 20 -58.5t63 -17.5h37l5 -46l-5 -44h-37q-32 0 -67 16t-59 48q-24 -31 -61 -47.5t-75 -16.5h-87v90h87q51 0 76 21t25 67v130h78zM74 521h100v-100h-100v100z" />
    <glyph glyph-name="uni0647.fina" unicode="&#x647;" horiz-adv-x="608" arabic-form="final" 
d="M440 198q26 -108 153 -108h20l5 -45l-5 -45h-20q-62 0 -121 29.5t-91 96.5q-26 -42 -65 -64t-84 -22q-47 0 -93 26q-42 23 -65.5 67.5t-23.5 94.5q0 52 24 92q17 28 37 47t62.5 41.5t121.5 55.5l-11 50l76 20zM127 224q0 -24 13 -46t36 -36q21 -14 52 -14q27 0 52.5 12
t43.5 34q10 13 15 27t5 34q0 14 -3 35l-26 111q-81 -28 -119.5 -54.5t-53.5 -52.5q-15 -25 -15 -50z" />
    <glyph glyph-name="uni0647.init" unicode="&#x647;" horiz-adv-x="714" arabic-form="initial" 
d="M479 491l152 -234q33 -51 33 -104q0 -54 -36 -95q-28 -31 -80 -45.5t-136 -14.5q-82 0 -163 29q-82 -27 -176 -27h-78v90h93q18 0 48 2q-69 59 -69 139q0 54 25 99t67.5 71t93.5 26q49 0 91 -26t67 -71t25 -98q0 -83 -68 -141q10 -1 32 -1q146 0 174 29q12 12 12 31
q0 23 -21 57l-152 236zM246 111q53 18 82.5 47t29.5 68q0 49 -28.5 80t-77.5 31t-78 -31.5t-29 -79.5q0 -79 101 -115z" />
    <glyph glyph-name="uni0647.medi" unicode="&#x647;" horiz-adv-x="536" arabic-form="medial" 
d="M-5 90h52v98q0 109 50.5 172.5t140.5 63.5q51 0 94.5 -26t69 -72.5t25.5 -104.5q0 -19 -3 -40q-15 -93 -100 -136.5t-199 -44.5v-6q0 -78 48 -114t152 -41v70q0 55 23.5 96.5t59.5 63t73 21.5h60l5 -45l-5 -45h-60q-33 0 -55.5 -22.5t-22.5 -68.5v-82l-65 -79
q-130 0 -210.5 62.5t-80.5 183.5v6h-52v90zM278 117q60 26 68 78q3 17 3 31q0 51 -30.5 79.5t-80.5 28.5q-60 0 -86.5 -34t-26.5 -112v-98q93 1 153 27z" />
    <glyph glyph-name="uni0648.fina" unicode="&#x648;" horiz-adv-x="476" arabic-form="final" 
d="M278.5 -146.5q38.5 16.5 53.5 50.5t15 90v6h-110q-84 0 -135.5 50t-51.5 140q0 61 23.5 111t66 79t96.5 29q57 0 100 -28t66 -77.5t23 -113.5v-100h56l6 -46l-6 -44h-56v-6q0 -114 -60.5 -180.5t-194.5 -66.5h-107v90h107q70 0 108.5 16.5zM154 112.5q26 -22.5 83 -22.5
h110v100q0 61 -28 95.5t-83 34.5q-51 0 -79.5 -35.5t-28.5 -94.5q0 -55 26 -77.5z" />
    <glyph glyph-name="uni0649.fina" unicode="&#x649;" horiz-adv-x="755" arabic-form="final" 
d="M169.5 -211q-58.5 41 -89 108.5t-30.5 144.5q0 107 66 255l72 -38q-60 -129 -60 -215q0 -91 45.5 -148.5t133.5 -57.5h108q76 0 123 23t47 58q0 29 -36 49q-57 32 -193 32v90h404l6 -47l-6 -43h-127q15 -12 23 -32t8 -44q0 -43 -25 -83t-80.5 -66.5t-143.5 -26.5h-108
q-79 0 -137.5 41z" />
    <glyph glyph-name="uni064A.fina" unicode="&#x64a;" horiz-adv-x="755" arabic-form="final" 
d="M169.5 -211q-58.5 41 -89 108.5t-30.5 144.5q0 107 66 255l72 -38q-60 -129 -60 -215q0 -91 45.5 -148.5t133.5 -57.5h108q76 0 123 23t47 58q0 29 -36 49q-57 32 -193 32v90h404l6 -47l-6 -43h-127q15 -12 23 -32t8 -44q0 -43 -25 -83t-80.5 -66.5t-143.5 -26.5h-108
q-79 0 -137.5 41zM219 -310h100v-100h-100v100zM398 -310h100v-100h-100v100z" />
    <glyph glyph-name="uni064A.init" unicode="&#x64a;" horiz-adv-x="361" arabic-form="initial" 
d="M-5 90h135q103 0 103 69q0 27 -9.5 81.5t-21.5 106.5l76 20q12 -51 22.5 -112t10.5 -95q0 -42 -20 -78.5t-61 -59t-100 -22.5h-135v90zM-44 -153h100v-100h-100v100zM135 -153h100v-100h-100v100z" />
    <glyph glyph-name="uni064A.medi" unicode="&#x64a;" horiz-adv-x="409" arabic-form="medial" 
d="M280 308v-142q0 -41 20 -58.5t63 -17.5h51l5 -47l-5 -43h-51q-32 0 -67 16t-59 48q-24 -31 -61 -47.5t-75 -16.5h-106v90h106q51 0 76 21t25 67v130h78zM-37 -153h100v-100h-100v100zM142 -153h100v-100h-100v100z" />
    <glyph glyph-name=".notdef" horiz-adv-x="255" 
d="M38 429h179v-433h-179v433zM208 4v417h-161v-417h161z" />
    <glyph glyph-name=".null" 
 />
    <glyph glyph-name="nonmarkingreturn" unicode="&#xd;" horiz-adv-x="255" 
 />
    <glyph glyph-name="space" unicode=" " horiz-adv-x="250" 
 />
    <glyph glyph-name="exclam" unicode="!" horiz-adv-x="270" 
d="M177 201h-72l-8 510h87zM98.5 82.5q17.5 17.5 42.5 17.5t42.5 -17.5t17.5 -42.5t-17.5 -42.5t-42.5 -17.5t-42.5 17.5t-17.5 42.5t17.5 42.5z" />
    <glyph glyph-name="quotedbl" unicode="&#x22;" horiz-adv-x="269" 
d="M255 696l-11 -180h-63l1 193v41h73v-54zM51 709v41h73v-54l-11 -180h-63z" />
    <glyph glyph-name="numbersign" unicode="#" horiz-adv-x="589" 
d="M139 200h-117v67h130l33 173h-126v68h139l40 203h70l-40 -203h129l40 203h70l-40 -203h100v-68h-113l-33 -173h109v-67h-122l-39 -200h-71l40 200h-129l-39 -200h-70zM350 267l34 173h-129l-34 -173h129z" />
    <glyph glyph-name="dollar" unicode="$" horiz-adv-x="562" 
d="M105.5 57q-51.5 57 -51.5 152h90q0 -67 35.5 -104t101.5 -37q64 0 100.5 31t36.5 84q0 29 -12 51t-39 41q-22 15 -43 24t-50 18q-34 11 -57 20t-49 27q-45 30 -66 69.5t-21 93.5q0 80 46.5 131t128.5 61v107h73v-107q83 -11 128 -69.5t45 -157.5h-90q0 69 -32.5 109.5
t-88.5 40.5q-58 0 -89 -30t-31 -84q0 -28 10 -49t32 -38q18 -14 40.5 -23.5t66.5 -26.5q56 -20 79 -32q57 -31 83 -73t26 -102q0 -82 -49.5 -132.5t-138.5 -59.5v-94h-72v94q-91 8 -142.5 65z" />
    <glyph glyph-name="percent" unicode="%" horiz-adv-x="732" 
d="M92 679.5q41 41.5 105 41.5q65 0 105 -41.5t40 -108.5v-34q0 -65 -40.5 -105.5t-103.5 -40.5q-65 0 -106 41t-41 108v34q0 64 41 105.5zM140.5 473.5q21.5 -24.5 57.5 -24.5q34 0 55.5 24.5t21.5 65.5v35q0 39 -21 63.5t-57 24.5t-57 -25t-21 -65v-35q0 -39 21.5 -63.5z
M514 642l51 -33l-347 -555l-51 32zM397 174q0 64 41 105.5t105 41.5t105 -41t41 -109v-35q0 -64 -41 -105t-104 -41q-65 0 -106 41t-41 108v35zM486.5 72.5q21.5 -24.5 57.5 -24.5q35 0 56 24.5t21 65.5v36q0 39 -21 63.5t-57 24.5q-35 0 -56.5 -24.5t-21.5 -65.5v-36
q0 -39 21.5 -63.5z" />
    <glyph glyph-name="ampersand" unicode="&#x26;" horiz-adv-x="622" 
d="M124 476.5q-17 35.5 -17 71.5q0 81 48 127t130 46q48 0 86.5 -19.5t60.5 -54t22 -77.5q0 -44 -22 -80t-76 -75l-52 -39l158 -189q34 62 34 141h81q0 -123 -60 -206l102 -122h-109l-47 56q-36 -32 -84 -49t-100 -17q-69 0 -121 25t-80.5 70.5t-28.5 105.5q0 53 29.5 96
t108.5 98q-46 56 -63 91.5zM177 98.5q37 -34.5 102 -34.5q73 0 132 55l-174 207q-52 -38 -74.5 -70.5t-22.5 -64.5q0 -58 37 -92.5zM255 434l58 40q33 24 45.5 45t12.5 51q0 33 -24.5 54.5t-61.5 21.5q-39 0 -63 -26.5t-24 -68.5q0 -46 57 -117z" />
    <glyph glyph-name="quotesingle" unicode="'" horiz-adv-x="174" 
d="M124 696l-11 -180h-63l1 193v41h73v-54z" />
    <glyph glyph-name="parenleft" unicode="(" horiz-adv-x="379" 
d="M110 257q0 -153 63.5 -263t150.5 -186l-47 -58q-103 82 -175.5 210.5t-72.5 296.5q0 173 71.5 298t176.5 209l47 -58q-214 -186 -214 -449z" />
    <glyph glyph-name="parenright" unicode=")" horiz-adv-x="379" 
d="M278.5 555q71.5 -125 71.5 -298q0 -168 -72.5 -296.5t-175.5 -210.5l-47 58q87 76 150.5 186t63.5 263q0 263 -214 449l47 58q105 -84 176.5 -209z" />
    <glyph glyph-name="asterisk" unicode="*" horiz-adv-x="431" 
d="M161 480l-147 44l22 74l148 -55l-5 168h75l-5 -170l145 53l23 -74l-150 -44l96 -133l-60 -46l-91 141l-88 -137l-61 44z" />
    <glyph glyph-name="plus" unicode="+" horiz-adv-x="567" 
d="M327 381h198v-85h-198v-225h-91v225h-198v85h198v208h91v-208z" />
    <glyph glyph-name="comma" unicode="," horiz-adv-x="196" 
d="M62 25v82h88v-71q0 -48 -24 -98t-61 -80l-51 36q47 65 48 131z" />
    <glyph glyph-name="hyphen" unicode="-" horiz-adv-x="276" 
d="M256 265h-238v74h238v-74z" />
    <glyph glyph-name="period" unicode="." horiz-adv-x="294" 
d="M104.5 17.5q-17.5 17.5 -17.5 42.5t17.5 42.5t42.5 17.5t42.5 -17.5t17.5 -42.5t-17.5 -42.5t-42.5 -17.5t-42.5 17.5z" />
    <glyph glyph-name="slash" unicode="/" horiz-adv-x="412" 
d="M302 711h85l-296 -772h-86z" />
    <glyph glyph-name="zero" unicode="0" horiz-adv-x="562" 
d="M450 67q-55 -77 -169 -77q-113 0 -168 75t-57 226v121q0 157 55 233t169 76t168.5 -73.5t56.5 -227.5v-117q0 -159 -55 -236zM179.5 119.5q33.5 -55.5 101.5 -55.5q67 0 99.5 52t34.5 163v148q0 114 -32.5 166.5t-102.5 52.5q-69 0 -101 -51.5t-33 -160.5v-145
q0 -114 33.5 -169.5z" />
    <glyph glyph-name="one" unicode="1" horiz-adv-x="562" 
d="M356 0h-91v602l-182 -67v82l259 97h14v-714z" />
    <glyph glyph-name="two" unicode="2" horiz-adv-x="562" 
d="M525 0h-466v65l246 273q55 62 75.5 101t20.5 81q0 55 -33.5 90.5t-89.5 35.5q-68 0 -105 -38t-37 -107h-91q0 65 29 115t81.5 77.5t122.5 27.5q99 0 156.5 -52t57.5 -139q0 -104 -134 -250l-190 -206h357v-74z" />
    <glyph glyph-name="three" unicode="3" horiz-adv-x="562" 
d="M190 399h68q64 1 101 34t37 88q0 125 -125 125q-59 0 -93.5 -33t-34.5 -89h-91q0 56 28 101t78 70.5t113 25.5q101 0 158 -53.5t57 -147.5q0 -48 -30.5 -91t-81.5 -64q59 -19 91 -62t32 -105q0 -63 -28 -110t-79 -72.5t-118 -25.5q-66 0 -117.5 24.5t-80 69.5t-28.5 104
h91q0 -57 36.5 -90.5t97.5 -33.5q66 0 100.5 34t34.5 98q0 62 -38 95.5t-110 34.5h-68v73z" />
    <glyph glyph-name="four" unicode="4" horiz-adv-x="562" 
d="M440 239h99v-74h-99v-165h-90v165h-324v53l318 493h96v-472zM350 239v348l-11 -19l-211 -329h222z" />
    <glyph glyph-name="five" unicode="5" horiz-adv-x="562" 
d="M101 356l36 355h364v-84h-288l-21 -193q53 30 119 30q97 0 154 -64t57 -173q0 -111 -60 -174t-165 -63q-94 0 -154 52.5t-68 144.5h86q8 -60 43 -91.5t93 -31.5q63 0 99 43t36 119q0 71 -39 114t-103 43q-32 0 -58 -9.5t-59 -35.5z" />
    <glyph glyph-name="six" unicode="6" horiz-adv-x="562" 
d="M231.5 576q-64.5 -61 -74.5 -174q55 64 153 64q61 0 107.5 -30t71.5 -83t25 -121q0 -73 -27 -127.5t-77 -84.5t-117 -30t-119 35.5t-81 99.5t-29 146v34q0 76 14 143q26 128 107 195.5t212 67.5h17v-76q-118 2 -182.5 -59zM173 158.5q18 -44.5 49.5 -69t70.5 -24.5
q60 0 95.5 45t35.5 118t-35 118t-94 45q-46 0 -85.5 -28t-54.5 -70v-33q0 -57 18 -101.5z" />
    <glyph glyph-name="seven" unicode="7" horiz-adv-x="562" 
d="M518 660l-294 -660h-95l293 637h-384v74h480v-51z" />
    <glyph glyph-name="eight" unicode="8" horiz-adv-x="562" 
d="M462.5 431.5q-27.5 -41.5 -76.5 -65.5q56 -24 88.5 -70t32.5 -104q0 -61 -28.5 -106.5t-79.5 -70.5t-118 -25q-103 0 -164.5 55t-61.5 147q0 58 31.5 104t86.5 70q-48 24 -75 66t-27 93q0 89 58 142.5t152 53.5t151.5 -53t57.5 -143q0 -52 -27.5 -93.5zM181 98.5
q36 -34.5 100 -34.5q63 0 99.5 35t36.5 95q0 59 -38 97t-99 38t-98 -37.5t-37 -97.5q0 -61 36 -95.5zM194.5 436.5q32.5 -33.5 86.5 -33.5t86.5 33.5t32.5 87.5t-33.5 88t-85.5 34q-54 0 -86.5 -33t-32.5 -89q0 -54 32.5 -87.5z" />
    <glyph glyph-name="nine" unicode="9" horiz-adv-x="562" 
d="M342.5 259q-43.5 -21 -91.5 -21q-59 0 -105 29t-71.5 83t-25.5 125q0 75 28 130.5t78 85.5t114 30q70 0 121 -35.5t78.5 -102t27.5 -156.5v-27q0 -154 -46 -246q-76 -154 -283 -154h-18v76h19q113 0 172.5 58t64.5 179q-19 -33 -62.5 -54zM173.5 359.5
q35.5 -46.5 92.5 -46.5q45 0 83.5 27t56.5 69v36q0 59 -17.5 104.5t-48.5 71t-70 25.5q-60 0 -96 -46t-36 -121q0 -73 35.5 -119.5z" />
    <glyph glyph-name="colon" unicode=":" horiz-adv-x="267" 
d="M91.5 301.5q-17.5 17.5 -17.5 42.5t17.5 42.5t42.5 17.5t42.5 -17.5t17.5 -42.5t-17.5 -42.5t-42.5 -17.5t-42.5 17.5zM91.5 99.5q17.5 17.5 42.5 17.5t42.5 -17.5t17.5 -42.5t-17.5 -42.5t-42.5 -17.5t-42.5 17.5t-17.5 42.5t17.5 42.5z" />
    <glyph glyph-name="semicolon" unicode=";" horiz-adv-x="308" 
d="M111 25v82h88v-71q0 -48 -24 -98t-61 -80l-51 36q47 65 48 131zM112.5 392.5q17.5 17.5 42.5 17.5t42.5 -17.5t17.5 -42.5t-17.5 -42.5t-42.5 -17.5t-42.5 17.5t-17.5 42.5t17.5 42.5z" />
    <glyph glyph-name="less" unicode="&#x3c;" horiz-adv-x="508" 
d="M129 314l306 -123v-96l-400 185v72l400 184v-96z" />
    <glyph glyph-name="equal" unicode="=" horiz-adv-x="549" 
d="M481 397h-407v79h407v-79zM74 273h407v-78h-407v78z" />
    <glyph glyph-name="greater" unicode="&#x3e;" horiz-adv-x="522" 
d="M388 317l-323 127v93l417 -185v-71l-417 -185v93z" />
    <glyph glyph-name="question" unicode="?" horiz-adv-x="472" 
d="M187.5 283q12.5 34 49.5 74l64 66q41 47 41 99t-27 81t-78 29q-49 0 -79.5 -26.5t-30.5 -71.5h-90q1 80 56 128.5t144 48.5q93 0 144.5 -49.5t51.5 -136.5q0 -85 -79 -168l-54 -53q-35 -40 -35 -114h-91q1 59 13.5 93zM177.5 81.5q17.5 17.5 42.5 17.5t42.5 -17.5
t17.5 -42.5t-17.5 -42.5t-42.5 -17.5t-42.5 17.5t-17.5 42.5t17.5 42.5z" />
    <glyph glyph-name="at" unicode="@" horiz-adv-x="917" 
d="M112.5 456.5q51.5 107.5 145.5 174.5t217 67q117 0 202 -51.5t129.5 -147t44.5 -223.5l-1 -32q-3 -78 -29 -135.5t-70.5 -88.5t-100.5 -31q-44 0 -73.5 15t-42.5 53q-53 -67 -130 -67q-135 0 -135 170q0 13 2 43q6 75 36.5 139t76.5 102t98 38q50 0 90 -18.5t53 -35.5
l-22 -258q-2 -19 -2 -49q0 -46 13 -60t46 -14q56 0 90 54t37 143q6 187 -73 288t-241 101q-110 0 -188 -60t-117.5 -158t-39.5 -212q0 -115 37.5 -197t107.5 -124.5t167 -42.5q40 0 87 11t75 27l18 -56q-34 -19 -83 -30.5t-97 -11.5q-124 0 -210 54.5t-129.5 156.5
t-41.5 242q2 117 53.5 224.5zM347 160q0 -51 18.5 -76t60.5 -25q32 0 56.5 25t43.5 75v1l22 245q-12 10 -23.5 13t-36.5 3q-56 -2 -92.5 -59t-46.5 -159q-2 -30 -2 -43z" />
    <glyph glyph-name="A" unicode="A" horiz-adv-x="652" 
d="M285 711h82l272 -711h-96l-68 186h-298l-67 -186h-96zM447 263l-121 332l-120 -332h241z" />
    <glyph glyph-name="B" unicode="B" horiz-adv-x="623" 
d="M83 711h232q116 0 174 -48t58 -142q0 -48 -28 -87t-77 -60q58 -16 91 -61t33 -108q0 -96 -62 -150.5t-175 -54.5h-246v711zM331 77q65 0 103 34t38 93q0 129 -139 129h-157v-256h155zM318 408q61 0 98 30.5t37 83.5q0 59 -33.5 85.5t-104.5 26.5h-139v-226h142z" />
    <glyph glyph-name="C" unicode="C" horiz-adv-x="651" 
d="M190 31q-63 41 -97.5 116t-34.5 175v69q0 101 36.5 175.5t101 114.5t148.5 40q113 0 181.5 -63t79.5 -176h-94q-12 84 -53 123t-114 39q-91 0 -141.5 -67t-50.5 -189v-69q0 -116 49 -184t135 -68q80 0 121 36.5t54 122.5h94q-13 -113 -83 -174.5t-186 -61.5
q-83 0 -146 41z" />
    <glyph glyph-name="D" unicode="D" horiz-adv-x="656" 
d="M83 711h200q94 0 165 -41t109.5 -116t39.5 -175v-45q0 -101 -39 -176.5t-111 -116t-168 -41.5h-196v711zM275 77q109 0 169 67.5t60 191.5v41q0 122 -57 189t-161 68h-110v-557h99z" />
    <glyph glyph-name="E" unicode="E" horiz-adv-x="568" 
d="M83 711h446v-77h-353v-229h308v-76h-308v-252h358v-77h-451v711z" />
    <glyph glyph-name="F" unicode="F" horiz-adv-x="553" 
d="M83 711h440v-77h-347v-243h299v-77h-299v-314h-93v711z" />
    <glyph glyph-name="G" unicode="G" horiz-adv-x="681" 
d="M200.5 31q-66.5 41 -103 116t-37.5 174v62q0 161 74.5 249.5t210.5 88.5q111 0 179 -57t83 -162h-93q-27 142 -168 142q-95 0 -143.5 -66t-48.5 -192v-58q0 -79 24.5 -138t70.5 -91t107 -32q55 0 93.5 12t64.5 39v160h-164v76h257v-261q-36 -51 -100 -77t-151 -26
q-89 0 -155.5 41z" />
    <glyph glyph-name="H" unicode="H" horiz-adv-x="713" 
d="M83 711h93v-306h359v306h94v-711h-94v329h-359v-329h-93v711z" />
    <glyph glyph-name="I" unicode="I" horiz-adv-x="272" 
d="M89 711h94v-711h-94v711z" />
    <glyph glyph-name="J" unicode="J" horiz-adv-x="552" 
d="M85 44.5q-59 54.5 -59 151.5h94q0 -61 33.5 -95t96.5 -34q59 0 94.5 37t35.5 102v505h95v-503q0 -102 -61 -160t-164 -58q-106 0 -165 54.5z" />
    <glyph glyph-name="K" unicode="K" horiz-adv-x="627" 
d="M83 711h93v-352l71 80l245 272h113l-279 -314l301 -397h-112l-252 331l-87 -91v-240h-93v711z" />
    <glyph glyph-name="L" unicode="L" horiz-adv-x="538" 
d="M83 711h94v-634h337v-77h-431v711z" />
    <glyph glyph-name="M" unicode="M" horiz-adv-x="873" 
d="M83 711h121l232 -580l232 580h122v-711h-94v277l9 299l-233 -576h-72l-233 574l9 -297v-277h-93v711z" />
    <glyph glyph-name="N" unicode="N" horiz-adv-x="713" 
d="M83 711h94l359 -550v550h93v-711h-94l-358 548v-548h-94v711z" />
    <glyph glyph-name="O" unicode="O" horiz-adv-x="688" 
d="M196.5 30.5q-64.5 40.5 -101 116.5t-37.5 179v51q0 106 36.5 183.5t101 119t147.5 41.5q86 0 150.5 -41.5t100 -119t35.5 -183.5v-44q0 -106 -35.5 -183.5t-100 -118.5t-149.5 -41q-83 0 -147.5 40.5zM202.5 140q51.5 -70 141.5 -70q91 0 141 66.5t51 189.5v52
q0 126 -50 194t-143 68q-89 0 -140 -67.5t-52 -187.5v-52q0 -123 51.5 -193z" />
    <glyph glyph-name="P" unicode="P" horiz-adv-x="631" 
d="M83 711h262q77 0 133 -27t86 -76t30 -114q0 -104 -65 -160t-185 -56h-168v-278h-93v711zM345 355q75 0 115 35.5t40 102.5q0 63 -40 101t-110 40h-174v-279h169z" />
    <glyph glyph-name="Q" unicode="Q" horiz-adv-x="688" 
d="M340 -10q-83 0 -147.5 40.5t-101.5 116.5t-38 179v51q0 105 36.5 182.5t101.5 119.5t148 42q85 0 149.5 -41t100.5 -118t36 -184v-45q0 -103 -32 -177t-92 -117l127 -100l-64 -59l-150 119q-34 -9 -74 -9zM198 140q51 -70 142 -70t140.5 66t51.5 190v52q0 126 -50 194
t-143 68q-89 0 -140 -67.5t-52 -187.5v-52q0 -123 51 -193z" />
    <glyph glyph-name="R" unicode="R" horiz-adv-x="616" 
d="M82 711h235q121 0 185.5 -54.5t64.5 -159.5q0 -66 -36 -115.5t-100 -73.5l167 -302v-6h-100l-155 288h-167v-288h-94v711zM320 364q70 0 111.5 36.5t41.5 96.5q0 66 -39.5 101t-113.5 36h-144v-270h144z" />
    <glyph glyph-name="S" unicode="S" horiz-adv-x="604" 
d="M184.5 17.5q-61.5 25.5 -100 74.5t-38.5 116h94q0 -64 47.5 -101.5t127.5 -37.5q73 0 113 29.5t40 82.5q0 33 -13 55t-43 40q-21 13 -44 21t-61 19q-74 22 -117 44q-63 31 -92 72.5t-29 96.5q0 56 30.5 100t85.5 69t125 25q67 0 124.5 -26t92 -75t34.5 -115h-94
q0 66 -41 102.5t-116 36.5q-69 0 -108 -30.5t-39 -85.5q0 -27 13.5 -48t43.5 -39q23 -13 47.5 -22.5t60.5 -19.5q38 -11 66 -21t57 -26q57 -32 84.5 -73t27.5 -98t-30.5 -100.5t-87 -67t-130.5 -23.5q-69 0 -130.5 25.5z" />
    <glyph glyph-name="T" unicode="T" horiz-adv-x="597" 
d="M252 634h-228v77h550v-77h-229v-634h-93v634z" />
    <glyph glyph-name="U" unicode="U" horiz-adv-x="648" 
d="M138 53.5q-69 63.5 -70 173.5v484h93v-482q0 -77 42.5 -119.5t121.5 -42.5t121.5 42.5t42.5 119.5v482h94v-483q0 -103 -67 -166t-191 -72q-118 0 -187 63.5z" />
    <glyph glyph-name="V" unicode="V" horiz-adv-x="636" 
d="M14 711h102l188 -547l14 -39l14 39l189 547h103l-264 -711h-83z" />
    <glyph glyph-name="W" unicode="W" horiz-adv-x="887" 
d="M30 711h94l112 -487l14 -94l20 85l140 496h79l137 -496l20 -86l15 96l110 486h95l-173 -711h-85l-147 518l-11 54l-11 -54l-152 -518h-85z" />
    <glyph glyph-name="X" unicode="X" horiz-adv-x="627" 
d="M258 358l-225 353h110l171 -273l171 273h110l-224 -353l230 -358h-112l-175 277l-175 -277h-111z" />
    <glyph glyph-name="Y" unicode="Y" horiz-adv-x="601" 
d="M252 265l-245 446h108l184 -357l186 357h106l-245 -446v-265h-94v265z" />
    <glyph glyph-name="Z" unicode="Z" horiz-adv-x="599" 
d="M42 70l390 564h-384v77h496v-69l-391 -565h407v-77h-518v70z" />
    <glyph glyph-name="bracketleft" unicode="[" horiz-adv-x="261" 
d="M239 738h-93v-816h93v-74h-184v965h184v-75z" />
    <glyph glyph-name="backslash" unicode="\" horiz-adv-x="412" 
d="M321 -61l-296 772h85l297 -772h-86z" />
    <glyph glyph-name="bracketright" unicode="]" horiz-adv-x="261" 
d="M206 813v-965h-184v74h93v816h-93v75h184z" />
    <glyph glyph-name="asciicircum" unicode="^" horiz-adv-x="418" 
d="M208 591l-93 -235h-84l146 355h62l146 -355h-84z" />
    <glyph glyph-name="underscore" unicode="_" horiz-adv-x="451" 
d="M449 -74h-447v74h447v-74z" />
    <glyph glyph-name="a" unicode="a" horiz-adv-x="544" 
d="M139.5 10.5q-40.5 20.5 -63.5 56t-23 79.5q0 83 62.5 128.5t176.5 45.5h88v42q0 48 -28.5 75.5t-82.5 27.5q-49 0 -81.5 -24t-32.5 -59h-91q0 39 27.5 75t75.5 58.5t107 22.5q91 0 143 -45.5t54 -125.5v-243q0 -72 18 -116v-8h-94q-9 20 -13 56q-63 -66 -151 -66
q-51 0 -91.5 20.5zM171.5 93q27.5 -24 73.5 -24q42 0 80 22t55 57v108h-70q-166 0 -166 -97q0 -42 27.5 -66z" />
    <glyph glyph-name="b" unicode="b" horiz-adv-x="561" 
d="M156 61l-5 -61h-83v750h91v-280q54 68 151 68q96 0 151 -72.5t55 -199.5v-8q0 -80 -25.5 -140.5t-72 -94t-107.5 -33.5q-101 0 -155 71zM288 67q66 0 101.5 50.5t35.5 151.5q0 92 -35.5 142t-102.5 50q-89 0 -128 -83v-228q41 -83 129 -83z" />
    <glyph glyph-name="c" unicode="c" horiz-adv-x="523" 
d="M155 22.5q-53 32.5 -81.5 93t-28.5 143.5v15q0 79 28.5 139t81.5 92.5t125 32.5q59 0 106 -24t74.5 -67.5t29.5 -99.5h-85q-4 51 -39 84t-86 33q-69 0 -107 -50t-38 -143v-17q0 -91 37.5 -140.5t107.5 -49.5q49 0 85 29.5t40 73.5h85q-2 -45 -30 -86t-75.5 -66
t-104.5 -25q-72 0 -125 32.5z" />
    <glyph glyph-name="d" unicode="d" horiz-adv-x="564" 
d="M146 24.5q-47 34.5 -73.5 98t-26.5 146.5q0 80 26.5 141t74 94.5t108.5 33.5q93 0 147 -63v275h90v-750h-83l-4 57q-54 -67 -151 -67q-61 0 -108 34.5zM174 117.5q37 -50.5 102 -50.5q85 0 126 77v243q-41 74 -125 74q-65 0 -102.5 -49.5t-37.5 -138.5v-15
q0 -90 37 -140.5z" />
    <glyph glyph-name="e" unicode="e" horiz-adv-x="530" 
d="M161 22q-55 32 -85.5 91t-30.5 137v16q0 73 28 135t80.5 99.5t122.5 37.5q103 0 160.5 -68.5t57.5 -193.5v-38h-358v-3q2 -76 46 -123.5t110 -47.5q86 0 140 71l55 -43q-67 -102 -199 -102q-72 0 -127 32zM403 313v6q-4 69 -37 107t-90 38q-55 0 -92 -40t-45 -111h264z
" />
    <glyph glyph-name="f" unicode="f" horiz-adv-x="347" 
d="M113 458h-84v70h84v55q0 84 45.5 130.5t128.5 46.5q28 0 62 -8l-5 -73q-20 4 -49 4q-44 0 -68 -25.5t-24 -73.5v-56h113v-70h-113v-458h-90v458z" />
    <glyph glyph-name="g" unicode="g" horiz-adv-x="561" 
d="M157 -183q-54 25 -83 66l47 54q59 -71 142 -71q66 0 102.5 37t36.5 104v46q-54 -63 -148 -63q-61 0 -108 34t-73 97t-26 148v6q0 80 26.5 139.5t73 91.5t108.5 32q97 0 151 -68l5 58h82v-515q0 -102 -60.5 -161.5t-163.5 -59.5q-58 0 -112 25zM174.5 117.5
q36.5 -50.5 102.5 -50.5q85 0 125 78v241q-40 75 -124 75q-67 0 -103.5 -51.5t-36.5 -151.5q0 -90 36.5 -140.5z" />
    <glyph glyph-name="h" unicode="h" horiz-adv-x="551" 
d="M68 750h91v-286q60 74 156 74q168 0 169 -189v-349h-90v350q-1 57 -26.5 84t-79.5 27q-44 0 -77.5 -22.5t-51.5 -62.5v-376h-91v750z" />
    <glyph glyph-name="i" unicode="i" horiz-adv-x="243" 
d="M76 528h91v-528h-91v528zM83 706q14 15 39 15t39.5 -15t14.5 -38q0 -22 -14 -36.5t-40 -14.5q-25 0 -39 14t-14 37t14 38z" />
    <glyph glyph-name="j" unicode="j" horiz-adv-x="239" 
d="M-32 -205v73q15 -4 41 -4q32 0 47 16.5t15 56.5v591h91v-589q0 -152 -139 -152q-28 0 -55 8zM76 706q14 15 39 15t39 -15t14 -38t-14 -37t-39 -14q-26 0 -39.5 14t-13.5 37t14 38z" />
    <glyph glyph-name="k" unicode="k" horiz-adv-x="507" 
d="M69 750h90v-454l49 58l164 174h110l-206 -220l230 -308h-106l-184 245l-57 -59v-186h-90v750z" />
    <glyph glyph-name="l" unicode="l" horiz-adv-x="243" 
d="M76 750h91v-750h-91v750z" />
    <glyph glyph-name="m" unicode="m" horiz-adv-x="876" 
d="M68 528h85l3 -58q59 68 157 68q110 0 150 -85q28 40 70.5 62.5t98.5 22.5q87 0 132 -46t45 -138v-354h-91v349q0 58 -26 85t-87 27q-46 0 -77 -25q-39 -30 -45 -85v-351h-90v346q0 115 -113 115q-46 0 -75 -19q-31 -19 -47 -56v-386h-90v528z" />
    <glyph glyph-name="n" unicode="n" horiz-adv-x="552" 
d="M68 528h86l3 -66q60 76 158 76q168 0 169 -189v-349h-90v350q-1 57 -26.5 84t-79.5 27q-44 0 -77.5 -22.5t-51.5 -62.5v-376h-91v528z" />
    <glyph glyph-name="o" unicode="o" horiz-adv-x="570" 
d="M159.5 24q-54.5 34 -85 96t-30.5 143v6q0 76 29.5 137.5t84 96.5t126.5 35q71 0 126 -34t85 -95.5t30 -143.5v-7q0 -80 -31 -140.5t-85.5 -94t-123.5 -33.5q-71 0 -125.5 34zM175.5 117q41.5 -53 109.5 -53t108.5 52t41.5 145v8q1 87 -40.5 141t-110.5 54q-66 0 -107 -52
t-42 -146v-8q-1 -88 40.5 -141z" />
    <glyph glyph-name="p" unicode="p" horiz-adv-x="561" 
d="M68 528h83l4 -58q56 68 154 68q96 0 151 -71.5t55 -199.5v-9q0 -79 -25 -140t-71.5 -94.5t-108.5 -33.5q-96 0 -151 61v-254h-91v731zM283 64q65 0 102.5 51t38.5 147v7q1 89 -37.5 140.5t-104.5 51.5q-82 0 -123 -72v-253q41 -72 124 -72z" />
    <glyph glyph-name="q" unicode="q" horiz-adv-x="568" 
d="M256 -10q-63 0 -110.5 33.5t-73.5 95.5t-26 143v7q0 82 26 142.5t73.5 93.5t111.5 33q94 0 148 -63l4 53h83v-731h-91v252q-54 -59 -145 -59zM174 116q38 -52 104 -52q81 0 123 71v259q-43 70 -122 70q-65 0 -103 -51t-39 -147v-8q-1 -90 37 -142z" />
    <glyph glyph-name="r" unicode="r" horiz-adv-x="338" 
d="M68 528h88l2 -61q44 71 126 71q27 0 40 -7v-84q-16 4 -45 4q-89 0 -120 -76v-375h-91v528z" />
    <glyph glyph-name="s" unicode="s" horiz-adv-x="516" 
d="M148.5 14q-49.5 24 -76 63.5t-26.5 85.5h91q2 -46 36 -72.5t90 -26.5q51 0 82 20.5t31 55.5q0 37 -27 57t-96 35q-98 21 -143.5 57t-45.5 94q0 43 25 78.5t70 56t101 20.5q59 0 104.5 -21t71 -58.5t25.5 -85.5h-90q0 37 -32 64t-79 27q-50 0 -77.5 -21t-27.5 -57
q0 -26 18.5 -42t41 -23t60.5 -16q99 -22 145 -58.5t46 -100.5q0 -46 -25.5 -81.5t-72 -55t-105.5 -19.5q-65 0 -114.5 24z" />
    <glyph glyph-name="t" unicode="t" horiz-adv-x="327" 
d="M132 26q-31 36 -31 105v327h-97v70h97v128h90v-128h99v-70h-99v-327q0 -33 13.5 -48.5t44.5 -15.5q16 0 43 6v-73q-34 -10 -69 -10q-60 0 -91 36z" />
    <glyph glyph-name="u" unicode="u" horiz-adv-x="551" 
d="M111 39q-44 49 -45 146v343h91v-341q0 -120 97 -120q103 0 138 77v384h90v-528h-86l-1 52q-53 -62 -155 -62q-85 0 -129 49z" />
    <glyph glyph-name="v" unicode="v" horiz-adv-x="484" 
d="M16 528h92l135 -405l131 405h92l-190 -528h-68z" />
    <glyph glyph-name="w" unicode="w" horiz-adv-x="751" 
d="M21 528h90l91 -348l13 -47l123 395h73l125 -403l13 55l89 348h90l-154 -528h-73l-114 357l-14 43l-13 -43l-112 -357h-74z" />
    <glyph glyph-name="x" unicode="x" horiz-adv-x="496" 
d="M198 267l-173 261h105l116 -193l117 193h105l-173 -261l179 -267h-105l-122 198l-122 -198h-105z" />
    <glyph glyph-name="y" unicode="y" horiz-adv-x="473" 
d="M41 -206v74l24 -2q45 -4 71.5 16.5t42.5 69.5l20 54l-188 522h98l132 -396l8 25l115 371h97l-212 -610l-9 -22q-23 -55 -60.5 -82t-87.5 -27z" />
    <glyph glyph-name="z" unicode="z" horiz-adv-x="496" 
d="M43 66l291 388h-287v74h401v-64l-295 -390h309v-74h-419v66z" />
    <glyph glyph-name="braceleft" unicode="{" horiz-adv-x="338" 
d="M178.5 -97.5q-43.5 56.5 -43.5 146.5v97q0 119 -104 119v71q104 0 104 118v102q1 89 43.5 144t130.5 80l18 -56q-102 -33 -102 -171v-98q0 -111 -81 -155q81 -43 81 -155v-101q2 -134 102 -167l-18 -56q-87 25 -130.5 81.5z" />
    <glyph glyph-name="bar" unicode="|" horiz-adv-x="244" 
d="M158 -132h-73v843h73v-843z" />
    <glyph glyph-name="braceright" unicode="}" horiz-adv-x="323" 
d="M111 44v101q0 112 81 155q-81 44 -81 155v98q0 138 -102 171l18 56q88 -25 130.5 -80t43.5 -144v-102q0 -118 104 -118v-71q-104 0 -104 -119v-97q0 -90 -43.5 -146.5t-130.5 -81.5l-18 56q100 33 102 167z" />
    <glyph glyph-name="asciitilde" unicode="~" horiz-adv-x="680" 
d="M596 286q-21 -42 -57.5 -66t-80.5 -24q-28 0 -57 9q-13 5 -29.5 16t-27 19.5t-15.5 12.5q-37 29 -60.5 44t-46.5 15q-38 0 -58.5 -26t-20.5 -72l-79 -1q0 51 20.5 92t56.5 64t81 23q38 0 71 -16q26 -12 73 -49q32 -26 53 -38.5t39 -12.5q38 0 61 28.5t23 74.5h75
q0 -51 -21 -93z" />
    <glyph glyph-name="uni00A0" unicode="&#xa0;" horiz-adv-x="50" 
 />
    <glyph glyph-name="brokenbar" unicode="&#xa6;" horiz-adv-x="240" 
d="M72 -132v386h91v-386h-91zM72 711h91v-370h-91v370z" />
    <glyph glyph-name="copyright" unicode="&#xa9;" horiz-adv-x="786" 
d="M215.5 39.5q-79.5 49.5 -125.5 133.5t-46 183q0 101 46 184.5t125.5 132t175.5 48.5t175.5 -48.5t125 -132t45.5 -184.5q0 -99 -45.5 -183t-125 -133.5t-175.5 -49.5t-175.5 49.5zM139.5 201.5q38.5 -70.5 105 -112t146.5 -41.5t146.5 41.5t105 112t38.5 154.5
q0 85 -38.5 155t-105 110.5t-146.5 40.5t-146.5 -40t-105 -110t-38.5 -156q0 -84 38.5 -154.5zM216 384q0 86 46.5 137.5t122.5 51.5q78 0 120 -40t42 -113h-71q0 47 -23 68.5t-68 21.5q-46 0 -72.5 -34t-26.5 -94v-55q0 -58 26.5 -92t72.5 -34t68 21t22 70h71
q0 -75 -41.5 -114.5t-119.5 -39.5t-123.5 51.5t-45.5 140.5v54z" />
    <glyph glyph-name="guillemotleft" unicode="&#xab;" horiz-adv-x="361" 
d="M311 66l-39 -39q-79 85 -79 192q0 59 22 107.5t57 84.5l39 -39q-60 -71 -60 -153q0 -78 60 -153zM65.5 353.5q26.5 60.5 66.5 106.5l42 -45q-73 -92 -73 -196t73 -196l-42 -45q-40 46 -66.5 106.5t-26.5 134.5t26.5 134.5z" />
    <glyph glyph-name="logicalnot" unicode="&#xac;" horiz-adv-x="554" 
d="M468 183h-91v129h-315v79h406v-208z" />
    <glyph glyph-name="registered" unicode="&#xae;" horiz-adv-x="786" 
d="M319 319v-165h-69v415h135q75 0 116 -32.5t41 -92.5t-63 -92q60 -24 61 -100q0 -69 8 -90v-8h-71q-7 19 -7 70q0 35 -1 47q-7 46 -64 48h-86zM89.5 540.5q45.5 83.5 125 132t176.5 48.5q96 0 175.5 -48.5t125 -132t45.5 -184.5q0 -99 -46 -183t-125 -133.5t-175 -49.5
q-97 0 -176.5 49.5t-125 133.5t-45.5 183q0 101 45.5 184.5zM139 199.5q39 -70.5 105.5 -111t146.5 -40.5q79 0 145.5 41t105.5 111.5t39 155.5t-38.5 155t-105 110.5t-146.5 40.5t-146.5 -40t-105.5 -110.5t-39 -155.5q0 -86 39 -156.5zM395 382q35 1 56.5 17t21.5 42
q0 36 -19.5 51t-67.5 15h-67v-125h76z" />
    <glyph glyph-name="degree" unicode="&#xb0;" horiz-adv-x="388" 
d="M87 658q17 29 45.5 46t61.5 17q32 0 60.5 -17t45 -46t16.5 -62q0 -51 -36 -87t-86 -36q-51 0 -87.5 36t-36.5 87q0 33 17 62zM160.5 546q14.5 -10 31.5 -10q28 0 44 16.5t16 41.5q0 11 -5 26q-7 18 -21 28t-32 10q-10 0 -23 -5q-18 -7 -27.5 -22t-9.5 -33q0 -11 5 -24
q7 -18 21.5 -28z" />
    <glyph glyph-name="plusminus" unicode="&#xb1;" horiz-adv-x="534" 
d="M317 417h178v-74h-178v-202h-82v202h-188v74h188v202h82v-202zM66 74h408v-74h-408v74z" />
    <glyph glyph-name="uni00B2" unicode="&#xb2;" horiz-adv-x="367" 
d="M333 285h-292v53l147 137q53 50 53 84q0 24 -16 39t-45 15q-35 0 -53 -18t-18 -47h-77q0 55 41.5 91.5t105.5 36.5q65 0 102 -31t37 -85q0 -51 -52 -103l-41 -39l-86 -70h194v-63z" />
    <glyph glyph-name="uni00B3" unicode="&#xb3;" horiz-adv-x="367" 
d="M129 509h41q36 0 54 14.5t18 38.5q0 23 -16.5 37t-48.5 14q-28 0 -46.5 -12.5t-18.5 -32.5h-76q0 48 39.5 78t100.5 30q67 0 105 -29.5t38 -80.5q0 -28 -17.5 -50t-49.5 -34q73 -19 73 -90q0 -51 -41.5 -81.5t-107.5 -30.5t-106 31t-40 82h77q0 -22 20 -36.5t52 -14.5
q33 0 51.5 14.5t18.5 39.5q0 56 -77 56h-43v57z" />
    <glyph glyph-name="uni00B5" unicode="&#xb5;" horiz-adv-x="566" 
d="M166 528v-309q0 -80 25.5 -118t81.5 -38q97 0 127 75v390h91v-528h-81l-5 56q-45 -66 -128 -66q-72 0 -111 36v-229h-91v731h91z" />
    <glyph glyph-name="uni00B9" unicode="&#xb9;" horiz-adv-x="367" 
d="M242 285h-77v293l-105 -27v62l173 57h9v-385z" />
    <glyph glyph-name="guillemotright" unicode="&#xbb;" horiz-adv-x="361" 
d="M50 372l39 39q35 -36 57 -84.5t22 -107.5q0 -107 -79 -192l-39 39q60 75 60 153q0 82 -60 153zM259 219q0 106 -73 196l42 45q41 -45 67.5 -106t26.5 -135t-26.5 -135t-67.5 -106l-42 45q73 90 73 196z" />
    <glyph glyph-name="onequarter" unicode="&#xbc;" horiz-adv-x="760" 
d="M226 257h-77v293l-105 -27v62l173 57h9v-385zM537 642l51 -33l-347 -555l-51 32zM580 445h79v-239h52v-63h-52v-83h-77v83h-183l-3 49zM582 206v141l-8 -14l-100 -127h108z" />
    <glyph glyph-name="onehalf" unicode="&#xbd;" horiz-adv-x="814" 
d="M226 257h-77v293l-105 -27v62l173 57h9v-385zM537 642l51 -33l-347 -555l-51 32zM511 419q41 36 105 36q65 0 102.5 -31t37.5 -85q0 -49 -52 -103l-41 -39l-86 -70h194v-63h-292v53l147 137q53 51 53 84q0 24 -16.5 39t-44.5 15q-35 0 -53 -17.5t-18 -47.5h-77
q0 56 41 92z" />
    <glyph glyph-name="threequarters" unicode="&#xbe;" horiz-adv-x="790" 
d="M147 495h41q35 0 53.5 14.5t18.5 38.5t-16 37.5t-49 13.5q-28 0 -46.5 -12.5t-18.5 -32.5h-76q0 48 39.5 78t100.5 30q67 0 105 -29.5t38 -80.5q0 -28 -17.5 -50t-49.5 -34q73 -19 73 -90q0 -51 -41.5 -81.5t-107.5 -30.5t-106 31t-40 82h77q0 -22 20 -36.5t52 -14.5
q33 0 51.5 14.5t18.5 39.5q0 56 -77 56h-43v57zM581 642l51 -33l-347 -555l-51 32zM611 450h79v-239h52v-63h-52v-83h-77v83h-183l-3 49zM613 211v141l-8 -14l-100 -127h108z" />
    <glyph glyph-name="multiply" unicode="&#xd7;" horiz-adv-x="533" 
d="M43 161l162 164l-161 163l59 60l160 -163l161 163l58 -60l-160 -163l161 -164l-58 -60l-162 164l-161 -164z" />
    <glyph glyph-name="divide" unicode="&#xf7;" horiz-adv-x="571" 
d="M522 293h-487v90h487v-90zM242 177.5q17 14.5 40 14.5q22 0 38.5 -14.5t16.5 -40.5q0 -25 -16 -39t-39 -14t-40 14t-17 39q0 26 17 40.5zM242 576.5q17 14.5 39 14.5q23 0 39.5 -14.5t16.5 -40.5t-17 -40t-40 -14q-22 1 -38.5 15t-16.5 39q0 26 17 40.5z" />
    <glyph glyph-name="uni060C" unicode="&#x60c;" horiz-adv-x="223" 
d="M53.5 104q3.5 15 18.5 42.5t57 97.5l44 -26l-14 -24q-37 -63 -42 -74q23 -2 38.5 -19t15.5 -40q0 -25 -17.5 -43t-42.5 -18q-26 0 -43.5 17.5t-17.5 43.5q0 28 3.5 43z" />
    <glyph glyph-name="uni0615" unicode="&#x615;" 
d="M60.5 475.5q-19.5 8.5 -33 23.5t-45.5 57l32 30l29 -38l22 33v145h41v-94q25 22 55 22q36 0 58 -28.5t22 -67.5q0 -42 -24 -66.5t-61 -24.5h-43q-33 0 -52.5 8.5zM113 517h43q24 0 34.5 9.5t10.5 31.5q0 46 -40 46q-17 0 -28.5 -9t-26.5 -32l-28 -42q12 -4 35 -4z" />
    <glyph glyph-name="uni061B" unicode="&#x61b;" horiz-adv-x="223" 
d="M68.5 15.5q-17.5 17.5 -17.5 42.5t17.5 42.5t42.5 17.5t42.5 -17.5t17.5 -42.5t-17.5 -42.5t-42.5 -17.5t-42.5 17.5zM53.5 364q3.5 15 18.5 42.5t57 97.5l44 -26l-14 -24q-37 -63 -42 -74q23 -2 38.5 -19t15.5 -40q0 -25 -17.5 -43t-42.5 -18q-26 0 -43.5 17.5
t-17.5 43.5q0 28 3.5 43z" />
    <glyph glyph-name="uni061F" unicode="&#x61f;" horiz-adv-x="479" 
d="M218.5 -3.5q-17.5 17.5 -17.5 42.5t17.5 42.5t42.5 17.5t42.5 -17.5t17.5 -42.5t-17.5 -42.5t-42.5 -17.5t-42.5 17.5zM77.5 613.5q25.5 44.5 69.5 71t95 26.5q53 0 95.5 -28t66.5 -75t24 -101l-65 -6q-1 33 -15 63.5t-41.5 50t-64.5 19.5q-51 0 -86 -34.5t-35 -83.5
q0 -28 9.5 -47t27.5 -36t58 -48l30 -23q31 -24 39 -54t8 -93v-38h-64v55q0 25 -9 45t-37 43q-21 18 -20 17q-40 33 -62 55t-35.5 52.5t-13.5 73.5q0 51 25.5 95.5z" />
    <glyph glyph-name="uni0640" unicode="&#x640;" horiz-adv-x="198" 
d="M-5 90h208l5 -45l-5 -45h-208v90z" />
    <glyph glyph-name="uni064B" unicode="&#x64b;" 
d="M2 506l212 69v-50l-212 -68v49zM2 595l212 69v-50l-212 -68v49z" />
    <glyph glyph-name="uni064C" unicode="&#x64c;" 
d="M-14 509l68 21q-13 14 -22 40q-5 18 -5 33q0 31 18 55.5t49 35.5q18 7 38 7q30 0 54 -17.5t34 -49.5q5 -17 5 -29q0 -32 -21.5 -58t-58.5 -38l-147 -48zM-62 609q0 42 20.5 76.5t60.5 52.5l24 -44q-61 -32 -61 -93q0 -33 17 -65l-40 -14q-21 42 -21 87zM95 543l43 13
q22 7 34.5 20t12.5 29q0 9 -2 14q-5 16 -17.5 24.5t-29.5 8.5q-13 0 -30 -6q-19 -7 -28.5 -19t-9.5 -26q0 -10 2 -15q8 -27 25 -43z" />
    <glyph glyph-name="uni064D" unicode="&#x64d;" 
d="M2 -224l212 69v-50l-212 -68v49zM2 -135l212 69v-50l-212 -68v49z" />
    <glyph glyph-name="uni064E" unicode="&#x64e;" 
d="M-4 496l212 69v-50l-212 -68v49z" />
    <glyph glyph-name="uni064F" unicode="&#x64f;" 
d="M-14 509l68 21q-13 14 -22 40q-5 18 -5 33q0 31 18 55.5t49 35.5q18 7 38 7q30 0 54 -17.5t34 -49.5q5 -17 5 -29q0 -32 -21.5 -58t-58.5 -38l-147 -48zM95 543l43 13q22 7 34.5 20t12.5 29q0 9 -2 14q-5 16 -17.5 24.5t-29.5 8.5q-13 0 -30 -6q-19 -7 -28.5 -19
t-9.5 -26q0 -10 2 -15q8 -27 25 -43z" />
    <glyph glyph-name="uni0650" unicode="&#x650;" 
d="M-4 -264l212 69v-50l-212 -68v49z" />
    <glyph glyph-name="uni0651" unicode="&#x651;" 
d="M9 592v-50q0 -32 40 -32t40 32v50h40v-50q0 -17 9 -24.5t26 -7.5q22 0 30.5 7t8.5 19t-3 26.5t-4 19.5q-2 6 -3 11.5t-2 10.5l40 10q2 -10 6.5 -29t5.5 -29t1 -21q0 -30 -18.5 -52.5t-61.5 -22.5q-14 0 -29.5 5.5t-26.5 17.5q-20 -23 -59 -23q-30 0 -55 20.5t-25 61.5v50
h40z" />
    <glyph glyph-name="uni0652" unicode="&#x652;" 
d="M129.5 616q27.5 -29 27.5 -71q0 -38 -27.5 -65.5t-63.5 -27.5t-63 28t-27 68q0 41 27 69t61 28q38 0 65.5 -29zM33.5 512q11.5 -14 30.5 -14q21 0 33.5 13t13.5 34q0 24 -12.5 38.5t-34.5 14.5q-18 0 -30 -14t-12 -36t11.5 -36z" />
    <glyph glyph-name="uni0653" unicode="&#x653;" 
d="M174 469q-12 0 -26 3l-51 14q-10 3 -19 3q-14 0 -24 -7t-19 -22l-34 28q32 51 77 51q12 0 30 -5l49 -13q11 -3 20 -3q26 0 44 29l34 -27q-32 -51 -81 -51z" />
    <glyph glyph-name="uni0654" unicode="&#x654;" 
d="M28 517l55 16q-45 28 -45 80q0 40 28 66.5t67 28.5q20 0 66 -10l-8 -48q-38 8 -58 8q-26 -2 -40 -14t-14 -32q0 -23 20.5 -39t51.5 -16q6 0 20 2l65 19l3 -50l-208 -61z" />
    <glyph glyph-name="uni0655" unicode="&#x655;" 
d="M27 -240l55 16q-45 28 -45 80q0 40 28 66.5t67 28.5q20 0 66 -10l-8 -48q-38 8 -58 8q-26 -2 -40 -14t-14 -32q0 -23 20.5 -39t51.5 -16q6 0 20 2l65 19l3 -50l-208 -61z" />
    <glyph glyph-name="uni0656" unicode="&#x656;" 
d="M20 -286v189h40v-189h-40z" />
    <glyph glyph-name="uni0658" unicode="&#x658;" 
d="M53 644.5q-6 -20.5 -6 -41.5q0 -35 14 -51.5t49 -16.5h49q29 0 41.5 3.5t16.5 12.5t4 31v145h40v-145q0 -50 -23.5 -73.5t-78.5 -23.5h-49q-51 0 -77 33.5t-26 84.5t28 109l36 -22q-12 -25 -18 -45.5z" />
    <glyph glyph-name="uni065A" unicode="&#x65a;" 
d="M-8 598l34 26l64 -101l64 101l34 -26l-71 -113h-54z" />
    <glyph glyph-name="uni065B" unicode="&#x65b;" 
d="M117 647l71 -113l-34 -26l-64 101l-64 -101l-34 26l71 113h54z" />
    <glyph glyph-name="uni0660" unicode="&#x660;" horiz-adv-x="337" 
d="M100 118v137h137v-137h-137z" />
    <glyph glyph-name="uni0661" unicode="&#x661;" horiz-adv-x="238" 
d="M164.5 465q13.5 -114 13.5 -242v-33l-2 -190h-78l2 190v33q0 121 -12 224.5t-48 184.5l72 36q39 -89 52.5 -203z" />
    <glyph glyph-name="uni0662" unicode="&#x662;" horiz-adv-x="467" 
d="M156 520q11 -46 36.5 -63t65.5 -17q35 0 58 18.5t23 56.5q0 5 -2 19l-18 121l78 14l18 -123q2 -10 2 -30q0 -50 -23.5 -88t-60 -58t-75.5 -20q-50 0 -84 22q4 -66 4 -182l-2 -190h-78l2 190v33q0 121 -12 224.5t-48 184.5l72 36q28 -63 44 -148z" />
    <glyph glyph-name="uni0663" unicode="&#x663;" horiz-adv-x="655" 
d="M158 506q10 -46 33.5 -62.5t62.5 -16.5q32 0 52.5 18t20.5 56q0 13 -1 20l-15 108l78 12l15 -108l1 -8q9 -56 27 -77t49 -21q33 0 49.5 15.5t16.5 51.5q0 7 -2 27l-15 123l78 10l15 -121q2 -24 2 -34q0 -78 -42 -120t-102 -42q-70 0 -108 63q-22 -30 -54 -46.5t-65 -16.5
q-44 0 -79 22q3 -62 3 -169l-2 -190h-78l2 190v33q0 121 -12 224.5t-48 184.5l72 36q29 -64 46 -162z" />
    <glyph glyph-name="uni0664" unicode="&#x664;" horiz-adv-x="450" 
d="M338 315l-40 -6q-80 -12 -119 -44t-39 -79q0 -99 110 -99q20 0 41 3l109 14l10 -86l-109 -18q-20 -4 -45 -4q-78 0 -132.5 45t-61.5 128q-4 49 15.5 91t59.5 74q-49 23 -73 63t-24 87q0 41 17.5 80.5t48.5 67.5t70 37q18 5 44 5q25 0 52 -5t70 -16l25 -6l-21 -84
q-73 22 -119 22q-15 0 -35 -4q-41 -10 -59 -36.5t-16 -61.5q2 -36 36 -61t100 -25q34 0 70 7l5 1z" />
    <glyph glyph-name="uni0665" unicode="&#x665;" horiz-adv-x="557" 
d="M296 606q83 -93 125.5 -146t69 -108.5t26.5 -113.5q0 -66 -32 -120.5t-86.5 -86t-119.5 -31.5q-67 0 -121.5 31.5t-86 86t-31.5 120.5q0 60 23.5 114.5t57 99t96.5 117.5l-33 38l60 58zM161 129q43 -42 118 -42q73 0 116.5 42.5t43.5 108.5q0 53 -37.5 109.5
t-131.5 162.5q-56 -65 -86 -105.5t-48 -82t-18 -84.5q0 -67 43 -109z" />
    <glyph glyph-name="uni0666" unicode="&#x666;" horiz-adv-x="479" 
d="M187 620q81 0 156 23l55 -57q-12 -91 -12 -179q0 -189 53 -379l-76 -24q-55 205 -55 410q0 64 6 130q-64 -14 -127 -14q-80 0 -147 22l24 86q53 -18 123 -18z" />
    <glyph glyph-name="uni0667" unicode="&#x667;" horiz-adv-x="582" 
d="M169 303.5q-28 91.5 -54.5 152t-84.5 168.5l68 42q53 -99 79.5 -156.5t51 -131t63.5 -214.5q32 126 56 200.5t47 125t67 137.5q6 11 11 20.5t9 17.5l70 -42q-5 -10 -9 -17.5t-7 -13.5q-54 -105 -79.5 -163t-52.5 -150t-73 -279h-77q-57 212 -85 303.5z" />
    <glyph glyph-name="uni0668" unicode="&#x668;" horiz-adv-x="582" 
d="M413 361.5q28 -91.5 54.5 -152t84.5 -168.5l-68 -42q-53 99 -79.5 156.5t-51 131t-63.5 214.5q-32 -126 -56 -200.5t-47 -125t-67 -137.5q-6 -11 -11 -20.5t-9 -17.5l-70 42q5 10 9 17.5t7 13.5q54 105 79.5 163t52.5 150t73 279h77q57 -212 85 -303.5z" />
    <glyph glyph-name="uni0669" unicode="&#x669;" horiz-adv-x="423" 
d="M288.5 77q-5.5 31 -7.5 79.5t-3 144.5h-85q-72 0 -117.5 42t-45.5 124q0 61 20 108t57 73t85 26q77 0 120.5 -55.5t43.5 -151.5q0 -188 1 -255t6 -104t20 -101l-76 -16q-13 55 -18.5 86zM126.5 406.5q18.5 -15.5 66.5 -15.5h85v76q0 64 -19.5 90.5t-66.5 26.5
q-43 0 -63.5 -28.5t-20.5 -88.5q0 -45 18.5 -60.5z" />
    <glyph glyph-name="uni066A" unicode="&#x66a;" horiz-adv-x="492" 
d="M191 646v-112h-113v112h113zM339 685h80l-270 -717h-78zM309 113h113v-112h-113v112z" />
    <glyph glyph-name="uni066B" unicode="&#x66b;" horiz-adv-x="354" 
d="M38 -45l215 492h68l-215 -492h-68z" />
    <glyph glyph-name="uni066C" unicode="&#x66c;" horiz-adv-x="201" 
d="M96 107h77l-94 -237h-56z" />
    <glyph glyph-name="uni066D" unicode="&#x66d;" horiz-adv-x="640" 
d="M281 -49v215l-191 -110l-40 78l183 106l-183 105l40 78l191 -110v214h78v-214l191 110l40 -78l-183 -105l183 -106l-40 -78l-191 110v-215h-78z" />
    <glyph glyph-name="uni066E" unicode="&#x66e;" horiz-adv-x="893" 
d="M139 23.5q-42 23.5 -65.5 63t-23.5 87.5q0 14 1 21q5 46 33 162l73 -19q-2 -9 -15.5 -68.5t-15.5 -83.5q-1 -5 -1 -13q0 -39 28.5 -61t81.5 -22h432q49 0 73.5 27t24.5 65q0 44 -31 183l76 20q33 -143 33 -203q0 -42 -21 -84.5t-61 -70t-94 -27.5h-432q-54 0 -96 23.5z
" />
    <glyph glyph-name="uni066F" unicode="&#x66f;" horiz-adv-x="721" 
d="M167.5 213.5q-19.5 -44.5 -29.5 -90t-10 -89.5q0 -72 16 -114.5t55.5 -62.5t109.5 -20h107q70 0 108.5 16.5t53.5 50.5t15 90v6h-110q-84 0 -135.5 50t-51.5 140q0 61 23.5 111t66 79t96.5 29q57 0 100 -27.5t66 -77.5t23 -114v-196q0 -114 -60.5 -180.5t-194.5 -66.5
h-107q-134 0 -196.5 75t-62.5 212q0 77 18 136t50 131l72 -36q-3 -7 -22.5 -51.5zM400 112.5q26 -22.5 83 -22.5h110v100q0 61 -28 95.5t-83 34.5q-51 0 -79.5 -35.5t-28.5 -94.5q0 -55 26 -77.5z" />
    <glyph glyph-name="uni0670" unicode="&#x670;" 
d="M12 474v189h40v-189h-40z" />
    <glyph glyph-name="uni0688" unicode="&#x688;" horiz-adv-x="504" 
d="M422 255q32 -49 32 -108q0 -45 -21 -75q-29 -41 -70 -56.5t-90 -15.5h-54q-54 0 -97.5 15.5t-71.5 35.5l41 76q3 -1 19.5 -11.5t45.5 -18t63 -7.5h54q36 0 59.5 7.5t36.5 26.5q9 12 9 27q0 22 -22 56q-94 148 -152 234l66 50zM140 688l29 -38l22 33v145h41v-94
q25 22 55 22q36 0 58 -28.5t22 -67.5q0 -42 -24 -66.5t-61 -24.5h-43q-33 0 -52.5 8.5t-33 23.5t-45.5 57zM239 619h43q24 0 34.5 9.5t10.5 31.5q0 46 -40 46q-17 0 -28.5 -9t-26.5 -32l-28 -42q12 -4 35 -4z" />
    <glyph glyph-name="uni0691" unicode="&#x691;" horiz-adv-x="372" 
d="M327 308v-282q0 -135 -68 -206.5t-196 -71.5h-63v90h63q100 0 143 43t43 145v282h78zM128 475l29 -38l22 33v145h41v-94q25 22 55 22q36 0 58 -28.5t22 -67.5q0 -42 -24 -66.5t-61 -24.5h-43q-33 0 -52.5 8.5t-33 23.5t-45.5 57zM227 406h43q24 0 34.5 9.5t10.5 31.5
q0 46 -40 46q-17 0 -28.5 -9t-26.5 -32l-28 -42q12 -4 35 -4z" />
    <glyph glyph-name="uni0695" unicode="&#x695;" horiz-adv-x="372" 
d="M327 308v-282q0 -135 -68 -206.5t-196 -71.5h-63v90h63q100 0 143 43t43 145v282h78zM70 -340l64 -101l64 101l34 -26l-71 -113h-54l-71 113z" />
    <glyph glyph-name="uni06A1" unicode="&#x6a1;" horiz-adv-x="896" 
d="M139 23.5q-42 23.5 -65.5 63t-23.5 87.5q0 14 1 21q5 46 33 162l73 -19q-2 -9 -15.5 -68.5t-15.5 -83.5q-1 -5 -1 -13q0 -39 28.5 -61t81.5 -22h365q57 0 89.5 6.5t49 21t23.5 41.5h-84q-46 0 -84 21.5t-60.5 60t-22.5 88.5t23 93t61.5 68.5t82.5 25.5q48 0 86 -25.5
t59.5 -68.5t21.5 -93v-102q0 -76 -22 -125.5t-75.5 -75.5t-147.5 -26h-365q-54 0 -96 23.5zM678 249h89v80q0 46 -22.5 71.5t-66.5 25.5q-41 0 -65 -26.5t-24 -70.5q0 -80 89 -80z" />
    <glyph glyph-name="uni06B5" unicode="&#x6b5;" horiz-adv-x="661" 
d="M167 -211q-58 41 -87.5 108t-29.5 143q0 49 15.5 106t36.5 102l69 -34q-18 -38 -30.5 -86t-12.5 -88q0 -91 44.5 -146.5t135.5 -55.5h49q68 0 106 15.5t54 49t16 91.5l-1 655h78l1 -655q0 -116 -61 -181t-193 -65h-49q-83 0 -141 41zM504 821l64 -101l64 101l34 -26
l-71 -113h-54l-71 113z" />
    <glyph glyph-name="uni06BA" unicode="&#x6ba;" horiz-adv-x="719" 
d="M128 40q0 -91 44.5 -146.5t135.5 -55.5h107q68 0 106 15.5t54 49t16 91.5v314h78v-314q0 -116 -61 -181t-193 -65h-107q-83 0 -141 41t-87.5 108t-29.5 143q0 122 68 248l66 -36q-56 -114 -56 -212z" />
    <glyph glyph-name="uni06C1" unicode="&#x6c1;" horiz-adv-x="495" 
d="M281 443q61 -66 93 -105t51.5 -79.5t19.5 -82.5q0 -51 -27 -93t-72.5 -66t-97.5 -24q-53 0 -98.5 24t-72.5 66t-27 93q0 45 18.5 86t45.5 74t75 84l-25 28l58 60zM160.5 109q32.5 -26 87.5 -26q54 0 86.5 26t32.5 67q0 33 -26 69.5t-94 111.5q-65 -68 -92 -105t-27 -76
q0 -41 32.5 -67z" />
    <glyph glyph-name="uni06C2" unicode="&#x6c2;" horiz-adv-x="495" 
d="M281 443q61 -66 93 -105t51.5 -79.5t19.5 -82.5q0 -51 -27 -93t-72.5 -66t-97.5 -24q-53 0 -98.5 24t-72.5 66t-27 93q0 45 18.5 86t45.5 74t75 84l-25 28l58 60zM182 610q-45 28 -45 80q0 40 28 66.5t67 28.5q20 0 66 -10l-8 -48q-38 8 -58 8q-26 -2 -40 -14t-14 -32
q0 -23 20.5 -39t51.5 -16q6 0 20 2l65 19l3 -50l-208 -61l-3 50zM160.5 109q32.5 -26 87.5 -26q54 0 86.5 26t32.5 67q0 33 -26 69.5t-94 111.5q-65 -68 -92 -105t-27 -76q0 -41 32.5 -67z" />
    <glyph glyph-name="uni06C3" unicode="&#x6c3;" horiz-adv-x="495" 
d="M281 443q61 -66 93 -105t51.5 -79.5t19.5 -82.5q0 -51 -27 -93t-72.5 -66t-97.5 -24q-53 0 -98.5 24t-72.5 66t-27 93q0 45 18.5 86t45.5 74t75 84l-25 28l58 60zM108 649h100v-100h-100v100zM160.5 109q32.5 -26 87.5 -26q54 0 86.5 26t32.5 67q0 33 -26 69.5t-94 111.5
q-65 -68 -92 -105t-27 -76q0 -41 32.5 -67zM287 649h100v-100h-100v100z" />
    <glyph glyph-name="uni06C9" unicode="&#x6c9;" horiz-adv-x="475" 
d="M278.5 -145.5q38.5 16.5 53.5 50.5t15 90v6h-110q-84 0 -135.5 50t-51.5 140q0 61 23.5 111t66 79t96.5 29q57 0 100 -27.5t66 -77.5t23 -114v-196q0 -114 -60.5 -180.5t-194.5 -66.5h-107v90h107q70 0 108.5 16.5zM154 113.5q26 -22.5 83 -22.5h110v100q0 61 -28 95.5
t-83 34.5q-51 0 -79.5 -35.5t-28.5 -94.5q0 -55 26 -77.5zM214 610h54l71 -113l-34 -26l-64 101l-64 -101l-34 26z" />
    <glyph glyph-name="uni06CE" unicode="&#x6ce;" horiz-adv-x="740" 
d="M128 44q0 -91 45.5 -148.5t133.5 -57.5h108q94 0 134.5 31.5t40.5 102.5q0 10 -3.5 13t-18.5 7l-212 57q-16 48 -16 95q0 49 16.5 92.5t45.5 76.5q37 42 87 64.5t103 22.5q52 0 98 -11l-18 -88q-34 9 -77 9q-84 0 -135 -57q-43 -48 -43 -103q0 -7 2 -25l171 -47
q41 -12 59.5 -38t18.5 -69q0 -106 -66.5 -164.5t-186.5 -58.5h-108q-79 0 -137.5 41t-89 108.5t-30.5 144.5q0 107 66 255l72 -38q-60 -129 -60 -215zM172 516l64 -101l64 101l34 -26l-71 -113h-54l-71 113z" />
    <glyph glyph-name="uni06D4" unicode="&#x6d4;" horiz-adv-x="294" 
d="M104.5 17.5q-17.5 17.5 -17.5 42.5t17.5 42.5t42.5 17.5t42.5 -17.5t17.5 -42.5t-17.5 -42.5t-42.5 -17.5t-42.5 17.5z" />
    <glyph glyph-name="uni06D5" unicode="&#x6d5;" horiz-adv-x="495" 
d="M281 443q61 -66 93 -105t51.5 -79.5t19.5 -82.5q0 -51 -27 -93t-72.5 -66t-97.5 -24q-53 0 -98.5 24t-72.5 66t-27 93q0 45 18.5 86t45.5 74t75 84l-25 28l58 60zM160.5 109q32.5 -26 87.5 -26q54 0 86.5 26t32.5 67q0 33 -26 69.5t-94 111.5q-65 -68 -92 -105t-27 -76
q0 -41 32.5 -67z" />
    <glyph glyph-name="uni06F0" unicode="&#x6f0;" horiz-adv-x="484" 
d="M161 64.5q-37 21.5 -59 58.5t-22 79q0 43 22 79.5t59 58t81 21.5t81 -21.5t59 -58t22 -79.5q0 -42 -22 -79t-59 -58.5t-81 -21.5t-81 21.5zM186.5 144.5q22.5 -22.5 55.5 -22.5t55 22.5t22 57.5t-22 57.5t-55 22.5t-55.5 -22.5t-22.5 -57.5t22.5 -57.5z" />
    <glyph glyph-name="uni06F1" unicode="&#x6f1;" horiz-adv-x="238" 
d="M164.5 465q13.5 -114 13.5 -242v-33l-2 -190h-78l2 190v33q0 121 -12 224.5t-48 184.5l72 36q39 -89 52.5 -203z" />
    <glyph glyph-name="uni06F2" unicode="&#x6f2;" horiz-adv-x="467" 
d="M156 520q11 -46 36.5 -63t65.5 -17q35 0 58 18.5t23 56.5q0 5 -2 19l-18 121l78 14l18 -123q2 -10 2 -30q0 -50 -23.5 -88t-60 -58t-75.5 -20q-50 0 -84 22q4 -66 4 -182l-2 -190h-78l2 190v33q0 121 -12 224.5t-48 184.5l72 36q28 -63 44 -148z" />
    <glyph glyph-name="uni06F3" unicode="&#x6f3;" horiz-adv-x="655" 
d="M158 506q10 -46 33.5 -62.5t62.5 -16.5q32 0 52.5 18t20.5 56q0 13 -1 20l-15 108l78 12l15 -108l1 -8q9 -56 27 -77t49 -21q33 0 49.5 15.5t16.5 51.5q0 7 -2 27l-15 123l78 10l15 -121q2 -24 2 -34q0 -78 -42 -120t-102 -42q-70 0 -108 63q-22 -30 -54 -46.5t-65 -16.5
q-44 0 -79 22q3 -62 3 -169l-2 -190h-78l2 190v33q0 121 -12 224.5t-48 184.5l72 36q29 -64 46 -162z" />
    <glyph glyph-name="uni06F4" unicode="&#x6f4;" horiz-adv-x="589" 
d="M154 530q9 -49 26.5 -77t49.5 -43q-30 42 -30 97q0 50 24 91.5t65 66t89 24.5q45 0 75 -13t75 -44l21 -14l-39 -64q-57 31 -79.5 40.5t-52.5 9.5q-41 0 -70.5 -28t-29.5 -69q0 -53 44 -87t135 -38h76v-90q-145 0 -227 13t-131 51q3 -60 3 -166l-2 -190h-78l2 190v33
q0 121 -12 224.5t-48 184.5l72 36q25 -56 42 -138z" />
    <glyph glyph-name="uni06F5" unicode="&#x6f5;" horiz-adv-x="593" 
d="M340 158q0 -19 -3 -36q8 -18 25 -28.5t42 -10.5q38 0 60.5 23.5t22.5 72.5q0 71 -52.5 164.5t-156.5 192.5q-86 -99 -128.5 -188t-42.5 -157q0 -56 20 -81t58 -25t61.5 23t23.5 66q0 7 -2 25l64 15q8 -27 8 -56zM77 378q47 106 139 214l-30 24l51 68q107 -84 180 -175
t109.5 -176.5t36.5 -156.5q0 -56 -22 -96t-58 -60.5t-76 -20.5q-31 -1 -60.5 11t-50.5 36q-22 -22 -51 -34t-62 -12q-40 0 -75 21.5t-56.5 63.5t-21.5 102q0 85 47 191z" />
    <glyph glyph-name="uni06F6" unicode="&#x6f6;" horiz-adv-x="510" 
d="M368 335q-44 -42 -76 -84t-81 -115l-107 -157l-64 45l107 156q62 90 97 134q-45 -2 -82 14t-64 48q-43 52 -43 118q0 39 16 74.5t46 61.5q35 29 67.5 38t84.5 14l24 3l13 -74q-64 -13 -87.5 -20t-46.5 -28q-17 -14 -26.5 -34t-9.5 -41q0 -36 23 -63q28 -34 75 -34
q63 0 156 65l41 27l39 -71q-58 -35 -102 -77z" />
    <glyph glyph-name="uni06F7" unicode="&#x6f7;" horiz-adv-x="582" 
d="M169 303.5q-28 91.5 -54.5 152t-84.5 168.5l68 42q53 -99 79.5 -156.5t51 -131t63.5 -214.5q32 126 56 200.5t47 125t67 137.5q6 11 11 20.5t9 17.5l70 -42q-5 -10 -9 -17.5t-7 -13.5q-54 -105 -79.5 -163t-52.5 -150t-73 -279h-77q-57 212 -85 303.5z" />
    <glyph glyph-name="uni06F8" unicode="&#x6f8;" horiz-adv-x="582" 
d="M413 361.5q28 -91.5 54.5 -152t84.5 -168.5l-68 -42q-53 99 -79.5 156.5t-51 131t-63.5 214.5q-32 -126 -56 -200.5t-47 -125t-67 -137.5q-6 -11 -11 -20.5t-9 -17.5l-70 42q5 10 9 17.5t7 13.5q54 105 79.5 163t52.5 150t73 279h77q57 -212 85 -303.5z" />
    <glyph glyph-name="uni06F9" unicode="&#x6f9;" horiz-adv-x="423" 
d="M288.5 77q-5.5 31 -7.5 79.5t-3 144.5h-85q-72 0 -117.5 42t-45.5 124q0 61 20 108t57 73t85 26q77 0 120.5 -55.5t43.5 -151.5q0 -188 1 -255t6 -104t20 -101l-76 -16q-13 55 -18.5 86zM126.5 406.5q18.5 -15.5 66.5 -15.5h85v76q0 64 -19.5 90.5t-66.5 26.5
q-43 0 -63.5 -28.5t-20.5 -88.5q0 -45 18.5 -60.5z" />
    <glyph glyph-name="uni2009" unicode="&#x2009;" horiz-adv-x="110" 
 />
    <glyph glyph-name="uni200A" unicode="&#x200a;" horiz-adv-x="64" 
 />
    <glyph glyph-name="uni200B" unicode="&#x200b;" 
 />
    <glyph glyph-name="uni200C" unicode="&#x200c;" 
 />
    <glyph glyph-name="uni200D" unicode="&#x200d;" 
 />
    <glyph glyph-name="uni200E" unicode="&#x200e;" 
 />
    <glyph glyph-name="uni200F" unicode="&#x200f;" 
 />
    <glyph glyph-name="quoteleft" unicode="&#x2018;" horiz-adv-x="193" 
d="M141 523v-82h-88v71q0 48 24 98t61 80l51 -36q-45 -65 -48 -131z" />
    <glyph glyph-name="quoteright" unicode="&#x2019;" horiz-adv-x="193" 
d="M52 634v82h88v-71q0 -48 -24 -98t-61 -80l-51 36q45 65 48 131z" />
    <glyph glyph-name="quotedblleft" unicode="&#x201c;" horiz-adv-x="360" 
d="M308 525v-82h-88v71q0 49 24 98.5t61 79.5l51 -36q-46 -63 -48 -131zM74 514q0 49 23.5 98.5t61.5 79.5l51 -36q-46 -63 -48 -131v-82h-88v71z" />
    <glyph glyph-name="quotedblright" unicode="&#x201d;" horiz-adv-x="340" 
d="M52 566v82h88v-71q0 -48 -24 -98t-61 -80l-51 36q45 65 48 131zM198 566v82h88v-71q0 -49 -23.5 -98.5t-61.5 -79.5l-51 36q47 65 48 131z" />
    <glyph glyph-name="quotedblbase" unicode="&#x201e;" horiz-adv-x="372" 
d="M64 25v82h88v-71q0 -48 -24 -98t-61 -80l-51 36q45 65 48 131zM210 25v82h88v-71q0 -49 -23.5 -98.5t-61.5 -79.5l-51 36q47 65 48 131z" />
    <glyph glyph-name="bullet" unicode="&#x2022;" horiz-adv-x="447" 
d="M136.5 24q-36.5 36 -36.5 87t36.5 87t87.5 36t87 -36t36 -87t-36 -87t-87 -36t-87.5 36z" />
    <glyph glyph-name="ellipsis" unicode="&#x2026;" horiz-adv-x="818" 
d="M109.5 17.5q-17.5 17.5 -17.5 42.5t17.5 42.5t42.5 17.5t42.5 -17.5t17.5 -42.5t-17.5 -42.5t-42.5 -17.5t-42.5 17.5zM365.5 102.5q17.5 17.5 42.5 17.5t42.5 -17.5t17.5 -42.5t-17.5 -42.5t-42.5 -17.5t-42.5 17.5t-17.5 42.5t17.5 42.5zM623.5 102.5
q17.5 17.5 42.5 17.5t42.5 -17.5t17.5 -42.5t-17.5 -42.5t-42.5 -17.5t-42.5 17.5t-17.5 42.5t17.5 42.5z" />
    <glyph glyph-name="minute" unicode="&#x2032;" horiz-adv-x="174" 
d="M124 696l-11 -180h-63l1 193v41h73v-54z" />
    <glyph glyph-name="second" unicode="&#x2033;" horiz-adv-x="305" 
d="M275 696l-11 -180h-63l1 193v41h73v-54zM71 709v41h73v-54l-11 -180h-63z" />
    <glyph glyph-name="guilsinglleft" unicode="&#x2039;" horiz-adv-x="224" 
d="M174 23l-42 -45q-40 46 -66.5 106.5t-26.5 134.5t26.5 134.5t66.5 106.5l42 -45q-73 -92 -73 -196t73 -196z" />
    <glyph glyph-name="guilsinglright" unicode="&#x203a;" horiz-adv-x="224" 
d="M50 415l42 45q40 -46 66.5 -106.5t26.5 -134.5t-26.5 -134.5t-66.5 -106.5l-42 45q73 92 73 196t-73 196z" />
    <glyph glyph-name="fraction" unicode="&#x2044;" horiz-adv-x="455" 
d="M80 54l-51 32l347 556l51 -33z" />
    <glyph glyph-name="uni2070" unicode="&#x2070;" horiz-adv-x="367" 
d="M289.5 322.5q-37.5 -42.5 -105.5 -42.5t-106 42t-39 120v69q0 80 37.5 122.5t106.5 42.5q68 0 105.5 -42t38.5 -119v-71q0 -79 -37.5 -121.5zM184 342q64 0 66 89v87q0 94 -67 94q-66 0 -67 -88v-87q0 -95 68 -95z" />
    <glyph glyph-name="uni2074" unicode="&#x2074;" horiz-adv-x="367" 
d="M289 431h52v-63h-52v-83h-77v83h-183l-3 49l184 253h79v-239zM212 431v141l-8 -14l-100 -127h108z" />
    <glyph glyph-name="uni2075" unicode="&#x2075;" horiz-adv-x="367" 
d="M55 474l24 196h234v-64h-171l-11 -83q33 14 68 14q63 0 98 -33.5t35 -92.5q0 -60 -39 -95.5t-105 -35.5q-60 0 -100.5 31t-43.5 79h76q5 -48 68 -48q32 0 49.5 18.5t17.5 51.5q0 31 -19.5 49.5t-54.5 18.5q-36 0 -65 -21z" />
    <glyph glyph-name="uni2076" unicode="&#x2076;" horiz-adv-x="367" 
d="M161 583.5q-37 -26.5 -42 -80.5q34 37 91 37t90 -34.5t33 -94.5q0 -57 -39 -94t-103 -37q-68 0 -108.5 41t-40.5 113v25q0 103 57.5 159t170.5 57v-64q-72 -1 -109 -27.5zM138 363.5q20 -21.5 51 -21.5q30 0 49 19.5t19 49.5q0 31 -17.5 49t-50.5 18q-24 0 -43 -10.5
t-28 -26.5v-16q0 -40 20 -61.5z" />
    <glyph glyph-name="uni2077" unicode="&#x2077;" horiz-adv-x="367" 
d="M331 626l-171 -341h-81l171 322h-222v63h303v-44z" />
    <glyph glyph-name="uni2078" unicode="&#x2078;" horiz-adv-x="367" 
d="M78 309.5q-39 29.5 -39 80.5q0 32 17.5 56t49.5 37q-58 27 -58 85q0 50 37 79t98 29t98 -29t37 -79q0 -58 -58 -85q68 -29 68 -93q0 -51 -39 -80.5t-105 -29.5q-67 0 -106 29.5zM135.5 355q20.5 -14 49.5 -14q27 0 46.5 14.5t19.5 40.5t-18.5 40t-49.5 14t-49.5 -14
t-18.5 -40q0 -27 20.5 -41zM140.5 527.5q15.5 -13.5 42.5 -13.5t42.5 13.5t15.5 36.5t-15.5 36t-42.5 13t-42.5 -13t-15.5 -37q0 -22 15.5 -35.5z" />
    <glyph glyph-name="uni2079" unicode="&#x2079;" horiz-adv-x="367" 
d="M207 367q33 23 38 74q-34 -31 -83 -31q-58 0 -92 34t-34 94t39.5 99t102.5 39q67 0 105 -40.5t40 -112.5v-30q0 -102 -53 -154t-168 -57v62q72 0 105 23zM130 488q18 -19 50 -19q47 0 66 34v30q0 39 -18.5 59t-49.5 20q-29 0 -47.5 -20.5t-18.5 -53.5q0 -31 18 -50z" />
    <glyph glyph-name="uni2080" unicode="&#x2080;" horiz-adv-x="367" 
d="M289.5 37.5q-37.5 -42.5 -105.5 -42.5t-106 42t-39 120v69q0 80 37.5 122.5t106.5 42.5q68 0 105.5 -42t38.5 -119v-71q0 -79 -37.5 -121.5zM184 57q64 0 66 89v87q0 94 -67 94q-66 0 -67 -88v-87q0 -95 68 -95z" />
    <glyph glyph-name="uni2081" unicode="&#x2081;" horiz-adv-x="367" 
d="M242 0h-77v293l-105 -27v62l173 57h9v-385z" />
    <glyph glyph-name="uni2082" unicode="&#x2082;" horiz-adv-x="367" 
d="M333 0h-292v53l147 137q53 50 53 84q0 24 -16 39t-45 15q-35 0 -53 -18t-18 -47h-77q0 55 41.5 91.5t105.5 36.5q65 0 102 -31t37 -85q0 -51 -52 -103l-41 -39l-86 -70h194v-63z" />
    <glyph glyph-name="uni2083" unicode="&#x2083;" horiz-adv-x="367" 
d="M129 224h41q36 0 54 14.5t18 38.5q0 23 -16.5 37t-48.5 14q-28 0 -46.5 -12.5t-18.5 -32.5h-76q0 48 39.5 78t100.5 30q67 0 105 -29.5t38 -80.5q0 -28 -17.5 -50t-49.5 -34q73 -19 73 -90q0 -51 -41.5 -81.5t-107.5 -30.5t-106 31t-40 82h77q0 -22 20 -36.5t52 -14.5
q33 0 51.5 14.5t18.5 39.5q0 56 -77 56h-43v57z" />
    <glyph glyph-name="uni2084" unicode="&#x2084;" horiz-adv-x="367" 
d="M289 146h52v-63h-52v-83h-77v83h-183l-3 49l184 253h79v-239zM212 146v141l-8 -14l-100 -127h108z" />
    <glyph glyph-name="uni2085" unicode="&#x2085;" horiz-adv-x="367" 
d="M55 189l24 196h234v-64h-171l-11 -83q33 14 68 14q63 0 98 -33.5t35 -92.5q0 -60 -39 -95.5t-105 -35.5q-60 0 -100.5 31t-43.5 79h76q5 -48 68 -48q32 0 49.5 18.5t17.5 51.5q0 31 -19.5 49.5t-54.5 18.5q-36 0 -65 -21z" />
    <glyph glyph-name="uni2086" unicode="&#x2086;" horiz-adv-x="367" 
d="M161 298.5q-37 -26.5 -42 -80.5q34 37 91 37t90 -34.5t33 -94.5q0 -57 -39 -94t-103 -37q-68 0 -108.5 41t-40.5 113v25q0 103 57.5 159t170.5 57v-64q-72 -1 -109 -27.5zM138 78.5q20 -21.5 51 -21.5q30 0 49 19.5t19 49.5q0 31 -17.5 49t-50.5 18q-24 0 -43 -10.5
t-28 -26.5v-16q0 -40 20 -61.5z" />
    <glyph glyph-name="uni2087" unicode="&#x2087;" horiz-adv-x="367" 
d="M331 341l-171 -341h-81l171 322h-222v63h303v-44z" />
    <glyph glyph-name="uni2088" unicode="&#x2088;" horiz-adv-x="367" 
d="M78 24.5q-39 29.5 -39 80.5q0 32 17.5 56t49.5 37q-58 27 -58 85q0 50 37 79t98 29t98 -29t37 -79q0 -58 -58 -85q68 -29 68 -93q0 -51 -39 -80.5t-105 -29.5q-67 0 -106 29.5zM135.5 70q20.5 -14 49.5 -14q27 0 46.5 14.5t19.5 40.5t-18.5 40t-49.5 14t-49.5 -14
t-18.5 -40q0 -27 20.5 -41zM140.5 242.5q15.5 -13.5 42.5 -13.5t42.5 13.5t15.5 36.5t-15.5 36t-42.5 13t-42.5 -13t-15.5 -37q0 -22 15.5 -35.5z" />
    <glyph glyph-name="uni2089" unicode="&#x2089;" horiz-adv-x="367" 
d="M207 82q33 23 38 74q-34 -31 -83 -31q-58 0 -92 34t-34 94t39.5 99t102.5 39q67 0 105 -40.5t40 -112.5v-30q0 -102 -53 -154t-168 -57v62q72 0 105 23zM130 203q18 -19 50 -19q47 0 66 34v30q0 39 -18.5 59t-49.5 20q-29 0 -47.5 -20.5t-18.5 -53.5q0 -31 18 -50z" />
    <glyph glyph-name="trademark" unicode="&#x2122;" horiz-adv-x="625" 
d="M483 641l-68 -192h-25l-69 192v-192h-44v262h55l70 -195l71 195h54v-262h-44v192zM50 711h189v-40h-72v-222h-44v222h-73v40z" />
    <glyph glyph-name="partialdiff" unicode="&#x2202;" horiz-adv-x="570" 
d="M164 22q-53 32 -82.5 91.5t-29.5 138.5v7q0 71 28.5 125.5t80 84.5t118.5 30q45 0 86 -19t69 -52q-7 71 -33.5 124t-66 81.5t-86.5 28.5q-61 0 -139 -29l-7 74q44 18 80 25.5t74 7.5q128 0 198 -106t70 -302v-24q0 -95 -30 -167.5t-84 -111.5t-123 -39q-70 0 -123 32z
M181.5 113.5q39.5 -50.5 105.5 -50.5q69 0 108 61t39 168l-2 37q-14 44 -53 70t-91 26q-68 0 -107 -46t-39 -124v-7q0 -84 39.5 -134.5z" />
    <glyph glyph-name="product" unicode="&#x220f;" horiz-adv-x="694" 
d="M612 -104h-91v741h-348v-741h-90v815h529v-815z" />
    <glyph glyph-name="summation" unicode="&#x2211;" horiz-adv-x="585" 
d="M427 282l-283 -339h439v-74h-549v69l297 350l-297 353v70h512v-74h-403l284 -343v-12z" />
    <glyph glyph-name="minus" unicode="&#x2212;" horiz-adv-x="571" 
d="M490 318h-408v74h408v-74z" />
    <glyph glyph-name="uni2215" unicode="&#x2215;" horiz-adv-x="600" 
d="M397 761l65 -21l-259 -806l-65 21z" />
    <glyph glyph-name="radical" unicode="&#x221a;" horiz-adv-x="596" 
d="M273 139l209 572h92l-264 -711h-69l-120 307h-90v75h154z" />
    <glyph glyph-name="infinity" unicode="&#x221e;" horiz-adv-x="1028" 
d="M164.5 25q-54.5 35 -85.5 96.5t-31 137.5q0 80 30.5 144t84.5 99.5t122 35.5q70 0 128.5 -45t97.5 -132q39 87 97 132t130 45q66 0 120 -36t85 -100t31 -145q0 -74 -30.5 -135t-85 -96.5t-121.5 -35.5q-71 0 -129 45t-97 131q-40 -86 -97.5 -131t-127.5 -45
q-67 0 -121.5 35zM179 117q41 -54 107 -54q57 0 104.5 49.5t71.5 141.5v20q-13 57 -40.5 100.5t-63.5 66.5t-73 23q-67 0 -107 -55t-40 -151q0 -87 41 -141zM600 153.5q28 -43.5 64.5 -67t72.5 -23.5q67 0 107 56t40 151q0 56 -18.5 100t-51.5 69t-76 25q-58 0 -106.5 -49
t-71.5 -141v-20q12 -57 40 -100.5z" />
    <glyph glyph-name="integral" unicode="&#x222b;" horiz-adv-x="256" 
d="M134 -172q-40 -41 -117 -41q-28 0 -56 9l9 71q22 -6 38 -6q76 0 76 86v637q0 83 43 129.5t122 46.5q31 0 70 -10l-11 -69q-20 5 -45 5q-89 0 -89 -107v-631q0 -79 -40 -120z" />
    <glyph glyph-name="approxequal" unicode="&#x2248;" horiz-adv-x="563" 
d="M106.5 479q32.5 14 66.5 14q30 0 56 -9t60 -27q33 -17 54.5 -25t46.5 -8q65 0 115 62v-92q-49 -54 -115 -54q-30 0 -56 9.5t-61 27.5q-32 16 -54.5 24.5t-46.5 8.5q-33 0 -65.5 -16t-56.5 -46v92q24 25 56.5 39zM49 236q25 26 57 40t65 14q28 0 52 -8.5t64 -27.5
q35 -17 57 -25.5t46 -8.5q64 0 114 62l1 -92q-50 -53 -115 -53q-30 0 -54.5 8.5t-62.5 27.5q-33 17 -54.5 25t-46.5 8q-33 0 -66 -16t-57 -46v92z" />
    <glyph glyph-name="notequal" unicode="&#x2260;" horiz-adv-x="549" 
d="M481 195h-259l-69 -119l-47 28l53 91h-85v78h131l72 124h-203v79h249l75 128l46 -29l-58 -99h95v-79h-141l-72 -124h213v-78z" />
    <glyph glyph-name="lessequal" unicode="&#x2264;" horiz-adv-x="513" 
d="M129 370l306 -119v-93l-400 179v69l400 178v-93zM42 76h408v-74h-408v74z" />
    <glyph glyph-name="greaterequal" unicode="&#x2265;" horiz-adv-x="514" 
d="M388 373l-323 123v90l417 -179v-68l-417 -179v90zM60 77h408v-74h-408v74z" />
    <glyph glyph-name="uniFBB2" unicode="&#xfbb2;" 
d="M126 368v-100h-100v100h100z" />
    <glyph glyph-name="uniFBB3" unicode="&#xfbb3;" 
d="M126 -78v-100h-100v100h100z" />
    <glyph glyph-name="uniFBB4" unicode="&#xfbb4;" 
d="M119 369v-100h-100v100h100zM198 369h100v-100h-100v100z" />
    <glyph glyph-name="uniFBB5" unicode="&#xfbb5;" 
d="M119 -56v-100h-100v100h100zM198 -56h100v-100h-100v100z" />
    <glyph glyph-name="uniFBB6" unicode="&#xfbb6;" 
d="M208 415v-95h-95v95h95zM18 286h100v-100h-100v100zM202 286h100v-100h-100v100z" />
    <glyph glyph-name="uniFBB9" unicode="&#xfbb9;" 
d="M112 -179h95v-95h-95v95zM17 -45h100v-100h-100v100zM201 -45h100v-100h-100v100z" />
    <glyph glyph-name="uniFD3E" unicode="&#xfd3e;" horiz-adv-x="379" 
d="M110 257q0 -153 63.5 -263t150.5 -186l-47 -58q-103 82 -175.5 210.5t-72.5 296.5q0 173 71.5 298t176.5 209l47 -58q-214 -186 -214 -449z" />
    <glyph glyph-name="uniFD3F" unicode="&#xfd3f;" horiz-adv-x="379" 
d="M278.5 555q71.5 -125 71.5 -298q0 -168 -72.5 -296.5t-175.5 -210.5l-47 58q87 76 150.5 186t63.5 263q0 263 -214 449l47 58q105 -84 176.5 -209z" />
    <glyph glyph-name="uniFEFF" unicode="&#xfeff;" 
 />
    <glyph glyph-name="uni0627.001" horiz-adv-x="278" 
d="M102 579h86v-579h-86v579z" />
    <glyph glyph-name="uni0627.002" horiz-adv-x="239" 
d="M90 649h78l1 -649h-78z" />
    <glyph glyph-name="uni0627.fina.001" horiz-adv-x="276" 
d="M129 53.5q-38 53.5 -38 157.5l-1 368h78l1 -368q0 -54 6.5 -78t26 -33.5t64.5 -9.5h15l5 -45l-5 -45h-15q-99 0 -137 53.5z" />
    <glyph glyph-name="uni066E.medi.001" horiz-adv-x="409" 
d="M280 308v-142q0 -41 20 -58.5t63 -17.5h51l5 -47l-5 -43h-51q-32 0 -67 16t-59 48q-24 -31 -61 -47.5t-75 -16.5h-106v90h106q51 0 76 21t25 67v130h78z" />
    <glyph glyph-name="uni066E.init.001" horiz-adv-x="361" 
d="M-5 90h135q103 0 103 69q0 27 -9.5 81.5t-21.5 106.5l76 20q12 -51 22.5 -112t10.5 -95q0 -42 -20 -78.5t-61 -59t-100 -22.5h-135v90z" />
    <glyph glyph-name="uni0628.medi.alt" horiz-adv-x="376" 
d="M261 308v-142q0 -41 20 -58.5t63 -17.5h37l5 -46l-5 -44h-37q-32 0 -67 16t-59 48q-24 -31 -61 -47.5t-75 -16.5h-87v90h87q51 0 76 21t25 67v130h78zM65 -152h100v-100h-100v100z" />
    <glyph glyph-name="uni0628.init.alt" horiz-adv-x="317" 
d="M-5 90h110q43 0 64 18.5t21 50.5q0 26 -9.5 81.5t-21.5 106.5l76 20q12 -51 22.5 -112t10.5 -95q0 -41 -19 -78t-56 -59.5t-88 -22.5h-110v90zM68 -152h100v-100h-100v100z" />
    <glyph glyph-name="uni067E.medi.alt" horiz-adv-x="409" 
d="M280 308v-142q0 -41 20 -58.5t63 -17.5h51l5 -47l-5 -43h-51q-32 0 -67 16t-59 48q-24 -31 -61 -47.5t-75 -16.5h-106v90h106q51 0 76 21t25 67v130h78zM19 -100h100v-100h-100v100zM114 -234h95v-95h-95v95zM203 -100h100v-100h-100v100z" />
    <glyph glyph-name="uni067E.init.alt" horiz-adv-x="383" 
d="M-2 90h154q103 0 103 69q0 27 -9.5 81.5t-21.5 106.5l76 20q12 -51 22.5 -112t10.5 -95q0 -42 -20 -78.5t-61 -59t-100 -22.5h-154v90zM23 -100h100v-100h-100v100zM118 -234h95v-95h-95v95zM207 -100h100v-100h-100v100z" />
    <glyph glyph-name="uni062A.medi.alt" horiz-adv-x="454" 
d="M325 308v-142q0 -41 20 -58.5t63 -17.5h51l5 -47l-5 -43h-51q-32 0 -67 16t-59 48q-24 -31 -61 -47.5t-75 -16.5h-151v90h151q51 0 76 21t25 67v130h78zM106 521h100v-100h-100v100zM285 521h100v-100h-100v100z" />
    <glyph glyph-name="uni062A.init.alt" horiz-adv-x="416" 
d="M-5 90h183q103 0 103 69q0 27 -9.5 81.5t-21.5 106.5l76 20q12 -51 22.5 -112t10.5 -95q0 -42 -20 -78.5t-61 -59t-100 -22.5h-183v90zM87 585h100v-100h-100v100zM266 585h100v-100h-100v100z" />
    <glyph glyph-name="uni062B.medi.alt" horiz-adv-x="464" 
d="M330 308v-142q0 -41 20 -58.5t63 -17.5h51l5 -47l-5 -43h-51q-32 0 -67 16t-59 48q-24 -31 -61 -47.5t-75 -16.5h-153v90h153q51 0 76 21t25 67v130h78zM74 520h100v-100h-100v100zM169 649h95v-95h-95v95zM258 520h100v-100h-100v100z" />
    <glyph glyph-name="uni062B.init.alt" horiz-adv-x="420" 
d="M-2 90h191q103 0 103 69q0 27 -9.5 81.5t-21.5 106.5l76 20q12 -51 22.5 -112t10.5 -95q0 -42 -20 -78.5t-61 -59t-100 -22.5h-191v90zM85 586h100v-100h-100v100zM180 715h95v-95h-95v95zM269 586h100v-100h-100v100z" />
    <glyph glyph-name="uni062D.fina.001" horiz-adv-x="641" 
d="M567 -252h-246q-92 0 -159.5 32.5t-97.5 117.5q-14 39 -14 83q0 73 41.5 134.5t114.5 90.5l279 113q-102 42 -164.5 64.5t-84.5 22.5q-30 0 -46.5 -13.5t-31.5 -54.5l-76 24q46 134 154 134q27 0 73 -17.5t130 -55.5q26 -11 58.5 -25.5t73.5 -31.5l20 -95l-355 -149
q-54 -23 -81 -59t-27 -79q0 -29 10 -56q18 -50 63 -70t120 -20h246v-90z" />
    <glyph glyph-name="uni0631.003" horiz-adv-x="373" 
d="M275 43q-34 43 -57 124l56 34q15 -61 36.5 -86t60.5 -25h7v-90h-7q-62 0 -96 43z" />
    <glyph glyph-name="uni0643.init.alt" horiz-adv-x="854" 
d="M139 23.5q-42 23.5 -65.5 63t-23.5 87.5q0 14 1 21q5 46 33 162l73 -19q-2 -9 -15.5 -68.5t-15.5 -83.5q-1 -5 -1 -13q0 -39 28.5 -61t81.5 -22h368q44 0 67.5 16t23.5 42q0 31 -34 65l-211 212l24 105l344 151l32 -82l-315 -139l182 -185q25 -26 38 -57t13 -64
q0 -40 -19.5 -75.5t-56.5 -57t-88 -21.5h-368q-54 0 -96 23.5z" />
    <glyph glyph-name="uni0644.001" horiz-adv-x="661" 
d="M167 -211q-58 41 -87.5 108t-29.5 143q0 49 15.5 106t36.5 102l69 -34q-18 -38 -30.5 -86t-12.5 -88q0 -91 44.5 -146.5t135.5 -55.5h49q68 0 106 15.5t54 49t16 91.5l-1 655h78l1 -655q0 -116 -61 -181t-193 -65h-49q-83 0 -141 41z" />
    <glyph glyph-name="uni0649.fina.001" horiz-adv-x="683" 
d="M128 44q0 -91 45.5 -148.5t133.5 -57.5h108q76 0 123 23t47 58q0 29 -36 49q-57 32 -193 32v90h332l5 -45l-5 -45h-55q15 -12 23 -32t8 -44q0 -43 -25 -83t-80.5 -66.5t-143.5 -26.5h-108q-79 0 -137.5 41t-89 108.5t-30.5 144.5q0 107 66 255l72 -38q-60 -129 -60 -215z
" />
    <glyph glyph-name="uni064A.fina.001" horiz-adv-x="683" 
d="M128 44q0 -91 45.5 -148.5t133.5 -57.5h108q76 0 123 23t47 58q0 29 -36 49q-57 32 -193 32v90h332l5 -45l-5 -45h-55q15 -12 23 -32t8 -44q0 -43 -25 -83t-80.5 -66.5t-143.5 -26.5h-108q-79 0 -137.5 41t-89 108.5t-30.5 144.5q0 107 66 255l72 -38q-60 -129 -60 -215z
M327 -343v-100h-100v100h100zM406 -343h100v-100h-100v100z" />
    <glyph glyph-name="uni064A.medi.alt" horiz-adv-x="409" 
d="M280 308v-142q0 -41 20 -58.5t63 -17.5h51l5 -47l-5 -43h-51q-32 0 -67 16t-59 48q-24 -31 -61 -47.5t-75 -16.5h-106v90h106q51 0 76 21t25 67v130h78zM23 -153h100v-100h-100v100zM202 -153h100v-100h-100v100z" />
    <glyph glyph-name="uni064A.init.alt" horiz-adv-x="381" 
d="M-5 90h155q103 0 103 69q0 27 -9.5 81.5t-21.5 106.5l76 20q12 -51 22.5 -112t10.5 -95q0 -42 -20 -78.5t-61 -59t-100 -22.5h-155v90zM23 -154h100v-100h-100v100zM202 -154h100v-100h-100v100z" />
    <glyph glyph-name="uni0626.fina.001" horiz-adv-x="683" 
d="M128 44q0 -91 45.5 -148.5t133.5 -57.5h108q76 0 123 23t47 58q0 29 -36 49q-57 32 -193 32v90h332l5 -45l-5 -45h-55q15 -12 23 -32t8 -44q0 -43 -25 -83t-80.5 -66.5t-143.5 -26.5h-108q-79 0 -137.5 41t-89 108.5t-30.5 144.5q0 107 66 255l72 -38q-60 -129 -60 -215z
M182 376l55 16q-45 28 -45 80q0 40 28 66.5t67 28.5q20 0 66 -10l-8 -48q-38 8 -58 8q-26 -2 -40 -14t-14 -32q0 -23 20.5 -39t51.5 -16q6 0 20 2l65 19l3 -50l-208 -61z" />
    <glyph glyph-name="uni06CE.fina.001" horiz-adv-x="683" 
d="M128 44q0 -91 45.5 -148.5t133.5 -57.5h108q76 0 123 23t47 58q0 29 -36 49q-57 32 -193 32v90h332l5 -45l-5 -45h-55q15 -12 23 -32t8 -44q0 -43 -25 -83t-80.5 -66.5t-143.5 -26.5h-108q-79 0 -137.5 41t-89 108.5t-30.5 144.5q0 107 66 255l72 -38q-60 -129 -60 -215z
M181 358l34 26l64 -101l64 101l34 -26l-71 -113h-54z" />
    <glyph glyph-name="uni06CE.medi.alt" horiz-adv-x="390" 
d="M68 502l34 26l64 -101l64 101l34 -26l-71 -113h-54zM-5 90h106q51 0 76 21t25 67v130h78v-142q0 -41 20 -58.5t63 -17.5h51l5 -47l-5 -43h-51q-32 0 -67 16t-59 48q-24 -31 -61 -47.5t-75 -16.5h-106v90zM23 -153h100v-100h-100v100zM202 -153h100v-100h-100v100z" />
    <glyph glyph-name="uni06CE.init.alt" horiz-adv-x="381" 
d="M69 599l34 26l64 -101l64 101l34 -26l-71 -113h-54zM-2 90h152q103 0 103 69q0 27 -9.5 81.5t-21.5 106.5l76 20q12 -51 22.5 -112t10.5 -95q0 -42 -20 -78.5t-61 -59t-100 -22.5h-152v90zM23 -154h100v-100h-100v100zM202 -154h100v-100h-100v100z" />
    <glyph glyph-name="uni06CC.fina.001" horiz-adv-x="683" 
d="M128 44q0 -91 45.5 -148.5t133.5 -57.5h108q76 0 123 23t47 58q0 29 -36 49q-57 32 -193 32v90h332l5 -45l-5 -45h-55q15 -12 23 -32t8 -44q0 -43 -25 -83t-80.5 -66.5t-143.5 -26.5h-108q-79 0 -137.5 41t-89 108.5t-30.5 144.5q0 107 66 255l72 -38q-60 -129 -60 -215z
" />
    <glyph glyph-name="uni06CC.medi.alt" horiz-adv-x="409" 
d="M280 308v-142q0 -41 20 -58.5t63 -17.5h51l5 -47l-5 -43h-51q-32 0 -67 16t-59 48q-24 -31 -61 -47.5t-75 -16.5h-106v90h106q51 0 76 21t25 67v130h78zM23 -153h100v-100h-100v100zM202 -153h100v-100h-100v100z" />
    <glyph glyph-name="uni06CC.init.alt" horiz-adv-x="381" 
d="M-2 90h152q103 0 103 69q0 27 -9.5 81.5t-21.5 106.5l76 20q12 -51 22.5 -112t10.5 -95q0 -42 -20 -78.5t-61 -59t-100 -22.5h-152v90zM23 -154h100v-100h-100v100zM202 -154h100v-100h-100v100z" />
    <glyph glyph-name="uni06D2.fina.alt" horiz-adv-x="411" 
d="M71 -269q-21 57 -21 113q0 68 29.5 124t84 89t126.5 33h126l5 -45l-5 -45h-123q-77 0 -120.5 -40.5t-43.5 -110.5q0 -8 2 -28h249v-90h-309z" />
    <glyph glyph-name="uni06D3.fina.alt" horiz-adv-x="411" 
d="M71 -269q-21 57 -21 113q0 68 29.5 124t84 89t126.5 33h126l5 -45l-5 -45h-123q-77 0 -120.5 -40.5t-43.5 -110.5q0 -8 2 -28h249v-90h-309zM159 198q-45 28 -45 80q0 40 28 66.5t67 28.5q20 0 66 -10l-8 -48q-38 8 -58 8q-26 -2 -40 -14t-14 -32q0 -23 20.5 -39
t51.5 -16q6 0 20 2l65 19l3 -50l-208 -61l-3 50z" />
    <glyph glyph-name="uni06D3.fina.alt2" horiz-adv-x="367" 
d="M74 -269q-21 57 -21 113q0 68 29.5 124t84 89t126.5 33h79l5 -45l-5 -45h-76q-77 0 -120.5 -40.5t-43.5 -110.5q0 -8 2 -28h395v-90h-455zM166 194q-45 28 -45 80q0 40 28 66.5t67 28.5q20 0 66 -10l-8 -48q-38 8 -58 8q-26 -2 -40 -14t-14 -32q0 -23 20.5 -39t51.5 -16
q6 0 20 2l65 19l3 -50l-208 -61l-3 50z" />
    <glyph glyph-name="uni0640.001" horiz-adv-x="22" 
d="M-2 90h26l5 -45l-5 -45h-26v90z" />
    <glyph glyph-name="uni06440627.001" horiz-adv-x="539" 
d="M50 90h272q45 0 67.5 19.5t22.5 68.5v471h77v-471q0 -61 -25.5 -101t-62.5 -58.5t-72 -18.5h-279v90zM164 588l25 -419l-78 -6l-25 419z" />
    <glyph glyph-name="uni06440627.fina.001" horiz-adv-x="604" 
d="M508 15.5q-32 15.5 -55 46.5q-24 -31 -58 -46.5t-66 -15.5h-279v90h272q45 0 67.5 19.5t22.5 68.5v471h77v-471q0 -43 21 -65.5t62 -22.5h37v-90h-37q-32 0 -64 15.5zM164 588l25 -419l-78 -6l-25 419z" />
    <glyph glyph-name="uni06B50627" horiz-adv-x="539" 
d="M50 90h272q45 0 67.5 19.5t22.5 68.5v471h77v-471q0 -61 -25.5 -101t-62.5 -58.5t-72 -18.5h-279v90zM162 638l27 -469l-78 -6l-27 469zM385 831l64 -101l64 101l34 -26l-71 -113h-54l-71 113z" />
    <glyph glyph-name="uni06B50627.fina" horiz-adv-x="604" 
d="M508 15.5q-32 15.5 -55 46.5q-24 -31 -58 -46.5t-66 -15.5h-279v90h272q45 0 67.5 19.5t22.5 68.5v471h77v-471q0 -43 21 -65.5t62 -22.5h37l5 -45l-5 -45h-37q-32 0 -64 15.5zM162 638l27 -469l-78 -6l-27 469zM385 831l64 -101l64 101l34 -26l-71 -113h-54l-71 113z
" />
    <glyph glyph-name="uni0664.ss03" horiz-adv-x="650" 
d="M185 530q9 -49 26.5 -77t49.5 -43q-30 42 -30 97q0 50 24 91.5t65 66t89 24.5q45 0 75 -13t75 -44l21 -14l-39 -64q-57 31 -79.5 40.5t-52.5 9.5q-41 0 -70.5 -28t-29.5 -69q0 -53 44 -87t135 -38h76v-90q-145 0 -227 13t-131 51q3 -60 3 -166l-2 -190h-78l2 190v33
q0 121 -12 224.5t-48 184.5l72 36q25 -56 42 -138z" />
    <glyph glyph-name="uni0665.ss03" horiz-adv-x="650" 
d="M372 158q0 -19 -3 -36q8 -18 25 -28.5t42 -10.5q38 0 60.5 23.5t22.5 72.5q0 71 -52.5 164.5t-156.5 192.5q-86 -99 -128.5 -188t-42.5 -157q0 -56 20 -81t58 -25t61.5 23t23.5 66q0 7 -2 25l64 15q8 -27 8 -56zM109 378q47 106 139 214l-30 24l51 68q107 -84 180 -175
t109.5 -176.5t36.5 -156.5q0 -56 -22 -96t-58 -60.5t-76 -20.5q-31 -1 -60.5 11t-50.5 36q-22 -22 -51 -34t-62 -12q-40 0 -75 21.5t-56.5 63.5t-21.5 102q0 85 47 191z" />
    <glyph glyph-name="uni0666.ss03" horiz-adv-x="650" 
d="M444 335q-44 -42 -76 -84t-81 -115l-107 -157l-64 45l107 156q62 90 97 134q-45 -2 -82 14t-64 48q-43 52 -43 118q0 39 16 74.5t46 61.5q35 29 67.5 38t84.5 14l24 3l13 -74q-64 -13 -87.5 -20t-46.5 -28q-17 -14 -26.5 -34t-9.5 -41q0 -36 23 -63q28 -34 75 -34
q63 0 156 65l41 27l39 -71q-58 -35 -102 -77z" />
    <glyph glyph-name="uni06F0.ss03" horiz-adv-x="650" 
d="M260 64.5q-37 21.5 -59 58.5t-22 79q0 43 22 79.5t59 58t81 21.5t81 -21.5t59 -58t22 -79.5q0 -42 -22 -79t-59 -58.5t-81 -21.5t-81 21.5zM285.5 144.5q22.5 -22.5 55.5 -22.5t55 22.5t22 57.5t-22 57.5t-55 22.5t-55.5 -22.5t-22.5 -57.5t22.5 -57.5z" />
    <glyph glyph-name="uni06F1.ss03" horiz-adv-x="650" 
d="M364.5 465q13.5 -114 13.5 -242v-33l-2 -190h-78l2 190v33q0 121 -12 224.5t-48 184.5l72 36q39 -89 52.5 -203z" />
    <glyph glyph-name="uni06F2.ss03" horiz-adv-x="650" 
d="M254 520q11 -46 36.5 -63t65.5 -17q35 0 58 18.5t23 56.5q0 5 -2 19l-18 121l78 14l18 -123q2 -10 2 -30q0 -50 -23.5 -88t-60 -58t-75.5 -20q-50 0 -84 22q4 -66 4 -182l-2 -190h-78l2 190v33q0 121 -12 224.5t-48 184.5l72 36q28 -63 44 -148z" />
    <glyph glyph-name="uni06F3.ss03" horiz-adv-x="650" 
d="M148 506q10 -46 33.5 -62.5t62.5 -16.5q32 0 52.5 18t20.5 56q0 13 -1 20l-15 108l78 12l15 -108l1 -8q9 -56 27 -77t49 -21q33 0 49.5 15.5t16.5 51.5q0 7 -2 27l-15 123l78 10l15 -121q2 -24 2 -34q0 -78 -42 -120t-102 -42q-70 0 -108 63q-22 -30 -54 -46.5t-65 -16.5
q-44 0 -79 22q3 -62 3 -169l-2 -190h-78l2 190v33q0 121 -12 224.5t-48 184.5l72 36q29 -64 46 -162z" />
    <glyph glyph-name="uni06F4.ss03" horiz-adv-x="650" 
d="M182 530q9 -49 26.5 -77t49.5 -43q-30 42 -30 97q0 50 24 91.5t65 66t89 24.5q45 0 75 -13t75 -44l21 -14l-39 -64q-57 31 -79.5 40.5t-52.5 9.5q-41 0 -70.5 -28t-29.5 -69q0 -53 44 -87t135 -38h76v-90q-145 0 -227 13t-131 51q3 -60 3 -166l-2 -190h-78l2 190v33
q0 121 -12 224.5t-48 184.5l72 36q25 -56 42 -138z" />
    <glyph glyph-name="uni06F5.ss03" horiz-adv-x="650" 
d="M370 158q0 -19 -3 -36q8 -18 25 -28.5t42 -10.5q38 0 60.5 23.5t22.5 72.5q0 71 -52.5 164.5t-156.5 192.5q-86 -99 -128.5 -188t-42.5 -157q0 -56 20 -81t58 -25t61.5 23t23.5 66q0 7 -2 25l64 15q8 -27 8 -56zM107 378q47 106 139 214l-30 24l51 68q107 -84 180 -175
t109.5 -176.5t36.5 -156.5q0 -56 -22 -96t-58 -60.5t-76 -20.5q-31 -1 -60.5 11t-50.5 36q-22 -22 -51 -34t-62 -12q-40 0 -75 21.5t-56.5 63.5t-21.5 102q0 85 47 191z" />
    <glyph glyph-name="uni06F6.ss03" horiz-adv-x="650" 
d="M446 335q-44 -42 -76 -84t-81 -115l-107 -157l-64 45l107 156q62 90 97 134q-45 -2 -82 14t-64 48q-43 52 -43 118q0 39 16 74.5t46 61.5q35 29 67.5 38t84.5 14l24 3l13 -74q-64 -13 -87.5 -20t-46.5 -28q-17 -14 -26.5 -34t-9.5 -41q0 -36 23 -63q28 -34 75 -34
q63 0 156 65l41 27l39 -71q-58 -35 -102 -77z" />
    <glyph glyph-name="uni06F7.ss03" horiz-adv-x="650" 
d="M209 303.5q-28 91.5 -54.5 152t-84.5 168.5l68 42q53 -99 79.5 -156.5t51 -131t63.5 -214.5q32 126 56 200.5t47 125t67 137.5q6 11 11 20.5t9 17.5l70 -42q-5 -10 -9 -17.5t-7 -13.5q-54 -105 -79.5 -163t-52.5 -150t-73 -279h-77q-57 212 -85 303.5z" />
    <glyph glyph-name="uni06F8.ss03" horiz-adv-x="650" 
d="M446 361.5q28 -91.5 54.5 -152t84.5 -168.5l-68 -42q-53 99 -79.5 156.5t-51 131t-63.5 214.5q-32 -126 -56 -200.5t-47 -125t-67 -137.5q-6 -11 -11 -20.5t-9 -17.5l-70 42q5 10 9 17.5t7 13.5q54 105 79.5 163t52.5 150t73 279h77q57 -212 85 -303.5z" />
    <glyph glyph-name="uni06F9.ss03" horiz-adv-x="650" 
d="M402.5 77q-5.5 31 -7.5 79.5t-3 144.5h-85q-72 0 -117.5 42t-45.5 124q0 61 20 108t57 73t85 26q77 0 120.5 -55.5t43.5 -151.5q0 -188 1 -255t6 -104t20 -101l-76 -16q-13 55 -18.5 86zM240.5 406.5q18.5 -15.5 66.5 -15.5h85v76q0 64 -19.5 90.5t-66.5 26.5
q-43 0 -63.5 -28.5t-20.5 -88.5q0 -45 18.5 -60.5z" />
    <glyph glyph-name="uni06F4.urdu" horiz-adv-x="612" 
d="M572 604l-173 -299h-71l-53 206q-8 30 -21.5 44.5t-34.5 14.5q-5 0 -17 -2q-26 -5 -40 -9q-30 -7 -42.5 -16.5t-12.5 -25.5q0 -9 5 -27l141 -476l-74 -24l-141 474q-7 22 -7 47q0 49 29.5 86.5t83.5 49.5q26 5 40 9q15 3 30 3q49 0 86 -35t51 -91l26 -103l127 220z" />
    <glyph glyph-name="uni06F7.urdu" horiz-adv-x="503" 
d="M275 -1q-120 0 -234 19l-1 30q0 126 47 248.5t125.5 222.5t173.5 163l44 -74q-126 -85 -211.5 -221.5t-98.5 -288.5q77 -9 152 -9q94 0 179 13l12 -90q-90 -13 -188 -13z" />
    <glyph glyph-name="zero.ss01" horiz-adv-x="484" 
d="M161 64.5q-37 21.5 -59 58.5t-22 79q0 43 22 79.5t59 58t81 21.5t81 -21.5t59 -58t22 -79.5q0 -42 -22 -79t-59 -58.5t-81 -21.5t-81 21.5zM186.5 144.5q22.5 -22.5 55.5 -22.5t55 22.5t22 57.5t-22 57.5t-55 22.5t-55.5 -22.5t-22.5 -57.5t22.5 -57.5z" />
    <glyph glyph-name="one.ss01" horiz-adv-x="238" 
d="M164.5 465q13.5 -114 13.5 -242v-33l-2 -190h-78l2 190v33q0 121 -12 224.5t-48 184.5l72 36q39 -89 52.5 -203z" />
    <glyph glyph-name="two.ss01" horiz-adv-x="467" 
d="M156 520q11 -46 36.5 -63t65.5 -17q35 0 58 18.5t23 56.5q0 5 -2 19l-18 121l78 14l18 -123q2 -10 2 -30q0 -50 -23.5 -88t-60 -58t-75.5 -20q-50 0 -84 22q4 -66 4 -182l-2 -190h-78l2 190v33q0 121 -12 224.5t-48 184.5l72 36q28 -63 44 -148z" />
    <glyph glyph-name="three.ss01" horiz-adv-x="655" 
d="M158 506q10 -46 33.5 -62.5t62.5 -16.5q32 0 52.5 18t20.5 56q0 13 -1 20l-15 108l78 12l15 -108l1 -8q9 -56 27 -77t49 -21q33 0 49.5 15.5t16.5 51.5q0 7 -2 27l-15 123l78 10l15 -121q2 -24 2 -34q0 -78 -42 -120t-102 -42q-70 0 -108 63q-22 -30 -54 -46.5t-65 -16.5
q-44 0 -79 22q3 -62 3 -169l-2 -190h-78l2 190v33q0 121 -12 224.5t-48 184.5l72 36q29 -64 46 -162z" />
    <glyph glyph-name="four.ss01" horiz-adv-x="589" 
d="M154 530q9 -49 26.5 -77t49.5 -43q-30 42 -30 97q0 50 24 91.5t65 66t89 24.5q45 0 75 -13t75 -44l21 -14l-39 -64q-57 31 -79.5 40.5t-52.5 9.5q-41 0 -70.5 -28t-29.5 -69q0 -53 44 -87t135 -38h76v-90q-145 0 -227 13t-131 51q3 -60 3 -166l-2 -190h-78l2 190v33
q0 121 -12 224.5t-48 184.5l72 36q25 -56 42 -138z" />
    <glyph glyph-name="five.ss01" horiz-adv-x="593" 
d="M340 158q0 -19 -3 -36q8 -18 25 -28.5t42 -10.5q38 0 60.5 23.5t22.5 72.5q0 71 -52.5 164.5t-156.5 192.5q-86 -99 -128.5 -188t-42.5 -157q0 -56 20 -81t58 -25t61.5 23t23.5 66q0 7 -2 25l64 15q8 -27 8 -56zM77 378q47 106 139 214l-30 24l51 68q107 -84 180 -175
t109.5 -176.5t36.5 -156.5q0 -56 -22 -96t-58 -60.5t-76 -20.5q-31 -1 -60.5 11t-50.5 36q-22 -22 -51 -34t-62 -12q-40 0 -75 21.5t-56.5 63.5t-21.5 102q0 85 47 191z" />
    <glyph glyph-name="six.ss01" horiz-adv-x="510" 
d="M368 335q-44 -42 -76 -84t-81 -115l-107 -157l-64 45l107 156q62 90 97 134q-45 -2 -82 14t-64 48q-43 52 -43 118q0 39 16 74.5t46 61.5q35 29 67.5 38t84.5 14l24 3l13 -74q-64 -13 -87.5 -20t-46.5 -28q-17 -14 -26.5 -34t-9.5 -41q0 -36 23 -63q28 -34 75 -34
q63 0 156 65l41 27l39 -71q-58 -35 -102 -77z" />
    <glyph glyph-name="seven.ss01" horiz-adv-x="582" 
d="M169 303.5q-28 91.5 -54.5 152t-84.5 168.5l68 42q53 -99 79.5 -156.5t51 -131t63.5 -214.5q32 126 56 200.5t47 125t67 137.5q6 11 11 20.5t9 17.5l70 -42q-5 -10 -9 -17.5t-7 -13.5q-54 -105 -79.5 -163t-52.5 -150t-73 -279h-77q-57 212 -85 303.5z" />
    <glyph glyph-name="eight.ss01" horiz-adv-x="582" 
d="M413 361.5q28 -91.5 54.5 -152t84.5 -168.5l-68 -42q-53 99 -79.5 156.5t-51 131t-63.5 214.5q-32 -126 -56 -200.5t-47 -125t-67 -137.5q-6 -11 -11 -20.5t-9 -17.5l-70 42q5 10 9 17.5t7 13.5q54 105 79.5 163t52.5 150t73 279h77q57 -212 85 -303.5z" />
    <glyph glyph-name="nine.ss01" horiz-adv-x="423" 
d="M288.5 77q-5.5 31 -7.5 79.5t-3 144.5h-85q-72 0 -117.5 42t-45.5 124q0 61 20 108t57 73t85 26q77 0 120.5 -55.5t43.5 -151.5q0 -188 1 -255t6 -104t20 -101l-76 -16q-13 55 -18.5 86zM126.5 406.5q18.5 -15.5 66.5 -15.5h85v76q0 64 -19.5 90.5t-66.5 26.5
q-43 0 -63.5 -28.5t-20.5 -88.5q0 -45 18.5 -60.5z" />
    <glyph glyph-name="zero.ss02" horiz-adv-x="484" 
d="M161 64.5q-37 21.5 -59 58.5t-22 79q0 43 22 79.5t59 58t81 21.5t81 -21.5t59 -58t22 -79.5q0 -42 -22 -79t-59 -58.5t-81 -21.5t-81 21.5zM186.5 144.5q22.5 -22.5 55.5 -22.5t55 22.5t22 57.5t-22 57.5t-55 22.5t-55.5 -22.5t-22.5 -57.5t22.5 -57.5z" />
    <glyph glyph-name="one.ss02" horiz-adv-x="238" 
d="M164.5 465q13.5 -114 13.5 -242v-33l-2 -190h-78l2 190v33q0 121 -12 224.5t-48 184.5l72 36q39 -89 52.5 -203z" />
    <glyph glyph-name="two.ss02" horiz-adv-x="467" 
d="M156 520q11 -46 36.5 -63t65.5 -17q35 0 58 18.5t23 56.5q0 5 -2 19l-18 121l78 14l18 -123q2 -10 2 -30q0 -50 -23.5 -88t-60 -58t-75.5 -20q-50 0 -84 22q4 -66 4 -182l-2 -190h-78l2 190v33q0 121 -12 224.5t-48 184.5l72 36q28 -63 44 -148z" />
    <glyph glyph-name="three.ss02" horiz-adv-x="655" 
d="M158 506q10 -46 33.5 -62.5t62.5 -16.5q32 0 52.5 18t20.5 56q0 13 -1 20l-15 108l78 12l15 -108l1 -8q9 -56 27 -77t49 -21q33 0 49.5 15.5t16.5 51.5q0 7 -2 27l-15 123l78 10l15 -121q2 -24 2 -34q0 -78 -42 -120t-102 -42q-70 0 -108 63q-22 -30 -54 -46.5t-65 -16.5
q-44 0 -79 22q3 -62 3 -169l-2 -190h-78l2 190v33q0 121 -12 224.5t-48 184.5l72 36q29 -64 46 -162z" />
    <glyph glyph-name="four.ss02" horiz-adv-x="589" 
d="M154 530q9 -49 26.5 -77t49.5 -43q-30 42 -30 97q0 50 24 91.5t65 66t89 24.5q45 0 75 -13t75 -44l21 -14l-39 -64q-57 31 -79.5 40.5t-52.5 9.5q-41 0 -70.5 -28t-29.5 -69q0 -53 44 -87t135 -38h76v-90q-145 0 -227 13t-131 51q3 -60 3 -166l-2 -190h-78l2 190v33
q0 121 -12 224.5t-48 184.5l72 36q25 -56 42 -138z" />
    <glyph glyph-name="five.ss02" horiz-adv-x="593" 
d="M340 158q0 -19 -3 -36q8 -18 25 -28.5t42 -10.5q38 0 60.5 23.5t22.5 72.5q0 71 -52.5 164.5t-156.5 192.5q-86 -99 -128.5 -188t-42.5 -157q0 -56 20 -81t58 -25t61.5 23t23.5 66q0 7 -2 25l64 15q8 -27 8 -56zM77 378q47 106 139 214l-30 24l51 68q107 -84 180 -175
t109.5 -176.5t36.5 -156.5q0 -56 -22 -96t-58 -60.5t-76 -20.5q-31 -1 -60.5 11t-50.5 36q-22 -22 -51 -34t-62 -12q-40 0 -75 21.5t-56.5 63.5t-21.5 102q0 85 47 191z" />
    <glyph glyph-name="six.ss02" horiz-adv-x="510" 
d="M368 335q-44 -42 -76 -84t-81 -115l-107 -157l-64 45l107 156q62 90 97 134q-45 -2 -82 14t-64 48q-43 52 -43 118q0 39 16 74.5t46 61.5q35 29 67.5 38t84.5 14l24 3l13 -74q-64 -13 -87.5 -20t-46.5 -28q-17 -14 -26.5 -34t-9.5 -41q0 -36 23 -63q28 -34 75 -34
q63 0 156 65l41 27l39 -71q-58 -35 -102 -77z" />
    <glyph glyph-name="seven.ss02" horiz-adv-x="582" 
d="M169 303.5q-28 91.5 -54.5 152t-84.5 168.5l68 42q53 -99 79.5 -156.5t51 -131t63.5 -214.5q32 126 56 200.5t47 125t67 137.5q6 11 11 20.5t9 17.5l70 -42q-5 -10 -9 -17.5t-7 -13.5q-54 -105 -79.5 -163t-52.5 -150t-73 -279h-77q-57 212 -85 303.5z" />
    <glyph glyph-name="eight.ss02" horiz-adv-x="582" 
d="M413 361.5q28 -91.5 54.5 -152t84.5 -168.5l-68 -42q-53 99 -79.5 156.5t-51 131t-63.5 214.5q-32 -126 -56 -200.5t-47 -125t-67 -137.5q-6 -11 -11 -20.5t-9 -17.5l-70 42q5 10 9 17.5t7 13.5q54 105 79.5 163t52.5 150t73 279h77q57 -212 85 -303.5z" />
    <glyph glyph-name="nine.ss02" horiz-adv-x="423" 
d="M288.5 77q-5.5 31 -7.5 79.5t-3 144.5h-85q-72 0 -117.5 42t-45.5 124q0 61 20 108t57 73t85 26q77 0 120.5 -55.5t43.5 -151.5q0 -188 1 -255t6 -104t20 -101l-76 -16q-13 55 -18.5 86zM126.5 406.5q18.5 -15.5 66.5 -15.5h85v76q0 64 -19.5 90.5t-66.5 26.5
q-43 0 -63.5 -28.5t-20.5 -88.5q0 -45 18.5 -60.5z" />
    <glyph glyph-name="zero.ss03" horiz-adv-x="650" 
d="M260 64.5q-37 21.5 -59 58.5t-22 79q0 43 22 79.5t59 58t81 21.5t81 -21.5t59 -58t22 -79.5q0 -42 -22 -79t-59 -58.5t-81 -21.5t-81 21.5zM285.5 144.5q22.5 -22.5 55.5 -22.5t55 22.5t22 57.5t-22 57.5t-55 22.5t-55.5 -22.5t-22.5 -57.5t22.5 -57.5z" />
    <glyph glyph-name="one.ss03" horiz-adv-x="650" 
d="M364.5 465q13.5 -114 13.5 -242v-33l-2 -190h-78l2 190v33q0 121 -12 224.5t-48 184.5l72 36q39 -89 52.5 -203z" />
    <glyph glyph-name="two.ss03" horiz-adv-x="650" 
d="M254 520q11 -46 36.5 -63t65.5 -17q35 0 58 18.5t23 56.5q0 5 -2 19l-18 121l78 14l18 -123q2 -10 2 -30q0 -50 -23.5 -88t-60 -58t-75.5 -20q-50 0 -84 22q4 -66 4 -182l-2 -190h-78l2 190v33q0 121 -12 224.5t-48 184.5l72 36q28 -63 44 -148z" />
    <glyph glyph-name="three.ss03" horiz-adv-x="650" 
d="M148 506q10 -46 33.5 -62.5t62.5 -16.5q32 0 52.5 18t20.5 56q0 13 -1 20l-15 108l78 12l15 -108l1 -8q9 -56 27 -77t49 -21q33 0 49.5 15.5t16.5 51.5q0 7 -2 27l-15 123l78 10l15 -121q2 -24 2 -34q0 -78 -42 -120t-102 -42q-70 0 -108 63q-22 -30 -54 -46.5t-65 -16.5
q-44 0 -79 22q3 -62 3 -169l-2 -190h-78l2 190v33q0 121 -12 224.5t-48 184.5l72 36q29 -64 46 -162z" />
    <glyph glyph-name="four.ss03" horiz-adv-x="650" 
d="M182 530q9 -49 26.5 -77t49.5 -43q-30 42 -30 97q0 50 24 91.5t65 66t89 24.5q45 0 75 -13t75 -44l21 -14l-39 -64q-57 31 -79.5 40.5t-52.5 9.5q-41 0 -70.5 -28t-29.5 -69q0 -53 44 -87t135 -38h76v-90q-145 0 -227 13t-131 51q3 -60 3 -166l-2 -190h-78l2 190v33
q0 121 -12 224.5t-48 184.5l72 36q25 -56 42 -138z" />
    <glyph glyph-name="five.ss03" horiz-adv-x="650" 
d="M370 158q0 -19 -3 -36q8 -18 25 -28.5t42 -10.5q38 0 60.5 23.5t22.5 72.5q0 71 -52.5 164.5t-156.5 192.5q-86 -99 -128.5 -188t-42.5 -157q0 -56 20 -81t58 -25t61.5 23t23.5 66q0 7 -2 25l64 15q8 -27 8 -56zM107 378q47 106 139 214l-30 24l51 68q107 -84 180 -175
t109.5 -176.5t36.5 -156.5q0 -56 -22 -96t-58 -60.5t-76 -20.5q-31 -1 -60.5 11t-50.5 36q-22 -22 -51 -34t-62 -12q-40 0 -75 21.5t-56.5 63.5t-21.5 102q0 85 47 191z" />
    <glyph glyph-name="six.ss03" horiz-adv-x="650" 
d="M446 335q-44 -42 -76 -84t-81 -115l-107 -157l-64 45l107 156q62 90 97 134q-45 -2 -82 14t-64 48q-43 52 -43 118q0 39 16 74.5t46 61.5q35 29 67.5 38t84.5 14l24 3l13 -74q-64 -13 -87.5 -20t-46.5 -28q-17 -14 -26.5 -34t-9.5 -41q0 -36 23 -63q28 -34 75 -34
q63 0 156 65l41 27l39 -71q-58 -35 -102 -77z" />
    <glyph glyph-name="seven.ss03" horiz-adv-x="650" 
d="M209 303.5q-28 91.5 -54.5 152t-84.5 168.5l68 42q53 -99 79.5 -156.5t51 -131t63.5 -214.5q32 126 56 200.5t47 125t67 137.5q6 11 11 20.5t9 17.5l70 -42q-5 -10 -9 -17.5t-7 -13.5q-54 -105 -79.5 -163t-52.5 -150t-73 -279h-77q-57 212 -85 303.5z" />
    <glyph glyph-name="eight.ss03" horiz-adv-x="650" 
d="M446 361.5q28 -91.5 54.5 -152t84.5 -168.5l-68 -42q-53 99 -79.5 156.5t-51 131t-63.5 214.5q-32 -126 -56 -200.5t-47 -125t-67 -137.5q-6 -11 -11 -20.5t-9 -17.5l-70 42q5 10 9 17.5t7 13.5q54 105 79.5 163t52.5 150t73 279h77q57 -212 85 -303.5z" />
    <glyph glyph-name="nine.ss03" horiz-adv-x="650" 
d="M402.5 77q-5.5 31 -7.5 79.5t-3 144.5h-85q-72 0 -117.5 42t-45.5 124q0 61 20 108t57 73t85 26q77 0 120.5 -55.5t43.5 -151.5q0 -188 1 -255t6 -104t20 -101l-76 -16q-13 55 -18.5 86zM240.5 406.5q18.5 -15.5 66.5 -15.5h85v76q0 64 -19.5 90.5t-66.5 26.5
q-43 0 -63.5 -28.5t-20.5 -88.5q0 -45 18.5 -60.5z" />
    <glyph glyph-name="zero.dnom" horiz-adv-x="367" 
d="M289.5 37.5q-37.5 -42.5 -105.5 -42.5t-106 42t-39 120v69q0 80 37.5 122.5t106.5 42.5q68 0 105.5 -42t38.5 -119v-71q0 -79 -37.5 -121.5zM184 57q64 0 66 89v87q0 94 -67 94q-66 0 -67 -88v-87q0 -95 68 -95z" />
    <glyph glyph-name="one.dnom" horiz-adv-x="367" 
d="M242 0h-77v293l-105 -27v62l173 57h9v-385z" />
    <glyph glyph-name="two.dnom" horiz-adv-x="367" 
d="M333 0h-292v53l147 137q53 50 53 84q0 24 -16 39t-45 15q-35 0 -53 -18t-18 -47h-77q0 55 41.5 91.5t105.5 36.5q65 0 102 -31t37 -85q0 -51 -52 -103l-41 -39l-86 -70h194v-63z" />
    <glyph glyph-name="three.dnom" horiz-adv-x="367" 
d="M129 224h41q36 0 54 14.5t18 38.5q0 23 -16.5 37t-48.5 14q-28 0 -46.5 -12.5t-18.5 -32.5h-76q0 48 39.5 78t100.5 30q67 0 105 -29.5t38 -80.5q0 -28 -17.5 -50t-49.5 -34q73 -19 73 -90q0 -51 -41.5 -81.5t-107.5 -30.5t-106 31t-40 82h77q0 -22 20 -36.5t52 -14.5
q33 0 51.5 14.5t18.5 39.5q0 56 -77 56h-43v57z" />
    <glyph glyph-name="four.dnom" horiz-adv-x="367" 
d="M289 146h52v-63h-52v-83h-77v83h-183l-3 49l184 253h79v-239zM212 146v141l-8 -14l-100 -127h108z" />
    <glyph glyph-name="five.dnom" horiz-adv-x="367" 
d="M55 189l24 196h234v-64h-171l-11 -83q33 14 68 14q63 0 98 -33.5t35 -92.5q0 -60 -39 -95.5t-105 -35.5q-60 0 -100.5 31t-43.5 79h76q5 -48 68 -48q32 0 49.5 18.5t17.5 51.5q0 31 -19.5 49.5t-54.5 18.5q-36 0 -65 -21z" />
    <glyph glyph-name="six.dnom" horiz-adv-x="367" 
d="M161 298.5q-37 -26.5 -42 -80.5q34 37 91 37t90 -34.5t33 -94.5q0 -57 -39 -94t-103 -37q-68 0 -108.5 41t-40.5 113v25q0 103 57.5 159t170.5 57v-64q-72 -1 -109 -27.5zM138 78.5q20 -21.5 51 -21.5q30 0 49 19.5t19 49.5q0 31 -17.5 49t-50.5 18q-24 0 -43 -10.5
t-28 -26.5v-16q0 -40 20 -61.5z" />
    <glyph glyph-name="seven.dnom" horiz-adv-x="367" 
d="M331 341l-171 -341h-81l171 322h-222v63h303v-44z" />
    <glyph glyph-name="eight.dnom" horiz-adv-x="367" 
d="M78 24.5q-39 29.5 -39 80.5q0 32 17.5 56t49.5 37q-58 27 -58 85q0 50 37 79t98 29t98 -29t37 -79q0 -58 -58 -85q68 -29 68 -93q0 -51 -39 -80.5t-105 -29.5q-67 0 -106 29.5zM135.5 70q20.5 -14 49.5 -14q27 0 46.5 14.5t19.5 40.5t-18.5 40t-49.5 14t-49.5 -14
t-18.5 -40q0 -27 20.5 -41zM140.5 242.5q15.5 -13.5 42.5 -13.5t42.5 13.5t15.5 36.5t-15.5 36t-42.5 13t-42.5 -13t-15.5 -37q0 -22 15.5 -35.5z" />
    <glyph glyph-name="nine.dnom" horiz-adv-x="367" 
d="M207 82q33 23 38 74q-34 -31 -83 -31q-58 0 -92 34t-34 94t39.5 99t102.5 39q67 0 105 -40.5t40 -112.5v-30q0 -102 -53 -154t-168 -57v62q72 0 105 23zM130 203q18 -19 50 -19q47 0 66 34v30q0 39 -18.5 59t-49.5 20q-29 0 -47.5 -20.5t-18.5 -53.5q0 -31 18 -50z" />
    <glyph glyph-name="zero.numr" horiz-adv-x="367" 
d="M289.5 322.5q-37.5 -42.5 -105.5 -42.5t-106 42t-39 120v69q0 80 37.5 122.5t106.5 42.5q68 0 105.5 -42t38.5 -119v-71q0 -79 -37.5 -121.5zM184 342q64 0 66 89v87q0 94 -67 94q-66 0 -67 -88v-87q0 -95 68 -95z" />
    <glyph glyph-name="one.numr" horiz-adv-x="367" 
d="M242 285h-77v293l-105 -27v62l173 57h9v-385z" />
    <glyph glyph-name="two.numr" horiz-adv-x="367" 
d="M333 285h-292v53l147 137q53 50 53 84q0 24 -16 39t-45 15q-35 0 -53 -18t-18 -47h-77q0 55 41.5 91.5t105.5 36.5q65 0 102 -31t37 -85q0 -51 -52 -103l-41 -39l-86 -70h194v-63z" />
    <glyph glyph-name="three.numr" horiz-adv-x="367" 
d="M129 509h41q36 0 54 14.5t18 38.5q0 23 -16.5 37t-48.5 14q-28 0 -46.5 -12.5t-18.5 -32.5h-76q0 48 39.5 78t100.5 30q67 0 105 -29.5t38 -80.5q0 -28 -17.5 -50t-49.5 -34q73 -19 73 -90q0 -51 -41.5 -81.5t-107.5 -30.5t-106 31t-40 82h77q0 -22 20 -36.5t52 -14.5
q33 0 51.5 14.5t18.5 39.5q0 56 -77 56h-43v57z" />
    <glyph glyph-name="four.numr" horiz-adv-x="367" 
d="M289 431h52v-63h-52v-83h-77v83h-183l-3 49l184 253h79v-239zM212 431v141l-8 -14l-100 -127h108z" />
    <glyph glyph-name="five.numr" horiz-adv-x="367" 
d="M55 474l24 196h234v-64h-171l-11 -83q33 14 68 14q63 0 98 -33.5t35 -92.5q0 -60 -39 -95.5t-105 -35.5q-60 0 -100.5 31t-43.5 79h76q5 -48 68 -48q32 0 49.5 18.5t17.5 51.5q0 31 -19.5 49.5t-54.5 18.5q-36 0 -65 -21z" />
    <glyph glyph-name="six.numr" horiz-adv-x="367" 
d="M161 583.5q-37 -26.5 -42 -80.5q34 37 91 37t90 -34.5t33 -94.5q0 -57 -39 -94t-103 -37q-68 0 -108.5 41t-40.5 113v25q0 103 57.5 159t170.5 57v-64q-72 -1 -109 -27.5zM138 363.5q20 -21.5 51 -21.5q30 0 49 19.5t19 49.5q0 31 -17.5 49t-50.5 18q-24 0 -43 -10.5
t-28 -26.5v-16q0 -40 20 -61.5z" />
    <glyph glyph-name="seven.numr" horiz-adv-x="367" 
d="M331 626l-171 -341h-81l171 322h-222v63h303v-44z" />
    <glyph glyph-name="eight.numr" horiz-adv-x="367" 
d="M78 309.5q-39 29.5 -39 80.5q0 32 17.5 56t49.5 37q-58 27 -58 85q0 50 37 79t98 29t98 -29t37 -79q0 -58 -58 -85q68 -29 68 -93q0 -51 -39 -80.5t-105 -29.5q-67 0 -106 29.5zM135.5 355q20.5 -14 49.5 -14q27 0 46.5 14.5t19.5 40.5t-18.5 40t-49.5 14t-49.5 -14
t-18.5 -40q0 -27 20.5 -41zM140.5 527.5q15.5 -13.5 42.5 -13.5t42.5 13.5t15.5 36.5t-15.5 36t-42.5 13t-42.5 -13t-15.5 -37q0 -22 15.5 -35.5z" />
    <glyph glyph-name="nine.numr" horiz-adv-x="367" 
d="M207 367q33 23 38 74q-34 -31 -83 -31q-58 0 -92 34t-34 94t39.5 99t102.5 39q67 0 105 -40.5t40 -112.5v-30q0 -102 -53 -154t-168 -57v62q72 0 105 23zM130 488q18 -19 50 -19q47 0 66 34v30q0 39 -18.5 59t-49.5 20q-29 0 -47.5 -20.5t-18.5 -53.5q0 -31 18 -50z" />
    <glyph glyph-name="period.001" 
d="M65.5 608.5q-17.5 17.5 -17.5 42.5t17.5 42.5t42.5 17.5t42.5 -17.5t17.5 -42.5t-17.5 -42.5t-42.5 -17.5t-42.5 17.5z" />
    <glyph glyph-name="dotcenter-ar" 
d="M126 -71v-100h-100v100h100z" />
    <glyph glyph-name="twodotshorizontalabove-ar.001" 
d="M25 343l45 45l67 -67l-67 -68l-67 68z" />
    <glyph glyph-name="threedotsdownbelow-ar.001" 
d="M73 397l68 -68l-68 -67q-33 34 -67 67z" />
    <glyph glyph-name="threedotsupabove-ar.002" 
d="M66 389l60 -61l-60 -60l-60 60z" />
    <glyph glyph-name="wasla-ar" 
d="M75 597l29 -38l29 43q22 32 42 47.5t47 15.5q36 0 58 -28.5t22 -67.5q0 -42 -24 -66.5t-61 -24.5h-43q-33 0 -52.5 8.5t-33 23.5t-45.5 57zM174 528h43q24 0 34.5 9.5t10.5 31.5q0 46 -40 46q-17 0 -28.5 -9t-26.5 -32l-28 -42q12 -4 35 -4z" />
    <glyph glyph-name="miniKeheh-ar" 
d="M4 32h67q17 0 17 6q0 5 -8 13l-64 63l9 40l105 48l17 -41l-79 -36l42 -43q17 -17 17 -42q0 -22 -15 -38t-41 -16h-72z" />
    <glyph glyph-name="gafsarkashabove-ar" 
d="M22 490l263 115l15 -38l-283 -124z" />
    <glyph glyph-name="gafsarkashabove-ar.001" 
d="M-97 464l167 234l32 -25l-178 -252z" />
    <glyph glyph-name="uni0654064F" 
d="M24 517l55 16q-45 28 -45 80q0 40 28 66.5t67 28.5q20 0 66 -10l-8 -48q-38 8 -58 8q-26 -2 -40 -14t-14 -32q0 -23 20.5 -39t51.5 -16q6 0 20 2l65 19l3 -50l-208 -61zM78 787q-13 14 -22 40q-5 18 -5 33q0 31 18 55.5t49 35.5q18 7 38 7q30 0 54 -17.5t34 -49.5
q5 -17 5 -29q0 -32 -21.5 -58t-58.5 -38l-147 -48l-12 48zM119 800l43 13q22 7 34.5 20t12.5 29q0 9 -2 14q-5 16 -17.5 24.5t-29.5 8.5q-13 0 -30 -6q-19 -7 -28.5 -19t-9.5 -26q0 -10 2 -15q8 -27 25 -43z" />
    <glyph glyph-name="uni0654064C" 
d="M-2 513l55 16q-45 28 -45 80q0 40 28 66.5t67 28.5q20 0 66 -10l-8 -48q-38 8 -58 8q-26 -2 -40 -14t-14 -32q0 -23 20.5 -39t51.5 -16q6 0 20 2l65 19l3 -50l-208 -61zM-40 882q0 42 20.5 76.5t60.5 52.5l24 -44q-61 -32 -61 -93q0 -33 17 -65l-40 -14q-21 42 -21 87z
M76 803q-13 14 -22 40q-5 18 -5 33q0 31 18 55.5t49 35.5q18 7 38 7q30 0 54 -17.5t34 -49.5q5 -17 5 -29q0 -32 -21.5 -58t-58.5 -38l-147 -48l-12 48zM117 816l43 13q22 7 34.5 20t12.5 29q0 9 -2 14q-5 16 -17.5 24.5t-29.5 8.5q-13 0 -30 -6q-19 -7 -28.5 -19t-9.5 -26
q0 -10 2 -15q8 -27 25 -43z" />
    <glyph glyph-name="uni0654064E" 
d="M9 518l55 16q-45 28 -45 80q0 40 28 66.5t67 28.5q20 0 66 -10l-8 -48q-38 8 -58 8q-26 -2 -40 -14t-14 -32q0 -23 20.5 -39t51.5 -16q6 0 20 2l65 19l3 -50l-208 -61zM8 765l212 69v-50l-212 -68v49z" />
    <glyph glyph-name="uni0654064B" 
d="M5 517l55 16q-45 28 -45 80q0 40 28 66.5t67 28.5q20 0 66 -10l-8 -48q-38 8 -58 8q-26 -2 -40 -14t-14 -32q0 -23 20.5 -39t51.5 -16q6 0 20 2l65 19l3 -50l-208 -61zM5 770l212 69v-50l-212 -68v49zM5 859l212 69v-50l-212 -68v49z" />
    <glyph glyph-name="uni06540652" 
d="M-1 517l55 16q-45 28 -45 80q0 40 28 66.5t67 28.5q20 0 66 -10l-8 -48q-38 8 -58 8q-26 -2 -40 -14t-14 -32q0 -23 20.5 -39t51.5 -16q6 0 20 2l65 19l3 -50l-208 -61zM41 897q27 28 61 28q38 0 65.5 -29t27.5 -71q0 -38 -27.5 -65.5t-63.5 -27.5t-63 28t-27 68
q0 41 27 69zM71.5 792q11.5 -14 30.5 -14q21 0 33.5 13t13.5 34q0 24 -12.5 38.5t-34.5 14.5q-18 0 -30 -14t-12 -36t11.5 -36z" />
    <glyph glyph-name="uni06550650" 
d="M7 -237l55 16q-45 28 -45 80q0 40 28 66.5t67 28.5q20 0 66 -10l-8 -48q-38 8 -58 8q-26 -2 -40 -14t-14 -32q0 -23 20.5 -39t51.5 -16q6 0 20 2l65 19l3 -50l-208 -61zM6 -353l212 69v-50l-212 -68v49z" />
    <glyph glyph-name="uni0655064D" 
d="M1 -197l55 16q-45 28 -45 80q0 40 28 66.5t67 28.5q20 0 66 -10l-8 -48q-38 8 -58 8q-26 -2 -40 -14t-14 -32q0 -23 20.5 -39t51.5 -16q6 0 20 2l65 19l3 -50l-208 -61zM1 -397l212 69v-50l-212 -68v49zM1 -308l212 69v-50l-212 -68v49z" />
    <glyph glyph-name="uni0651064B" 
d="M26 575v-50q0 -32 40 -32t40 32v50h40v-50q0 -17 9 -24.5t26 -7.5q22 0 30.5 7t8.5 19t-3 26.5t-4 19.5q-2 6 -3 11.5t-2 10.5l40 10q2 -10 6.5 -29t5.5 -29t1 -21q0 -30 -18.5 -52.5t-61.5 -22.5q-14 0 -29.5 5.5t-26.5 17.5q-20 -23 -59 -23q-30 0 -55 20.5t-25 61.5
v50h40zM18 677l212 69v-50l-212 -68v49zM18 766l212 69v-50l-212 -68v49z" />
    <glyph glyph-name="uni0651064C" 
d="M13 578v-50q0 -32 40 -32t40 32v50h40v-50q0 -17 9 -24.5t26 -7.5q22 0 30.5 7t8.5 19t-3 26.5t-4 19.5q-2 6 -3 11.5t-2 10.5l40 10q2 -10 6.5 -29t5.5 -29t1 -21q0 -30 -18.5 -52.5t-61.5 -22.5q-14 0 -29.5 5.5t-26.5 17.5q-20 -23 -59 -23q-30 0 -55 20.5t-25 61.5
v50h40zM-32 773q0 42 20.5 76.5t60.5 52.5l24 -44q-61 -32 -61 -93q0 -33 17 -65l-40 -14q-21 42 -21 87zM84 694q-13 14 -22 40q-5 18 -5 33q0 31 18 55.5t49 35.5q18 7 38 7q30 0 54 -17.5t34 -49.5q5 -17 5 -29q0 -32 -21.5 -58t-58.5 -38l-147 -48l-12 48zM125 707
l43 13q22 7 34.5 20t12.5 29q0 9 -2 14q-5 16 -17.5 24.5t-29.5 8.5q-13 0 -30 -6q-19 -7 -28.5 -19t-9.5 -26q0 -10 2 -15q8 -27 25 -43z" />
    <glyph glyph-name="uni0651064D" 
d="M16 783v-50q0 -32 40 -32t40 32v50h40v-50q0 -17 9 -24.5t26 -7.5q22 0 30.5 7t8.5 19t-3 26.5t-4 19.5q-2 6 -3 11.5t-2 10.5l40 10q2 -10 6.5 -29t5.5 -29t1 -21q0 -30 -18.5 -52.5t-61.5 -22.5q-14 0 -29.5 5.5t-26.5 17.5q-20 -23 -59 -23q-30 0 -55 20.5t-25 61.5
v50h40zM8 472l212 69v-50l-212 -68v49zM8 561l212 69v-50l-212 -68v49z" />
    <glyph glyph-name="uni0651064E" 
d="M19 581v-50q0 -32 40 -32t40 32v50h40v-50q0 -17 9 -24.5t26 -7.5q22 0 30.5 7t8.5 19t-3 26.5t-4 19.5q-2 6 -3 11.5t-2 10.5l40 10q2 -10 6.5 -29t5.5 -29t1 -21q0 -30 -18.5 -52.5t-61.5 -22.5q-14 0 -29.5 5.5t-26.5 17.5q-20 -23 -59 -23q-30 0 -55 20.5t-25 61.5
v50h40zM11 671l212 69v-50l-212 -68v49z" />
    <glyph glyph-name="uni0651064F" 
d="M17 581v-50q0 -32 40 -32t40 32v50h40v-50q0 -17 9 -24.5t26 -7.5q22 0 30.5 7t8.5 19t-3 26.5t-4 19.5q-2 6 -3 11.5t-2 10.5l40 10q2 -10 6.5 -29t5.5 -29t1 -21q0 -30 -18.5 -52.5t-61.5 -22.5q-14 0 -29.5 5.5t-26.5 17.5q-20 -23 -59 -23q-30 0 -55 20.5t-25 61.5
v50h40zM63 673q-13 14 -22 40q-5 18 -5 33q0 31 18 55.5t49 35.5q18 7 38 7q30 0 54 -17.5t34 -49.5q5 -17 5 -29q0 -32 -21.5 -58t-58.5 -38l-147 -48l-12 48zM104 686l43 13q22 7 34.5 20t12.5 29q0 9 -2 14q-5 16 -17.5 24.5t-29.5 8.5q-13 0 -30 -6q-19 -7 -28.5 -19
t-9.5 -26q0 -10 2 -15q8 -27 25 -43z" />
    <glyph glyph-name="uni06510650" 
d="M5 494l212 69v-50l-212 -68v49zM-27 713h40v-50q0 -32 40 -32t40 32v50h40v-50q0 -17 9 -24.5t26 -7.5q22 0 30.5 7t8.5 19t-3 26.5t-4 19.5q-2 6 -3 11.5t-2 10.5l40 10q2 -10 6.5 -29t5.5 -29t1 -21q0 -30 -18.5 -52.5t-61.5 -22.5q-14 0 -29.5 5.5t-26.5 17.5
q-20 -23 -59 -23q-30 0 -55 20.5t-25 61.5v50z" />
    <glyph glyph-name="uni06510670" 
d="M14 578v-50q0 -32 40 -32t40 32v50h40v-50q0 -17 9 -24.5t26 -7.5q22 0 30.5 7t8.5 19t-3 26.5t-4 19.5q-2 6 -3 11.5t-2 10.5l40 10q2 -10 6.5 -29t5.5 -29t1 -21q0 -30 -18.5 -52.5t-61.5 -22.5q-14 0 -29.5 5.5t-26.5 17.5q-20 -23 -59 -23q-30 0 -55 20.5t-25 61.5
v50h40zM90 773h40v-153h-40v153z" />
    <glyph glyph-name="uni0653.001" 
d="M-12 618q41 35 110 35h195v-75h-195q-41 0 -64 -19.5t-34 -53.5l-65 21q12 57 53 92z" />
    <glyph glyph-name="sareya-ar" 
d="M-16 529l50 -10q15 -3 26 -3q26 0 37 13t12 37l-104 28q-9 24 -9 46q0 49 33 84.5t80 36.5q29 0 48 -6l-10 -48q-18 4 -38 4q-32 -2 -54 -24t-19 -51l74 -21q39 -12 39 -53q0 -44 -27 -69.5t-70 -25.5q-14 0 -29 3l-49 10z" />
    </font>
</defs>
</svg>
